ISO-10303-21;
HEADER;
FILE_DESCRIPTION(('FreeCAD Model'),'2;1');
FILE_NAME('Open CASCADE Shape Model','2026-07-09T19:38:10',(''),(''),
  'Open CASCADE STEP processor 7.8','FreeCAD','Unknown');
FILE_SCHEMA(('AUTOMOTIVE_DESIGN { 1 0 10303 214 1 1 1 1 }'));
ENDSEC;
DATA;
#1 = APPLICATION_PROTOCOL_DEFINITION('international standard',
  'automotive_design',2000,#2);
#2 = APPLICATION_CONTEXT(
  'core data for automotive mechanical design processes');
#3 = SHAPE_DEFINITION_REPRESENTATION(#4,#10);
#4 = PRODUCT_DEFINITION_SHAPE('','',#5);
#5 = PRODUCT_DEFINITION('design','',#6,#9);
#6 = PRODUCT_DEFINITION_FORMATION('','',#7);
#7 = PRODUCT('MountingClip','MountingClip','',(#8));
#8 = PRODUCT_CONTEXT('',#2,'mechanical');
#9 = PRODUCT_DEFINITION_CONTEXT('part definition',#2,'design');
#10 = ADVANCED_BREP_SHAPE_REPRESENTATION('',(#11,#15),#1977);
#11 = AXIS2_PLACEMENT_3D('',#12,#13,#14);
#12 = CARTESIAN_POINT('',(0.,0.,0.));
#13 = DIRECTION('',(0.,0.,1.));
#14 = DIRECTION('',(1.,0.,-0.));
#15 = MANIFOLD_SOLID_BREP('',#16);
#16 = CLOSED_SHELL('',(#17,#84,#115,#139,#163,#363,#563,#780,#805,#949,
    #998,#1022,#1039,#1076,#1093,#1110,#1127,#1144,#1161,#1178,#1195,
    #1212,#1229,#1268,#1285,#1302,#1319,#1336,#1353,#1365,#1382,#1407,
    #1432,#1452,#1469,#1500,#1524,#1548,#1572,#1596,#1620,#1646,#1670,
    #1694,#1718,#1742,#1766,#1790,#1807,#1819,#1844,#1869,#1894,#1919,
    #1931,#1943,#1965));
#17 = ADVANCED_FACE('',(#18,#68),#79,.F.);
#18 = FACE_BOUND('',#19,.F.);
#19 = EDGE_LOOP('',(#20,#30,#38,#46,#54,#62));
#20 = ORIENTED_EDGE('',*,*,#21,.F.);
#21 = EDGE_CURVE('',#22,#24,#26,.T.);
#22 = VERTEX_POINT('',#23);
#23 = CARTESIAN_POINT('',(2.,-6.75,59.2389));
#24 = VERTEX_POINT('',#25);
#25 = CARTESIAN_POINT('',(2.,5.25,59.2389));
#26 = LINE('',#27,#28);
#27 = CARTESIAN_POINT('',(2.,-100.,59.2389));
#28 = VECTOR('',#29,1.);
#29 = DIRECTION('',(0.,1.,-2.22044604925E-16));
#30 = ORIENTED_EDGE('',*,*,#31,.F.);
#31 = EDGE_CURVE('',#32,#22,#34,.T.);
#32 = VERTEX_POINT('',#33);
#33 = CARTESIAN_POINT('',(2.,-8.25,57.7389));
#34 = LINE('',#35,#36);
#35 = CARTESIAN_POINT('',(2.,-36.47875,29.51015));
#36 = VECTOR('',#37,1.);
#37 = DIRECTION('',(0.,0.707106781187,0.707106781187));
#38 = ORIENTED_EDGE('',*,*,#39,.F.);
#39 = EDGE_CURVE('',#40,#32,#42,.T.);
#40 = VERTEX_POINT('',#41);
#41 = CARTESIAN_POINT('',(2.,-8.25,52.121985669658));
#42 = LINE('',#43,#44);
#43 = CARTESIAN_POINT('',(2.,-8.25,33.122023367933));
#44 = VECTOR('',#45,1.);
#45 = DIRECTION('',(0.,1.731038915847E-16,1.));
#46 = ORIENTED_EDGE('',*,*,#47,.F.);
#47 = EDGE_CURVE('',#48,#40,#50,.T.);
#48 = VERTEX_POINT('',#49);
#49 = CARTESIAN_POINT('',(2.,6.75,52.121985669658));
#50 = LINE('',#51,#52);
#51 = CARTESIAN_POINT('',(2.,6.75,52.121985669658));
#52 = VECTOR('',#53,1.);
#53 = DIRECTION('',(0.,-1.,2.22044604925E-16));
#54 = ORIENTED_EDGE('',*,*,#55,.F.);
#55 = EDGE_CURVE('',#56,#48,#58,.T.);
#56 = VERTEX_POINT('',#57);
#57 = CARTESIAN_POINT('',(2.,6.75,57.7389));
#58 = LINE('',#59,#60);
#59 = CARTESIAN_POINT('',(2.,6.75,33.122023367933));
#60 = VECTOR('',#61,1.);
#61 = DIRECTION('',(0.,-1.861765088E-16,-1.));
#62 = ORIENTED_EDGE('',*,*,#63,.T.);
#63 = EDGE_CURVE('',#56,#24,#64,.T.);
#64 = LINE('',#65,#66);
#65 = CARTESIAN_POINT('',(2.,-14.64625,79.13515));
#66 = VECTOR('',#67,1.);
#67 = DIRECTION('',(0.,-0.707106781187,0.707106781187));
#68 = FACE_BOUND('',#69,.F.);
#69 = EDGE_LOOP('',(#70));
#70 = ORIENTED_EDGE('',*,*,#71,.F.);
#71 = EDGE_CURVE('',#72,#72,#74,.T.);
#72 = VERTEX_POINT('',#73);
#73 = CARTESIAN_POINT('',(2.,0.35,55.850848196042));
#74 = CIRCLE('',#75,1.1);
#75 = AXIS2_PLACEMENT_3D('',#76,#77,#78);
#76 = CARTESIAN_POINT('',(2.,-0.75,55.850848196042));
#77 = DIRECTION('',(1.,0.,0.));
#78 = DIRECTION('',(0.,1.,0.));
#79 = PLANE('',#80);
#80 = AXIS2_PLACEMENT_3D('',#81,#82,#83);
#81 = CARTESIAN_POINT('',(2.,-100.,35.0739));
#82 = DIRECTION('',(1.,0.,0.));
#83 = DIRECTION('',(0.,2.22044604925E-16,1.));
#84 = ADVANCED_FACE('',(#85),#110,.F.);
#85 = FACE_BOUND('',#86,.F.);
#86 = EDGE_LOOP('',(#87,#97,#103,#104));
#87 = ORIENTED_EDGE('',*,*,#88,.F.);
#88 = EDGE_CURVE('',#89,#91,#93,.T.);
#89 = VERTEX_POINT('',#90);
#90 = CARTESIAN_POINT('',(7.,-6.75,59.2389));
#91 = VERTEX_POINT('',#92);
#92 = CARTESIAN_POINT('',(7.,5.25,59.2389));
#93 = LINE('',#94,#95);
#94 = CARTESIAN_POINT('',(7.,-8.25,59.2389));
#95 = VECTOR('',#96,1.);
#96 = DIRECTION('',(0.,1.,-2.22044604925E-16));
#97 = ORIENTED_EDGE('',*,*,#98,.F.);
#98 = EDGE_CURVE('',#22,#89,#99,.T.);
#99 = LINE('',#100,#101);
#100 = CARTESIAN_POINT('',(2.,-6.75,59.2389));
#101 = VECTOR('',#102,1.);
#102 = DIRECTION('',(1.,0.,0.));
#103 = ORIENTED_EDGE('',*,*,#21,.T.);
#104 = ORIENTED_EDGE('',*,*,#105,.T.);
#105 = EDGE_CURVE('',#24,#91,#106,.T.);
#106 = LINE('',#107,#108);
#107 = CARTESIAN_POINT('',(2.,5.25,59.2389));
#108 = VECTOR('',#109,1.);
#109 = DIRECTION('',(1.,0.,0.));
#110 = PLANE('',#111);
#111 = AXIS2_PLACEMENT_3D('',#112,#113,#114);
#112 = CARTESIAN_POINT('',(-7.,-8.25,59.2389));
#113 = DIRECTION('',(0.,-2.22044604925E-16,-1.));
#114 = DIRECTION('',(1.,0.,0.));
#115 = ADVANCED_FACE('',(#116),#134,.F.);
#116 = FACE_BOUND('',#117,.T.);
#117 = EDGE_LOOP('',(#118,#119,#127,#133));
#118 = ORIENTED_EDGE('',*,*,#31,.F.);
#119 = ORIENTED_EDGE('',*,*,#120,.T.);
#120 = EDGE_CURVE('',#32,#121,#123,.T.);
#121 = VERTEX_POINT('',#122);
#122 = CARTESIAN_POINT('',(7.,-8.25,57.7389));
#123 = LINE('',#124,#125);
#124 = CARTESIAN_POINT('',(2.,-8.25,57.7389));
#125 = VECTOR('',#126,1.);
#126 = DIRECTION('',(1.,0.,0.));
#127 = ORIENTED_EDGE('',*,*,#128,.T.);
#128 = EDGE_CURVE('',#121,#89,#129,.T.);
#129 = LINE('',#130,#131);
#130 = CARTESIAN_POINT('',(7.,-7.5,58.4889));
#131 = VECTOR('',#132,1.);
#132 = DIRECTION('',(0.,0.707106781187,0.707106781187));
#133 = ORIENTED_EDGE('',*,*,#98,.F.);
#134 = PLANE('',#135);
#135 = AXIS2_PLACEMENT_3D('',#136,#137,#138);
#136 = CARTESIAN_POINT('',(2.,-7.5,58.4889));
#137 = DIRECTION('',(0.,0.707106781187,-0.707106781187));
#138 = DIRECTION('',(-1.,-0.,-0.));
#139 = ADVANCED_FACE('',(#140),#158,.F.);
#140 = FACE_BOUND('',#141,.F.);
#141 = EDGE_LOOP('',(#142,#143,#151,#157));
#142 = ORIENTED_EDGE('',*,*,#63,.F.);
#143 = ORIENTED_EDGE('',*,*,#144,.T.);
#144 = EDGE_CURVE('',#56,#145,#147,.T.);
#145 = VERTEX_POINT('',#146);
#146 = CARTESIAN_POINT('',(7.,6.75,57.7389));
#147 = LINE('',#148,#149);
#148 = CARTESIAN_POINT('',(2.,6.75,57.7389));
#149 = VECTOR('',#150,1.);
#150 = DIRECTION('',(1.,0.,0.));
#151 = ORIENTED_EDGE('',*,*,#152,.T.);
#152 = EDGE_CURVE('',#145,#91,#153,.T.);
#153 = LINE('',#154,#155);
#154 = CARTESIAN_POINT('',(7.,2.25,62.2389));
#155 = VECTOR('',#156,1.);
#156 = DIRECTION('',(0.,-0.707106781187,0.707106781187));
#157 = ORIENTED_EDGE('',*,*,#105,.F.);
#158 = PLANE('',#159);
#159 = AXIS2_PLACEMENT_3D('',#160,#161,#162);
#160 = CARTESIAN_POINT('',(2.,6.,58.4889));
#161 = DIRECTION('',(-1.418660210158E-17,-0.707106781187,-0.707106781187
    ));
#162 = DIRECTION('',(1.,-1.003144254802E-17,-1.003144254802E-17));
#163 = ADVANCED_FACE('',(#164),#358,.T.);
#164 = FACE_BOUND('',#165,.T.);
#165 = EDGE_LOOP('',(#166,#176,#185,#193,#202,#210,#218,#226,#234,#243,
    #251,#260,#268,#276,#284,#292,#301,#309,#318,#324,#325,#326,#335,
    #344,#352));
#166 = ORIENTED_EDGE('',*,*,#167,.F.);
#167 = EDGE_CURVE('',#168,#170,#172,.T.);
#168 = VERTEX_POINT('',#169);
#169 = CARTESIAN_POINT('',(-7.,-8.25,53.450848196042));
#170 = VERTEX_POINT('',#171);
#171 = CARTESIAN_POINT('',(-7.,-8.25,57.7389));
#172 = LINE('',#173,#174);
#173 = CARTESIAN_POINT('',(-7.,-8.25,53.450848196042));
#174 = VECTOR('',#175,1.);
#175 = DIRECTION('',(0.,2.22044604925E-16,1.));
#176 = ORIENTED_EDGE('',*,*,#177,.T.);
#177 = EDGE_CURVE('',#168,#178,#180,.T.);
#178 = VERTEX_POINT('',#179);
#179 = CARTESIAN_POINT('',(-15.4562514146,-8.25,22.915918374396));
#180 = CIRCLE('',#181,19.665);
#181 = AXIS2_PLACEMENT_3D('',#182,#183,#184);
#182 = CARTESIAN_POINT('',(1.229565962486E-26,-8.25,35.0739));
#183 = DIRECTION('',(0.,-1.,2.22044604925E-16));
#184 = DIRECTION('',(1.,0.,0.));
#185 = ORIENTED_EDGE('',*,*,#186,.F.);
#186 = EDGE_CURVE('',#187,#178,#189,.T.);
#187 = VERTEX_POINT('',#188);
#188 = CARTESIAN_POINT('',(-15.4562514146,-8.25,16.423871960498));
#189 = LINE('',#190,#191);
#190 = CARTESIAN_POINT('',(-15.4562514146,-8.25,16.423871960498));
#191 = VECTOR('',#192,1.);
#192 = DIRECTION('',(0.,2.22044604925E-16,1.));
#193 = ORIENTED_EDGE('',*,*,#194,.F.);
#194 = EDGE_CURVE('',#195,#187,#197,.T.);
#195 = VERTEX_POINT('',#196);
#196 = CARTESIAN_POINT('',(-17.4562514146,-8.25,14.423871960498));
#197 = CIRCLE('',#198,2.);
#198 = AXIS2_PLACEMENT_3D('',#199,#200,#201);
#199 = CARTESIAN_POINT('',(-15.4562514146,-8.25,14.423871960498));
#200 = DIRECTION('',(0.,1.,-2.22044604925E-16));
#201 = DIRECTION('',(-1.,0.,0.));
#202 = ORIENTED_EDGE('',*,*,#203,.F.);
#203 = EDGE_CURVE('',#204,#195,#206,.T.);
#204 = VERTEX_POINT('',#205);
#205 = CARTESIAN_POINT('',(-17.4562514146,-8.25,11.673871960498));
#206 = LINE('',#207,#208);
#207 = CARTESIAN_POINT('',(-17.4562514146,-8.25,11.673871960498));
#208 = VECTOR('',#209,1.);
#209 = DIRECTION('',(0.,2.22044604925E-16,1.));
#210 = ORIENTED_EDGE('',*,*,#211,.F.);
#211 = EDGE_CURVE('',#212,#204,#214,.T.);
#212 = VERTEX_POINT('',#213);
#213 = CARTESIAN_POINT('',(-12.38536593926,-8.25,11.673871960498));
#214 = LINE('',#215,#216);
#215 = CARTESIAN_POINT('',(-12.38536593926,-8.25,11.673871960498));
#216 = VECTOR('',#217,1.);
#217 = DIRECTION('',(-1.,0.,0.));
#218 = ORIENTED_EDGE('',*,*,#219,.F.);
#219 = EDGE_CURVE('',#220,#212,#222,.T.);
#220 = VERTEX_POINT('',#221);
#221 = CARTESIAN_POINT('',(-12.38536593926,-8.25,13.673871960498));
#222 = LINE('',#223,#224);
#223 = CARTESIAN_POINT('',(-12.38536593926,-8.25,13.673871960498));
#224 = VECTOR('',#225,1.);
#225 = DIRECTION('',(0.,-2.22044604925E-16,-1.));
#226 = ORIENTED_EDGE('',*,*,#227,.F.);
#227 = EDGE_CURVE('',#228,#220,#230,.T.);
#228 = VERTEX_POINT('',#229);
#229 = CARTESIAN_POINT('',(-16.06969898933,-8.25,13.673871960498));
#230 = LINE('',#231,#232);
#231 = CARTESIAN_POINT('',(-16.06969898933,-8.25,13.673871960498));
#232 = VECTOR('',#233,1.);
#233 = DIRECTION('',(1.,0.,0.));
#234 = ORIENTED_EDGE('',*,*,#235,.T.);
#235 = EDGE_CURVE('',#228,#236,#238,.T.);
#236 = VERTEX_POINT('',#237);
#237 = CARTESIAN_POINT('',(-14.66163734807,-8.25,15.173871960498));
#238 = CIRCLE('',#239,21.1);
#239 = AXIS2_PLACEMENT_3D('',#240,#241,#242);
#240 = CARTESIAN_POINT('',(0.,-8.25,1.7763568394E-15));
#241 = DIRECTION('',(0.,1.,-2.22044604925E-16));
#242 = DIRECTION('',(-1.,0.,0.));
#243 = ORIENTED_EDGE('',*,*,#244,.F.);
#244 = EDGE_CURVE('',#245,#236,#247,.T.);
#245 = VERTEX_POINT('',#246);
#246 = CARTESIAN_POINT('',(14.661637348073,-8.25,15.173871960498));
#247 = LINE('',#248,#249);
#248 = CARTESIAN_POINT('',(0.,-8.25,15.173871960498));
#249 = VECTOR('',#250,1.);
#250 = DIRECTION('',(-1.,0.,0.));
#251 = ORIENTED_EDGE('',*,*,#252,.F.);
#252 = EDGE_CURVE('',#253,#245,#255,.T.);
#253 = VERTEX_POINT('',#254);
#254 = CARTESIAN_POINT('',(16.069698989337,-8.25,13.673871960498));
#255 = CIRCLE('',#256,21.1);
#256 = AXIS2_PLACEMENT_3D('',#257,#258,#259);
#257 = CARTESIAN_POINT('',(0.,-8.25,1.7763568394E-15));
#258 = DIRECTION('',(0.,-1.,2.22044604925E-16));
#259 = DIRECTION('',(1.,0.,0.));
#260 = ORIENTED_EDGE('',*,*,#261,.T.);
#261 = EDGE_CURVE('',#253,#262,#264,.T.);
#262 = VERTEX_POINT('',#263);
#263 = CARTESIAN_POINT('',(12.385365939265,-8.25,13.673871960498));
#264 = LINE('',#265,#266);
#265 = CARTESIAN_POINT('',(16.069698989337,-8.25,13.673871960498));
#266 = VECTOR('',#267,1.);
#267 = DIRECTION('',(-1.,0.,0.));
#268 = ORIENTED_EDGE('',*,*,#269,.T.);
#269 = EDGE_CURVE('',#262,#270,#272,.T.);
#270 = VERTEX_POINT('',#271);
#271 = CARTESIAN_POINT('',(12.385365939265,-8.25,11.673871960498));
#272 = LINE('',#273,#274);
#273 = CARTESIAN_POINT('',(12.385365939265,-8.25,13.673871960498));
#274 = VECTOR('',#275,1.);
#275 = DIRECTION('',(0.,-2.22044604925E-16,-1.));
#276 = ORIENTED_EDGE('',*,*,#277,.T.);
#277 = EDGE_CURVE('',#270,#278,#280,.T.);
#278 = VERTEX_POINT('',#279);
#279 = CARTESIAN_POINT('',(17.456251414605,-8.25,11.673871960498));
#280 = LINE('',#281,#282);
#281 = CARTESIAN_POINT('',(12.385365939265,-8.25,11.673871960498));
#282 = VECTOR('',#283,1.);
#283 = DIRECTION('',(1.,0.,0.));
#284 = ORIENTED_EDGE('',*,*,#285,.T.);
#285 = EDGE_CURVE('',#278,#286,#288,.T.);
#286 = VERTEX_POINT('',#287);
#287 = CARTESIAN_POINT('',(17.456251414605,-8.25,14.423871960498));
#288 = LINE('',#289,#290);
#289 = CARTESIAN_POINT('',(17.456251414605,-8.25,11.673871960498));
#290 = VECTOR('',#291,1.);
#291 = DIRECTION('',(0.,2.22044604925E-16,1.));
#292 = ORIENTED_EDGE('',*,*,#293,.T.);
#293 = EDGE_CURVE('',#286,#294,#296,.T.);
#294 = VERTEX_POINT('',#295);
#295 = CARTESIAN_POINT('',(15.456251414605,-8.25,16.423871960498));
#296 = CIRCLE('',#297,2.);
#297 = AXIS2_PLACEMENT_3D('',#298,#299,#300);
#298 = CARTESIAN_POINT('',(15.456251414605,-8.25,14.423871960498));
#299 = DIRECTION('',(0.,-1.,2.22044604925E-16));
#300 = DIRECTION('',(1.,0.,0.));
#301 = ORIENTED_EDGE('',*,*,#302,.T.);
#302 = EDGE_CURVE('',#294,#303,#305,.T.);
#303 = VERTEX_POINT('',#304);
#304 = CARTESIAN_POINT('',(15.456251414605,-8.25,22.915918374396));
#305 = LINE('',#306,#307);
#306 = CARTESIAN_POINT('',(15.456251414605,-8.25,16.423871960498));
#307 = VECTOR('',#308,1.);
#308 = DIRECTION('',(0.,2.22044604925E-16,1.));
#309 = ORIENTED_EDGE('',*,*,#310,.T.);
#310 = EDGE_CURVE('',#303,#311,#313,.T.);
#311 = VERTEX_POINT('',#312);
#312 = CARTESIAN_POINT('',(7.,-8.25,53.450848196042));
#313 = CIRCLE('',#314,19.665);
#314 = AXIS2_PLACEMENT_3D('',#315,#316,#317);
#315 = CARTESIAN_POINT('',(1.229565962486E-26,-8.25,35.0739));
#316 = DIRECTION('',(0.,-1.,2.22044604925E-16));
#317 = DIRECTION('',(1.,0.,0.));
#318 = ORIENTED_EDGE('',*,*,#319,.F.);
#319 = EDGE_CURVE('',#121,#311,#320,.T.);
#320 = LINE('',#321,#322);
#321 = CARTESIAN_POINT('',(7.,-8.25,59.2389));
#322 = VECTOR('',#323,1.);
#323 = DIRECTION('',(0.,-2.22044604925E-16,-1.));
#324 = ORIENTED_EDGE('',*,*,#120,.F.);
#325 = ORIENTED_EDGE('',*,*,#39,.F.);
#326 = ORIENTED_EDGE('',*,*,#327,.F.);
#327 = EDGE_CURVE('',#328,#40,#330,.T.);
#328 = VERTEX_POINT('',#329);
#329 = CARTESIAN_POINT('',(17.165,-8.25,35.0739));
#330 = CIRCLE('',#331,17.165);
#331 = AXIS2_PLACEMENT_3D('',#332,#333,#334);
#332 = CARTESIAN_POINT('',(0.,-8.25,35.0739));
#333 = DIRECTION('',(0.,-1.,2.22044604925E-16));
#334 = DIRECTION('',(1.,0.,0.));
#335 = ORIENTED_EDGE('',*,*,#336,.F.);
#336 = EDGE_CURVE('',#337,#328,#339,.T.);
#337 = VERTEX_POINT('',#338);
#338 = CARTESIAN_POINT('',(-2.,-8.25,52.121985669658));
#339 = CIRCLE('',#340,17.165);
#340 = AXIS2_PLACEMENT_3D('',#341,#342,#343);
#341 = CARTESIAN_POINT('',(0.,-8.25,35.0739));
#342 = DIRECTION('',(0.,-1.,2.22044604925E-16));
#343 = DIRECTION('',(1.,0.,0.));
#344 = ORIENTED_EDGE('',*,*,#345,.F.);
#345 = EDGE_CURVE('',#346,#337,#348,.T.);
#346 = VERTEX_POINT('',#347);
#347 = CARTESIAN_POINT('',(-2.,-8.25,57.7389));
#348 = LINE('',#349,#350);
#349 = CARTESIAN_POINT('',(-2.,-8.25,45.204523367933));
#350 = VECTOR('',#351,1.);
#351 = DIRECTION('',(0.,-1.731038915847E-16,-1.));
#352 = ORIENTED_EDGE('',*,*,#353,.F.);
#353 = EDGE_CURVE('',#170,#346,#354,.T.);
#354 = LINE('',#355,#356);
#355 = CARTESIAN_POINT('',(-7.,-8.25,57.7389));
#356 = VECTOR('',#357,1.);
#357 = DIRECTION('',(1.,0.,0.));
#358 = PLANE('',#359);
#359 = AXIS2_PLACEMENT_3D('',#360,#361,#362);
#360 = CARTESIAN_POINT('',(-7.147004352659E-16,-8.25,31.170146735865));
#361 = DIRECTION('',(0.,-1.,1.731038915847E-16));
#362 = DIRECTION('',(0.,1.731038915847E-16,1.));
#363 = ADVANCED_FACE('',(#364),#558,.T.);
#364 = FACE_BOUND('',#365,.T.);
#365 = EDGE_LOOP('',(#366,#374,#383,#391,#400,#408,#416,#424,#432,#441,
    #449,#458,#466,#474,#482,#490,#499,#507,#516,#524,#532,#540,#549,
    #556,#557));
#366 = ORIENTED_EDGE('',*,*,#367,.T.);
#367 = EDGE_CURVE('',#145,#368,#370,.T.);
#368 = VERTEX_POINT('',#369);
#369 = CARTESIAN_POINT('',(7.,6.75,53.450848196042));
#370 = LINE('',#371,#372);
#371 = CARTESIAN_POINT('',(7.,6.75,59.2389));
#372 = VECTOR('',#373,1.);
#373 = DIRECTION('',(0.,-2.22044604925E-16,-1.));
#374 = ORIENTED_EDGE('',*,*,#375,.F.);
#375 = EDGE_CURVE('',#376,#368,#378,.T.);
#376 = VERTEX_POINT('',#377);
#377 = CARTESIAN_POINT('',(15.456251414605,6.75,22.915918374396));
#378 = CIRCLE('',#379,19.665);
#379 = AXIS2_PLACEMENT_3D('',#380,#381,#382);
#380 = CARTESIAN_POINT('',(1.229565962486E-26,6.75,35.0739));
#381 = DIRECTION('',(0.,-1.,2.22044604925E-16));
#382 = DIRECTION('',(1.,0.,0.));
#383 = ORIENTED_EDGE('',*,*,#384,.F.);
#384 = EDGE_CURVE('',#385,#376,#387,.T.);
#385 = VERTEX_POINT('',#386);
#386 = CARTESIAN_POINT('',(15.456251414605,6.75,16.423871960498));
#387 = LINE('',#388,#389);
#388 = CARTESIAN_POINT('',(15.456251414605,6.75,16.423871960498));
#389 = VECTOR('',#390,1.);
#390 = DIRECTION('',(0.,2.22044604925E-16,1.));
#391 = ORIENTED_EDGE('',*,*,#392,.F.);
#392 = EDGE_CURVE('',#393,#385,#395,.T.);
#393 = VERTEX_POINT('',#394);
#394 = CARTESIAN_POINT('',(17.456251414605,6.75,14.423871960498));
#395 = CIRCLE('',#396,2.);
#396 = AXIS2_PLACEMENT_3D('',#397,#398,#399);
#397 = CARTESIAN_POINT('',(15.456251414605,6.75,14.423871960498));
#398 = DIRECTION('',(0.,-1.,2.22044604925E-16));
#399 = DIRECTION('',(1.,0.,0.));
#400 = ORIENTED_EDGE('',*,*,#401,.F.);
#401 = EDGE_CURVE('',#402,#393,#404,.T.);
#402 = VERTEX_POINT('',#403);
#403 = CARTESIAN_POINT('',(17.456251414605,6.75,11.673871960498));
#404 = LINE('',#405,#406);
#405 = CARTESIAN_POINT('',(17.456251414605,6.75,11.673871960498));
#406 = VECTOR('',#407,1.);
#407 = DIRECTION('',(0.,2.22044604925E-16,1.));
#408 = ORIENTED_EDGE('',*,*,#409,.F.);
#409 = EDGE_CURVE('',#410,#402,#412,.T.);
#410 = VERTEX_POINT('',#411);
#411 = CARTESIAN_POINT('',(12.385365939265,6.75,11.673871960498));
#412 = LINE('',#413,#414);
#413 = CARTESIAN_POINT('',(12.385365939265,6.75,11.673871960498));
#414 = VECTOR('',#415,1.);
#415 = DIRECTION('',(1.,0.,0.));
#416 = ORIENTED_EDGE('',*,*,#417,.F.);
#417 = EDGE_CURVE('',#418,#410,#420,.T.);
#418 = VERTEX_POINT('',#419);
#419 = CARTESIAN_POINT('',(12.385365939265,6.75,13.673871960498));
#420 = LINE('',#421,#422);
#421 = CARTESIAN_POINT('',(12.385365939265,6.75,13.673871960498));
#422 = VECTOR('',#423,1.);
#423 = DIRECTION('',(0.,-2.22044604925E-16,-1.));
#424 = ORIENTED_EDGE('',*,*,#425,.F.);
#425 = EDGE_CURVE('',#426,#418,#428,.T.);
#426 = VERTEX_POINT('',#427);
#427 = CARTESIAN_POINT('',(16.069698989337,6.75,13.673871960498));
#428 = LINE('',#429,#430);
#429 = CARTESIAN_POINT('',(16.069698989337,6.75,13.673871960498));
#430 = VECTOR('',#431,1.);
#431 = DIRECTION('',(-1.,0.,0.));
#432 = ORIENTED_EDGE('',*,*,#433,.T.);
#433 = EDGE_CURVE('',#426,#434,#436,.T.);
#434 = VERTEX_POINT('',#435);
#435 = CARTESIAN_POINT('',(14.661637348073,6.75,15.173871960498));
#436 = CIRCLE('',#437,21.1);
#437 = AXIS2_PLACEMENT_3D('',#438,#439,#440);
#438 = CARTESIAN_POINT('',(0.,6.75,-8.881784197001E-16));
#439 = DIRECTION('',(0.,-1.,2.22044604925E-16));
#440 = DIRECTION('',(1.,0.,0.));
#441 = ORIENTED_EDGE('',*,*,#442,.F.);
#442 = EDGE_CURVE('',#443,#434,#445,.T.);
#443 = VERTEX_POINT('',#444);
#444 = CARTESIAN_POINT('',(-14.66163734807,6.75,15.173871960498));
#445 = LINE('',#446,#447);
#446 = CARTESIAN_POINT('',(0.,6.75,15.173871960498));
#447 = VECTOR('',#448,1.);
#448 = DIRECTION('',(1.,0.,0.));
#449 = ORIENTED_EDGE('',*,*,#450,.F.);
#450 = EDGE_CURVE('',#451,#443,#453,.T.);
#451 = VERTEX_POINT('',#452);
#452 = CARTESIAN_POINT('',(-16.06969898933,6.75,13.673871960498));
#453 = CIRCLE('',#454,21.1);
#454 = AXIS2_PLACEMENT_3D('',#455,#456,#457);
#455 = CARTESIAN_POINT('',(0.,6.75,-8.881784197001E-16));
#456 = DIRECTION('',(0.,1.,-2.22044604925E-16));
#457 = DIRECTION('',(-1.,0.,0.));
#458 = ORIENTED_EDGE('',*,*,#459,.T.);
#459 = EDGE_CURVE('',#451,#460,#462,.T.);
#460 = VERTEX_POINT('',#461);
#461 = CARTESIAN_POINT('',(-12.38536593926,6.75,13.673871960498));
#462 = LINE('',#463,#464);
#463 = CARTESIAN_POINT('',(-16.06969898933,6.75,13.673871960498));
#464 = VECTOR('',#465,1.);
#465 = DIRECTION('',(1.,0.,0.));
#466 = ORIENTED_EDGE('',*,*,#467,.T.);
#467 = EDGE_CURVE('',#460,#468,#470,.T.);
#468 = VERTEX_POINT('',#469);
#469 = CARTESIAN_POINT('',(-12.38536593926,6.75,11.673871960498));
#470 = LINE('',#471,#472);
#471 = CARTESIAN_POINT('',(-12.38536593926,6.75,13.673871960498));
#472 = VECTOR('',#473,1.);
#473 = DIRECTION('',(0.,-2.22044604925E-16,-1.));
#474 = ORIENTED_EDGE('',*,*,#475,.T.);
#475 = EDGE_CURVE('',#468,#476,#478,.T.);
#476 = VERTEX_POINT('',#477);
#477 = CARTESIAN_POINT('',(-17.4562514146,6.75,11.673871960498));
#478 = LINE('',#479,#480);
#479 = CARTESIAN_POINT('',(-12.38536593926,6.75,11.673871960498));
#480 = VECTOR('',#481,1.);
#481 = DIRECTION('',(-1.,0.,0.));
#482 = ORIENTED_EDGE('',*,*,#483,.T.);
#483 = EDGE_CURVE('',#476,#484,#486,.T.);
#484 = VERTEX_POINT('',#485);
#485 = CARTESIAN_POINT('',(-17.4562514146,6.75,14.423871960498));
#486 = LINE('',#487,#488);
#487 = CARTESIAN_POINT('',(-17.4562514146,6.75,11.673871960498));
#488 = VECTOR('',#489,1.);
#489 = DIRECTION('',(0.,2.22044604925E-16,1.));
#490 = ORIENTED_EDGE('',*,*,#491,.T.);
#491 = EDGE_CURVE('',#484,#492,#494,.T.);
#492 = VERTEX_POINT('',#493);
#493 = CARTESIAN_POINT('',(-15.4562514146,6.75,16.423871960498));
#494 = CIRCLE('',#495,2.);
#495 = AXIS2_PLACEMENT_3D('',#496,#497,#498);
#496 = CARTESIAN_POINT('',(-15.4562514146,6.75,14.423871960498));
#497 = DIRECTION('',(0.,1.,-2.22044604925E-16));
#498 = DIRECTION('',(-1.,0.,0.));
#499 = ORIENTED_EDGE('',*,*,#500,.T.);
#500 = EDGE_CURVE('',#492,#501,#503,.T.);
#501 = VERTEX_POINT('',#502);
#502 = CARTESIAN_POINT('',(-15.4562514146,6.75,22.915918374396));
#503 = LINE('',#504,#505);
#504 = CARTESIAN_POINT('',(-15.4562514146,6.75,16.423871960498));
#505 = VECTOR('',#506,1.);
#506 = DIRECTION('',(0.,2.22044604925E-16,1.));
#507 = ORIENTED_EDGE('',*,*,#508,.F.);
#508 = EDGE_CURVE('',#509,#501,#511,.T.);
#509 = VERTEX_POINT('',#510);
#510 = CARTESIAN_POINT('',(-7.,6.75,53.450848196042));
#511 = CIRCLE('',#512,19.665);
#512 = AXIS2_PLACEMENT_3D('',#513,#514,#515);
#513 = CARTESIAN_POINT('',(1.229565962486E-26,6.75,35.0739));
#514 = DIRECTION('',(0.,-1.,2.22044604925E-16));
#515 = DIRECTION('',(1.,0.,0.));
#516 = ORIENTED_EDGE('',*,*,#517,.T.);
#517 = EDGE_CURVE('',#509,#518,#520,.T.);
#518 = VERTEX_POINT('',#519);
#519 = CARTESIAN_POINT('',(-7.,6.75,57.7389));
#520 = LINE('',#521,#522);
#521 = CARTESIAN_POINT('',(-7.,6.75,53.450848196042));
#522 = VECTOR('',#523,1.);
#523 = DIRECTION('',(0.,2.22044604925E-16,1.));
#524 = ORIENTED_EDGE('',*,*,#525,.T.);
#525 = EDGE_CURVE('',#518,#526,#528,.T.);
#526 = VERTEX_POINT('',#527);
#527 = CARTESIAN_POINT('',(-2.,6.75,57.7389));
#528 = LINE('',#529,#530);
#529 = CARTESIAN_POINT('',(-7.,6.75,57.7389));
#530 = VECTOR('',#531,1.);
#531 = DIRECTION('',(1.,0.,0.));
#532 = ORIENTED_EDGE('',*,*,#533,.F.);
#533 = EDGE_CURVE('',#534,#526,#536,.T.);
#534 = VERTEX_POINT('',#535);
#535 = CARTESIAN_POINT('',(-2.,6.75,52.121985669658));
#536 = LINE('',#537,#538);
#537 = CARTESIAN_POINT('',(-2.,6.75,45.204523367933));
#538 = VECTOR('',#539,1.);
#539 = DIRECTION('',(0.,1.861765088E-16,1.));
#540 = ORIENTED_EDGE('',*,*,#541,.T.);
#541 = EDGE_CURVE('',#534,#542,#544,.T.);
#542 = VERTEX_POINT('',#543);
#543 = CARTESIAN_POINT('',(17.165,6.75,35.0739));
#544 = CIRCLE('',#545,17.165);
#545 = AXIS2_PLACEMENT_3D('',#546,#547,#548);
#546 = CARTESIAN_POINT('',(0.,6.75,35.0739));
#547 = DIRECTION('',(0.,-1.,2.22044604925E-16));
#548 = DIRECTION('',(1.,0.,0.));
#549 = ORIENTED_EDGE('',*,*,#550,.T.);
#550 = EDGE_CURVE('',#542,#48,#551,.T.);
#551 = CIRCLE('',#552,17.165);
#552 = AXIS2_PLACEMENT_3D('',#553,#554,#555);
#553 = CARTESIAN_POINT('',(0.,6.75,35.0739));
#554 = DIRECTION('',(0.,-1.,2.22044604925E-16));
#555 = DIRECTION('',(1.,0.,0.));
#556 = ORIENTED_EDGE('',*,*,#55,.F.);
#557 = ORIENTED_EDGE('',*,*,#144,.T.);
#558 = PLANE('',#559);
#559 = AXIS2_PLACEMENT_3D('',#560,#561,#562);
#560 = CARTESIAN_POINT('',(-3.998324113376E-16,6.75,31.170146735865));
#561 = DIRECTION('',(0.,1.,-1.861765088E-16));
#562 = DIRECTION('',(0.,-1.861765088E-16,-1.));
#563 = ADVANCED_FACE('',(#564,#577,#676),#775,.F.);
#564 = FACE_BOUND('',#565,.F.);
#565 = EDGE_LOOP('',(#566,#567,#568,#569,#575,#576));
#566 = ORIENTED_EDGE('',*,*,#47,.T.);
#567 = ORIENTED_EDGE('',*,*,#327,.F.);
#568 = ORIENTED_EDGE('',*,*,#336,.F.);
#569 = ORIENTED_EDGE('',*,*,#570,.F.);
#570 = EDGE_CURVE('',#534,#337,#571,.T.);
#571 = LINE('',#572,#573);
#572 = CARTESIAN_POINT('',(-2.,6.75,52.121985669658));
#573 = VECTOR('',#574,1.);
#574 = DIRECTION('',(0.,-1.,2.22044604925E-16));
#575 = ORIENTED_EDGE('',*,*,#541,.T.);
#576 = ORIENTED_EDGE('',*,*,#550,.T.);
#577 = FACE_BOUND('',#578,.F.);
#578 = EDGE_LOOP('',(#579));
#579 = ORIENTED_EDGE('',*,*,#580,.T.);
#580 = EDGE_CURVE('',#581,#581,#583,.T.);
#581 = VERTEX_POINT('',#582);
#582 = CARTESIAN_POINT('',(11.551828008649,-5.35,22.377739373315));
#583 = B_SPLINE_CURVE_WITH_KNOTS('',6,(#584,#585,#586,#587,#588,#589,
    #590,#591,#592,#593,#594,#595,#596,#597,#598,#599,#600,#601,#602,
    #603,#604,#605,#606,#607,#608,#609,#610,#611,#612,#613,#614,#615,
    #616,#617,#618,#619,#620,#621,#622,#623,#624,#625,#626,#627,#628,
    #629,#630,#631,#632,#633,#634,#635,#636,#637,#638,#639,#640,#641,
    #642,#643,#644,#645,#646,#647,#648,#649,#650,#651,#652,#653,#654,
    #655,#656,#657,#658,#659,#660,#661,#662,#663,#664,#665,#666,#667,
    #668,#669,#670,#671,#672,#673,#674,#675),.UNSPECIFIED.,.T.,.F.,(7,5,
    5,5,5,5,5,5,5,5,5,5,5,5,5,5,5,5,7),(0.,7.184775611188E-02,
    0.154440880071,0.214384091912,0.269224564126,0.318508430985,
    0.354830377655,0.400141238424,0.431062133576,0.500040970303,
    0.54882616254,0.599878865032,0.64465603783,0.681344609038,
    0.730868013694,0.785556222222,0.844903869644,0.901534420477,1.),
  .UNSPECIFIED.);
#584 = CARTESIAN_POINT('',(11.551828008649,-5.35,22.377739373315));
#585 = CARTESIAN_POINT('',(11.551828008649,-5.19317095399,
    22.377739373315));
#586 = CARTESIAN_POINT('',(11.537773664245,-5.036633267543,
    22.364951858818));
#587 = CARTESIAN_POINT('',(11.509761961844,-4.882142405332,
    22.339464527067));
#588 = CARTESIAN_POINT('',(11.468236756021,-4.731447585167,
    22.301896322003));
#589 = CARTESIAN_POINT('',(11.413989488965,-4.586237176749,
    22.253379696091));
#590 = CARTESIAN_POINT('',(11.272729208362,-4.289218932237,
    22.128903302509));
#591 = CARTESIAN_POINT('',(11.181955171843,-4.139515760675,
    22.049859256685));
#592 = CARTESIAN_POINT('',(11.077206694399,-4.000091287451,
    21.960138236386));
#593 = CARTESIAN_POINT('',(10.959645211358,-3.872050353605,
    21.861547439995));
#594 = CARTESIAN_POINT('',(10.830449143927,-3.75648582241,
    21.755851244483));
#595 = CARTESIAN_POINT('',(10.589580679042,-3.580463439956,
    21.564097259861));
#596 = CARTESIAN_POINT('',(10.482697114892,-3.513495022798,
    21.480505826116));
#597 = CARTESIAN_POINT('',(10.370636024446,-3.454000467062,
    21.394560134163));
#598 = CARTESIAN_POINT('',(10.253828530029,-3.402424071346,
    21.306841239469));
#599 = CARTESIAN_POINT('',(10.132739539428,-3.359240131633,
    21.21791092668));
#600 = CARTESIAN_POINT('',(9.893649214598,-3.293588919212,
    21.046330752591));
#601 = CARTESIAN_POINT('',(9.776203150523,-3.269655401001,
    20.963748001503));
#602 = CARTESIAN_POINT('',(9.656144004913,-3.25361659383,20.881126141448
    ));
#603 = CARTESIAN_POINT('',(9.534123042814,-3.245866473123,20.79900550294
    ));
#604 = CARTESIAN_POINT('',(9.410843564403,-3.246731928902,
    20.717893898572));
#605 = CARTESIAN_POINT('',(9.175825986457,-3.26522821342,20.566697038589
    ));
#606 = CARTESIAN_POINT('',(9.064205446961,-3.281149915941,
    20.496340943327));
#607 = CARTESIAN_POINT('',(8.952981520172,-3.304401861009,
    20.427681320124));
#608 = CARTESIAN_POINT('',(8.842934690138,-3.335011320946,
    20.361138376401));
#609 = CARTESIAN_POINT('',(8.734834158477,-3.372869859815,
    20.297067921674));
#610 = CARTESIAN_POINT('',(8.551739549768,-3.450797775587,
    20.190585451105));
#611 = CARTESIAN_POINT('',(8.475549085048,-3.487652611898,
    20.146928446872));
#612 = CARTESIAN_POINT('',(8.401158406447,-3.528189448104,
    20.104915239457));
#613 = CARTESIAN_POINT('',(8.328856009393,-3.572259113331,
    20.064644016836));
#614 = CARTESIAN_POINT('',(8.258910065134,-3.619671956538,
    20.026192448382));
#615 = CARTESIAN_POINT('',(8.107551415729,-3.733228102267,
    19.943996673794));
#616 = CARTESIAN_POINT('',(8.027614734866,-3.801080560153,
    19.901313941709));
#617 = CARTESIAN_POINT('',(7.952121701094,-3.873375671936,19.86162910032
    ));
#618 = CARTESIAN_POINT('',(7.88139342791,-3.949687742349,19.824969485596
    ));
#619 = CARTESIAN_POINT('',(7.815696363607,-4.029545761261,
    19.791337759021));
#620 = CARTESIAN_POINT('',(7.713973738931,-4.168998521526,
    19.739821181222));
#621 = CARTESIAN_POINT('',(7.675138201559,-4.226991699414,
    19.720320962867));
#622 = CARTESIAN_POINT('',(7.638770403741,-4.286285190652,
    19.702199974737));
#623 = CARTESIAN_POINT('',(7.604905990775,-4.346749691529,
    19.685441596443));
#624 = CARTESIAN_POINT('',(7.573573400867,-4.408255050704,
    19.670029137692));
#625 = CARTESIAN_POINT('',(7.48059200787,-4.609907155654,19.624528584499
    ));
#626 = CARTESIAN_POINT('',(7.429118067838,-4.753622336046,19.59973739365
    ));
#627 = CARTESIAN_POINT('',(7.390470977518,-4.900611061715,
    19.581321377063));
#628 = CARTESIAN_POINT('',(7.364703117209,-5.049735413453,
    19.569107968306));
#629 = CARTESIAN_POINT('',(7.351828008649,-5.199895390578,
    19.563005443875));
#630 = CARTESIAN_POINT('',(7.351828008649,-5.456161289081,
    19.563005443875));
#631 = CARTESIAN_POINT('',(7.35826800308,-5.562330404962,19.566057853838
    ));
#632 = CARTESIAN_POINT('',(7.371150397068,-5.668133898772,
    19.572163851552));
#633 = CARTESIAN_POINT('',(7.390472855496,-5.773191836193,
    19.581346815002));
#634 = CARTESIAN_POINT('',(7.416227843494,-5.877116590159,19.59365242777
    ));
#635 = CARTESIAN_POINT('',(7.482071936141,-6.08666594509,19.625365403654
    ));
#636 = CARTESIAN_POINT('',(7.522782768525,-6.192179958431,
    19.645081690191));
#637 = CARTESIAN_POINT('',(7.570499311006,-6.295502946814,19.6683658466)
  );
#638 = CARTESIAN_POINT('',(7.625140840783,-6.39608177708,19.695294966939
    ));
#639 = CARTESIAN_POINT('',(7.686583454134,-6.493360754955,
    19.725952807165));
#640 = CARTESIAN_POINT('',(7.814372634689,-6.668718670723,
    19.790664579015));
#641 = CARTESIAN_POINT('',(7.879195626155,-6.747698066396,
    19.823841678036));
#642 = CARTESIAN_POINT('',(7.948935399463,-6.823223048878,
    19.859975304863));
#643 = CARTESIAN_POINT('',(8.023336448416,-6.89483917966,19.899063534945
    ));
#644 = CARTESIAN_POINT('',(8.10209118163,-6.962134842867,19.941081111555
    ));
#645 = CARTESIAN_POINT('',(8.252654643309,-7.076039540346,20.02275827613
    ));
#646 = CARTESIAN_POINT('',(8.323130611957,-7.124176167618,
    20.061463132289));
#647 = CARTESIAN_POINT('',(8.396025858079,-7.168912845169,
    20.102028754564));
#648 = CARTESIAN_POINT('',(8.471064975916,-7.210052583758,
    20.144375976184));
#649 = CARTESIAN_POINT('',(8.547951259017,-7.247440467622,
    20.188404308704));
#650 = CARTESIAN_POINT('',(8.732225043267,-7.326214623369,
    20.295521805917));
#651 = CARTESIAN_POINT('',(8.840809841022,-7.36439658155,20.359853724095
    ));
#652 = CARTESIAN_POINT('',(8.951370387905,-7.395260730616,
    20.426686869321));
#653 = CARTESIAN_POINT('',(9.063126909519,-7.41869601023,20.495661170149
    ));
#654 = CARTESIAN_POINT('',(9.175288065343,-7.434729451271,
    20.566350970929));
#655 = CARTESIAN_POINT('',(9.410496870544,-7.4532407857,20.717670855584)
  );
#656 = CARTESIAN_POINT('',(9.533433090449,-7.454128661547,
    20.798551555563));
#657 = CARTESIAN_POINT('',(9.65512020488,-7.446448275948,20.880437152035
    ));
#658 = CARTESIAN_POINT('',(9.774860237859,-7.430523584657,
    20.962823927889));
#659 = CARTESIAN_POINT('',(9.892006654159,-7.40674507325,21.045175937117
    ));
#660 = CARTESIAN_POINT('',(10.129625125849,-7.341740015331,
    21.215650335934));
#661 = CARTESIAN_POINT('',(10.249600439486,-7.299181003026,
    21.303717101026));
#662 = CARTESIAN_POINT('',(10.365389616048,-7.248385312369,
    21.390607932019));
#663 = CARTESIAN_POINT('',(10.476539652516,-7.189814003895,
    21.475777224903));
#664 = CARTESIAN_POINT('',(10.582630613046,-7.123899615874,
    21.558661021147));
#665 = CARTESIAN_POINT('',(10.779290040236,-6.981532417042,
    21.715038423645));
#666 = CARTESIAN_POINT('',(10.870393474332,-6.905666396412,
    21.788825267046));
#667 = CARTESIAN_POINT('',(10.956215591226,-6.823791444672,
    21.85953323854));
#668 = CARTESIAN_POINT('',(11.036401495091,-6.736238343218,
    21.926628768725));
#669 = CARTESIAN_POINT('',(11.110590099273,-6.643329442938,
    21.989558288699));
#670 = CARTESIAN_POINT('',(11.296314909909,-6.375073435742,
    22.148938264764));
#671 = CARTESIAN_POINT('',(11.39569107857,-6.188464434608,
    22.236441098148));
#672 = CARTESIAN_POINT('',(11.472799658312,-5.988717628919,
    22.305831173898));
#673 = CARTESIAN_POINT('',(11.525304049736,-5.779719959277,
    22.353606841027));
#674 = CARTESIAN_POINT('',(11.551828008649,-5.565443073421,
    22.377739373315));
#675 = CARTESIAN_POINT('',(11.551828008649,-5.35,22.377739373315));
#676 = FACE_BOUND('',#677,.F.);
#677 = EDGE_LOOP('',(#678));
#678 = ORIENTED_EDGE('',*,*,#679,.T.);
#679 = EDGE_CURVE('',#680,#680,#682,.T.);
#680 = VERTEX_POINT('',#681);
#681 = CARTESIAN_POINT('',(-7.351828008649,-5.35,19.563005443875));
#682 = B_SPLINE_CURVE_WITH_KNOTS('',6,(#683,#684,#685,#686,#687,#688,
    #689,#690,#691,#692,#693,#694,#695,#696,#697,#698,#699,#700,#701,
    #702,#703,#704,#705,#706,#707,#708,#709,#710,#711,#712,#713,#714,
    #715,#716,#717,#718,#719,#720,#721,#722,#723,#724,#725,#726,#727,
    #728,#729,#730,#731,#732,#733,#734,#735,#736,#737,#738,#739,#740,
    #741,#742,#743,#744,#745,#746,#747,#748,#749,#750,#751,#752,#753,
    #754,#755,#756,#757,#758,#759,#760,#761,#762,#763,#764,#765,#766,
    #767,#768,#769,#770,#771,#772,#773,#774),.UNSPECIFIED.,.T.,.F.,(7,5,
    5,5,5,5,5,5,5,5,5,5,5,5,5,5,5,5,7),(0.,9.987292515429E-02,
    0.14462501653,0.181293037053,0.230788701739,0.285446277292,
    0.344760681812,0.401359511692,0.452817708475,0.500001848823,
    0.547410436169,0.598604072165,0.654493748466,0.714402903472,
    0.769212217982,0.818468084132,0.854769394428,0.900054511757,1.),
  .UNSPECIFIED.);
#683 = CARTESIAN_POINT('',(-7.351828008649,-5.35,19.563005443875));
#684 = CARTESIAN_POINT('',(-7.351828008649,-5.132892377858,
    19.563005443875));
#685 = CARTESIAN_POINT('',(-7.378763090789,-4.915397655101,
    19.575772074281));
#686 = CARTESIAN_POINT('',(-7.432810894343,-4.701024338925,
    19.60138964738));
#687 = CARTESIAN_POINT('',(-7.513848411502,-4.493344559154,
    19.640228999128));
#688 = CARTESIAN_POINT('',(-7.621407024494,-4.296077199099,
    19.692947804499));
#689 = CARTESIAN_POINT('',(-7.814372634689,-4.031281329277,
    19.790664579015));
#690 = CARTESIAN_POINT('',(-7.879195626155,-3.952301933604,
    19.823841678036));
#691 = CARTESIAN_POINT('',(-7.948935399463,-3.876776951122,
    19.859975304863));
#692 = CARTESIAN_POINT('',(-8.023336448415,-3.80516082034,
    19.899063534945));
#693 = CARTESIAN_POINT('',(-8.10209118163,-3.737865157133,
    19.941081111555));
#694 = CARTESIAN_POINT('',(-8.252654643309,-3.623960459654,
    20.02275827613));
#695 = CARTESIAN_POINT('',(-8.323130611957,-3.575823832382,
    20.061463132289));
#696 = CARTESIAN_POINT('',(-8.396025858079,-3.531087154831,
    20.102028754564));
#697 = CARTESIAN_POINT('',(-8.471064975916,-3.489947416242,
    20.144375976184));
#698 = CARTESIAN_POINT('',(-8.547951259017,-3.452559532378,
    20.188404308704));
#699 = CARTESIAN_POINT('',(-8.732225043267,-3.373785376631,
    20.295521805917));
#700 = CARTESIAN_POINT('',(-8.840809841022,-3.33560341845,
    20.359853724095));
#701 = CARTESIAN_POINT('',(-8.951370387905,-3.304739269384,
    20.426686869321));
#702 = CARTESIAN_POINT('',(-9.063126909519,-3.28130398977,
    20.495661170149));
#703 = CARTESIAN_POINT('',(-9.175288065343,-3.265270548729,
    20.566350970929));
#704 = CARTESIAN_POINT('',(-9.410496870549,-3.2467592143,20.717670855587
    ));
#705 = CARTESIAN_POINT('',(-9.533433090448,-3.245871338454,
    20.798551555562));
#706 = CARTESIAN_POINT('',(-9.655120204875,-3.253551724051,
    20.880437152031));
#707 = CARTESIAN_POINT('',(-9.774860237858,-3.269476415342,
    20.962823927888));
#708 = CARTESIAN_POINT('',(-9.892006654163,-3.293254926751,
    21.045175937121));
#709 = CARTESIAN_POINT('',(-10.12962512584,-3.358259984669,
    21.215650335934));
#710 = CARTESIAN_POINT('',(-10.24960043948,-3.400818996974,
    21.303717101026));
#711 = CARTESIAN_POINT('',(-10.36538961604,-3.451614687631,
    21.390607932019));
#712 = CARTESIAN_POINT('',(-10.47653965251,-3.510185996105,
    21.475777224903));
#713 = CARTESIAN_POINT('',(-10.58263061304,-3.576100384127,
    21.558661021147));
#714 = CARTESIAN_POINT('',(-10.77929004023,-3.718467582958,
    21.715038423645));
#715 = CARTESIAN_POINT('',(-10.87039347433,-3.794333603588,
    21.788825267046));
#716 = CARTESIAN_POINT('',(-10.95621559122,-3.876208555328,
    21.85953323854));
#717 = CARTESIAN_POINT('',(-11.03640149509,-3.963761656782,
    21.926628768725));
#718 = CARTESIAN_POINT('',(-11.11059009927,-4.056670557062,
    21.989558288699));
#719 = CARTESIAN_POINT('',(-11.24005895459,-4.243671949428,
    22.100662147102));
#720 = CARTESIAN_POINT('',(-11.29647317006,-4.336932591899,
    22.149682202191));
#721 = CARTESIAN_POINT('',(-11.34725346159,-4.434025427915,
    22.194292665479));
#722 = CARTESIAN_POINT('',(-11.39205862464,-4.534553542663,
    22.23401119891));
#723 = CARTESIAN_POINT('',(-11.43058633696,-4.638100197849,
    22.268402504258));
#724 = CARTESIAN_POINT('',(-11.49187777942,-4.841544845626,
    22.323389365322));
#725 = CARTESIAN_POINT('',(-11.51567974652,-4.941014544925,
    22.344888981253));
#726 = CARTESIAN_POINT('',(-11.53370527018,-5.042125026966,
    22.361249565042));
#727 = CARTESIAN_POINT('',(-11.54578373496,-5.144350479942,
    22.372240163184));
#728 = CARTESIAN_POINT('',(-11.55182800864,-5.247155965049,
    22.377739373315));
#729 = CARTESIAN_POINT('',(-11.55182800864,-5.45333324668,
    22.377739373315));
#730 = CARTESIAN_POINT('',(-11.54572608904,-5.556627018887,
    22.37218772062));
#731 = CARTESIAN_POINT('',(-11.53353262084,-5.659332396904,
    22.36109246312));
#732 = CARTESIAN_POINT('',(-11.51533633602,-5.760907153079,
    22.344577287358));
#733 = CARTESIAN_POINT('',(-11.4913109381,-5.860818398715,22.32287737711
    ));
#734 = CARTESIAN_POINT('',(-11.42977011675,-6.064074464286,
    22.26767407482));
#735 = CARTESIAN_POINT('',(-11.3913365292,-6.167038422557,
    22.233371491503));
#736 = CARTESIAN_POINT('',(-11.34669387891,-6.26700912038,
    22.193801933787));
#737 = CARTESIAN_POINT('',(-11.2961401198,-6.363576811087,22.14939432961
    ));
#738 = CARTESIAN_POINT('',(-11.24001114202,-6.456351143437,
    22.100623488847));
#739 = CARTESIAN_POINT('',(-11.11175151618,-6.641701879518,
    21.990552381981));
#740 = CARTESIAN_POINT('',(-11.03859204874,-6.733528434199,
    21.928484446876));
#741 = CARTESIAN_POINT('',(-10.95957874592,-6.820137347293,
    21.862345534972));
#742 = CARTESIAN_POINT('',(-10.87505977703,-6.901217964039,
    21.792669147926));
#743 = CARTESIAN_POINT('',(-10.78537736928,-6.976451827428,
    21.719969866715));
#744 = CARTESIAN_POINT('',(-10.58958067904,-7.119536560044,
    21.564097259861));
#745 = CARTESIAN_POINT('',(-10.48269711489,-7.186504977202,
    21.480505826116));
#746 = CARTESIAN_POINT('',(-10.37063602444,-7.245999532938,
    21.394560134163));
#747 = CARTESIAN_POINT('',(-10.25382853002,-7.297575928654,
    21.306841239469));
#748 = CARTESIAN_POINT('',(-10.13273953942,-7.340759868367,
    21.21791092668));
#749 = CARTESIAN_POINT('',(-9.893649214598,-7.406411080788,
    21.046330752591));
#750 = CARTESIAN_POINT('',(-9.776203150523,-7.430344598999,
    20.963748001503));
#751 = CARTESIAN_POINT('',(-9.656144004913,-7.44638340617,
    20.881126141448));
#752 = CARTESIAN_POINT('',(-9.534123042814,-7.454133526877,
    20.79900550294));
#753 = CARTESIAN_POINT('',(-9.410843564403,-7.453268071098,
    20.717893898572));
#754 = CARTESIAN_POINT('',(-9.175825986457,-7.43477178658,
    20.566697038589));
#755 = CARTESIAN_POINT('',(-9.064205446961,-7.418850084059,
    20.496340943327));
#756 = CARTESIAN_POINT('',(-8.952981520172,-7.395598138991,
    20.427681320124));
#757 = CARTESIAN_POINT('',(-8.842934690138,-7.364988679054,
    20.361138376401));
#758 = CARTESIAN_POINT('',(-8.734834158477,-7.327130140185,
    20.297067921674));
#759 = CARTESIAN_POINT('',(-8.551739549768,-7.249202224413,
    20.190585451105));
#760 = CARTESIAN_POINT('',(-8.475549085048,-7.212347388102,
    20.146928446872));
#761 = CARTESIAN_POINT('',(-8.401158406447,-7.171810551896,
    20.104915239457));
#762 = CARTESIAN_POINT('',(-8.328856009393,-7.127740886669,
    20.064644016836));
#763 = CARTESIAN_POINT('',(-8.258910065134,-7.080328043462,
    20.026192448382));
#764 = CARTESIAN_POINT('',(-8.10755141573,-6.966771897733,
    19.943996673794));
#765 = CARTESIAN_POINT('',(-8.027614734866,-6.898919439847,
    19.901313941709));
#766 = CARTESIAN_POINT('',(-7.952121701094,-6.826624328064,
    19.86162910032));
#767 = CARTESIAN_POINT('',(-7.88139342791,-6.750312257651,
    19.824969485596));
#768 = CARTESIAN_POINT('',(-7.815696363607,-6.670454238739,
    19.791337759021));
#769 = CARTESIAN_POINT('',(-7.621792439782,-6.404629035253,
    19.693136728433));
#770 = CARTESIAN_POINT('',(-7.5140808395,-6.207250732873,19.640340393184
    ));
#771 = CARTESIAN_POINT('',(-7.432927045598,-5.99943647803,
    19.601444700665));
#772 = CARTESIAN_POINT('',(-7.378801584445,-5.784913688027,
    19.575790319436));
#773 = CARTESIAN_POINT('',(-7.351828008649,-5.567262698793,
    19.563005443875));
#774 = CARTESIAN_POINT('',(-7.351828008649,-5.35,19.563005443875));
#775 = CYLINDRICAL_SURFACE('',#776,17.165);
#776 = AXIS2_PLACEMENT_3D('',#777,#778,#779);
#777 = CARTESIAN_POINT('',(0.,6.75,35.0739));
#778 = DIRECTION('',(0.,-1.,2.22044604925E-16));
#779 = DIRECTION('',(1.,0.,0.));
#780 = ADVANCED_FACE('',(#781),#800,.F.);
#781 = FACE_BOUND('',#782,.F.);
#782 = EDGE_LOOP('',(#783,#792,#798,#799));
#783 = ORIENTED_EDGE('',*,*,#784,.F.);
#784 = EDGE_CURVE('',#785,#785,#787,.T.);
#785 = VERTEX_POINT('',#786);
#786 = CARTESIAN_POINT('',(3.,0.35,55.850848196042));
#787 = CIRCLE('',#788,1.1);
#788 = AXIS2_PLACEMENT_3D('',#789,#790,#791);
#789 = CARTESIAN_POINT('',(3.,-0.75,55.850848196042));
#790 = DIRECTION('',(1.,0.,0.));
#791 = DIRECTION('',(0.,1.,0.));
#792 = ORIENTED_EDGE('',*,*,#793,.T.);
#793 = EDGE_CURVE('',#785,#72,#794,.T.);
#794 = LINE('',#795,#796);
#795 = CARTESIAN_POINT('',(50.,0.35,55.850848196042));
#796 = VECTOR('',#797,1.);
#797 = DIRECTION('',(-1.,0.,0.));
#798 = ORIENTED_EDGE('',*,*,#71,.T.);
#799 = ORIENTED_EDGE('',*,*,#793,.F.);
#800 = CYLINDRICAL_SURFACE('',#801,1.1);
#801 = AXIS2_PLACEMENT_3D('',#802,#803,#804);
#802 = CARTESIAN_POINT('',(50.,-0.75,55.850848196042));
#803 = DIRECTION('',(1.,0.,0.));
#804 = DIRECTION('',(0.,1.,0.));
#805 = ADVANCED_FACE('',(#806,#819,#830),#944,.F.);
#806 = FACE_BOUND('',#807,.F.);
#807 = EDGE_LOOP('',(#808,#809,#810,#811,#817,#818));
#808 = ORIENTED_EDGE('',*,*,#88,.T.);
#809 = ORIENTED_EDGE('',*,*,#152,.F.);
#810 = ORIENTED_EDGE('',*,*,#367,.T.);
#811 = ORIENTED_EDGE('',*,*,#812,.F.);
#812 = EDGE_CURVE('',#311,#368,#813,.T.);
#813 = LINE('',#814,#815);
#814 = CARTESIAN_POINT('',(7.,-8.25,53.450848196042));
#815 = VECTOR('',#816,1.);
#816 = DIRECTION('',(0.,1.,-2.22044604925E-16));
#817 = ORIENTED_EDGE('',*,*,#319,.F.);
#818 = ORIENTED_EDGE('',*,*,#128,.T.);
#819 = FACE_BOUND('',#820,.F.);
#820 = EDGE_LOOP('',(#821));
#821 = ORIENTED_EDGE('',*,*,#822,.T.);
#822 = EDGE_CURVE('',#823,#823,#825,.T.);
#823 = VERTEX_POINT('',#824);
#824 = CARTESIAN_POINT('',(7.,0.85,55.850848196042));
#825 = CIRCLE('',#826,1.6);
#826 = AXIS2_PLACEMENT_3D('',#827,#828,#829);
#827 = CARTESIAN_POINT('',(7.,-0.75,55.850848196042));
#828 = DIRECTION('',(1.,0.,0.));
#829 = DIRECTION('',(0.,1.,0.));
#830 = FACE_BOUND('',#831,.F.);
#831 = EDGE_LOOP('',(#832,#842,#850,#858,#866,#874,#882,#890,#898,#906,
    #914,#922,#930,#938));
#832 = ORIENTED_EDGE('',*,*,#833,.F.);
#833 = EDGE_CURVE('',#834,#836,#838,.T.);
#834 = VERTEX_POINT('',#835);
#835 = CARTESIAN_POINT('',(7.,-3.938628135695,57.26));
#836 = VERTEX_POINT('',#837);
#837 = CARTESIAN_POINT('',(7.,-4.180985935422,57.26));
#838 = LINE('',#839,#840);
#839 = CARTESIAN_POINT('',(7.,-3.938628135695,57.26));
#840 = VECTOR('',#841,1.);
#841 = DIRECTION('',(0.,-1.,2.22044604925E-16));
#842 = ORIENTED_EDGE('',*,*,#843,.F.);
#843 = EDGE_CURVE('',#844,#834,#846,.T.);
#844 = VERTEX_POINT('',#845);
#845 = CARTESIAN_POINT('',(7.,-4.218345438147,58.033501362398));
#846 = LINE('',#847,#848);
#847 = CARTESIAN_POINT('',(7.,-4.218345438147,58.033501362398));
#848 = VECTOR('',#849,1.);
#849 = DIRECTION('',(2.088106293716E-16,0.340071804005,-0.940399472629)
  );
#850 = ORIENTED_EDGE('',*,*,#851,.F.);
#851 = EDGE_CURVE('',#852,#844,#854,.T.);
#852 = VERTEX_POINT('',#853);
#853 = CARTESIAN_POINT('',(7.,-3.955870983106,58.751378576294));
#854 = LINE('',#855,#856);
#855 = CARTESIAN_POINT('',(7.,-3.955870983106,58.751378576294));
#856 = VECTOR('',#857,1.);
#857 = DIRECTION('',(2.085424886455E-16,-0.343392812274,-0.939191874155)
  );
#858 = ORIENTED_EDGE('',*,*,#859,.F.);
#859 = EDGE_CURVE('',#860,#852,#862,.T.);
#860 = VERTEX_POINT('',#861);
#861 = CARTESIAN_POINT('',(7.,-3.955870983106,58.76));
#862 = LINE('',#863,#864);
#863 = CARTESIAN_POINT('',(7.,-3.955870983106,58.76));
#864 = VECTOR('',#865,1.);
#865 = DIRECTION('',(2.22044604925E-16,-2.22044604925E-16,-1.));
#866 = ORIENTED_EDGE('',*,*,#867,.F.);
#867 = EDGE_CURVE('',#868,#860,#870,.T.);
#868 = VERTEX_POINT('',#869);
#869 = CARTESIAN_POINT('',(7.,-4.193439102997,58.76));
#870 = LINE('',#871,#872);
#871 = CARTESIAN_POINT('',(7.,-4.193439102997,58.76));
#872 = VECTOR('',#873,1.);
#873 = DIRECTION('',(0.,1.,-2.22044604925E-16));
#874 = ORIENTED_EDGE('',*,*,#875,.F.);
#875 = EDGE_CURVE('',#876,#868,#878,.T.);
#876 = VERTEX_POINT('',#877);
#877 = CARTESIAN_POINT('',(7.,-4.343835049864,58.271197207084));
#878 = LINE('',#879,#880);
#879 = CARTESIAN_POINT('',(7.,-4.343835049864,58.271197207084));
#880 = VECTOR('',#881,1.);
#881 = DIRECTION('',(-2.122261718916E-16,0.294077073931,0.955781708649)
  );
#882 = ORIENTED_EDGE('',*,*,#883,.F.);
#883 = EDGE_CURVE('',#884,#876,#886,.T.);
#884 = VERTEX_POINT('',#885);
#885 = CARTESIAN_POINT('',(7.,-4.493273060763,58.76));
#886 = LINE('',#887,#888);
#887 = CARTESIAN_POINT('',(7.,-4.493273060763,58.76));
#888 = VECTOR('',#889,1.);
#889 = DIRECTION('',(2.123427975717E-16,0.292364547819,-0.956306944019)
  );
#890 = ORIENTED_EDGE('',*,*,#891,.F.);
#891 = EDGE_CURVE('',#892,#884,#894,.T.);
#892 = VERTEX_POINT('',#893);
#893 = CARTESIAN_POINT('',(7.,-4.732757052589,58.76));
#894 = LINE('',#895,#896);
#895 = CARTESIAN_POINT('',(7.,-4.732757052589,58.76));
#896 = VECTOR('',#897,1.);
#897 = DIRECTION('',(0.,1.,-2.22044604925E-16));
#898 = ORIENTED_EDGE('',*,*,#899,.F.);
#899 = EDGE_CURVE('',#900,#892,#902,.T.);
#900 = VERTEX_POINT('',#901);
#901 = CARTESIAN_POINT('',(7.,-4.470282597548,58.027753746594));
#902 = B_SPLINE_CURVE_WITH_KNOTS('',2,(#903,#904,#905),.UNSPECIFIED.,.F.
  ,.F.,(3,3),(0.,1.),.PIECEWISE_BEZIER_KNOTS.);
#903 = CARTESIAN_POINT('',(7.,-4.470282597548,58.027753746594));
#904 = CARTESIAN_POINT('',(7.,-4.733714988556,58.756168256131));
#905 = CARTESIAN_POINT('',(7.,-4.732757052589,58.76));
#906 = ORIENTED_EDGE('',*,*,#907,.F.);
#907 = EDGE_CURVE('',#908,#900,#910,.T.);
#908 = VERTEX_POINT('',#909);
#909 = CARTESIAN_POINT('',(7.,-4.7499999,57.267663487738));
#910 = LINE('',#911,#912);
#911 = CARTESIAN_POINT('',(7.,-4.7499999,57.267663487738));
#912 = VECTOR('',#913,1.);
#913 = DIRECTION('',(-2.083821111595E-16,0.345361858509,0.938469598169)
  );
#914 = ORIENTED_EDGE('',*,*,#915,.F.);
#915 = EDGE_CURVE('',#916,#908,#918,.T.);
#916 = VERTEX_POINT('',#917);
#917 = CARTESIAN_POINT('',(7.,-4.7499999,57.26));
#918 = LINE('',#919,#920);
#919 = CARTESIAN_POINT('',(7.,-4.7499999,57.26));
#920 = VECTOR('',#921,1.);
#921 = DIRECTION('',(-2.22044604925E-16,2.22044604925E-16,1.));
#922 = ORIENTED_EDGE('',*,*,#923,.F.);
#923 = EDGE_CURVE('',#924,#916,#926,.T.);
#924 = VERTEX_POINT('',#925);
#925 = CARTESIAN_POINT('',(7.,-4.511473844142,57.26));
#926 = LINE('',#927,#928);
#927 = CARTESIAN_POINT('',(7.,-4.511473844142,57.26));
#928 = VECTOR('',#929,1.);
#929 = DIRECTION('',(0.,-1.,2.22044604925E-16));
#930 = ORIENTED_EDGE('',*,*,#931,.F.);
#931 = EDGE_CURVE('',#932,#924,#934,.T.);
#932 = VERTEX_POINT('',#933);
#933 = CARTESIAN_POINT('',(7.,-4.345750921798,57.788142029973));
#934 = LINE('',#935,#936);
#935 = CARTESIAN_POINT('',(7.,-4.345750921798,57.788142029973));
#936 = VECTOR('',#937,1.);
#937 = DIRECTION('',(2.118594928924E-16,-0.299391561641,-0.954130333245)
  );
#938 = ORIENTED_EDGE('',*,*,#939,.F.);
#939 = EDGE_CURVE('',#836,#932,#940,.T.);
#940 = LINE('',#941,#942);
#941 = CARTESIAN_POINT('',(7.,-4.180985935422,57.26));
#942 = VECTOR('',#943,1.);
#943 = DIRECTION('',(-2.119690298423E-16,-0.29781487316,0.954623643812)
  );
#944 = PLANE('',#945);
#945 = AXIS2_PLACEMENT_3D('',#946,#947,#948);
#946 = CARTESIAN_POINT('',(7.,-8.25,59.2389));
#947 = DIRECTION('',(-1.,0.,0.));
#948 = DIRECTION('',(0.,-2.22044604925E-16,-1.));
#949 = ADVANCED_FACE('',(#950,#982),#993,.F.);
#950 = FACE_BOUND('',#951,.F.);
#951 = EDGE_LOOP('',(#952,#953,#959,#960,#968,#976));
#952 = ORIENTED_EDGE('',*,*,#167,.F.);
#953 = ORIENTED_EDGE('',*,*,#954,.T.);
#954 = EDGE_CURVE('',#168,#509,#955,.T.);
#955 = LINE('',#956,#957);
#956 = CARTESIAN_POINT('',(-7.,-8.25,53.450848196042));
#957 = VECTOR('',#958,1.);
#958 = DIRECTION('',(0.,1.,-2.22044604925E-16));
#959 = ORIENTED_EDGE('',*,*,#517,.T.);
#960 = ORIENTED_EDGE('',*,*,#961,.T.);
#961 = EDGE_CURVE('',#518,#962,#964,.T.);
#962 = VERTEX_POINT('',#963);
#963 = CARTESIAN_POINT('',(-7.,5.25,59.2389));
#964 = LINE('',#965,#966);
#965 = CARTESIAN_POINT('',(-7.,3.69701295099,60.79188704901));
#966 = VECTOR('',#967,1.);
#967 = DIRECTION('',(0.,-0.707106781187,0.707106781187));
#968 = ORIENTED_EDGE('',*,*,#969,.F.);
#969 = EDGE_CURVE('',#970,#962,#972,.T.);
#970 = VERTEX_POINT('',#971);
#971 = CARTESIAN_POINT('',(-7.,-6.75,59.2389));
#972 = LINE('',#973,#974);
#973 = CARTESIAN_POINT('',(-7.,-8.25,59.2389));
#974 = VECTOR('',#975,1.);
#975 = DIRECTION('',(0.,1.,-2.22044604925E-16));
#976 = ORIENTED_EDGE('',*,*,#977,.F.);
#977 = EDGE_CURVE('',#170,#970,#978,.T.);
#978 = LINE('',#979,#980);
#979 = CARTESIAN_POINT('',(-7.,-8.94701295099,57.04188704901));
#980 = VECTOR('',#981,1.);
#981 = DIRECTION('',(0.,0.707106781187,0.707106781187));
#982 = FACE_BOUND('',#983,.F.);
#983 = EDGE_LOOP('',(#984));
#984 = ORIENTED_EDGE('',*,*,#985,.F.);
#985 = EDGE_CURVE('',#986,#986,#988,.T.);
#986 = VERTEX_POINT('',#987);
#987 = CARTESIAN_POINT('',(-7.,1.3,55.850848196042));
#988 = CIRCLE('',#989,2.05);
#989 = AXIS2_PLACEMENT_3D('',#990,#991,#992);
#990 = CARTESIAN_POINT('',(-7.,-0.75,55.850848196042));
#991 = DIRECTION('',(1.,0.,0.));
#992 = DIRECTION('',(0.,1.,0.));
#993 = PLANE('',#994);
#994 = AXIS2_PLACEMENT_3D('',#995,#996,#997);
#995 = CARTESIAN_POINT('',(-7.,-8.25,53.450848196042));
#996 = DIRECTION('',(1.,0.,0.));
#997 = DIRECTION('',(0.,2.22044604925E-16,1.));
#998 = ADVANCED_FACE('',(#999),#1017,.F.);
#999 = FACE_BOUND('',#1000,.T.);
#1000 = EDGE_LOOP('',(#1001,#1002,#1003,#1011));
#1001 = ORIENTED_EDGE('',*,*,#977,.F.);
#1002 = ORIENTED_EDGE('',*,*,#353,.T.);
#1003 = ORIENTED_EDGE('',*,*,#1004,.T.);
#1004 = EDGE_CURVE('',#346,#1005,#1007,.T.);
#1005 = VERTEX_POINT('',#1006);
#1006 = CARTESIAN_POINT('',(-2.,-6.75,59.2389));
#1007 = LINE('',#1008,#1009);
#1008 = CARTESIAN_POINT('',(-2.,-30.4375,35.5514));
#1009 = VECTOR('',#1010,1.);
#1010 = DIRECTION('',(0.,0.707106781187,0.707106781187));
#1011 = ORIENTED_EDGE('',*,*,#1012,.F.);
#1012 = EDGE_CURVE('',#970,#1005,#1013,.T.);
#1013 = LINE('',#1014,#1015);
#1014 = CARTESIAN_POINT('',(-7.,-6.75,59.2389));
#1015 = VECTOR('',#1016,1.);
#1016 = DIRECTION('',(1.,0.,0.));
#1017 = PLANE('',#1018);
#1018 = AXIS2_PLACEMENT_3D('',#1019,#1020,#1021);
#1019 = CARTESIAN_POINT('',(-7.,-7.5,58.4889));
#1020 = DIRECTION('',(0.,0.707106781187,-0.707106781187));
#1021 = DIRECTION('',(-1.,-0.,-0.));
#1022 = ADVANCED_FACE('',(#1023),#1034,.T.);
#1023 = FACE_BOUND('',#1024,.T.);
#1024 = EDGE_LOOP('',(#1025,#1026,#1027,#1033));
#1025 = ORIENTED_EDGE('',*,*,#954,.T.);
#1026 = ORIENTED_EDGE('',*,*,#508,.T.);
#1027 = ORIENTED_EDGE('',*,*,#1028,.F.);
#1028 = EDGE_CURVE('',#178,#501,#1029,.T.);
#1029 = LINE('',#1030,#1031);
#1030 = CARTESIAN_POINT('',(-15.4562514146,-8.25,22.915918374396));
#1031 = VECTOR('',#1032,1.);
#1032 = DIRECTION('',(0.,1.,-2.22044604925E-16));
#1033 = ORIENTED_EDGE('',*,*,#177,.F.);
#1034 = CYLINDRICAL_SURFACE('',#1035,19.665);
#1035 = AXIS2_PLACEMENT_3D('',#1036,#1037,#1038);
#1036 = CARTESIAN_POINT('',(1.229565962486E-26,-8.25,35.0739));
#1037 = DIRECTION('',(0.,-1.,2.22044604925E-16));
#1038 = DIRECTION('',(1.,0.,0.));
#1039 = ADVANCED_FACE('',(#1040,#1060),#1071,.F.);
#1040 = FACE_BOUND('',#1041,.F.);
#1041 = EDGE_LOOP('',(#1042,#1043,#1044,#1052,#1058,#1059));
#1042 = ORIENTED_EDGE('',*,*,#345,.F.);
#1043 = ORIENTED_EDGE('',*,*,#1004,.T.);
#1044 = ORIENTED_EDGE('',*,*,#1045,.T.);
#1045 = EDGE_CURVE('',#1005,#1046,#1048,.T.);
#1046 = VERTEX_POINT('',#1047);
#1047 = CARTESIAN_POINT('',(-2.,5.25,59.2389));
#1048 = LINE('',#1049,#1050);
#1049 = CARTESIAN_POINT('',(-2.,-100.,59.2389));
#1050 = VECTOR('',#1051,1.);
#1051 = DIRECTION('',(0.,1.,-2.22044604925E-16));
#1052 = ORIENTED_EDGE('',*,*,#1053,.F.);
#1053 = EDGE_CURVE('',#526,#1046,#1054,.T.);
#1054 = LINE('',#1055,#1056);
#1055 = CARTESIAN_POINT('',(-2.,-20.6875,85.1764));
#1056 = VECTOR('',#1057,1.);
#1057 = DIRECTION('',(0.,-0.707106781187,0.707106781187));
#1058 = ORIENTED_EDGE('',*,*,#533,.F.);
#1059 = ORIENTED_EDGE('',*,*,#570,.T.);
#1060 = FACE_BOUND('',#1061,.F.);
#1061 = EDGE_LOOP('',(#1062));
#1062 = ORIENTED_EDGE('',*,*,#1063,.T.);
#1063 = EDGE_CURVE('',#1064,#1064,#1066,.T.);
#1064 = VERTEX_POINT('',#1065);
#1065 = CARTESIAN_POINT('',(-2.,0.35,55.850848196042));
#1066 = CIRCLE('',#1067,1.1);
#1067 = AXIS2_PLACEMENT_3D('',#1068,#1069,#1070);
#1068 = CARTESIAN_POINT('',(-2.,-0.75,55.850848196042));
#1069 = DIRECTION('',(1.,0.,0.));
#1070 = DIRECTION('',(0.,1.,0.));
#1071 = PLANE('',#1072);
#1072 = AXIS2_PLACEMENT_3D('',#1073,#1074,#1075);
#1073 = CARTESIAN_POINT('',(-2.,-100.,59.2389));
#1074 = DIRECTION('',(-1.,0.,0.));
#1075 = DIRECTION('',(0.,-2.22044604925E-16,-1.));
#1076 = ADVANCED_FACE('',(#1077),#1088,.F.);
#1077 = FACE_BOUND('',#1078,.F.);
#1078 = EDGE_LOOP('',(#1079,#1085,#1086,#1087));
#1079 = ORIENTED_EDGE('',*,*,#1080,.T.);
#1080 = EDGE_CURVE('',#187,#492,#1081,.T.);
#1081 = LINE('',#1082,#1083);
#1082 = CARTESIAN_POINT('',(-15.4562514146,-8.25,16.423871960498));
#1083 = VECTOR('',#1084,1.);
#1084 = DIRECTION('',(0.,1.,-2.22044604925E-16));
#1085 = ORIENTED_EDGE('',*,*,#500,.T.);
#1086 = ORIENTED_EDGE('',*,*,#1028,.F.);
#1087 = ORIENTED_EDGE('',*,*,#186,.F.);
#1088 = PLANE('',#1089);
#1089 = AXIS2_PLACEMENT_3D('',#1090,#1091,#1092);
#1090 = CARTESIAN_POINT('',(-15.4562514146,-8.25,16.423871960498));
#1091 = DIRECTION('',(1.,0.,0.));
#1092 = DIRECTION('',(0.,2.22044604925E-16,1.));
#1093 = ADVANCED_FACE('',(#1094),#1105,.T.);
#1094 = FACE_BOUND('',#1095,.F.);
#1095 = EDGE_LOOP('',(#1096,#1102,#1103,#1104));
#1096 = ORIENTED_EDGE('',*,*,#1097,.T.);
#1097 = EDGE_CURVE('',#195,#484,#1098,.T.);
#1098 = LINE('',#1099,#1100);
#1099 = CARTESIAN_POINT('',(-17.4562514146,-8.25,14.423871960498));
#1100 = VECTOR('',#1101,1.);
#1101 = DIRECTION('',(0.,1.,-2.22044604925E-16));
#1102 = ORIENTED_EDGE('',*,*,#491,.T.);
#1103 = ORIENTED_EDGE('',*,*,#1080,.F.);
#1104 = ORIENTED_EDGE('',*,*,#194,.F.);
#1105 = CYLINDRICAL_SURFACE('',#1106,2.);
#1106 = AXIS2_PLACEMENT_3D('',#1107,#1108,#1109);
#1107 = CARTESIAN_POINT('',(-15.4562514146,-8.25,14.423871960498));
#1108 = DIRECTION('',(0.,-1.,2.22044604925E-16));
#1109 = DIRECTION('',(-1.,0.,0.));
#1110 = ADVANCED_FACE('',(#1111),#1122,.T.);
#1111 = FACE_BOUND('',#1112,.F.);
#1112 = EDGE_LOOP('',(#1113,#1119,#1120,#1121));
#1113 = ORIENTED_EDGE('',*,*,#1114,.T.);
#1114 = EDGE_CURVE('',#204,#476,#1115,.T.);
#1115 = LINE('',#1116,#1117);
#1116 = CARTESIAN_POINT('',(-17.4562514146,-8.25,11.673871960498));
#1117 = VECTOR('',#1118,1.);
#1118 = DIRECTION('',(0.,1.,-2.22044604925E-16));
#1119 = ORIENTED_EDGE('',*,*,#483,.T.);
#1120 = ORIENTED_EDGE('',*,*,#1097,.F.);
#1121 = ORIENTED_EDGE('',*,*,#203,.F.);
#1122 = PLANE('',#1123);
#1123 = AXIS2_PLACEMENT_3D('',#1124,#1125,#1126);
#1124 = CARTESIAN_POINT('',(-17.4562514146,-8.25,11.673871960498));
#1125 = DIRECTION('',(-1.,0.,0.));
#1126 = DIRECTION('',(-0.,-2.22044604925E-16,-1.));
#1127 = ADVANCED_FACE('',(#1128),#1139,.T.);
#1128 = FACE_BOUND('',#1129,.F.);
#1129 = EDGE_LOOP('',(#1130,#1136,#1137,#1138));
#1130 = ORIENTED_EDGE('',*,*,#1131,.T.);
#1131 = EDGE_CURVE('',#212,#468,#1132,.T.);
#1132 = LINE('',#1133,#1134);
#1133 = CARTESIAN_POINT('',(-12.38536593926,-8.25,11.673871960498));
#1134 = VECTOR('',#1135,1.);
#1135 = DIRECTION('',(0.,1.,-2.22044604925E-16));
#1136 = ORIENTED_EDGE('',*,*,#475,.T.);
#1137 = ORIENTED_EDGE('',*,*,#1114,.F.);
#1138 = ORIENTED_EDGE('',*,*,#211,.F.);
#1139 = PLANE('',#1140);
#1140 = AXIS2_PLACEMENT_3D('',#1141,#1142,#1143);
#1141 = CARTESIAN_POINT('',(-12.38536593926,-8.25,11.673871960498));
#1142 = DIRECTION('',(0.,-2.22044604925E-16,-1.));
#1143 = DIRECTION('',(1.,0.,0.));
#1144 = ADVANCED_FACE('',(#1145),#1156,.T.);
#1145 = FACE_BOUND('',#1146,.F.);
#1146 = EDGE_LOOP('',(#1147,#1153,#1154,#1155));
#1147 = ORIENTED_EDGE('',*,*,#1148,.T.);
#1148 = EDGE_CURVE('',#220,#460,#1149,.T.);
#1149 = LINE('',#1150,#1151);
#1150 = CARTESIAN_POINT('',(-12.38536593926,-8.25,13.673871960498));
#1151 = VECTOR('',#1152,1.);
#1152 = DIRECTION('',(0.,1.,-2.22044604925E-16));
#1153 = ORIENTED_EDGE('',*,*,#467,.T.);
#1154 = ORIENTED_EDGE('',*,*,#1131,.F.);
#1155 = ORIENTED_EDGE('',*,*,#219,.F.);
#1156 = PLANE('',#1157);
#1157 = AXIS2_PLACEMENT_3D('',#1158,#1159,#1160);
#1158 = CARTESIAN_POINT('',(-12.38536593926,-8.25,13.673871960498));
#1159 = DIRECTION('',(1.,0.,0.));
#1160 = DIRECTION('',(0.,2.22044604925E-16,1.));
#1161 = ADVANCED_FACE('',(#1162),#1173,.T.);
#1162 = FACE_BOUND('',#1163,.F.);
#1163 = EDGE_LOOP('',(#1164,#1170,#1171,#1172));
#1164 = ORIENTED_EDGE('',*,*,#1165,.T.);
#1165 = EDGE_CURVE('',#228,#451,#1166,.T.);
#1166 = LINE('',#1167,#1168);
#1167 = CARTESIAN_POINT('',(-16.06969898933,-8.25,13.673871960498));
#1168 = VECTOR('',#1169,1.);
#1169 = DIRECTION('',(0.,1.,-2.22044604925E-16));
#1170 = ORIENTED_EDGE('',*,*,#459,.T.);
#1171 = ORIENTED_EDGE('',*,*,#1148,.F.);
#1172 = ORIENTED_EDGE('',*,*,#227,.F.);
#1173 = PLANE('',#1174);
#1174 = AXIS2_PLACEMENT_3D('',#1175,#1176,#1177);
#1175 = CARTESIAN_POINT('',(-16.06969898933,-8.25,13.673871960498));
#1176 = DIRECTION('',(0.,2.22044604925E-16,1.));
#1177 = DIRECTION('',(-1.,-0.,-0.));
#1178 = ADVANCED_FACE('',(#1179),#1190,.T.);
#1179 = FACE_BOUND('',#1180,.T.);
#1180 = EDGE_LOOP('',(#1181,#1187,#1188,#1189));
#1181 = ORIENTED_EDGE('',*,*,#1182,.T.);
#1182 = EDGE_CURVE('',#303,#376,#1183,.T.);
#1183 = LINE('',#1184,#1185);
#1184 = CARTESIAN_POINT('',(15.456251414605,-8.25,22.915918374396));
#1185 = VECTOR('',#1186,1.);
#1186 = DIRECTION('',(0.,1.,-2.22044604925E-16));
#1187 = ORIENTED_EDGE('',*,*,#375,.T.);
#1188 = ORIENTED_EDGE('',*,*,#812,.F.);
#1189 = ORIENTED_EDGE('',*,*,#310,.F.);
#1190 = CYLINDRICAL_SURFACE('',#1191,19.665);
#1191 = AXIS2_PLACEMENT_3D('',#1192,#1193,#1194);
#1192 = CARTESIAN_POINT('',(1.229565962486E-26,-8.25,35.0739));
#1193 = DIRECTION('',(0.,-1.,2.22044604925E-16));
#1194 = DIRECTION('',(1.,0.,0.));
#1195 = ADVANCED_FACE('',(#1196),#1207,.F.);
#1196 = FACE_BOUND('',#1197,.T.);
#1197 = EDGE_LOOP('',(#1198,#1199,#1200,#1206));
#1198 = ORIENTED_EDGE('',*,*,#1165,.T.);
#1199 = ORIENTED_EDGE('',*,*,#450,.T.);
#1200 = ORIENTED_EDGE('',*,*,#1201,.F.);
#1201 = EDGE_CURVE('',#236,#443,#1202,.T.);
#1202 = LINE('',#1203,#1204);
#1203 = CARTESIAN_POINT('',(-14.66163734807,-8.25,15.173871960498));
#1204 = VECTOR('',#1205,1.);
#1205 = DIRECTION('',(0.,1.,-2.22044604925E-16));
#1206 = ORIENTED_EDGE('',*,*,#235,.F.);
#1207 = CYLINDRICAL_SURFACE('',#1208,21.1);
#1208 = AXIS2_PLACEMENT_3D('',#1209,#1210,#1211);
#1209 = CARTESIAN_POINT('',(0.,-8.25,1.831867990632E-15));
#1210 = DIRECTION('',(0.,-1.,2.22044604925E-16));
#1211 = DIRECTION('',(-1.,0.,0.));
#1212 = ADVANCED_FACE('',(#1213),#1224,.T.);
#1213 = FACE_BOUND('',#1214,.T.);
#1214 = EDGE_LOOP('',(#1215,#1221,#1222,#1223));
#1215 = ORIENTED_EDGE('',*,*,#1216,.T.);
#1216 = EDGE_CURVE('',#294,#385,#1217,.T.);
#1217 = LINE('',#1218,#1219);
#1218 = CARTESIAN_POINT('',(15.456251414605,-8.25,16.423871960498));
#1219 = VECTOR('',#1220,1.);
#1220 = DIRECTION('',(0.,1.,-2.22044604925E-16));
#1221 = ORIENTED_EDGE('',*,*,#384,.T.);
#1222 = ORIENTED_EDGE('',*,*,#1182,.F.);
#1223 = ORIENTED_EDGE('',*,*,#302,.F.);
#1224 = PLANE('',#1225);
#1225 = AXIS2_PLACEMENT_3D('',#1226,#1227,#1228);
#1226 = CARTESIAN_POINT('',(15.456251414605,-8.25,16.423871960498));
#1227 = DIRECTION('',(1.,0.,0.));
#1228 = DIRECTION('',(0.,2.22044604925E-16,1.));
#1229 = ADVANCED_FACE('',(#1230,#1241,#1252),#1263,.T.);
#1230 = FACE_BOUND('',#1231,.T.);
#1231 = EDGE_LOOP('',(#1232,#1238,#1239,#1240));
#1232 = ORIENTED_EDGE('',*,*,#1233,.F.);
#1233 = EDGE_CURVE('',#245,#434,#1234,.T.);
#1234 = LINE('',#1235,#1236);
#1235 = CARTESIAN_POINT('',(14.661637348073,-8.25,15.173871960498));
#1236 = VECTOR('',#1237,1.);
#1237 = DIRECTION('',(0.,1.,-2.22044604925E-16));
#1238 = ORIENTED_EDGE('',*,*,#244,.T.);
#1239 = ORIENTED_EDGE('',*,*,#1201,.T.);
#1240 = ORIENTED_EDGE('',*,*,#442,.T.);
#1241 = FACE_BOUND('',#1242,.T.);
#1242 = EDGE_LOOP('',(#1243));
#1243 = ORIENTED_EDGE('',*,*,#1244,.F.);
#1244 = EDGE_CURVE('',#1245,#1245,#1247,.T.);
#1245 = VERTEX_POINT('',#1246);
#1246 = CARTESIAN_POINT('',(-8.351828008649,-5.35,15.173871960498));
#1247 = CIRCLE('',#1248,1.1);
#1248 = AXIS2_PLACEMENT_3D('',#1249,#1250,#1251);
#1249 = CARTESIAN_POINT('',(-9.451828008649,-5.35,15.173871960498));
#1250 = DIRECTION('',(0.,0.,-1.));
#1251 = DIRECTION('',(1.,0.,0.));
#1252 = FACE_BOUND('',#1253,.T.);
#1253 = EDGE_LOOP('',(#1254));
#1254 = ORIENTED_EDGE('',*,*,#1255,.F.);
#1255 = EDGE_CURVE('',#1256,#1256,#1258,.T.);
#1256 = VERTEX_POINT('',#1257);
#1257 = CARTESIAN_POINT('',(10.551828008649,-5.35,15.173871960498));
#1258 = CIRCLE('',#1259,1.1);
#1259 = AXIS2_PLACEMENT_3D('',#1260,#1261,#1262);
#1260 = CARTESIAN_POINT('',(9.451828008649,-5.35,15.173871960498));
#1261 = DIRECTION('',(0.,0.,-1.));
#1262 = DIRECTION('',(1.,0.,0.));
#1263 = PLANE('',#1264);
#1264 = AXIS2_PLACEMENT_3D('',#1265,#1266,#1267);
#1265 = CARTESIAN_POINT('',(3.206183390696E-16,-0.75,15.173871960498));
#1266 = DIRECTION('',(0.,-2.516505522484E-16,-1.));
#1267 = DIRECTION('',(0.,1.,-2.516505522484E-16));
#1268 = ADVANCED_FACE('',(#1269),#1280,.T.);
#1269 = FACE_BOUND('',#1270,.T.);
#1270 = EDGE_LOOP('',(#1271,#1277,#1278,#1279));
#1271 = ORIENTED_EDGE('',*,*,#1272,.T.);
#1272 = EDGE_CURVE('',#286,#393,#1273,.T.);
#1273 = LINE('',#1274,#1275);
#1274 = CARTESIAN_POINT('',(17.456251414605,-8.25,14.423871960498));
#1275 = VECTOR('',#1276,1.);
#1276 = DIRECTION('',(0.,1.,-2.22044604925E-16));
#1277 = ORIENTED_EDGE('',*,*,#392,.T.);
#1278 = ORIENTED_EDGE('',*,*,#1216,.F.);
#1279 = ORIENTED_EDGE('',*,*,#293,.F.);
#1280 = CYLINDRICAL_SURFACE('',#1281,2.);
#1281 = AXIS2_PLACEMENT_3D('',#1282,#1283,#1284);
#1282 = CARTESIAN_POINT('',(15.456251414605,-8.25,14.423871960498));
#1283 = DIRECTION('',(0.,-1.,2.22044604925E-16));
#1284 = DIRECTION('',(1.,0.,0.));
#1285 = ADVANCED_FACE('',(#1286),#1297,.F.);
#1286 = FACE_BOUND('',#1287,.F.);
#1287 = EDGE_LOOP('',(#1288,#1294,#1295,#1296));
#1288 = ORIENTED_EDGE('',*,*,#1289,.T.);
#1289 = EDGE_CURVE('',#253,#426,#1290,.T.);
#1290 = LINE('',#1291,#1292);
#1291 = CARTESIAN_POINT('',(16.069698989337,-8.25,13.673871960498));
#1292 = VECTOR('',#1293,1.);
#1293 = DIRECTION('',(0.,1.,-2.22044604925E-16));
#1294 = ORIENTED_EDGE('',*,*,#433,.T.);
#1295 = ORIENTED_EDGE('',*,*,#1233,.F.);
#1296 = ORIENTED_EDGE('',*,*,#252,.F.);
#1297 = CYLINDRICAL_SURFACE('',#1298,21.1);
#1298 = AXIS2_PLACEMENT_3D('',#1299,#1300,#1301);
#1299 = CARTESIAN_POINT('',(0.,-8.25,1.831867990632E-15));
#1300 = DIRECTION('',(0.,-1.,2.22044604925E-16));
#1301 = DIRECTION('',(1.,0.,0.));
#1302 = ADVANCED_FACE('',(#1303),#1314,.T.);
#1303 = FACE_BOUND('',#1304,.T.);
#1304 = EDGE_LOOP('',(#1305,#1311,#1312,#1313));
#1305 = ORIENTED_EDGE('',*,*,#1306,.T.);
#1306 = EDGE_CURVE('',#278,#402,#1307,.T.);
#1307 = LINE('',#1308,#1309);
#1308 = CARTESIAN_POINT('',(17.456251414605,-8.25,11.673871960498));
#1309 = VECTOR('',#1310,1.);
#1310 = DIRECTION('',(0.,1.,-2.22044604925E-16));
#1311 = ORIENTED_EDGE('',*,*,#401,.T.);
#1312 = ORIENTED_EDGE('',*,*,#1272,.F.);
#1313 = ORIENTED_EDGE('',*,*,#285,.F.);
#1314 = PLANE('',#1315);
#1315 = AXIS2_PLACEMENT_3D('',#1316,#1317,#1318);
#1316 = CARTESIAN_POINT('',(17.456251414605,-8.25,11.673871960498));
#1317 = DIRECTION('',(1.,0.,0.));
#1318 = DIRECTION('',(0.,2.22044604925E-16,1.));
#1319 = ADVANCED_FACE('',(#1320),#1331,.T.);
#1320 = FACE_BOUND('',#1321,.T.);
#1321 = EDGE_LOOP('',(#1322,#1323,#1324,#1330));
#1322 = ORIENTED_EDGE('',*,*,#1289,.T.);
#1323 = ORIENTED_EDGE('',*,*,#425,.T.);
#1324 = ORIENTED_EDGE('',*,*,#1325,.F.);
#1325 = EDGE_CURVE('',#262,#418,#1326,.T.);
#1326 = LINE('',#1327,#1328);
#1327 = CARTESIAN_POINT('',(12.385365939265,-8.25,13.673871960498));
#1328 = VECTOR('',#1329,1.);
#1329 = DIRECTION('',(0.,1.,-2.22044604925E-16));
#1330 = ORIENTED_EDGE('',*,*,#261,.F.);
#1331 = PLANE('',#1332);
#1332 = AXIS2_PLACEMENT_3D('',#1333,#1334,#1335);
#1333 = CARTESIAN_POINT('',(16.069698989337,-8.25,13.673871960498));
#1334 = DIRECTION('',(0.,2.22044604925E-16,1.));
#1335 = DIRECTION('',(-1.,0.,0.));
#1336 = ADVANCED_FACE('',(#1337),#1348,.T.);
#1337 = FACE_BOUND('',#1338,.T.);
#1338 = EDGE_LOOP('',(#1339,#1345,#1346,#1347));
#1339 = ORIENTED_EDGE('',*,*,#1340,.T.);
#1340 = EDGE_CURVE('',#270,#410,#1341,.T.);
#1341 = LINE('',#1342,#1343);
#1342 = CARTESIAN_POINT('',(12.385365939265,-8.25,11.673871960498));
#1343 = VECTOR('',#1344,1.);
#1344 = DIRECTION('',(0.,1.,-2.22044604925E-16));
#1345 = ORIENTED_EDGE('',*,*,#409,.T.);
#1346 = ORIENTED_EDGE('',*,*,#1306,.F.);
#1347 = ORIENTED_EDGE('',*,*,#277,.F.);
#1348 = PLANE('',#1349);
#1349 = AXIS2_PLACEMENT_3D('',#1350,#1351,#1352);
#1350 = CARTESIAN_POINT('',(12.385365939265,-8.25,11.673871960498));
#1351 = DIRECTION('',(0.,-2.22044604925E-16,-1.));
#1352 = DIRECTION('',(1.,0.,0.));
#1353 = ADVANCED_FACE('',(#1354),#1360,.T.);
#1354 = FACE_BOUND('',#1355,.T.);
#1355 = EDGE_LOOP('',(#1356,#1357,#1358,#1359));
#1356 = ORIENTED_EDGE('',*,*,#1325,.T.);
#1357 = ORIENTED_EDGE('',*,*,#417,.T.);
#1358 = ORIENTED_EDGE('',*,*,#1340,.F.);
#1359 = ORIENTED_EDGE('',*,*,#269,.F.);
#1360 = PLANE('',#1361);
#1361 = AXIS2_PLACEMENT_3D('',#1362,#1363,#1364);
#1362 = CARTESIAN_POINT('',(12.385365939265,-8.25,13.673871960498));
#1363 = DIRECTION('',(-1.,0.,0.));
#1364 = DIRECTION('',(0.,-2.22044604925E-16,-1.));
#1365 = ADVANCED_FACE('',(#1366),#1377,.F.);
#1366 = FACE_BOUND('',#1367,.F.);
#1367 = EDGE_LOOP('',(#1368,#1369,#1370,#1371));
#1368 = ORIENTED_EDGE('',*,*,#961,.F.);
#1369 = ORIENTED_EDGE('',*,*,#525,.T.);
#1370 = ORIENTED_EDGE('',*,*,#1053,.T.);
#1371 = ORIENTED_EDGE('',*,*,#1372,.F.);
#1372 = EDGE_CURVE('',#962,#1046,#1373,.T.);
#1373 = LINE('',#1374,#1375);
#1374 = CARTESIAN_POINT('',(-7.,5.25,59.2389));
#1375 = VECTOR('',#1376,1.);
#1376 = DIRECTION('',(1.,0.,0.));
#1377 = PLANE('',#1378);
#1378 = AXIS2_PLACEMENT_3D('',#1379,#1380,#1381);
#1379 = CARTESIAN_POINT('',(-7.,6.,58.4889));
#1380 = DIRECTION('',(-1.418660210158E-17,-0.707106781187,
    -0.707106781187));
#1381 = DIRECTION('',(1.,-1.003144254802E-17,-1.003144254802E-17));
#1382 = ADVANCED_FACE('',(#1383),#1402,.F.);
#1383 = FACE_BOUND('',#1384,.T.);
#1384 = EDGE_LOOP('',(#1385,#1394,#1400,#1401));
#1385 = ORIENTED_EDGE('',*,*,#1386,.F.);
#1386 = EDGE_CURVE('',#1387,#1387,#1389,.T.);
#1387 = VERTEX_POINT('',#1388);
#1388 = CARTESIAN_POINT('',(11.551828008649,-5.35,16.423871960498));
#1389 = CIRCLE('',#1390,2.1);
#1390 = AXIS2_PLACEMENT_3D('',#1391,#1392,#1393);
#1391 = CARTESIAN_POINT('',(9.451828008649,-5.35,16.423871960498));
#1392 = DIRECTION('',(0.,0.,1.));
#1393 = DIRECTION('',(1.,0.,0.));
#1394 = ORIENTED_EDGE('',*,*,#1395,.T.);
#1395 = EDGE_CURVE('',#1387,#581,#1396,.T.);
#1396 = LINE('',#1397,#1398);
#1397 = CARTESIAN_POINT('',(11.551828008649,-5.35,16.423871960498));
#1398 = VECTOR('',#1399,1.);
#1399 = DIRECTION('',(0.,0.,1.));
#1400 = ORIENTED_EDGE('',*,*,#580,.T.);
#1401 = ORIENTED_EDGE('',*,*,#1395,.F.);
#1402 = CYLINDRICAL_SURFACE('',#1403,2.1);
#1403 = AXIS2_PLACEMENT_3D('',#1404,#1405,#1406);
#1404 = CARTESIAN_POINT('',(9.451828008649,-5.35,16.423871960498));
#1405 = DIRECTION('',(0.,0.,-1.));
#1406 = DIRECTION('',(1.,0.,0.));
#1407 = ADVANCED_FACE('',(#1408),#1427,.F.);
#1408 = FACE_BOUND('',#1409,.T.);
#1409 = EDGE_LOOP('',(#1410,#1419,#1425,#1426));
#1410 = ORIENTED_EDGE('',*,*,#1411,.F.);
#1411 = EDGE_CURVE('',#1412,#1412,#1414,.T.);
#1412 = VERTEX_POINT('',#1413);
#1413 = CARTESIAN_POINT('',(-7.351828008649,-5.35,16.423871960498));
#1414 = CIRCLE('',#1415,2.1);
#1415 = AXIS2_PLACEMENT_3D('',#1416,#1417,#1418);
#1416 = CARTESIAN_POINT('',(-9.451828008649,-5.35,16.423871960498));
#1417 = DIRECTION('',(0.,0.,1.));
#1418 = DIRECTION('',(1.,0.,0.));
#1419 = ORIENTED_EDGE('',*,*,#1420,.T.);
#1420 = EDGE_CURVE('',#1412,#680,#1421,.T.);
#1421 = LINE('',#1422,#1423);
#1422 = CARTESIAN_POINT('',(-7.351828008649,-5.35,16.423871960498));
#1423 = VECTOR('',#1424,1.);
#1424 = DIRECTION('',(0.,0.,1.));
#1425 = ORIENTED_EDGE('',*,*,#679,.T.);
#1426 = ORIENTED_EDGE('',*,*,#1420,.F.);
#1427 = CYLINDRICAL_SURFACE('',#1428,2.1);
#1428 = AXIS2_PLACEMENT_3D('',#1429,#1430,#1431);
#1429 = CARTESIAN_POINT('',(-9.451828008649,-5.35,16.423871960498));
#1430 = DIRECTION('',(0.,0.,-1.));
#1431 = DIRECTION('',(1.,0.,0.));
#1432 = ADVANCED_FACE('',(#1433,#1444),#1447,.T.);
#1433 = FACE_BOUND('',#1434,.T.);
#1434 = EDGE_LOOP('',(#1435));
#1435 = ORIENTED_EDGE('',*,*,#1436,.T.);
#1436 = EDGE_CURVE('',#1437,#1437,#1439,.T.);
#1437 = VERTEX_POINT('',#1438);
#1438 = CARTESIAN_POINT('',(3.,0.85,55.850848196042));
#1439 = CIRCLE('',#1440,1.6);
#1440 = AXIS2_PLACEMENT_3D('',#1441,#1442,#1443);
#1441 = CARTESIAN_POINT('',(3.,-0.75,55.850848196042));
#1442 = DIRECTION('',(1.,0.,0.));
#1443 = DIRECTION('',(0.,1.,0.));
#1444 = FACE_BOUND('',#1445,.T.);
#1445 = EDGE_LOOP('',(#1446));
#1446 = ORIENTED_EDGE('',*,*,#784,.F.);
#1447 = PLANE('',#1448);
#1448 = AXIS2_PLACEMENT_3D('',#1449,#1450,#1451);
#1449 = CARTESIAN_POINT('',(3.,-0.75,55.850848196042));
#1450 = DIRECTION('',(1.,0.,0.));
#1451 = DIRECTION('',(0.,0.,1.));
#1452 = ADVANCED_FACE('',(#1453),#1464,.F.);
#1453 = FACE_BOUND('',#1454,.F.);
#1454 = EDGE_LOOP('',(#1455,#1461,#1462,#1463));
#1455 = ORIENTED_EDGE('',*,*,#1456,.T.);
#1456 = EDGE_CURVE('',#823,#1437,#1457,.T.);
#1457 = LINE('',#1458,#1459);
#1458 = CARTESIAN_POINT('',(7.,0.85,55.850848196042));
#1459 = VECTOR('',#1460,1.);
#1460 = DIRECTION('',(-1.,0.,0.));
#1461 = ORIENTED_EDGE('',*,*,#1436,.T.);
#1462 = ORIENTED_EDGE('',*,*,#1456,.F.);
#1463 = ORIENTED_EDGE('',*,*,#822,.F.);
#1464 = CYLINDRICAL_SURFACE('',#1465,1.6);
#1465 = AXIS2_PLACEMENT_3D('',#1466,#1467,#1468);
#1466 = CARTESIAN_POINT('',(7.,-0.75,55.850848196042));
#1467 = DIRECTION('',(1.,0.,0.));
#1468 = DIRECTION('',(0.,1.,0.));
#1469 = ADVANCED_FACE('',(#1470),#1495,.T.);
#1470 = FACE_BOUND('',#1471,.T.);
#1471 = EDGE_LOOP('',(#1472,#1480,#1488,#1494));
#1472 = ORIENTED_EDGE('',*,*,#1473,.T.);
#1473 = EDGE_CURVE('',#834,#1474,#1476,.T.);
#1474 = VERTEX_POINT('',#1475);
#1475 = CARTESIAN_POINT('',(6.75,-3.938628135695,57.26));
#1476 = LINE('',#1477,#1478);
#1477 = CARTESIAN_POINT('',(7.,-3.938628135695,57.26));
#1478 = VECTOR('',#1479,1.);
#1479 = DIRECTION('',(-1.,1.110223024625E-16,-1.665334536938E-16));
#1480 = ORIENTED_EDGE('',*,*,#1481,.T.);
#1481 = EDGE_CURVE('',#1474,#1482,#1484,.T.);
#1482 = VERTEX_POINT('',#1483);
#1483 = CARTESIAN_POINT('',(6.75,-4.180985935422,57.26));
#1484 = LINE('',#1485,#1486);
#1485 = CARTESIAN_POINT('',(6.75,-3.938628135695,57.26));
#1486 = VECTOR('',#1487,1.);
#1487 = DIRECTION('',(0.,-1.,2.22044604925E-16));
#1488 = ORIENTED_EDGE('',*,*,#1489,.F.);
#1489 = EDGE_CURVE('',#836,#1482,#1490,.T.);
#1490 = LINE('',#1491,#1492);
#1491 = CARTESIAN_POINT('',(7.,-4.180985935422,57.26));
#1492 = VECTOR('',#1493,1.);
#1493 = DIRECTION('',(-1.,1.110223024625E-16,-1.665334536938E-16));
#1494 = ORIENTED_EDGE('',*,*,#833,.F.);
#1495 = PLANE('',#1496);
#1496 = AXIS2_PLACEMENT_3D('',#1497,#1498,#1499);
#1497 = CARTESIAN_POINT('',(7.,-3.938628135695,57.26));
#1498 = DIRECTION('',(-1.665334536938E-16,2.22044604925E-16,1.));
#1499 = DIRECTION('',(0.,-1.,2.22044604925E-16));
#1500 = ADVANCED_FACE('',(#1501),#1519,.T.);
#1501 = FACE_BOUND('',#1502,.T.);
#1502 = EDGE_LOOP('',(#1503,#1504,#1512,#1518));
#1503 = ORIENTED_EDGE('',*,*,#1489,.T.);
#1504 = ORIENTED_EDGE('',*,*,#1505,.T.);
#1505 = EDGE_CURVE('',#1482,#1506,#1508,.T.);
#1506 = VERTEX_POINT('',#1507);
#1507 = CARTESIAN_POINT('',(6.75,-4.345750921798,57.788142029973));
#1508 = LINE('',#1509,#1510);
#1509 = CARTESIAN_POINT('',(6.75,-4.180985935422,57.26));
#1510 = VECTOR('',#1511,1.);
#1511 = DIRECTION('',(-2.119690298423E-16,-0.29781487316,0.954623643812)
  );
#1512 = ORIENTED_EDGE('',*,*,#1513,.F.);
#1513 = EDGE_CURVE('',#932,#1506,#1514,.T.);
#1514 = LINE('',#1515,#1516);
#1515 = CARTESIAN_POINT('',(7.,-4.345750921798,57.788142029973));
#1516 = VECTOR('',#1517,1.);
#1517 = DIRECTION('',(-1.,1.110223024625E-16,-1.665334536938E-16));
#1518 = ORIENTED_EDGE('',*,*,#939,.F.);
#1519 = PLANE('',#1520);
#1520 = AXIS2_PLACEMENT_3D('',#1521,#1522,#1523);
#1521 = CARTESIAN_POINT('',(7.,-4.180985935422,57.26));
#1522 = DIRECTION('',(5.638837553241E-17,0.954623643812,0.29781487316));
#1523 = DIRECTION('',(-2.119690298423E-16,-0.29781487316,0.954623643812)
  );
#1524 = ADVANCED_FACE('',(#1525),#1543,.T.);
#1525 = FACE_BOUND('',#1526,.T.);
#1526 = EDGE_LOOP('',(#1527,#1528,#1536,#1542));
#1527 = ORIENTED_EDGE('',*,*,#1513,.T.);
#1528 = ORIENTED_EDGE('',*,*,#1529,.T.);
#1529 = EDGE_CURVE('',#1506,#1530,#1532,.T.);
#1530 = VERTEX_POINT('',#1531);
#1531 = CARTESIAN_POINT('',(6.75,-4.511473844142,57.26));
#1532 = LINE('',#1533,#1534);
#1533 = CARTESIAN_POINT('',(6.75,-4.345750921798,57.788142029973));
#1534 = VECTOR('',#1535,1.);
#1535 = DIRECTION('',(2.118594928924E-16,-0.299391561641,-0.954130333245
    ));
#1536 = ORIENTED_EDGE('',*,*,#1537,.F.);
#1537 = EDGE_CURVE('',#924,#1530,#1538,.T.);
#1538 = LINE('',#1539,#1540);
#1539 = CARTESIAN_POINT('',(7.,-4.511473844142,57.26));
#1540 = VECTOR('',#1541,1.);
#1541 = DIRECTION('',(-1.,1.110223024625E-16,-1.665334536938E-16));
#1542 = ORIENTED_EDGE('',*,*,#931,.F.);
#1543 = PLANE('',#1544);
#1544 = AXIS2_PLACEMENT_3D('',#1545,#1546,#1547);
#1545 = CARTESIAN_POINT('',(7.,-4.345750921798,57.788142029973));
#1546 = DIRECTION('',(-1.55788457213E-16,-0.954130333245,0.299391561641)
  );
#1547 = DIRECTION('',(2.118594928924E-16,-0.299391561641,-0.954130333245
    ));
#1548 = ADVANCED_FACE('',(#1549),#1567,.T.);
#1549 = FACE_BOUND('',#1550,.T.);
#1550 = EDGE_LOOP('',(#1551,#1552,#1560,#1566));
#1551 = ORIENTED_EDGE('',*,*,#1537,.T.);
#1552 = ORIENTED_EDGE('',*,*,#1553,.T.);
#1553 = EDGE_CURVE('',#1530,#1554,#1556,.T.);
#1554 = VERTEX_POINT('',#1555);
#1555 = CARTESIAN_POINT('',(6.75,-4.7499999,57.26));
#1556 = LINE('',#1557,#1558);
#1557 = CARTESIAN_POINT('',(6.75,-4.511473844142,57.26));
#1558 = VECTOR('',#1559,1.);
#1559 = DIRECTION('',(0.,-1.,2.22044604925E-16));
#1560 = ORIENTED_EDGE('',*,*,#1561,.F.);
#1561 = EDGE_CURVE('',#916,#1554,#1562,.T.);
#1562 = LINE('',#1563,#1564);
#1563 = CARTESIAN_POINT('',(7.,-4.7499999,57.26));
#1564 = VECTOR('',#1565,1.);
#1565 = DIRECTION('',(-1.,1.110223024625E-16,-1.665334536938E-16));
#1566 = ORIENTED_EDGE('',*,*,#923,.F.);
#1567 = PLANE('',#1568);
#1568 = AXIS2_PLACEMENT_3D('',#1569,#1570,#1571);
#1569 = CARTESIAN_POINT('',(7.,-4.511473844142,57.26));
#1570 = DIRECTION('',(-1.665334536938E-16,2.22044604925E-16,1.));
#1571 = DIRECTION('',(0.,-1.,2.22044604925E-16));
#1572 = ADVANCED_FACE('',(#1573),#1591,.T.);
#1573 = FACE_BOUND('',#1574,.T.);
#1574 = EDGE_LOOP('',(#1575,#1576,#1584,#1590));
#1575 = ORIENTED_EDGE('',*,*,#1561,.T.);
#1576 = ORIENTED_EDGE('',*,*,#1577,.T.);
#1577 = EDGE_CURVE('',#1554,#1578,#1580,.T.);
#1578 = VERTEX_POINT('',#1579);
#1579 = CARTESIAN_POINT('',(6.75,-4.7499999,57.267663487738));
#1580 = LINE('',#1581,#1582);
#1581 = CARTESIAN_POINT('',(6.75,-4.7499999,57.26));
#1582 = VECTOR('',#1583,1.);
#1583 = DIRECTION('',(-2.22044604925E-16,2.22044604925E-16,1.));
#1584 = ORIENTED_EDGE('',*,*,#1585,.F.);
#1585 = EDGE_CURVE('',#908,#1578,#1586,.T.);
#1586 = LINE('',#1587,#1588);
#1587 = CARTESIAN_POINT('',(7.,-4.7499999,57.267663487738));
#1588 = VECTOR('',#1589,1.);
#1589 = DIRECTION('',(-1.,1.110223024625E-16,-1.665334536938E-16));
#1590 = ORIENTED_EDGE('',*,*,#915,.F.);
#1591 = PLANE('',#1592);
#1592 = AXIS2_PLACEMENT_3D('',#1593,#1594,#1595);
#1593 = CARTESIAN_POINT('',(7.,-4.7499999,57.26));
#1594 = DIRECTION('',(1.110223024625E-16,1.,-2.22044604925E-16));
#1595 = DIRECTION('',(-2.22044604925E-16,2.22044604925E-16,1.));
#1596 = ADVANCED_FACE('',(#1597),#1615,.T.);
#1597 = FACE_BOUND('',#1598,.T.);
#1598 = EDGE_LOOP('',(#1599,#1600,#1608,#1614));
#1599 = ORIENTED_EDGE('',*,*,#1585,.T.);
#1600 = ORIENTED_EDGE('',*,*,#1601,.T.);
#1601 = EDGE_CURVE('',#1578,#1602,#1604,.T.);
#1602 = VERTEX_POINT('',#1603);
#1603 = CARTESIAN_POINT('',(6.75,-4.470282597548,58.027753746594));
#1604 = LINE('',#1605,#1606);
#1605 = CARTESIAN_POINT('',(6.75,-4.7499999,57.267663487738));
#1606 = VECTOR('',#1607,1.);
#1607 = DIRECTION('',(-2.083821111595E-16,0.345361858509,0.938469598169)
  );
#1608 = ORIENTED_EDGE('',*,*,#1609,.F.);
#1609 = EDGE_CURVE('',#900,#1602,#1610,.T.);
#1610 = LINE('',#1611,#1612);
#1611 = CARTESIAN_POINT('',(7.,-4.470282597548,58.027753746594));
#1612 = VECTOR('',#1613,1.);
#1613 = DIRECTION('',(-1.,1.110223024625E-16,-1.665334536938E-16));
#1614 = ORIENTED_EDGE('',*,*,#907,.F.);
#1615 = PLANE('',#1616);
#1616 = AXIS2_PLACEMENT_3D('',#1617,#1618,#1619);
#1617 = CARTESIAN_POINT('',(7.,-4.7499999,57.267663487738));
#1618 = DIRECTION('',(1.617053586514E-16,0.938469598169,-0.345361858509)
  );
#1619 = DIRECTION('',(-2.083821111595E-16,0.345361858509,0.938469598169)
  );
#1620 = ADVANCED_FACE('',(#1621),#1639,.T.);
#1621 = FACE_BOUND('',#1622,.T.);
#1622 = EDGE_LOOP('',(#1623,#1624,#1632,#1638));
#1623 = ORIENTED_EDGE('',*,*,#1609,.T.);
#1624 = ORIENTED_EDGE('',*,*,#1625,.T.);
#1625 = EDGE_CURVE('',#1602,#1626,#1628,.T.);
#1626 = VERTEX_POINT('',#1627);
#1627 = CARTESIAN_POINT('',(6.75,-4.732757052589,58.76));
#1628 = B_SPLINE_CURVE_WITH_KNOTS('',2,(#1629,#1630,#1631),
  .UNSPECIFIED.,.F.,.F.,(3,3),(0.,1.),.PIECEWISE_BEZIER_KNOTS.);
#1629 = CARTESIAN_POINT('',(6.75,-4.470282597548,58.027753746594));
#1630 = CARTESIAN_POINT('',(6.75,-4.733714988556,58.756168256131));
#1631 = CARTESIAN_POINT('',(6.75,-4.732757052589,58.76));
#1632 = ORIENTED_EDGE('',*,*,#1633,.F.);
#1633 = EDGE_CURVE('',#892,#1626,#1634,.T.);
#1634 = LINE('',#1635,#1636);
#1635 = CARTESIAN_POINT('',(7.,-4.732757052589,58.76));
#1636 = VECTOR('',#1637,1.);
#1637 = DIRECTION('',(-1.,1.110223024625E-16,-1.665334536938E-16));
#1638 = ORIENTED_EDGE('',*,*,#899,.F.);
#1639 = SURFACE_OF_LINEAR_EXTRUSION('',#1640,#1644);
#1640 = B_SPLINE_CURVE_WITH_KNOTS('',2,(#1641,#1642,#1643),
  .UNSPECIFIED.,.F.,.F.,(3,3),(0.,1.),.PIECEWISE_BEZIER_KNOTS.);
#1641 = CARTESIAN_POINT('',(7.,-4.470282597548,58.027753746594));
#1642 = CARTESIAN_POINT('',(7.,-4.733714988556,58.756168256131));
#1643 = CARTESIAN_POINT('',(7.,-4.732757052589,58.76));
#1644 = VECTOR('',#1645,1.);
#1645 = DIRECTION('',(1.,-1.110223024625E-16,1.665334536938E-16));
#1646 = ADVANCED_FACE('',(#1647),#1665,.T.);
#1647 = FACE_BOUND('',#1648,.T.);
#1648 = EDGE_LOOP('',(#1649,#1650,#1658,#1664));
#1649 = ORIENTED_EDGE('',*,*,#1633,.T.);
#1650 = ORIENTED_EDGE('',*,*,#1651,.T.);
#1651 = EDGE_CURVE('',#1626,#1652,#1654,.T.);
#1652 = VERTEX_POINT('',#1653);
#1653 = CARTESIAN_POINT('',(6.75,-4.493273060763,58.76));
#1654 = LINE('',#1655,#1656);
#1655 = CARTESIAN_POINT('',(6.75,-4.732757052589,58.76));
#1656 = VECTOR('',#1657,1.);
#1657 = DIRECTION('',(0.,1.,-2.22044604925E-16));
#1658 = ORIENTED_EDGE('',*,*,#1659,.F.);
#1659 = EDGE_CURVE('',#884,#1652,#1660,.T.);
#1660 = LINE('',#1661,#1662);
#1661 = CARTESIAN_POINT('',(7.,-4.493273060763,58.76));
#1662 = VECTOR('',#1663,1.);
#1663 = DIRECTION('',(-1.,1.110223024625E-16,-1.665334536938E-16));
#1664 = ORIENTED_EDGE('',*,*,#891,.F.);
#1665 = PLANE('',#1666);
#1666 = AXIS2_PLACEMENT_3D('',#1667,#1668,#1669);
#1667 = CARTESIAN_POINT('',(7.,-4.732757052589,58.76));
#1668 = DIRECTION('',(1.665334536938E-16,-2.22044604925E-16,-1.));
#1669 = DIRECTION('',(0.,1.,-2.22044604925E-16));
#1670 = ADVANCED_FACE('',(#1671),#1689,.T.);
#1671 = FACE_BOUND('',#1672,.T.);
#1672 = EDGE_LOOP('',(#1673,#1674,#1682,#1688));
#1673 = ORIENTED_EDGE('',*,*,#1659,.T.);
#1674 = ORIENTED_EDGE('',*,*,#1675,.T.);
#1675 = EDGE_CURVE('',#1652,#1676,#1678,.T.);
#1676 = VERTEX_POINT('',#1677);
#1677 = CARTESIAN_POINT('',(6.75,-4.343835049864,58.271197207084));
#1678 = LINE('',#1679,#1680);
#1679 = CARTESIAN_POINT('',(6.75,-4.493273060763,58.76));
#1680 = VECTOR('',#1681,1.);
#1681 = DIRECTION('',(2.123427975717E-16,0.292364547819,-0.956306944019)
  );
#1682 = ORIENTED_EDGE('',*,*,#1683,.F.);
#1683 = EDGE_CURVE('',#876,#1676,#1684,.T.);
#1684 = LINE('',#1685,#1686);
#1685 = CARTESIAN_POINT('',(7.,-4.343835049864,58.271197207084));
#1686 = VECTOR('',#1687,1.);
#1687 = DIRECTION('',(-1.,1.110223024625E-16,-1.665334536938E-16));
#1688 = ORIENTED_EDGE('',*,*,#883,.F.);
#1689 = PLANE('',#1690);
#1690 = AXIS2_PLACEMENT_3D('',#1691,#1692,#1693);
#1691 = CARTESIAN_POINT('',(7.,-4.493273060763,58.76));
#1692 = DIRECTION('',(-5.748292090001E-17,-0.956306944019,
    -0.292364547819));
#1693 = DIRECTION('',(2.123427975717E-16,0.292364547819,-0.956306944019)
  );
#1694 = ADVANCED_FACE('',(#1695),#1713,.T.);
#1695 = FACE_BOUND('',#1696,.T.);
#1696 = EDGE_LOOP('',(#1697,#1698,#1706,#1712));
#1697 = ORIENTED_EDGE('',*,*,#1683,.T.);
#1698 = ORIENTED_EDGE('',*,*,#1699,.T.);
#1699 = EDGE_CURVE('',#1676,#1700,#1702,.T.);
#1700 = VERTEX_POINT('',#1701);
#1701 = CARTESIAN_POINT('',(6.75,-4.193439102997,58.76));
#1702 = LINE('',#1703,#1704);
#1703 = CARTESIAN_POINT('',(6.75,-4.343835049864,58.271197207084));
#1704 = VECTOR('',#1705,1.);
#1705 = DIRECTION('',(-2.122261718916E-16,0.294077073931,0.955781708649)
  );
#1706 = ORIENTED_EDGE('',*,*,#1707,.F.);
#1707 = EDGE_CURVE('',#868,#1700,#1708,.T.);
#1708 = LINE('',#1709,#1710);
#1709 = CARTESIAN_POINT('',(7.,-4.193439102997,58.76));
#1710 = VECTOR('',#1711,1.);
#1711 = DIRECTION('',(-1.,1.110223024625E-16,-1.665334536938E-16));
#1712 = ORIENTED_EDGE('',*,*,#875,.F.);
#1713 = PLANE('',#1714);
#1714 = AXIS2_PLACEMENT_3D('',#1715,#1716,#1717);
#1715 = CARTESIAN_POINT('',(7.,-4.343835049864,58.271197207084));
#1716 = DIRECTION('',(1.550867567197E-16,0.955781708649,-0.294077073931)
  );
#1717 = DIRECTION('',(-2.122261718916E-16,0.294077073931,0.955781708649)
  );
#1718 = ADVANCED_FACE('',(#1719),#1737,.T.);
#1719 = FACE_BOUND('',#1720,.T.);
#1720 = EDGE_LOOP('',(#1721,#1722,#1730,#1736));
#1721 = ORIENTED_EDGE('',*,*,#1707,.T.);
#1722 = ORIENTED_EDGE('',*,*,#1723,.T.);
#1723 = EDGE_CURVE('',#1700,#1724,#1726,.T.);
#1724 = VERTEX_POINT('',#1725);
#1725 = CARTESIAN_POINT('',(6.75,-3.955870983106,58.76));
#1726 = LINE('',#1727,#1728);
#1727 = CARTESIAN_POINT('',(6.75,-4.193439102997,58.76));
#1728 = VECTOR('',#1729,1.);
#1729 = DIRECTION('',(0.,1.,-2.22044604925E-16));
#1730 = ORIENTED_EDGE('',*,*,#1731,.F.);
#1731 = EDGE_CURVE('',#860,#1724,#1732,.T.);
#1732 = LINE('',#1733,#1734);
#1733 = CARTESIAN_POINT('',(7.,-3.955870983106,58.76));
#1734 = VECTOR('',#1735,1.);
#1735 = DIRECTION('',(-1.,1.110223024625E-16,-1.665334536938E-16));
#1736 = ORIENTED_EDGE('',*,*,#867,.F.);
#1737 = PLANE('',#1738);
#1738 = AXIS2_PLACEMENT_3D('',#1739,#1740,#1741);
#1739 = CARTESIAN_POINT('',(7.,-4.193439102997,58.76));
#1740 = DIRECTION('',(1.665334536938E-16,-2.22044604925E-16,-1.));
#1741 = DIRECTION('',(0.,1.,-2.22044604925E-16));
#1742 = ADVANCED_FACE('',(#1743),#1761,.T.);
#1743 = FACE_BOUND('',#1744,.T.);
#1744 = EDGE_LOOP('',(#1745,#1746,#1754,#1760));
#1745 = ORIENTED_EDGE('',*,*,#1731,.T.);
#1746 = ORIENTED_EDGE('',*,*,#1747,.T.);
#1747 = EDGE_CURVE('',#1724,#1748,#1750,.T.);
#1748 = VERTEX_POINT('',#1749);
#1749 = CARTESIAN_POINT('',(6.75,-3.955870983106,58.751378576294));
#1750 = LINE('',#1751,#1752);
#1751 = CARTESIAN_POINT('',(6.75,-3.955870983106,58.76));
#1752 = VECTOR('',#1753,1.);
#1753 = DIRECTION('',(2.22044604925E-16,-2.22044604925E-16,-1.));
#1754 = ORIENTED_EDGE('',*,*,#1755,.F.);
#1755 = EDGE_CURVE('',#852,#1748,#1756,.T.);
#1756 = LINE('',#1757,#1758);
#1757 = CARTESIAN_POINT('',(7.,-3.955870983106,58.751378576294));
#1758 = VECTOR('',#1759,1.);
#1759 = DIRECTION('',(-1.,1.110223024625E-16,-1.665334536938E-16));
#1760 = ORIENTED_EDGE('',*,*,#859,.F.);
#1761 = PLANE('',#1762);
#1762 = AXIS2_PLACEMENT_3D('',#1763,#1764,#1765);
#1763 = CARTESIAN_POINT('',(7.,-3.955870983106,58.76));
#1764 = DIRECTION('',(-1.110223024625E-16,-1.,2.22044604925E-16));
#1765 = DIRECTION('',(2.22044604925E-16,-2.22044604925E-16,-1.));
#1766 = ADVANCED_FACE('',(#1767),#1785,.T.);
#1767 = FACE_BOUND('',#1768,.T.);
#1768 = EDGE_LOOP('',(#1769,#1770,#1778,#1784));
#1769 = ORIENTED_EDGE('',*,*,#1755,.T.);
#1770 = ORIENTED_EDGE('',*,*,#1771,.T.);
#1771 = EDGE_CURVE('',#1748,#1772,#1774,.T.);
#1772 = VERTEX_POINT('',#1773);
#1773 = CARTESIAN_POINT('',(6.75,-4.218345438147,58.033501362398));
#1774 = LINE('',#1775,#1776);
#1775 = CARTESIAN_POINT('',(6.75,-3.955870983106,58.751378576294));
#1776 = VECTOR('',#1777,1.);
#1777 = DIRECTION('',(2.085424886455E-16,-0.343392812274,-0.939191874155
    ));
#1778 = ORIENTED_EDGE('',*,*,#1779,.F.);
#1779 = EDGE_CURVE('',#844,#1772,#1780,.T.);
#1780 = LINE('',#1781,#1782);
#1781 = CARTESIAN_POINT('',(7.,-4.218345438147,58.033501362398));
#1782 = VECTOR('',#1783,1.);
#1783 = DIRECTION('',(-1.,1.110223024625E-16,-1.665334536938E-16));
#1784 = ORIENTED_EDGE('',*,*,#851,.F.);
#1785 = PLANE('',#1786);
#1786 = AXIS2_PLACEMENT_3D('',#1787,#1788,#1789);
#1787 = CARTESIAN_POINT('',(7.,-3.955870983106,58.751378576294));
#1788 = DIRECTION('',(-1.614576353244E-16,-0.939191874155,0.343392812274
    ));
#1789 = DIRECTION('',(2.085424886455E-16,-0.343392812274,-0.939191874155
    ));
#1790 = ADVANCED_FACE('',(#1791),#1802,.T.);
#1791 = FACE_BOUND('',#1792,.T.);
#1792 = EDGE_LOOP('',(#1793,#1794,#1800,#1801));
#1793 = ORIENTED_EDGE('',*,*,#1779,.T.);
#1794 = ORIENTED_EDGE('',*,*,#1795,.T.);
#1795 = EDGE_CURVE('',#1772,#1474,#1796,.T.);
#1796 = LINE('',#1797,#1798);
#1797 = CARTESIAN_POINT('',(6.75,-4.218345438147,58.033501362398));
#1798 = VECTOR('',#1799,1.);
#1799 = DIRECTION('',(2.088106293716E-16,0.340071804005,-0.940399472629)
  );
#1800 = ORIENTED_EDGE('',*,*,#1473,.F.);
#1801 = ORIENTED_EDGE('',*,*,#843,.F.);
#1802 = PLANE('',#1803);
#1803 = AXIS2_PLACEMENT_3D('',#1804,#1805,#1806);
#1804 = CARTESIAN_POINT('',(7.,-4.218345438147,58.033501362398));
#1805 = DIRECTION('',(-4.777198266088E-17,-0.940399472629,
    -0.340071804005));
#1806 = DIRECTION('',(2.088106293716E-16,0.340071804005,-0.940399472629)
  );
#1807 = ADVANCED_FACE('',(#1808),#1814,.F.);
#1808 = FACE_BOUND('',#1809,.F.);
#1809 = EDGE_LOOP('',(#1810,#1811,#1812,#1813));
#1810 = ORIENTED_EDGE('',*,*,#1045,.F.);
#1811 = ORIENTED_EDGE('',*,*,#1012,.F.);
#1812 = ORIENTED_EDGE('',*,*,#969,.T.);
#1813 = ORIENTED_EDGE('',*,*,#1372,.T.);
#1814 = PLANE('',#1815);
#1815 = AXIS2_PLACEMENT_3D('',#1816,#1817,#1818);
#1816 = CARTESIAN_POINT('',(-7.,-8.25,59.2389));
#1817 = DIRECTION('',(0.,-2.22044604925E-16,-1.));
#1818 = DIRECTION('',(1.,0.,0.));
#1819 = ADVANCED_FACE('',(#1820),#1839,.F.);
#1820 = FACE_BOUND('',#1821,.F.);
#1821 = EDGE_LOOP('',(#1822,#1831,#1837,#1838));
#1822 = ORIENTED_EDGE('',*,*,#1823,.F.);
#1823 = EDGE_CURVE('',#1824,#1824,#1826,.T.);
#1824 = VERTEX_POINT('',#1825);
#1825 = CARTESIAN_POINT('',(-4.5,1.3,55.850848196042));
#1826 = CIRCLE('',#1827,2.05);
#1827 = AXIS2_PLACEMENT_3D('',#1828,#1829,#1830);
#1828 = CARTESIAN_POINT('',(-4.5,-0.75,55.850848196042));
#1829 = DIRECTION('',(1.,0.,0.));
#1830 = DIRECTION('',(0.,1.,0.));
#1831 = ORIENTED_EDGE('',*,*,#1832,.T.);
#1832 = EDGE_CURVE('',#1824,#986,#1833,.T.);
#1833 = LINE('',#1834,#1835);
#1834 = CARTESIAN_POINT('',(-4.5,1.3,55.850848196042));
#1835 = VECTOR('',#1836,1.);
#1836 = DIRECTION('',(-1.,0.,0.));
#1837 = ORIENTED_EDGE('',*,*,#985,.T.);
#1838 = ORIENTED_EDGE('',*,*,#1832,.F.);
#1839 = CYLINDRICAL_SURFACE('',#1840,2.05);
#1840 = AXIS2_PLACEMENT_3D('',#1841,#1842,#1843);
#1841 = CARTESIAN_POINT('',(-4.5,-0.75,55.850848196042));
#1842 = DIRECTION('',(1.,0.,0.));
#1843 = DIRECTION('',(0.,1.,0.));
#1844 = ADVANCED_FACE('',(#1845),#1864,.F.);
#1845 = FACE_BOUND('',#1846,.F.);
#1846 = EDGE_LOOP('',(#1847,#1855,#1856,#1857));
#1847 = ORIENTED_EDGE('',*,*,#1848,.F.);
#1848 = EDGE_CURVE('',#1064,#1849,#1851,.T.);
#1849 = VERTEX_POINT('',#1850);
#1850 = CARTESIAN_POINT('',(-4.5,0.35,55.850848196042));
#1851 = LINE('',#1852,#1853);
#1852 = CARTESIAN_POINT('',(50.,0.35,55.850848196042));
#1853 = VECTOR('',#1854,1.);
#1854 = DIRECTION('',(-1.,0.,0.));
#1855 = ORIENTED_EDGE('',*,*,#1063,.F.);
#1856 = ORIENTED_EDGE('',*,*,#1848,.T.);
#1857 = ORIENTED_EDGE('',*,*,#1858,.T.);
#1858 = EDGE_CURVE('',#1849,#1849,#1859,.T.);
#1859 = CIRCLE('',#1860,1.1);
#1860 = AXIS2_PLACEMENT_3D('',#1861,#1862,#1863);
#1861 = CARTESIAN_POINT('',(-4.5,-0.75,55.850848196042));
#1862 = DIRECTION('',(1.,0.,0.));
#1863 = DIRECTION('',(0.,1.,0.));
#1864 = CYLINDRICAL_SURFACE('',#1865,1.1);
#1865 = AXIS2_PLACEMENT_3D('',#1866,#1867,#1868);
#1866 = CARTESIAN_POINT('',(50.,-0.75,55.850848196042));
#1867 = DIRECTION('',(1.,0.,0.));
#1868 = DIRECTION('',(0.,1.,0.));
#1869 = ADVANCED_FACE('',(#1870),#1889,.F.);
#1870 = FACE_BOUND('',#1871,.T.);
#1871 = EDGE_LOOP('',(#1872,#1880,#1881,#1882));
#1872 = ORIENTED_EDGE('',*,*,#1873,.F.);
#1873 = EDGE_CURVE('',#1245,#1874,#1876,.T.);
#1874 = VERTEX_POINT('',#1875);
#1875 = CARTESIAN_POINT('',(-8.351828008649,-5.35,16.423871960498));
#1876 = LINE('',#1877,#1878);
#1877 = CARTESIAN_POINT('',(-8.351828008649,-5.35,15.073871960498));
#1878 = VECTOR('',#1879,1.);
#1879 = DIRECTION('',(0.,0.,1.));
#1880 = ORIENTED_EDGE('',*,*,#1244,.T.);
#1881 = ORIENTED_EDGE('',*,*,#1873,.T.);
#1882 = ORIENTED_EDGE('',*,*,#1883,.T.);
#1883 = EDGE_CURVE('',#1874,#1874,#1884,.T.);
#1884 = CIRCLE('',#1885,1.1);
#1885 = AXIS2_PLACEMENT_3D('',#1886,#1887,#1888);
#1886 = CARTESIAN_POINT('',(-9.451828008649,-5.35,16.423871960498));
#1887 = DIRECTION('',(0.,0.,1.));
#1888 = DIRECTION('',(1.,0.,0.));
#1889 = CYLINDRICAL_SURFACE('',#1890,1.1);
#1890 = AXIS2_PLACEMENT_3D('',#1891,#1892,#1893);
#1891 = CARTESIAN_POINT('',(-9.451828008649,-5.35,15.073871960498));
#1892 = DIRECTION('',(0.,0.,-1.));
#1893 = DIRECTION('',(1.,0.,0.));
#1894 = ADVANCED_FACE('',(#1895),#1914,.F.);
#1895 = FACE_BOUND('',#1896,.T.);
#1896 = EDGE_LOOP('',(#1897,#1905,#1906,#1907));
#1897 = ORIENTED_EDGE('',*,*,#1898,.F.);
#1898 = EDGE_CURVE('',#1256,#1899,#1901,.T.);
#1899 = VERTEX_POINT('',#1900);
#1900 = CARTESIAN_POINT('',(10.551828008649,-5.35,16.423871960498));
#1901 = LINE('',#1902,#1903);
#1902 = CARTESIAN_POINT('',(10.551828008649,-5.35,15.073871960498));
#1903 = VECTOR('',#1904,1.);
#1904 = DIRECTION('',(0.,0.,1.));
#1905 = ORIENTED_EDGE('',*,*,#1255,.T.);
#1906 = ORIENTED_EDGE('',*,*,#1898,.T.);
#1907 = ORIENTED_EDGE('',*,*,#1908,.T.);
#1908 = EDGE_CURVE('',#1899,#1899,#1909,.T.);
#1909 = CIRCLE('',#1910,1.1);
#1910 = AXIS2_PLACEMENT_3D('',#1911,#1912,#1913);
#1911 = CARTESIAN_POINT('',(9.451828008649,-5.35,16.423871960498));
#1912 = DIRECTION('',(0.,0.,1.));
#1913 = DIRECTION('',(1.,0.,0.));
#1914 = CYLINDRICAL_SURFACE('',#1915,1.1);
#1915 = AXIS2_PLACEMENT_3D('',#1916,#1917,#1918);
#1916 = CARTESIAN_POINT('',(9.451828008649,-5.35,15.073871960498));
#1917 = DIRECTION('',(0.,0.,-1.));
#1918 = DIRECTION('',(1.,0.,0.));
#1919 = ADVANCED_FACE('',(#1920,#1923),#1926,.T.);
#1920 = FACE_BOUND('',#1921,.T.);
#1921 = EDGE_LOOP('',(#1922));
#1922 = ORIENTED_EDGE('',*,*,#1386,.T.);
#1923 = FACE_BOUND('',#1924,.T.);
#1924 = EDGE_LOOP('',(#1925));
#1925 = ORIENTED_EDGE('',*,*,#1908,.F.);
#1926 = PLANE('',#1927);
#1927 = AXIS2_PLACEMENT_3D('',#1928,#1929,#1930);
#1928 = CARTESIAN_POINT('',(1.62790491969E-16,-5.35,16.423871960498));
#1929 = DIRECTION('',(0.,0.,1.));
#1930 = DIRECTION('',(1.,0.,0.));
#1931 = ADVANCED_FACE('',(#1932,#1935),#1938,.T.);
#1932 = FACE_BOUND('',#1933,.T.);
#1933 = EDGE_LOOP('',(#1934));
#1934 = ORIENTED_EDGE('',*,*,#1411,.T.);
#1935 = FACE_BOUND('',#1936,.T.);
#1936 = EDGE_LOOP('',(#1937));
#1937 = ORIENTED_EDGE('',*,*,#1883,.F.);
#1938 = PLANE('',#1939);
#1939 = AXIS2_PLACEMENT_3D('',#1940,#1941,#1942);
#1940 = CARTESIAN_POINT('',(1.62790491969E-16,-5.35,16.423871960498));
#1941 = DIRECTION('',(0.,0.,1.));
#1942 = DIRECTION('',(1.,0.,0.));
#1943 = ADVANCED_FACE('',(#1944),#1960,.T.);
#1944 = FACE_BOUND('',#1945,.T.);
#1945 = EDGE_LOOP('',(#1946,#1947,#1948,#1949,#1950,#1951,#1952,#1953,
    #1954,#1955,#1956,#1957,#1958,#1959));
#1946 = ORIENTED_EDGE('',*,*,#1481,.F.);
#1947 = ORIENTED_EDGE('',*,*,#1795,.F.);
#1948 = ORIENTED_EDGE('',*,*,#1771,.F.);
#1949 = ORIENTED_EDGE('',*,*,#1747,.F.);
#1950 = ORIENTED_EDGE('',*,*,#1723,.F.);
#1951 = ORIENTED_EDGE('',*,*,#1699,.F.);
#1952 = ORIENTED_EDGE('',*,*,#1675,.F.);
#1953 = ORIENTED_EDGE('',*,*,#1651,.F.);
#1954 = ORIENTED_EDGE('',*,*,#1625,.F.);
#1955 = ORIENTED_EDGE('',*,*,#1601,.F.);
#1956 = ORIENTED_EDGE('',*,*,#1577,.F.);
#1957 = ORIENTED_EDGE('',*,*,#1553,.F.);
#1958 = ORIENTED_EDGE('',*,*,#1529,.F.);
#1959 = ORIENTED_EDGE('',*,*,#1505,.F.);
#1960 = PLANE('',#1961);
#1961 = AXIS2_PLACEMENT_3D('',#1962,#1963,#1964);
#1962 = CARTESIAN_POINT('',(6.75,-4.344483880241,58.006112884755));
#1963 = DIRECTION('',(1.,4.930380657631E-32,2.22044604925E-16));
#1964 = DIRECTION('',(0.,1.,-2.22044604925E-16));
#1965 = ADVANCED_FACE('',(#1966,#1969),#1972,.F.);
#1966 = FACE_BOUND('',#1967,.F.);
#1967 = EDGE_LOOP('',(#1968));
#1968 = ORIENTED_EDGE('',*,*,#1823,.T.);
#1969 = FACE_BOUND('',#1970,.F.);
#1970 = EDGE_LOOP('',(#1971));
#1971 = ORIENTED_EDGE('',*,*,#1858,.F.);
#1972 = PLANE('',#1973);
#1973 = AXIS2_PLACEMENT_3D('',#1974,#1975,#1976);
#1974 = CARTESIAN_POINT('',(-4.5,-0.75,55.850848196042));
#1975 = DIRECTION('',(1.,0.,0.));
#1976 = DIRECTION('',(0.,0.,1.));
#1977 = ( GEOMETRIC_REPRESENTATION_CONTEXT(3) 
GLOBAL_UNCERTAINTY_ASSIGNED_CONTEXT((#1981)) 
GLOBAL_UNIT_ASSIGNED_CONTEXT((#1978,#1979,#1980)) REPRESENTATION_CONTEXT
('Context #1','3D Context with UNIT and UNCERTAINTY') );
#1978 = ( LENGTH_UNIT() NAMED_UNIT(*) SI_UNIT(.MILLI.,.METRE.) );
#1979 = ( NAMED_UNIT(*) PLANE_ANGLE_UNIT() SI_UNIT($,.RADIAN.) );
#1980 = ( NAMED_UNIT(*) SI_UNIT($,.STERADIAN.) SOLID_ANGLE_UNIT() );
#1981 = UNCERTAINTY_MEASURE_WITH_UNIT(LENGTH_MEASURE(5.E-06),#1978,
  'distance_accuracy_value','confusion accuracy');
#1982 = PRODUCT_RELATED_PRODUCT_CATEGORY('part',$,(#7));
#1983 = MECHANICAL_DESIGN_GEOMETRIC_PRESENTATION_REPRESENTATION('',(
    #1984),#1977);
#1984 = STYLED_ITEM('color',(#1985),#15);
#1985 = PRESENTATION_STYLE_ASSIGNMENT((#1986,#1992));
#1986 = SURFACE_STYLE_USAGE(.BOTH.,#1987);
#1987 = SURFACE_SIDE_STYLE('',(#1988));
#1988 = SURFACE_STYLE_FILL_AREA(#1989);
#1989 = FILL_AREA_STYLE('',(#1990));
#1990 = FILL_AREA_STYLE_COLOUR('',#1991);
#1991 = COLOUR_RGB('',0.447058818107,0.474509808674,0.501960817233);
#1992 = CURVE_STYLE('',#1993,POSITIVE_LENGTH_MEASURE(0.1),#1994);
#1993 = DRAUGHTING_PRE_DEFINED_CURVE_FONT('continuous');
#1994 = COLOUR_RGB('',9.803921802644E-02,9.803921802644E-02,
  9.803921802644E-02);
ENDSEC;
END-ISO-10303-21;
