ISO-10303-21;
HEADER;
FILE_DESCRIPTION(('FreeCAD Model'),'2;1');
FILE_NAME('Open CASCADE Shape Model','2025-11-02T18:45:42',(''),(''),
  'Open CASCADE STEP processor 7.8','FreeCAD','Unknown');
FILE_SCHEMA(('AUTOMOTIVE_DESIGN { 1 0 10303 214 1 1 1 1 }'));
ENDSEC;
DATA;
#1 = APPLICATION_PROTOCOL_DEFINITION('international standard',
  'automotive_design',2000,#2);
#2 = APPLICATION_CONTEXT(
  'core data for automotive mechanical design processes');
#3 = SHAPE_DEFINITION_REPRESENTATION(#4,#10);
#4 = PRODUCT_DEFINITION_SHAPE('','',#5);
#5 = PRODUCT_DEFINITION('design','',#6,#9);
#6 = PRODUCT_DEFINITION_FORMATION('','',#7);
#7 = PRODUCT('KnobCover','KnobCover','',(#8));
#8 = PRODUCT_CONTEXT('',#2,'mechanical');
#9 = PRODUCT_DEFINITION_CONTEXT('part definition',#2,'design');
#10 = ADVANCED_BREP_SHAPE_REPRESENTATION('',(#11,#15),#817);
#11 = AXIS2_PLACEMENT_3D('',#12,#13,#14);
#12 = CARTESIAN_POINT('',(0.,0.,0.));
#13 = DIRECTION('',(0.,0.,1.));
#14 = DIRECTION('',(1.,0.,-0.));
#15 = MANIFOLD_SOLID_BREP('',#16);
#16 = CLOSED_SHELL('',(#17,#61,#168,#310,#452,#552,#585,#610,#636,#661,
    #687,#712,#738,#756,#783,#808));
#17 = ADVANCED_FACE('',(#18),#56,.F.);
#18 = FACE_BOUND('',#19,.F.);
#19 = EDGE_LOOP('',(#20,#31,#40,#49));
#20 = ORIENTED_EDGE('',*,*,#21,.T.);
#21 = EDGE_CURVE('',#22,#24,#26,.T.);
#22 = VERTEX_POINT('',#23);
#23 = CARTESIAN_POINT('',(4.,0.,-1.));
#24 = VERTEX_POINT('',#25);
#25 = CARTESIAN_POINT('',(2.449293598295E-16,4.,-1.));
#26 = CIRCLE('',#27,4.);
#27 = AXIS2_PLACEMENT_3D('',#28,#29,#30);
#28 = CARTESIAN_POINT('',(0.,0.,-1.));
#29 = DIRECTION('',(0.,0.,1.));
#30 = DIRECTION('',(1.,0.,0.));
#31 = ORIENTED_EDGE('',*,*,#32,.T.);
#32 = EDGE_CURVE('',#24,#33,#35,.T.);
#33 = VERTEX_POINT('',#34);
#34 = CARTESIAN_POINT('',(-4.,4.898587196589E-16,-1.));
#35 = CIRCLE('',#36,4.);
#36 = AXIS2_PLACEMENT_3D('',#37,#38,#39);
#37 = CARTESIAN_POINT('',(0.,0.,-1.));
#38 = DIRECTION('',(0.,0.,1.));
#39 = DIRECTION('',(1.,0.,0.));
#40 = ORIENTED_EDGE('',*,*,#41,.T.);
#41 = EDGE_CURVE('',#33,#42,#44,.T.);
#42 = VERTEX_POINT('',#43);
#43 = CARTESIAN_POINT('',(-7.347880794884E-16,-4.,-1.));
#44 = CIRCLE('',#45,4.);
#45 = AXIS2_PLACEMENT_3D('',#46,#47,#48);
#46 = CARTESIAN_POINT('',(0.,0.,-1.));
#47 = DIRECTION('',(0.,0.,1.));
#48 = DIRECTION('',(1.,0.,0.));
#49 = ORIENTED_EDGE('',*,*,#50,.T.);
#50 = EDGE_CURVE('',#42,#22,#51,.T.);
#51 = CIRCLE('',#52,4.);
#52 = AXIS2_PLACEMENT_3D('',#53,#54,#55);
#53 = CARTESIAN_POINT('',(0.,0.,-1.));
#54 = DIRECTION('',(0.,0.,1.));
#55 = DIRECTION('',(1.,0.,0.));
#56 = PLANE('',#57);
#57 = AXIS2_PLACEMENT_3D('',#58,#59,#60);
#58 = CARTESIAN_POINT('',(-3.038755850088E-16,-1.836970198721E-16,-1.));
#59 = DIRECTION('',(0.,0.,1.));
#60 = DIRECTION('',(1.,0.,0.));
#61 = ADVANCED_FACE('',(#62),#163,.T.);
#62 = FACE_BOUND('',#63,.T.);
#63 = EDGE_LOOP('',(#64,#92,#93,#156));
#64 = ORIENTED_EDGE('',*,*,#65,.T.);
#65 = EDGE_CURVE('',#66,#22,#68,.T.);
#66 = VERTEX_POINT('',#67);
#67 = CARTESIAN_POINT('',(4.314814814815,1.277643578567,-0.5));
#68 = B_SPLINE_CURVE_WITH_KNOTS('',8,(#69,#70,#71,#72,#73,#74,#75,#76,
    #77,#78,#79,#80,#81,#82,#83,#84,#85,#86,#87,#88,#89,#90,#91),
  .UNSPECIFIED.,.F.,.F.,(9,7,7,9),(0.,0.609293376044,0.771862837661,1.),
  .UNSPECIFIED.);
#69 = CARTESIAN_POINT('',(4.314814814815,1.277643578567,-0.5));
#70 = CARTESIAN_POINT('',(4.278291205645,1.208029678846,-0.554785413754)
  );
#71 = CARTESIAN_POINT('',(4.243047635588,1.135327087642,-0.608413029891)
  );
#72 = CARTESIAN_POINT('',(4.209074151503,1.05899270613,-0.660841476031)
  );
#73 = CARTESIAN_POINT('',(4.176494639917,0.978485693809,-0.711826647023)
  );
#74 = CARTESIAN_POINT('',(4.145547128576,0.893280459724,-0.760928650485)
  );
#75 = CARTESIAN_POINT('',(4.116603567156,0.80277723372,-0.807457510886)
  );
#76 = CARTESIAN_POINT('',(4.090143569439,0.706338072775,-0.850494551957)
  );
#77 = CARTESIAN_POINT('',(4.06068828266,0.575242005193,-0.89885435996));
#78 = CARTESIAN_POINT('',(4.0547178111,0.54715090517,-0.908685528314));
#79 = CARTESIAN_POINT('',(4.048995787043,0.518569412835,-0.918134153694)
  );
#80 = CARTESIAN_POINT('',(4.043539454321,0.489490799149,-0.927168101405)
  );
#81 = CARTESIAN_POINT('',(4.038367807043,0.459913090065,-0.935752071599)
  );
#82 = CARTESIAN_POINT('',(4.033501153627,0.429839853641,-0.943848382122)
  );
#83 = CARTESIAN_POINT('',(4.02896068084,0.399280987157,-0.951417751365)
  );
#84 = CARTESIAN_POINT('',(4.0188843652,0.324711981488,-0.968246598483));
#85 = CARTESIAN_POINT('',(4.013682572506,0.280225380052,-0.976961595259)
  );
#86 = CARTESIAN_POINT('',(4.009227868493,0.234872883641,-0.984445431046)
  );
#87 = CARTESIAN_POINT('',(4.005582902184,0.188760954753,-0.990582335945)
  );
#88 = CARTESIAN_POINT('',(4.002803678904,0.142026373406,-0.995268747018)
  );
#89 = CARTESIAN_POINT('',(4.000934227676,9.484023690514E-02,
    -0.998423517676));
#90 = CARTESIAN_POINT('',(4.,4.741292065619E-02,-1.));
#91 = CARTESIAN_POINT('',(4.,0.,-1.));
#92 = ORIENTED_EDGE('',*,*,#21,.T.);
#93 = ORIENTED_EDGE('',*,*,#94,.T.);
#94 = EDGE_CURVE('',#24,#95,#97,.T.);
#95 = VERTEX_POINT('',#96);
#96 = CARTESIAN_POINT('',(1.277643578569,4.314814814814,-0.5));
#97 = B_SPLINE_CURVE_WITH_KNOTS('',8,(#98,#99,#100,#101,#102,#103,#104,
    #105,#106,#107,#108,#109,#110,#111,#112,#113,#114,#115,#116,#117,
    #118,#119,#120,#121,#122,#123,#124,#125,#126,#127,#128,#129,#130,
    #131,#132,#133,#134,#135,#136,#137,#138,#139,#140,#141,#142,#143,
    #144,#145,#146,#147,#148,#149,#150,#151,#152,#153,#154,#155),
  .UNSPECIFIED.,.F.,.F.,(9,7,7,7,7,7,7,7,9),(0.,0.304594251258,
    0.385864991078,0.424649283481,0.499944213237,0.571232443459,
    0.607596588701,0.678336783386,1.),.UNSPECIFIED.);
#98 = CARTESIAN_POINT('',(-1.277643578567,4.314814814815,-0.5));
#99 = CARTESIAN_POINT('',(-1.208029678846,4.278291205646,-0.554785413754
    ));
#100 = CARTESIAN_POINT('',(-1.135327087641,4.243047635588,
    -0.608413029891));
#101 = CARTESIAN_POINT('',(-1.058992706133,4.209074151504,-0.66084147603
    ));
#102 = CARTESIAN_POINT('',(-0.978485693805,4.176494639916,
    -0.711826647024));
#103 = CARTESIAN_POINT('',(-0.893280459727,4.145547128577,
    -0.760928650484));
#104 = CARTESIAN_POINT('',(-0.802777233718,4.116603567156,
    -0.807457510887));
#105 = CARTESIAN_POINT('',(-0.706338072775,4.090143569439,
    -0.850494551957));
#106 = CARTESIAN_POINT('',(-0.575242005193,4.06068828266,-0.89885435996)
  );
#107 = CARTESIAN_POINT('',(-0.54715090517,4.0547178111,-0.908685528314)
  );
#108 = CARTESIAN_POINT('',(-0.518569412835,4.048995787043,
    -0.918134153694));
#109 = CARTESIAN_POINT('',(-0.489490799149,4.043539454321,
    -0.927168101405));
#110 = CARTESIAN_POINT('',(-0.459913090065,4.038367807043,
    -0.935752071599));
#111 = CARTESIAN_POINT('',(-0.429839853641,4.033501153627,
    -0.943848382122));
#112 = CARTESIAN_POINT('',(-0.399280987157,4.02896068084,-0.951417751365
    ));
#113 = CARTESIAN_POINT('',(-0.353446465765,4.022767181267,
    -0.961761756174));
#114 = CARTESIAN_POINT('',(-0.338533151032,4.020845575359,
    -0.964974267462));
#115 = CARTESIAN_POINT('',(-0.323515671359,4.019005625352,
    -0.968053127856));
#116 = CARTESIAN_POINT('',(-0.30839668842,4.01724972001,-0.97099391991)
  );
#117 = CARTESIAN_POINT('',(-0.293179414227,4.015580211615,
    -0.973792295851));
#118 = CARTESIAN_POINT('',(-0.27786761114,4.013999415971,-0.97644397758)
  );
#119 = CARTESIAN_POINT('',(-0.262465591856,4.0125096124,-0.978944756673)
  );
#120 = CARTESIAN_POINT('',(-0.216911392165,4.00840177761,-0.985844455394
    ));
#121 = CARTESIAN_POINT('',(-0.186518761074,4.006041430932,
    -0.989814905368));
#122 = CARTESIAN_POINT('',(-0.155841598414,4.004048600511,
    -0.993171289911));
#123 = CARTESIAN_POINT('',(-0.124926150799,4.002437872026,
    -0.995886737416));
#124 = CARTESIAN_POINT('',(-9.382398659757E-02,4.001221153934,
    -0.997939297945));
#125 = CARTESIAN_POINT('',(-6.259234333808E-02,4.000407011361,
    -0.999313182117));
#126 = CARTESIAN_POINT('',(-3.129447511595E-02,4.,-1.));
#127 = CARTESIAN_POINT('',(2.962918956085E-02,4.,-1.));
#128 = CARTESIAN_POINT('',(5.92610906522E-02,4.000364843981,
    -0.999384336201));
#129 = CARTESIAN_POINT('',(8.883700242098E-02,4.001094627064,
    -0.998152813393));
#130 = CARTESIAN_POINT('',(0.11830312669,4.002185703626,-0.996312145109)
  );
#131 = CARTESIAN_POINT('',(0.147610321505,4.003631179543,-0.99387503844)
  );
#132 = CARTESIAN_POINT('',(0.176713854681,4.005421404434,-0.990859278848
    ));
#133 = CARTESIAN_POINT('',(0.205573157349,4.007544463905,-0.987286814971
    ));
#134 = CARTESIAN_POINT('',(0.248729437243,4.011232442687,-0.981089406474
    ));
#135 = CARTESIAN_POINT('',(0.263235052966,4.012561350413,-0.978857506752
    ));
#136 = CARTESIAN_POINT('',(0.277664144616,4.013971595033,-0.976490464834
    ));
#137 = CARTESIAN_POINT('',(0.292012868573,4.015461336046,-0.973991677862
    ));
#138 = CARTESIAN_POINT('',(0.306277817657,4.017028692387,-0.971364619563
    ));
#139 = CARTESIAN_POINT('',(0.320456021123,4.018671742428,-0.96861284025)
  );
#140 = CARTESIAN_POINT('',(0.334544944663,4.020388523973,-0.965739966819
    ));
#141 = CARTESIAN_POINT('',(0.375772309905,4.025656273653,-0.956932657953
    ));
#142 = CARTESIAN_POINT('',(0.402655414149,4.029406950685,-0.950671360572
    ));
#143 = CARTESIAN_POINT('',(0.429177501623,4.0334147099,-0.943992393395)
  );
#144 = CARTESIAN_POINT('',(0.45532900733,4.037665292401,-0.936922169656)
  );
#145 = CARTESIAN_POINT('',(0.481104627226,4.042144812492,-0.929486431837
    ));
#146 = CARTESIAN_POINT('',(0.506502842654,4.04684003432,-0.921709750454)
  );
#147 = CARTESIAN_POINT('',(0.531525444769,4.051738648516,-0.913615022849
    ));
#148 = CARTESIAN_POINT('',(0.668270580297,4.079978415989,-0.867063420859
    ));
#149 = CARTESIAN_POINT('',(0.772242839922,4.107009253179,-0.822911079717
    ));
#150 = CARTESIAN_POINT('',(0.86941173363,4.136977829832,-0.774545887978)
  );
#151 = CARTESIAN_POINT('',(0.960501017799,4.16927323363,-0.723140967174)
  );
#152 = CARTESIAN_POINT('',(1.046223344569,4.203419491639,-0.669575253402
    ));
#153 = CARTESIAN_POINT('',(1.127207341157,4.239122510495,-0.614388724751
    ));
#154 = CARTESIAN_POINT('',(1.204120610534,4.276240274958,-0.557861809785
    ));
#155 = CARTESIAN_POINT('',(1.277643578567,4.314814814815,-0.5));
#156 = ORIENTED_EDGE('',*,*,#157,.F.);
#157 = EDGE_CURVE('',#66,#95,#158,.T.);
#158 = CIRCLE('',#159,4.5);
#159 = AXIS2_PLACEMENT_3D('',#160,#161,#162);
#160 = CARTESIAN_POINT('',(0.,0.,-0.5));
#161 = DIRECTION('',(0.,0.,1.));
#162 = DIRECTION('',(1.,0.,0.));
#163 = CONICAL_SURFACE('',#164,4.5,0.785398163397);
#164 = AXIS2_PLACEMENT_3D('',#165,#166,#167);
#165 = CARTESIAN_POINT('',(0.,0.,-0.5));
#166 = DIRECTION('',(0.,0.,1.));
#167 = DIRECTION('',(1.,0.,0.));
#168 = ADVANCED_FACE('',(#169),#305,.T.);
#169 = FACE_BOUND('',#170,.T.);
#170 = EDGE_LOOP('',(#171,#234,#235,#298));
#171 = ORIENTED_EDGE('',*,*,#172,.T.);
#172 = EDGE_CURVE('',#173,#24,#175,.T.);
#173 = VERTEX_POINT('',#174);
#174 = CARTESIAN_POINT('',(-1.277643578568,4.314814814815,-0.5));
#175 = B_SPLINE_CURVE_WITH_KNOTS('',8,(#176,#177,#178,#179,#180,#181,
    #182,#183,#184,#185,#186,#187,#188,#189,#190,#191,#192,#193,#194,
    #195,#196,#197,#198,#199,#200,#201,#202,#203,#204,#205,#206,#207,
    #208,#209,#210,#211,#212,#213,#214,#215,#216,#217,#218,#219,#220,
    #221,#222,#223,#224,#225,#226,#227,#228,#229,#230,#231,#232,#233),
  .UNSPECIFIED.,.F.,.F.,(9,7,7,7,7,7,7,7,9),(0.,0.304594251258,
    0.385864991078,0.424649283481,0.499944213237,0.571232443459,
    0.607596588701,0.678336783386,1.),.UNSPECIFIED.);
#176 = CARTESIAN_POINT('',(-1.277643578567,4.314814814815,-0.5));
#177 = CARTESIAN_POINT('',(-1.208029678846,4.278291205646,
    -0.554785413754));
#178 = CARTESIAN_POINT('',(-1.135327087641,4.243047635588,
    -0.608413029891));
#179 = CARTESIAN_POINT('',(-1.058992706133,4.209074151504,-0.66084147603
    ));
#180 = CARTESIAN_POINT('',(-0.978485693805,4.176494639916,
    -0.711826647024));
#181 = CARTESIAN_POINT('',(-0.893280459727,4.145547128577,
    -0.760928650484));
#182 = CARTESIAN_POINT('',(-0.802777233718,4.116603567156,
    -0.807457510887));
#183 = CARTESIAN_POINT('',(-0.706338072775,4.090143569439,
    -0.850494551957));
#184 = CARTESIAN_POINT('',(-0.575242005193,4.06068828266,-0.89885435996)
  );
#185 = CARTESIAN_POINT('',(-0.54715090517,4.0547178111,-0.908685528314)
  );
#186 = CARTESIAN_POINT('',(-0.518569412835,4.048995787043,
    -0.918134153694));
#187 = CARTESIAN_POINT('',(-0.489490799149,4.043539454321,
    -0.927168101405));
#188 = CARTESIAN_POINT('',(-0.459913090065,4.038367807043,
    -0.935752071599));
#189 = CARTESIAN_POINT('',(-0.429839853641,4.033501153627,
    -0.943848382122));
#190 = CARTESIAN_POINT('',(-0.399280987157,4.02896068084,-0.951417751365
    ));
#191 = CARTESIAN_POINT('',(-0.353446465765,4.022767181267,
    -0.961761756174));
#192 = CARTESIAN_POINT('',(-0.338533151032,4.020845575359,
    -0.964974267462));
#193 = CARTESIAN_POINT('',(-0.323515671359,4.019005625352,
    -0.968053127856));
#194 = CARTESIAN_POINT('',(-0.30839668842,4.01724972001,-0.97099391991)
  );
#195 = CARTESIAN_POINT('',(-0.293179414227,4.015580211615,
    -0.973792295851));
#196 = CARTESIAN_POINT('',(-0.27786761114,4.013999415971,-0.97644397758)
  );
#197 = CARTESIAN_POINT('',(-0.262465591856,4.0125096124,-0.978944756673)
  );
#198 = CARTESIAN_POINT('',(-0.216911392165,4.00840177761,-0.985844455394
    ));
#199 = CARTESIAN_POINT('',(-0.186518761074,4.006041430932,
    -0.989814905368));
#200 = CARTESIAN_POINT('',(-0.155841598414,4.004048600511,
    -0.993171289911));
#201 = CARTESIAN_POINT('',(-0.124926150799,4.002437872026,
    -0.995886737416));
#202 = CARTESIAN_POINT('',(-9.382398659757E-02,4.001221153934,
    -0.997939297945));
#203 = CARTESIAN_POINT('',(-6.259234333808E-02,4.000407011361,
    -0.999313182117));
#204 = CARTESIAN_POINT('',(-3.129447511595E-02,4.,-1.));
#205 = CARTESIAN_POINT('',(2.962918956085E-02,4.,-1.));
#206 = CARTESIAN_POINT('',(5.92610906522E-02,4.000364843981,
    -0.999384336201));
#207 = CARTESIAN_POINT('',(8.883700242098E-02,4.001094627064,
    -0.998152813393));
#208 = CARTESIAN_POINT('',(0.11830312669,4.002185703626,-0.996312145109)
  );
#209 = CARTESIAN_POINT('',(0.147610321505,4.003631179543,-0.99387503844)
  );
#210 = CARTESIAN_POINT('',(0.176713854681,4.005421404434,-0.990859278848
    ));
#211 = CARTESIAN_POINT('',(0.205573157349,4.007544463905,-0.987286814971
    ));
#212 = CARTESIAN_POINT('',(0.248729437243,4.011232442687,-0.981089406474
    ));
#213 = CARTESIAN_POINT('',(0.263235052966,4.012561350413,-0.978857506752
    ));
#214 = CARTESIAN_POINT('',(0.277664144616,4.013971595033,-0.976490464834
    ));
#215 = CARTESIAN_POINT('',(0.292012868573,4.015461336046,-0.973991677862
    ));
#216 = CARTESIAN_POINT('',(0.306277817657,4.017028692387,-0.971364619563
    ));
#217 = CARTESIAN_POINT('',(0.320456021123,4.018671742428,-0.96861284025)
  );
#218 = CARTESIAN_POINT('',(0.334544944663,4.020388523973,-0.965739966819
    ));
#219 = CARTESIAN_POINT('',(0.375772309905,4.025656273653,-0.956932657953
    ));
#220 = CARTESIAN_POINT('',(0.402655414149,4.029406950685,-0.950671360572
    ));
#221 = CARTESIAN_POINT('',(0.429177501623,4.0334147099,-0.943992393395)
  );
#222 = CARTESIAN_POINT('',(0.45532900733,4.037665292401,-0.936922169656)
  );
#223 = CARTESIAN_POINT('',(0.481104627226,4.042144812492,-0.929486431837
    ));
#224 = CARTESIAN_POINT('',(0.506502842654,4.04684003432,-0.921709750454)
  );
#225 = CARTESIAN_POINT('',(0.531525444769,4.051738648516,-0.913615022849
    ));
#226 = CARTESIAN_POINT('',(0.668270580297,4.079978415989,-0.867063420859
    ));
#227 = CARTESIAN_POINT('',(0.772242839922,4.107009253179,-0.822911079717
    ));
#228 = CARTESIAN_POINT('',(0.86941173363,4.136977829832,-0.774545887978)
  );
#229 = CARTESIAN_POINT('',(0.960501017799,4.16927323363,-0.723140967174)
  );
#230 = CARTESIAN_POINT('',(1.046223344569,4.203419491639,-0.669575253402
    ));
#231 = CARTESIAN_POINT('',(1.127207341157,4.239122510495,-0.614388724751
    ));
#232 = CARTESIAN_POINT('',(1.204120610534,4.276240274958,-0.557861809785
    ));
#233 = CARTESIAN_POINT('',(1.277643578567,4.314814814815,-0.5));
#234 = ORIENTED_EDGE('',*,*,#32,.T.);
#235 = ORIENTED_EDGE('',*,*,#236,.T.);
#236 = EDGE_CURVE('',#33,#237,#239,.T.);
#237 = VERTEX_POINT('',#238);
#238 = CARTESIAN_POINT('',(-4.314814814814,1.277643578569,-0.5));
#239 = B_SPLINE_CURVE_WITH_KNOTS('',8,(#240,#241,#242,#243,#244,#245,
    #246,#247,#248,#249,#250,#251,#252,#253,#254,#255,#256,#257,#258,
    #259,#260,#261,#262,#263,#264,#265,#266,#267,#268,#269,#270,#271,
    #272,#273,#274,#275,#276,#277,#278,#279,#280,#281,#282,#283,#284,
    #285,#286,#287,#288,#289,#290,#291,#292,#293,#294,#295,#296,#297),
  .UNSPECIFIED.,.F.,.F.,(9,7,7,7,7,7,7,7,9),(0.,0.304594251256,
    0.385864991076,0.424649283479,0.499944213236,0.571232443457,
    0.607596588698,0.678336783384,1.),.UNSPECIFIED.);
#240 = CARTESIAN_POINT('',(-4.314814814815,-1.277643578567,-0.5));
#241 = CARTESIAN_POINT('',(-4.278291205646,-1.208029678846,
    -0.554785413754));
#242 = CARTESIAN_POINT('',(-4.243047635588,-1.135327087641,
    -0.608413029892));
#243 = CARTESIAN_POINT('',(-4.209074151505,-1.058992706133,
    -0.660841476029));
#244 = CARTESIAN_POINT('',(-4.176494639916,-0.978485693804,
    -0.711826647026));
#245 = CARTESIAN_POINT('',(-4.145547128577,-0.893280459728,
    -0.760928650483));
#246 = CARTESIAN_POINT('',(-4.116603567156,-0.802777233718,
    -0.807457510887));
#247 = CARTESIAN_POINT('',(-4.090143569439,-0.706338072775,
    -0.850494551957));
#248 = CARTESIAN_POINT('',(-4.06068828266,-0.575242005193,-0.89885435996
    ));
#249 = CARTESIAN_POINT('',(-4.0547178111,-0.54715090517,-0.908685528314)
  );
#250 = CARTESIAN_POINT('',(-4.048995787043,-0.518569412835,
    -0.918134153694));
#251 = CARTESIAN_POINT('',(-4.043539454321,-0.489490799149,
    -0.927168101405));
#252 = CARTESIAN_POINT('',(-4.038367807043,-0.459913090065,
    -0.935752071599));
#253 = CARTESIAN_POINT('',(-4.033501153627,-0.429839853641,
    -0.943848382122));
#254 = CARTESIAN_POINT('',(-4.02896068084,-0.399280987157,
    -0.951417751365));
#255 = CARTESIAN_POINT('',(-4.022767181267,-0.353446465765,
    -0.961761756174));
#256 = CARTESIAN_POINT('',(-4.020845575359,-0.338533151032,
    -0.964974267462));
#257 = CARTESIAN_POINT('',(-4.019005625352,-0.323515671359,
    -0.968053127856));
#258 = CARTESIAN_POINT('',(-4.01724972001,-0.30839668842,-0.97099391991)
  );
#259 = CARTESIAN_POINT('',(-4.015580211615,-0.293179414227,
    -0.973792295851));
#260 = CARTESIAN_POINT('',(-4.013999415971,-0.27786761114,-0.97644397758
    ));
#261 = CARTESIAN_POINT('',(-4.0125096124,-0.262465591856,-0.978944756673
    ));
#262 = CARTESIAN_POINT('',(-4.00840177761,-0.216911392165,
    -0.985844455394));
#263 = CARTESIAN_POINT('',(-4.006041430932,-0.186518761074,
    -0.989814905368));
#264 = CARTESIAN_POINT('',(-4.004048600511,-0.155841598414,
    -0.993171289911));
#265 = CARTESIAN_POINT('',(-4.002437872026,-0.124926150799,
    -0.995886737416));
#266 = CARTESIAN_POINT('',(-4.001221153934,-9.382398659757E-02,
    -0.997939297945));
#267 = CARTESIAN_POINT('',(-4.000407011361,-6.259234333808E-02,
    -0.999313182117));
#268 = CARTESIAN_POINT('',(-4.,-3.129447511595E-02,-1.));
#269 = CARTESIAN_POINT('',(-4.,2.962918956085E-02,-1.));
#270 = CARTESIAN_POINT('',(-4.000364843981,5.92610906522E-02,
    -0.999384336201));
#271 = CARTESIAN_POINT('',(-4.001094627064,8.883700242099E-02,
    -0.998152813393));
#272 = CARTESIAN_POINT('',(-4.002185703626,0.11830312669,-0.996312145109
    ));
#273 = CARTESIAN_POINT('',(-4.003631179543,0.147610321505,-0.99387503844
    ));
#274 = CARTESIAN_POINT('',(-4.005421404434,0.176713854681,
    -0.990859278848));
#275 = CARTESIAN_POINT('',(-4.007544463905,0.205573157349,
    -0.987286814971));
#276 = CARTESIAN_POINT('',(-4.011232442687,0.248729437243,
    -0.981089406474));
#277 = CARTESIAN_POINT('',(-4.012561350413,0.263235052966,
    -0.978857506752));
#278 = CARTESIAN_POINT('',(-4.013971595033,0.277664144616,
    -0.976490464834));
#279 = CARTESIAN_POINT('',(-4.015461336046,0.292012868573,
    -0.973991677862));
#280 = CARTESIAN_POINT('',(-4.017028692387,0.306277817657,
    -0.971364619563));
#281 = CARTESIAN_POINT('',(-4.018671742428,0.320456021123,-0.96861284025
    ));
#282 = CARTESIAN_POINT('',(-4.020388523973,0.334544944663,
    -0.965739966819));
#283 = CARTESIAN_POINT('',(-4.025656273653,0.375772309905,
    -0.956932657953));
#284 = CARTESIAN_POINT('',(-4.029406950685,0.402655414149,
    -0.950671360572));
#285 = CARTESIAN_POINT('',(-4.0334147099,0.429177501623,-0.943992393395)
  );
#286 = CARTESIAN_POINT('',(-4.037665292401,0.45532900733,-0.936922169656
    ));
#287 = CARTESIAN_POINT('',(-4.042144812492,0.481104627226,
    -0.929486431837));
#288 = CARTESIAN_POINT('',(-4.04684003432,0.506502842654,-0.921709750454
    ));
#289 = CARTESIAN_POINT('',(-4.051738648516,0.531525444769,
    -0.913615022849));
#290 = CARTESIAN_POINT('',(-4.07997841599,0.668270580299,-0.867063420859
    ));
#291 = CARTESIAN_POINT('',(-4.107009253177,0.772242839917,
    -0.822911079719));
#292 = CARTESIAN_POINT('',(-4.136977829835,0.86941173364,-0.774545887973
    ));
#293 = CARTESIAN_POINT('',(-4.169273233627,0.960501017787,-0.72314096718
    ));
#294 = CARTESIAN_POINT('',(-4.203419491642,1.046223344578,
    -0.669575253397));
#295 = CARTESIAN_POINT('',(-4.239122510493,1.127207341153,
    -0.614388724753));
#296 = CARTESIAN_POINT('',(-4.276240274958,1.204120610535,
    -0.557861809785));
#297 = CARTESIAN_POINT('',(-4.314814814815,1.277643578567,-0.5));
#298 = ORIENTED_EDGE('',*,*,#299,.F.);
#299 = EDGE_CURVE('',#173,#237,#300,.T.);
#300 = CIRCLE('',#301,4.5);
#301 = AXIS2_PLACEMENT_3D('',#302,#303,#304);
#302 = CARTESIAN_POINT('',(0.,0.,-0.5));
#303 = DIRECTION('',(0.,0.,1.));
#304 = DIRECTION('',(1.,0.,0.));
#305 = CONICAL_SURFACE('',#306,4.5,0.785398163397);
#306 = AXIS2_PLACEMENT_3D('',#307,#308,#309);
#307 = CARTESIAN_POINT('',(0.,0.,-0.5));
#308 = DIRECTION('',(0.,0.,1.));
#309 = DIRECTION('',(1.,0.,0.));
#310 = ADVANCED_FACE('',(#311),#447,.T.);
#311 = FACE_BOUND('',#312,.T.);
#312 = EDGE_LOOP('',(#313,#376,#377,#440));
#313 = ORIENTED_EDGE('',*,*,#314,.T.);
#314 = EDGE_CURVE('',#315,#33,#317,.T.);
#315 = VERTEX_POINT('',#316);
#316 = CARTESIAN_POINT('',(-4.314814814815,-1.277643578567,-0.5));
#317 = B_SPLINE_CURVE_WITH_KNOTS('',8,(#318,#319,#320,#321,#322,#323,
    #324,#325,#326,#327,#328,#329,#330,#331,#332,#333,#334,#335,#336,
    #337,#338,#339,#340,#341,#342,#343,#344,#345,#346,#347,#348,#349,
    #350,#351,#352,#353,#354,#355,#356,#357,#358,#359,#360,#361,#362,
    #363,#364,#365,#366,#367,#368,#369,#370,#371,#372,#373,#374,#375),
  .UNSPECIFIED.,.F.,.F.,(9,7,7,7,7,7,7,7,9),(0.,0.304594251256,
    0.385864991076,0.424649283479,0.499944213236,0.571232443457,
    0.607596588698,0.678336783384,1.),.UNSPECIFIED.);
#318 = CARTESIAN_POINT('',(-4.314814814815,-1.277643578567,-0.5));
#319 = CARTESIAN_POINT('',(-4.278291205646,-1.208029678846,
    -0.554785413754));
#320 = CARTESIAN_POINT('',(-4.243047635588,-1.135327087641,
    -0.608413029892));
#321 = CARTESIAN_POINT('',(-4.209074151505,-1.058992706133,
    -0.660841476029));
#322 = CARTESIAN_POINT('',(-4.176494639916,-0.978485693804,
    -0.711826647026));
#323 = CARTESIAN_POINT('',(-4.145547128577,-0.893280459728,
    -0.760928650483));
#324 = CARTESIAN_POINT('',(-4.116603567156,-0.802777233718,
    -0.807457510887));
#325 = CARTESIAN_POINT('',(-4.090143569439,-0.706338072775,
    -0.850494551957));
#326 = CARTESIAN_POINT('',(-4.06068828266,-0.575242005193,-0.89885435996
    ));
#327 = CARTESIAN_POINT('',(-4.0547178111,-0.54715090517,-0.908685528314)
  );
#328 = CARTESIAN_POINT('',(-4.048995787043,-0.518569412835,
    -0.918134153694));
#329 = CARTESIAN_POINT('',(-4.043539454321,-0.489490799149,
    -0.927168101405));
#330 = CARTESIAN_POINT('',(-4.038367807043,-0.459913090065,
    -0.935752071599));
#331 = CARTESIAN_POINT('',(-4.033501153627,-0.429839853641,
    -0.943848382122));
#332 = CARTESIAN_POINT('',(-4.02896068084,-0.399280987157,
    -0.951417751365));
#333 = CARTESIAN_POINT('',(-4.022767181267,-0.353446465765,
    -0.961761756174));
#334 = CARTESIAN_POINT('',(-4.020845575359,-0.338533151032,
    -0.964974267462));
#335 = CARTESIAN_POINT('',(-4.019005625352,-0.323515671359,
    -0.968053127856));
#336 = CARTESIAN_POINT('',(-4.01724972001,-0.30839668842,-0.97099391991)
  );
#337 = CARTESIAN_POINT('',(-4.015580211615,-0.293179414227,
    -0.973792295851));
#338 = CARTESIAN_POINT('',(-4.013999415971,-0.27786761114,-0.97644397758
    ));
#339 = CARTESIAN_POINT('',(-4.0125096124,-0.262465591856,-0.978944756673
    ));
#340 = CARTESIAN_POINT('',(-4.00840177761,-0.216911392165,
    -0.985844455394));
#341 = CARTESIAN_POINT('',(-4.006041430932,-0.186518761074,
    -0.989814905368));
#342 = CARTESIAN_POINT('',(-4.004048600511,-0.155841598414,
    -0.993171289911));
#343 = CARTESIAN_POINT('',(-4.002437872026,-0.124926150799,
    -0.995886737416));
#344 = CARTESIAN_POINT('',(-4.001221153934,-9.382398659757E-02,
    -0.997939297945));
#345 = CARTESIAN_POINT('',(-4.000407011361,-6.259234333808E-02,
    -0.999313182117));
#346 = CARTESIAN_POINT('',(-4.,-3.129447511595E-02,-1.));
#347 = CARTESIAN_POINT('',(-4.,2.962918956085E-02,-1.));
#348 = CARTESIAN_POINT('',(-4.000364843981,5.92610906522E-02,
    -0.999384336201));
#349 = CARTESIAN_POINT('',(-4.001094627064,8.883700242099E-02,
    -0.998152813393));
#350 = CARTESIAN_POINT('',(-4.002185703626,0.11830312669,-0.996312145109
    ));
#351 = CARTESIAN_POINT('',(-4.003631179543,0.147610321505,-0.99387503844
    ));
#352 = CARTESIAN_POINT('',(-4.005421404434,0.176713854681,
    -0.990859278848));
#353 = CARTESIAN_POINT('',(-4.007544463905,0.205573157349,
    -0.987286814971));
#354 = CARTESIAN_POINT('',(-4.011232442687,0.248729437243,
    -0.981089406474));
#355 = CARTESIAN_POINT('',(-4.012561350413,0.263235052966,
    -0.978857506752));
#356 = CARTESIAN_POINT('',(-4.013971595033,0.277664144616,
    -0.976490464834));
#357 = CARTESIAN_POINT('',(-4.015461336046,0.292012868573,
    -0.973991677862));
#358 = CARTESIAN_POINT('',(-4.017028692387,0.306277817657,
    -0.971364619563));
#359 = CARTESIAN_POINT('',(-4.018671742428,0.320456021123,-0.96861284025
    ));
#360 = CARTESIAN_POINT('',(-4.020388523973,0.334544944663,
    -0.965739966819));
#361 = CARTESIAN_POINT('',(-4.025656273653,0.375772309905,
    -0.956932657953));
#362 = CARTESIAN_POINT('',(-4.029406950685,0.402655414149,
    -0.950671360572));
#363 = CARTESIAN_POINT('',(-4.0334147099,0.429177501623,-0.943992393395)
  );
#364 = CARTESIAN_POINT('',(-4.037665292401,0.45532900733,-0.936922169656
    ));
#365 = CARTESIAN_POINT('',(-4.042144812492,0.481104627226,
    -0.929486431837));
#366 = CARTESIAN_POINT('',(-4.04684003432,0.506502842654,-0.921709750454
    ));
#367 = CARTESIAN_POINT('',(-4.051738648516,0.531525444769,
    -0.913615022849));
#368 = CARTESIAN_POINT('',(-4.07997841599,0.668270580299,-0.867063420859
    ));
#369 = CARTESIAN_POINT('',(-4.107009253177,0.772242839917,
    -0.822911079719));
#370 = CARTESIAN_POINT('',(-4.136977829835,0.86941173364,-0.774545887973
    ));
#371 = CARTESIAN_POINT('',(-4.169273233627,0.960501017787,-0.72314096718
    ));
#372 = CARTESIAN_POINT('',(-4.203419491642,1.046223344578,
    -0.669575253397));
#373 = CARTESIAN_POINT('',(-4.239122510493,1.127207341153,
    -0.614388724753));
#374 = CARTESIAN_POINT('',(-4.276240274958,1.204120610535,
    -0.557861809785));
#375 = CARTESIAN_POINT('',(-4.314814814815,1.277643578567,-0.5));
#376 = ORIENTED_EDGE('',*,*,#41,.T.);
#377 = ORIENTED_EDGE('',*,*,#378,.T.);
#378 = EDGE_CURVE('',#42,#379,#381,.T.);
#379 = VERTEX_POINT('',#380);
#380 = CARTESIAN_POINT('',(-1.277643578569,-4.314814814814,-0.5));
#381 = B_SPLINE_CURVE_WITH_KNOTS('',8,(#382,#383,#384,#385,#386,#387,
    #388,#389,#390,#391,#392,#393,#394,#395,#396,#397,#398,#399,#400,
    #401,#402,#403,#404,#405,#406,#407,#408,#409,#410,#411,#412,#413,
    #414,#415,#416,#417,#418,#419,#420,#421,#422,#423,#424,#425,#426,
    #427,#428,#429,#430,#431,#432,#433,#434,#435,#436,#437,#438,#439),
  .UNSPECIFIED.,.F.,.F.,(9,7,7,7,7,7,7,7,9),(0.,0.304594251256,
    0.385864991076,0.42464928348,0.499944213236,0.571232443458,
    0.6075965887,0.678336783385,1.),.UNSPECIFIED.);
#382 = CARTESIAN_POINT('',(1.277643578567,-4.314814814815,-0.5));
#383 = CARTESIAN_POINT('',(1.208029678845,-4.278291205645,
    -0.554785413754));
#384 = CARTESIAN_POINT('',(1.135327087643,-4.243047635589,
    -0.608413029891));
#385 = CARTESIAN_POINT('',(1.058992706128,-4.209074151503,
    -0.660841476031));
#386 = CARTESIAN_POINT('',(0.97848569381,-4.176494639917,-0.711826647023
    ));
#387 = CARTESIAN_POINT('',(0.893280459723,-4.145547128576,
    -0.760928650485));
#388 = CARTESIAN_POINT('',(0.80277723372,-4.116603567156,-0.807457510886
    ));
#389 = CARTESIAN_POINT('',(0.706338072775,-4.090143569439,
    -0.850494551957));
#390 = CARTESIAN_POINT('',(0.575242005193,-4.06068828266,-0.89885435996)
  );
#391 = CARTESIAN_POINT('',(0.54715090517,-4.0547178111,-0.908685528314)
  );
#392 = CARTESIAN_POINT('',(0.518569412835,-4.048995787043,
    -0.918134153693));
#393 = CARTESIAN_POINT('',(0.489490799149,-4.043539454321,
    -0.927168101405));
#394 = CARTESIAN_POINT('',(0.459913090065,-4.038367807043,
    -0.935752071599));
#395 = CARTESIAN_POINT('',(0.429839853641,-4.033501153627,
    -0.943848382122));
#396 = CARTESIAN_POINT('',(0.399280987157,-4.02896068084,-0.951417751365
    ));
#397 = CARTESIAN_POINT('',(0.353446465765,-4.022767181267,
    -0.961761756174));
#398 = CARTESIAN_POINT('',(0.338533151032,-4.020845575359,
    -0.964974267462));
#399 = CARTESIAN_POINT('',(0.323515671359,-4.019005625352,
    -0.968053127856));
#400 = CARTESIAN_POINT('',(0.30839668842,-4.01724972001,-0.97099391991)
  );
#401 = CARTESIAN_POINT('',(0.293179414227,-4.015580211615,
    -0.973792295851));
#402 = CARTESIAN_POINT('',(0.27786761114,-4.013999415971,-0.97644397758)
  );
#403 = CARTESIAN_POINT('',(0.262465591856,-4.0125096124,-0.978944756673)
  );
#404 = CARTESIAN_POINT('',(0.216911392165,-4.00840177761,-0.985844455394
    ));
#405 = CARTESIAN_POINT('',(0.186518761074,-4.006041430932,
    -0.989814905368));
#406 = CARTESIAN_POINT('',(0.155841598414,-4.004048600511,
    -0.993171289911));
#407 = CARTESIAN_POINT('',(0.124926150799,-4.002437872026,
    -0.995886737416));
#408 = CARTESIAN_POINT('',(9.382398659756E-02,-4.001221153934,
    -0.997939297945));
#409 = CARTESIAN_POINT('',(6.259234333807E-02,-4.000407011361,
    -0.999313182117));
#410 = CARTESIAN_POINT('',(3.129447511596E-02,-4.,-1.));
#411 = CARTESIAN_POINT('',(-2.962918956086E-02,-4.,-1.));
#412 = CARTESIAN_POINT('',(-5.926109065219E-02,-4.000364843981,
    -0.999384336201));
#413 = CARTESIAN_POINT('',(-8.883700242098E-02,-4.001094627064,
    -0.998152813393));
#414 = CARTESIAN_POINT('',(-0.11830312669,-4.002185703626,
    -0.996312145109));
#415 = CARTESIAN_POINT('',(-0.147610321505,-4.003631179543,
    -0.99387503844));
#416 = CARTESIAN_POINT('',(-0.176713854681,-4.005421404434,
    -0.990859278848));
#417 = CARTESIAN_POINT('',(-0.205573157349,-4.007544463905,
    -0.987286814971));
#418 = CARTESIAN_POINT('',(-0.248729437243,-4.011232442687,
    -0.981089406474));
#419 = CARTESIAN_POINT('',(-0.263235052966,-4.012561350413,
    -0.978857506752));
#420 = CARTESIAN_POINT('',(-0.277664144616,-4.013971595033,
    -0.976490464834));
#421 = CARTESIAN_POINT('',(-0.292012868573,-4.015461336046,
    -0.973991677862));
#422 = CARTESIAN_POINT('',(-0.306277817657,-4.017028692387,
    -0.971364619563));
#423 = CARTESIAN_POINT('',(-0.320456021123,-4.018671742428,
    -0.96861284025));
#424 = CARTESIAN_POINT('',(-0.334544944663,-4.020388523973,
    -0.965739966819));
#425 = CARTESIAN_POINT('',(-0.375772309905,-4.025656273653,
    -0.956932657953));
#426 = CARTESIAN_POINT('',(-0.402655414149,-4.029406950685,
    -0.950671360572));
#427 = CARTESIAN_POINT('',(-0.429177501623,-4.0334147099,-0.943992393395
    ));
#428 = CARTESIAN_POINT('',(-0.45532900733,-4.037665292401,
    -0.936922169656));
#429 = CARTESIAN_POINT('',(-0.481104627226,-4.042144812492,
    -0.929486431837));
#430 = CARTESIAN_POINT('',(-0.506502842654,-4.04684003432,
    -0.921709750454));
#431 = CARTESIAN_POINT('',(-0.531525444769,-4.051738648516,
    -0.913615022849));
#432 = CARTESIAN_POINT('',(-0.668270580298,-4.07997841599,
    -0.867063420859));
#433 = CARTESIAN_POINT('',(-0.772242839921,-4.107009253178,
    -0.822911079718));
#434 = CARTESIAN_POINT('',(-0.86941173363,-4.136977829833,
    -0.774545887977));
#435 = CARTESIAN_POINT('',(-0.960501017799,-4.16927323363,
    -0.723140967175));
#436 = CARTESIAN_POINT('',(-1.046223344569,-4.203419491639,
    -0.669575253402));
#437 = CARTESIAN_POINT('',(-1.127207341157,-4.239122510495,
    -0.614388724751));
#438 = CARTESIAN_POINT('',(-1.204120610534,-4.276240274958,
    -0.557861809785));
#439 = CARTESIAN_POINT('',(-1.277643578567,-4.314814814815,-0.5));
#440 = ORIENTED_EDGE('',*,*,#441,.F.);
#441 = EDGE_CURVE('',#315,#379,#442,.T.);
#442 = CIRCLE('',#443,4.5);
#443 = AXIS2_PLACEMENT_3D('',#444,#445,#446);
#444 = CARTESIAN_POINT('',(0.,0.,-0.5));
#445 = DIRECTION('',(0.,0.,1.));
#446 = DIRECTION('',(1.,0.,0.));
#447 = CONICAL_SURFACE('',#448,4.5,0.785398163397);
#448 = AXIS2_PLACEMENT_3D('',#449,#450,#451);
#449 = CARTESIAN_POINT('',(0.,0.,-0.5));
#450 = DIRECTION('',(0.,0.,1.));
#451 = DIRECTION('',(1.,0.,0.));
#452 = ADVANCED_FACE('',(#453),#547,.T.);
#453 = FACE_BOUND('',#454,.T.);
#454 = EDGE_LOOP('',(#455,#518,#519,#540));
#455 = ORIENTED_EDGE('',*,*,#456,.T.);
#456 = EDGE_CURVE('',#457,#42,#459,.T.);
#457 = VERTEX_POINT('',#458);
#458 = CARTESIAN_POINT('',(1.277643578567,-4.314814814815,-0.5));
#459 = B_SPLINE_CURVE_WITH_KNOTS('',8,(#460,#461,#462,#463,#464,#465,
    #466,#467,#468,#469,#470,#471,#472,#473,#474,#475,#476,#477,#478,
    #479,#480,#481,#482,#483,#484,#485,#486,#487,#488,#489,#490,#491,
    #492,#493,#494,#495,#496,#497,#498,#499,#500,#501,#502,#503,#504,
    #505,#506,#507,#508,#509,#510,#511,#512,#513,#514,#515,#516,#517),
  .UNSPECIFIED.,.F.,.F.,(9,7,7,7,7,7,7,7,9),(0.,0.304594251256,
    0.385864991076,0.42464928348,0.499944213236,0.571232443458,
    0.6075965887,0.678336783385,1.),.UNSPECIFIED.);
#460 = CARTESIAN_POINT('',(1.277643578567,-4.314814814815,-0.5));
#461 = CARTESIAN_POINT('',(1.208029678845,-4.278291205645,
    -0.554785413754));
#462 = CARTESIAN_POINT('',(1.135327087643,-4.243047635589,
    -0.608413029891));
#463 = CARTESIAN_POINT('',(1.058992706128,-4.209074151503,
    -0.660841476031));
#464 = CARTESIAN_POINT('',(0.97848569381,-4.176494639917,-0.711826647023
    ));
#465 = CARTESIAN_POINT('',(0.893280459723,-4.145547128576,
    -0.760928650485));
#466 = CARTESIAN_POINT('',(0.80277723372,-4.116603567156,-0.807457510886
    ));
#467 = CARTESIAN_POINT('',(0.706338072775,-4.090143569439,
    -0.850494551957));
#468 = CARTESIAN_POINT('',(0.575242005193,-4.06068828266,-0.89885435996)
  );
#469 = CARTESIAN_POINT('',(0.54715090517,-4.0547178111,-0.908685528314)
  );
#470 = CARTESIAN_POINT('',(0.518569412835,-4.048995787043,
    -0.918134153693));
#471 = CARTESIAN_POINT('',(0.489490799149,-4.043539454321,
    -0.927168101405));
#472 = CARTESIAN_POINT('',(0.459913090065,-4.038367807043,
    -0.935752071599));
#473 = CARTESIAN_POINT('',(0.429839853641,-4.033501153627,
    -0.943848382122));
#474 = CARTESIAN_POINT('',(0.399280987157,-4.02896068084,-0.951417751365
    ));
#475 = CARTESIAN_POINT('',(0.353446465765,-4.022767181267,
    -0.961761756174));
#476 = CARTESIAN_POINT('',(0.338533151032,-4.020845575359,
    -0.964974267462));
#477 = CARTESIAN_POINT('',(0.323515671359,-4.019005625352,
    -0.968053127856));
#478 = CARTESIAN_POINT('',(0.30839668842,-4.01724972001,-0.97099391991)
  );
#479 = CARTESIAN_POINT('',(0.293179414227,-4.015580211615,
    -0.973792295851));
#480 = CARTESIAN_POINT('',(0.27786761114,-4.013999415971,-0.97644397758)
  );
#481 = CARTESIAN_POINT('',(0.262465591856,-4.0125096124,-0.978944756673)
  );
#482 = CARTESIAN_POINT('',(0.216911392165,-4.00840177761,-0.985844455394
    ));
#483 = CARTESIAN_POINT('',(0.186518761074,-4.006041430932,
    -0.989814905368));
#484 = CARTESIAN_POINT('',(0.155841598414,-4.004048600511,
    -0.993171289911));
#485 = CARTESIAN_POINT('',(0.124926150799,-4.002437872026,
    -0.995886737416));
#486 = CARTESIAN_POINT('',(9.382398659756E-02,-4.001221153934,
    -0.997939297945));
#487 = CARTESIAN_POINT('',(6.259234333807E-02,-4.000407011361,
    -0.999313182117));
#488 = CARTESIAN_POINT('',(3.129447511596E-02,-4.,-1.));
#489 = CARTESIAN_POINT('',(-2.962918956086E-02,-4.,-1.));
#490 = CARTESIAN_POINT('',(-5.926109065219E-02,-4.000364843981,
    -0.999384336201));
#491 = CARTESIAN_POINT('',(-8.883700242098E-02,-4.001094627064,
    -0.998152813393));
#492 = CARTESIAN_POINT('',(-0.11830312669,-4.002185703626,
    -0.996312145109));
#493 = CARTESIAN_POINT('',(-0.147610321505,-4.003631179543,
    -0.99387503844));
#494 = CARTESIAN_POINT('',(-0.176713854681,-4.005421404434,
    -0.990859278848));
#495 = CARTESIAN_POINT('',(-0.205573157349,-4.007544463905,
    -0.987286814971));
#496 = CARTESIAN_POINT('',(-0.248729437243,-4.011232442687,
    -0.981089406474));
#497 = CARTESIAN_POINT('',(-0.263235052966,-4.012561350413,
    -0.978857506752));
#498 = CARTESIAN_POINT('',(-0.277664144616,-4.013971595033,
    -0.976490464834));
#499 = CARTESIAN_POINT('',(-0.292012868573,-4.015461336046,
    -0.973991677862));
#500 = CARTESIAN_POINT('',(-0.306277817657,-4.017028692387,
    -0.971364619563));
#501 = CARTESIAN_POINT('',(-0.320456021123,-4.018671742428,
    -0.96861284025));
#502 = CARTESIAN_POINT('',(-0.334544944663,-4.020388523973,
    -0.965739966819));
#503 = CARTESIAN_POINT('',(-0.375772309905,-4.025656273653,
    -0.956932657953));
#504 = CARTESIAN_POINT('',(-0.402655414149,-4.029406950685,
    -0.950671360572));
#505 = CARTESIAN_POINT('',(-0.429177501623,-4.0334147099,-0.943992393395
    ));
#506 = CARTESIAN_POINT('',(-0.45532900733,-4.037665292401,
    -0.936922169656));
#507 = CARTESIAN_POINT('',(-0.481104627226,-4.042144812492,
    -0.929486431837));
#508 = CARTESIAN_POINT('',(-0.506502842654,-4.04684003432,
    -0.921709750454));
#509 = CARTESIAN_POINT('',(-0.531525444769,-4.051738648516,
    -0.913615022849));
#510 = CARTESIAN_POINT('',(-0.668270580298,-4.07997841599,
    -0.867063420859));
#511 = CARTESIAN_POINT('',(-0.772242839921,-4.107009253178,
    -0.822911079718));
#512 = CARTESIAN_POINT('',(-0.86941173363,-4.136977829833,
    -0.774545887977));
#513 = CARTESIAN_POINT('',(-0.960501017799,-4.16927323363,
    -0.723140967175));
#514 = CARTESIAN_POINT('',(-1.046223344569,-4.203419491639,
    -0.669575253402));
#515 = CARTESIAN_POINT('',(-1.127207341157,-4.239122510495,
    -0.614388724751));
#516 = CARTESIAN_POINT('',(-1.204120610534,-4.276240274958,
    -0.557861809785));
#517 = CARTESIAN_POINT('',(-1.277643578567,-4.314814814815,-0.5));
#518 = ORIENTED_EDGE('',*,*,#50,.T.);
#519 = ORIENTED_EDGE('',*,*,#520,.T.);
#520 = EDGE_CURVE('',#22,#521,#523,.T.);
#521 = VERTEX_POINT('',#522);
#522 = CARTESIAN_POINT('',(4.314814814814,-1.277643578569,-0.5));
#523 = B_SPLINE_CURVE_WITH_KNOTS('',5,(#524,#525,#526,#527,#528,#529,
    #530,#531,#532,#533,#534,#535,#536,#537,#538,#539),.UNSPECIFIED.,.F.
  ,.F.,(6,5,5,6),(0.,0.333333333333,0.666666666667,1.),
  .PIECEWISE_BEZIER_KNOTS.);
#524 = CARTESIAN_POINT('',(4.,-6.661338147751E-16,-1.));
#525 = CARTESIAN_POINT('',(3.999995337558,-7.158117375244E-02,
    -1.000008562287));
#526 = CARTESIAN_POINT('',(4.002340835297,-0.143205877943,
    -0.996048218362));
#527 = CARTESIAN_POINT('',(4.006980851765,-0.213683338686,
    -0.988220887901));
#528 = CARTESIAN_POINT('',(4.013710777349,-0.28224459332,-0.976903841915
    ));
#529 = CARTESIAN_POINT('',(4.022177034267,-0.348542490408,
    -0.962749702755));
#530 = CARTESIAN_POINT('',(4.027743510448,-0.392110410467,
    -0.953442984335));
#531 = CARTESIAN_POINT('',(4.034071312491,-0.434706190824,
    -0.942890010717));
#532 = CARTESIAN_POINT('',(4.041076463503,-0.476254433029,
    -0.931246129151));
#533 = CARTESIAN_POINT('',(4.048684315384,-0.516733808589,-0.91864987505
    ));
#534 = CARTESIAN_POINT('',(4.056829548828,-0.556177058978,
    -0.905222971983));
#535 = CARTESIAN_POINT('',(4.09389388194,-0.735576622941,-0.844126883654
    ));
#536 = CARTESIAN_POINT('',(4.141718996433,-0.892193565678,-0.76641520033
    ));
#537 = CARTESIAN_POINT('',(4.195399168903,-1.032927239743,
    -0.681499064809));
#538 = CARTESIAN_POINT('',(4.253127830144,-1.160033363659,
    -0.592531262414));
#539 = CARTESIAN_POINT('',(4.314814814815,-1.277643578567,-0.5));
#540 = ORIENTED_EDGE('',*,*,#541,.F.);
#541 = EDGE_CURVE('',#457,#521,#542,.T.);
#542 = CIRCLE('',#543,4.5);
#543 = AXIS2_PLACEMENT_3D('',#544,#545,#546);
#544 = CARTESIAN_POINT('',(0.,0.,-0.5));
#545 = DIRECTION('',(0.,0.,1.));
#546 = DIRECTION('',(1.,0.,0.));
#547 = CONICAL_SURFACE('',#548,4.5,0.785398163397);
#548 = AXIS2_PLACEMENT_3D('',#549,#550,#551);
#549 = CARTESIAN_POINT('',(0.,0.,-0.5));
#550 = DIRECTION('',(0.,0.,1.));
#551 = DIRECTION('',(1.,0.,0.));
#552 = ADVANCED_FACE('',(#553),#580,.F.);
#553 = FACE_BOUND('',#554,.F.);
#554 = EDGE_LOOP('',(#555,#566,#572,#573,#574));
#555 = ORIENTED_EDGE('',*,*,#556,.F.);
#556 = EDGE_CURVE('',#557,#559,#561,.T.);
#557 = VERTEX_POINT('',#558);
#558 = CARTESIAN_POINT('',(4.314814814815,1.277643578567,9.5));
#559 = VERTEX_POINT('',#560);
#560 = CARTESIAN_POINT('',(4.314814814814,-1.277643578569,9.5));
#561 = CIRCLE('',#562,2.75);
#562 = AXIS2_PLACEMENT_3D('',#563,#564,#565);
#563 = CARTESIAN_POINT('',(6.75,-1.498801083244E-15,9.5));
#564 = DIRECTION('',(0.,0.,1.));
#565 = DIRECTION('',(-2.22044604925E-16,-1.,0.));
#566 = ORIENTED_EDGE('',*,*,#567,.T.);
#567 = EDGE_CURVE('',#557,#66,#568,.T.);
#568 = LINE('',#569,#570);
#569 = CARTESIAN_POINT('',(4.314814814815,1.277643578567,50.));
#570 = VECTOR('',#571,1.);
#571 = DIRECTION('',(0.,0.,-1.));
#572 = ORIENTED_EDGE('',*,*,#65,.T.);
#573 = ORIENTED_EDGE('',*,*,#520,.T.);
#574 = ORIENTED_EDGE('',*,*,#575,.F.);
#575 = EDGE_CURVE('',#559,#521,#576,.T.);
#576 = LINE('',#577,#578);
#577 = CARTESIAN_POINT('',(4.314814814814,-1.277643578569,50.));
#578 = VECTOR('',#579,1.);
#579 = DIRECTION('',(0.,0.,-1.));
#580 = CYLINDRICAL_SURFACE('',#581,2.75);
#581 = AXIS2_PLACEMENT_3D('',#582,#583,#584);
#582 = CARTESIAN_POINT('',(6.75,-1.498801083244E-15,50.));
#583 = DIRECTION('',(0.,0.,1.));
#584 = DIRECTION('',(-2.22044604925E-16,-1.,0.));
#585 = ADVANCED_FACE('',(#586),#605,.T.);
#586 = FACE_BOUND('',#587,.F.);
#587 = EDGE_LOOP('',(#588,#589,#598,#604));
#588 = ORIENTED_EDGE('',*,*,#567,.F.);
#589 = ORIENTED_EDGE('',*,*,#590,.T.);
#590 = EDGE_CURVE('',#557,#591,#593,.T.);
#591 = VERTEX_POINT('',#592);
#592 = CARTESIAN_POINT('',(1.277643578569,4.314814814814,9.5));
#593 = CIRCLE('',#594,4.5);
#594 = AXIS2_PLACEMENT_3D('',#595,#596,#597);
#595 = CARTESIAN_POINT('',(0.,0.,9.5));
#596 = DIRECTION('',(0.,0.,1.));
#597 = DIRECTION('',(1.,0.,0.));
#598 = ORIENTED_EDGE('',*,*,#599,.T.);
#599 = EDGE_CURVE('',#591,#95,#600,.T.);
#600 = LINE('',#601,#602);
#601 = CARTESIAN_POINT('',(1.277643578569,4.314814814814,50.));
#602 = VECTOR('',#603,1.);
#603 = DIRECTION('',(-0.,-0.,-1.));
#604 = ORIENTED_EDGE('',*,*,#157,.F.);
#605 = CYLINDRICAL_SURFACE('',#606,4.5);
#606 = AXIS2_PLACEMENT_3D('',#607,#608,#609);
#607 = CARTESIAN_POINT('',(0.,0.,0.));
#608 = DIRECTION('',(-0.,-0.,-1.));
#609 = DIRECTION('',(1.,0.,0.));
#610 = ADVANCED_FACE('',(#611),#631,.F.);
#611 = FACE_BOUND('',#612,.F.);
#612 = EDGE_LOOP('',(#613,#622,#628,#629,#630));
#613 = ORIENTED_EDGE('',*,*,#614,.F.);
#614 = EDGE_CURVE('',#615,#591,#617,.T.);
#615 = VERTEX_POINT('',#616);
#616 = CARTESIAN_POINT('',(-1.277643578568,4.314814814815,9.5));
#617 = CIRCLE('',#618,2.75);
#618 = AXIS2_PLACEMENT_3D('',#619,#620,#621);
#619 = CARTESIAN_POINT('',(0.,6.75,9.5));
#620 = DIRECTION('',(0.,0.,1.));
#621 = DIRECTION('',(1.,0.,0.));
#622 = ORIENTED_EDGE('',*,*,#623,.T.);
#623 = EDGE_CURVE('',#615,#173,#624,.T.);
#624 = LINE('',#625,#626);
#625 = CARTESIAN_POINT('',(-1.277643578567,4.314814814815,50.));
#626 = VECTOR('',#627,1.);
#627 = DIRECTION('',(-0.,-0.,-1.));
#628 = ORIENTED_EDGE('',*,*,#172,.T.);
#629 = ORIENTED_EDGE('',*,*,#94,.T.);
#630 = ORIENTED_EDGE('',*,*,#599,.F.);
#631 = CYLINDRICAL_SURFACE('',#632,2.75);
#632 = AXIS2_PLACEMENT_3D('',#633,#634,#635);
#633 = CARTESIAN_POINT('',(0.,6.75,50.));
#634 = DIRECTION('',(0.,0.,1.));
#635 = DIRECTION('',(1.,0.,0.));
#636 = ADVANCED_FACE('',(#637),#656,.T.);
#637 = FACE_BOUND('',#638,.F.);
#638 = EDGE_LOOP('',(#639,#640,#649,#655));
#639 = ORIENTED_EDGE('',*,*,#623,.F.);
#640 = ORIENTED_EDGE('',*,*,#641,.T.);
#641 = EDGE_CURVE('',#615,#642,#644,.T.);
#642 = VERTEX_POINT('',#643);
#643 = CARTESIAN_POINT('',(-4.314814814814,1.277643578569,9.5));
#644 = CIRCLE('',#645,4.5);
#645 = AXIS2_PLACEMENT_3D('',#646,#647,#648);
#646 = CARTESIAN_POINT('',(0.,0.,9.5));
#647 = DIRECTION('',(0.,0.,1.));
#648 = DIRECTION('',(1.,0.,0.));
#649 = ORIENTED_EDGE('',*,*,#650,.T.);
#650 = EDGE_CURVE('',#642,#237,#651,.T.);
#651 = LINE('',#652,#653);
#652 = CARTESIAN_POINT('',(-4.314814814814,1.277643578569,50.));
#653 = VECTOR('',#654,1.);
#654 = DIRECTION('',(0.,-0.,-1.));
#655 = ORIENTED_EDGE('',*,*,#299,.F.);
#656 = CYLINDRICAL_SURFACE('',#657,4.5);
#657 = AXIS2_PLACEMENT_3D('',#658,#659,#660);
#658 = CARTESIAN_POINT('',(0.,0.,0.));
#659 = DIRECTION('',(-0.,-0.,-1.));
#660 = DIRECTION('',(1.,0.,0.));
#661 = ADVANCED_FACE('',(#662),#682,.F.);
#662 = FACE_BOUND('',#663,.F.);
#663 = EDGE_LOOP('',(#664,#673,#679,#680,#681));
#664 = ORIENTED_EDGE('',*,*,#665,.F.);
#665 = EDGE_CURVE('',#666,#642,#668,.T.);
#666 = VERTEX_POINT('',#667);
#667 = CARTESIAN_POINT('',(-4.314814814815,-1.277643578567,9.5));
#668 = CIRCLE('',#669,2.75);
#669 = AXIS2_PLACEMENT_3D('',#670,#671,#672);
#670 = CARTESIAN_POINT('',(-6.75,7.49400541622E-16,9.5));
#671 = DIRECTION('',(0.,-0.,1.));
#672 = DIRECTION('',(1.110223024625E-16,1.,0.));
#673 = ORIENTED_EDGE('',*,*,#674,.T.);
#674 = EDGE_CURVE('',#666,#315,#675,.T.);
#675 = LINE('',#676,#677);
#676 = CARTESIAN_POINT('',(-4.314814814815,-1.277643578567,50.));
#677 = VECTOR('',#678,1.);
#678 = DIRECTION('',(0.,-0.,-1.));
#679 = ORIENTED_EDGE('',*,*,#314,.T.);
#680 = ORIENTED_EDGE('',*,*,#236,.T.);
#681 = ORIENTED_EDGE('',*,*,#650,.F.);
#682 = CYLINDRICAL_SURFACE('',#683,2.75);
#683 = AXIS2_PLACEMENT_3D('',#684,#685,#686);
#684 = CARTESIAN_POINT('',(-6.75,7.49400541622E-16,50.));
#685 = DIRECTION('',(0.,0.,1.));
#686 = DIRECTION('',(1.110223024625E-16,1.,0.));
#687 = ADVANCED_FACE('',(#688),#707,.T.);
#688 = FACE_BOUND('',#689,.F.);
#689 = EDGE_LOOP('',(#690,#691,#700,#706));
#690 = ORIENTED_EDGE('',*,*,#674,.F.);
#691 = ORIENTED_EDGE('',*,*,#692,.T.);
#692 = EDGE_CURVE('',#666,#693,#695,.T.);
#693 = VERTEX_POINT('',#694);
#694 = CARTESIAN_POINT('',(-1.277643578569,-4.314814814814,9.5));
#695 = CIRCLE('',#696,4.5);
#696 = AXIS2_PLACEMENT_3D('',#697,#698,#699);
#697 = CARTESIAN_POINT('',(0.,0.,9.5));
#698 = DIRECTION('',(0.,0.,1.));
#699 = DIRECTION('',(1.,0.,0.));
#700 = ORIENTED_EDGE('',*,*,#701,.T.);
#701 = EDGE_CURVE('',#693,#379,#702,.T.);
#702 = LINE('',#703,#704);
#703 = CARTESIAN_POINT('',(-1.277643578569,-4.314814814814,50.));
#704 = VECTOR('',#705,1.);
#705 = DIRECTION('',(0.,0.,-1.));
#706 = ORIENTED_EDGE('',*,*,#441,.F.);
#707 = CYLINDRICAL_SURFACE('',#708,4.5);
#708 = AXIS2_PLACEMENT_3D('',#709,#710,#711);
#709 = CARTESIAN_POINT('',(0.,0.,0.));
#710 = DIRECTION('',(-0.,-0.,-1.));
#711 = DIRECTION('',(1.,0.,0.));
#712 = ADVANCED_FACE('',(#713),#733,.F.);
#713 = FACE_BOUND('',#714,.F.);
#714 = EDGE_LOOP('',(#715,#724,#730,#731,#732));
#715 = ORIENTED_EDGE('',*,*,#716,.F.);
#716 = EDGE_CURVE('',#717,#693,#719,.T.);
#717 = VERTEX_POINT('',#718);
#718 = CARTESIAN_POINT('',(1.277643578567,-4.314814814815,9.5));
#719 = CIRCLE('',#720,2.75);
#720 = AXIS2_PLACEMENT_3D('',#721,#722,#723);
#721 = CARTESIAN_POINT('',(-8.266365894245E-16,-6.75,9.5));
#722 = DIRECTION('',(0.,0.,1.));
#723 = DIRECTION('',(-1.,1.224646799147E-16,0.));
#724 = ORIENTED_EDGE('',*,*,#725,.T.);
#725 = EDGE_CURVE('',#717,#457,#726,.T.);
#726 = LINE('',#727,#728);
#727 = CARTESIAN_POINT('',(1.277643578567,-4.314814814815,50.));
#728 = VECTOR('',#729,1.);
#729 = DIRECTION('',(0.,0.,-1.));
#730 = ORIENTED_EDGE('',*,*,#456,.T.);
#731 = ORIENTED_EDGE('',*,*,#378,.T.);
#732 = ORIENTED_EDGE('',*,*,#701,.F.);
#733 = CYLINDRICAL_SURFACE('',#734,2.75);
#734 = AXIS2_PLACEMENT_3D('',#735,#736,#737);
#735 = CARTESIAN_POINT('',(-8.266365894245E-16,-6.75,50.));
#736 = DIRECTION('',(0.,0.,1.));
#737 = DIRECTION('',(-1.,1.224646799147E-16,0.));
#738 = ADVANCED_FACE('',(#739),#751,.T.);
#739 = FACE_BOUND('',#740,.F.);
#740 = EDGE_LOOP('',(#741,#742,#749,#750));
#741 = ORIENTED_EDGE('',*,*,#725,.F.);
#742 = ORIENTED_EDGE('',*,*,#743,.T.);
#743 = EDGE_CURVE('',#717,#559,#744,.T.);
#744 = CIRCLE('',#745,4.5);
#745 = AXIS2_PLACEMENT_3D('',#746,#747,#748);
#746 = CARTESIAN_POINT('',(0.,0.,9.5));
#747 = DIRECTION('',(0.,0.,1.));
#748 = DIRECTION('',(1.,0.,0.));
#749 = ORIENTED_EDGE('',*,*,#575,.T.);
#750 = ORIENTED_EDGE('',*,*,#541,.F.);
#751 = CYLINDRICAL_SURFACE('',#752,4.5);
#752 = AXIS2_PLACEMENT_3D('',#753,#754,#755);
#753 = CARTESIAN_POINT('',(0.,0.,0.));
#754 = DIRECTION('',(-0.,-0.,-1.));
#755 = DIRECTION('',(1.,0.,0.));
#756 = ADVANCED_FACE('',(#757,#767),#778,.T.);
#757 = FACE_BOUND('',#758,.T.);
#758 = EDGE_LOOP('',(#759,#760,#761,#762,#763,#764,#765,#766));
#759 = ORIENTED_EDGE('',*,*,#614,.F.);
#760 = ORIENTED_EDGE('',*,*,#641,.T.);
#761 = ORIENTED_EDGE('',*,*,#665,.F.);
#762 = ORIENTED_EDGE('',*,*,#692,.T.);
#763 = ORIENTED_EDGE('',*,*,#716,.F.);
#764 = ORIENTED_EDGE('',*,*,#743,.T.);
#765 = ORIENTED_EDGE('',*,*,#556,.F.);
#766 = ORIENTED_EDGE('',*,*,#590,.T.);
#767 = FACE_BOUND('',#768,.T.);
#768 = EDGE_LOOP('',(#769));
#769 = ORIENTED_EDGE('',*,*,#770,.F.);
#770 = EDGE_CURVE('',#771,#771,#773,.T.);
#771 = VERTEX_POINT('',#772);
#772 = CARTESIAN_POINT('',(2.9,0.,9.5));
#773 = CIRCLE('',#774,2.9);
#774 = AXIS2_PLACEMENT_3D('',#775,#776,#777);
#775 = CARTESIAN_POINT('',(0.,0.,9.5));
#776 = DIRECTION('',(0.,0.,1.));
#777 = DIRECTION('',(1.,0.,0.));
#778 = PLANE('',#779);
#779 = AXIS2_PLACEMENT_3D('',#780,#781,#782);
#780 = CARTESIAN_POINT('',(-2.771838106499E-16,-2.041022507695E-16,9.5)
  );
#781 = DIRECTION('',(0.,0.,1.));
#782 = DIRECTION('',(1.,0.,0.));
#783 = ADVANCED_FACE('',(#784),#803,.F.);
#784 = FACE_BOUND('',#785,.T.);
#785 = EDGE_LOOP('',(#786,#794,#795,#796));
#786 = ORIENTED_EDGE('',*,*,#787,.T.);
#787 = EDGE_CURVE('',#788,#771,#790,.T.);
#788 = VERTEX_POINT('',#789);
#789 = CARTESIAN_POINT('',(2.9,0.,0.));
#790 = LINE('',#791,#792);
#791 = CARTESIAN_POINT('',(2.9,0.,0.));
#792 = VECTOR('',#793,1.);
#793 = DIRECTION('',(0.,0.,1.));
#794 = ORIENTED_EDGE('',*,*,#770,.T.);
#795 = ORIENTED_EDGE('',*,*,#787,.F.);
#796 = ORIENTED_EDGE('',*,*,#797,.F.);
#797 = EDGE_CURVE('',#788,#788,#798,.T.);
#798 = CIRCLE('',#799,2.9);
#799 = AXIS2_PLACEMENT_3D('',#800,#801,#802);
#800 = CARTESIAN_POINT('',(0.,0.,0.));
#801 = DIRECTION('',(0.,0.,1.));
#802 = DIRECTION('',(1.,0.,0.));
#803 = CYLINDRICAL_SURFACE('',#804,2.9);
#804 = AXIS2_PLACEMENT_3D('',#805,#806,#807);
#805 = CARTESIAN_POINT('',(0.,0.,0.));
#806 = DIRECTION('',(-0.,-0.,-1.));
#807 = DIRECTION('',(1.,0.,0.));
#808 = ADVANCED_FACE('',(#809),#812,.T.);
#809 = FACE_BOUND('',#810,.T.);
#810 = EDGE_LOOP('',(#811));
#811 = ORIENTED_EDGE('',*,*,#797,.T.);
#812 = PLANE('',#813);
#813 = AXIS2_PLACEMENT_3D('',#814,#815,#816);
#814 = CARTESIAN_POINT('',(-3.038755850088E-16,-1.836970198721E-16,0.));
#815 = DIRECTION('',(0.,0.,1.));
#816 = DIRECTION('',(1.,0.,0.));
#817 = ( GEOMETRIC_REPRESENTATION_CONTEXT(3) 
GLOBAL_UNCERTAINTY_ASSIGNED_CONTEXT((#821)) GLOBAL_UNIT_ASSIGNED_CONTEXT
((#818,#819,#820)) REPRESENTATION_CONTEXT('Context #1',
  '3D Context with UNIT and UNCERTAINTY') );
#818 = ( LENGTH_UNIT() NAMED_UNIT(*) SI_UNIT(.MILLI.,.METRE.) );
#819 = ( NAMED_UNIT(*) PLANE_ANGLE_UNIT() SI_UNIT($,.RADIAN.) );
#820 = ( NAMED_UNIT(*) SI_UNIT($,.STERADIAN.) SOLID_ANGLE_UNIT() );
#821 = UNCERTAINTY_MEASURE_WITH_UNIT(LENGTH_MEASURE(2.E-07),#818,
  'distance_accuracy_value','confusion accuracy');
#822 = PRODUCT_RELATED_PRODUCT_CATEGORY('part',$,(#7));
#823 = MECHANICAL_DESIGN_GEOMETRIC_PRESENTATION_REPRESENTATION('',(#824)
  ,#817);
#824 = STYLED_ITEM('color',(#825),#15);
#825 = PRESENTATION_STYLE_ASSIGNMENT((#826,#834));
#826 = SURFACE_STYLE_USAGE(.BOTH.,#827);
#827 = SURFACE_SIDE_STYLE('',(#828,#832));
#828 = SURFACE_STYLE_FILL_AREA(#829);
#829 = FILL_AREA_STYLE('',(#830));
#830 = FILL_AREA_STYLE_COLOUR('',#831);
#831 = COLOUR_RGB('',0.447058818107,0.474509808674,0.501960817233);
#832 = SURFACE_STYLE_RENDERING_WITH_PROPERTIES(.NORMAL_SHADING.,#831,(
    #833));
#833 = SURFACE_STYLE_TRANSPARENT(0.75);
#834 = CURVE_STYLE('',#835,POSITIVE_LENGTH_MEASURE(0.1),#836);
#835 = DRAUGHTING_PRE_DEFINED_CURVE_FONT('continuous');
#836 = COLOUR_RGB('',9.803921802644E-02,9.803921802644E-02,
  9.803921802644E-02);
ENDSEC;
END-ISO-10303-21;
