ISO-10303-21;
HEADER;
FILE_DESCRIPTION(('FreeCAD Model'),'2;1');
FILE_NAME('Open CASCADE Shape Model','2025-11-02T18:42:57',(''),(''),
  'Open CASCADE STEP processor 7.8','FreeCAD','Unknown');
FILE_SCHEMA(('AUTOMOTIVE_DESIGN { 1 0 10303 214 1 1 1 1 }'));
ENDSEC;
DATA;
#1 = APPLICATION_PROTOCOL_DEFINITION('international standard',
  'automotive_design',2000,#2);
#2 = APPLICATION_CONTEXT(
  'core data for automotive mechanical design processes');
#3 = SHAPE_DEFINITION_REPRESENTATION(#4,#10);
#4 = PRODUCT_DEFINITION_SHAPE('','',#5);
#5 = PRODUCT_DEFINITION('design','',#6,#9);
#6 = PRODUCT_DEFINITION_FORMATION('','',#7);
#7 = PRODUCT('Bumper','Bumper','',(#8));
#8 = PRODUCT_CONTEXT('',#2,'mechanical');
#9 = PRODUCT_DEFINITION_CONTEXT('part definition',#2,'design');
#10 = ADVANCED_BREP_SHAPE_REPRESENTATION('',(#11,#15),#1117);
#11 = AXIS2_PLACEMENT_3D('',#12,#13,#14);
#12 = CARTESIAN_POINT('',(0.,0.,0.));
#13 = DIRECTION('',(0.,0.,1.));
#14 = DIRECTION('',(1.,0.,-0.));
#15 = MANIFOLD_SOLID_BREP('',#16);
#16 = CLOSED_SHELL('',(#17,#125,#156,#181,#206,#263,#320,#362,#395,#437,
    #468,#486,#504,#578,#651,#676,#693,#718,#735,#768,#792,#826,#850,
    #876,#917,#934,#951,#968,#980,#1012,#1036,#1061,#1078,#1105));
#17 = ADVANCED_FACE('',(#18),#120,.F.);
#18 = FACE_BOUND('',#19,.F.);
#19 = EDGE_LOOP('',(#20,#30,#55,#64,#72,#80,#88,#97));
#20 = ORIENTED_EDGE('',*,*,#21,.F.);
#21 = EDGE_CURVE('',#22,#24,#26,.T.);
#22 = VERTEX_POINT('',#23);
#23 = CARTESIAN_POINT('',(19.974085593166,6.15,4.73695));
#24 = VERTEX_POINT('',#25);
#25 = CARTESIAN_POINT('',(19.974085593166,28.85,4.73695));
#26 = LINE('',#27,#28);
#27 = CARTESIAN_POINT('',(19.974085593166,4.15,4.73695));
#28 = VECTOR('',#29,1.);
#29 = DIRECTION('',(0.,1.,-2.2E-16));
#30 = ORIENTED_EDGE('',*,*,#31,.T.);
#31 = EDGE_CURVE('',#22,#32,#34,.T.);
#32 = VERTEX_POINT('',#33);
#33 = CARTESIAN_POINT('',(20.199694682981,4.15,2.738682094871));
#34 = B_SPLINE_CURVE_WITH_KNOTS('',7,(#35,#36,#37,#38,#39,#40,#41,#42,
    #43,#44,#45,#46,#47,#48,#49,#50,#51,#52,#53,#54),.UNSPECIFIED.,.F.,
  .F.,(8,6,6,8),(0.,0.312727731004,0.621622735003,1.),.UNSPECIFIED.);
#35 = CARTESIAN_POINT('',(19.974085593166,6.15,4.73695));
#36 = CARTESIAN_POINT('',(19.974085593166,6.026062272455,4.73695));
#37 = CARTESIAN_POINT('',(19.976013832996,5.902149650321,4.728199527071)
  );
#38 = CARTESIAN_POINT('',(19.979868930164,5.778655027377,4.710705323005)
  );
#39 = CARTESIAN_POINT('',(19.985615936105,5.656019353779,4.684381563832)
  );
#40 = CARTESIAN_POINT('',(19.9931791444,5.53473175922,4.64908447789));
#41 = CARTESIAN_POINT('',(20.002436083571,5.415335740981,4.60461071598)
  );
#42 = CARTESIAN_POINT('',(20.023857229454,5.182979725648,4.49736944656)
  );
#43 = CARTESIAN_POINT('',(20.035977336689,5.070036344593,4.434868571101)
  );
#44 = CARTESIAN_POINT('',(20.049405754955,4.9601449799,4.362864901699));
#45 = CARTESIAN_POINT('',(20.063916202584,4.854078388546,4.2810304208));
#46 = CARTESIAN_POINT('',(20.079192635037,4.752825719141,4.189075525617)
  );
#47 = CARTESIAN_POINT('',(20.094818781005,4.657573457262,4.086811900594)
  );
#48 = CARTESIAN_POINT('',(20.129236740499,4.462038148149,3.836265790624)
  );
#49 = CARTESIAN_POINT('',(20.148033779393,4.36496957941,3.682198290388)
  );
#50 = CARTESIAN_POINT('',(20.165597084767,4.282000409652,3.512758496181)
  );
#51 = CARTESIAN_POINT('',(20.180624194823,4.216674131765,3.329758715101)
  );
#52 = CARTESIAN_POINT('',(20.191768986739,4.171968638577,3.136315332276)
  );
#53 = CARTESIAN_POINT('',(20.198116060873,4.15,2.937048146964));
#54 = CARTESIAN_POINT('',(20.199694682981,4.15,2.738682094871));
#55 = ORIENTED_EDGE('',*,*,#56,.F.);
#56 = EDGE_CURVE('',#57,#32,#59,.T.);
#57 = VERTEX_POINT('',#58);
#58 = CARTESIAN_POINT('',(20.2,4.15,2.66195));
#59 = CIRCLE('',#60,9.64228528025);
#60 = AXIS2_PLACEMENT_3D('',#61,#62,#63);
#61 = CARTESIAN_POINT('',(10.55771471975,4.15,2.66195));
#62 = DIRECTION('',(0.,-1.,-2.2E-16));
#63 = DIRECTION('',(1.,0.,0.));
#64 = ORIENTED_EDGE('',*,*,#65,.T.);
#65 = EDGE_CURVE('',#57,#66,#68,.T.);
#66 = VERTEX_POINT('',#67);
#67 = CARTESIAN_POINT('',(20.2,6.57305458838,2.66195));
#68 = LINE('',#69,#70);
#69 = CARTESIAN_POINT('',(20.2,4.15,2.66195));
#70 = VECTOR('',#71,1.);
#71 = DIRECTION('',(0.,1.,-2.2E-16));
#72 = ORIENTED_EDGE('',*,*,#73,.T.);
#73 = EDGE_CURVE('',#66,#74,#76,.T.);
#74 = VERTEX_POINT('',#75);
#75 = CARTESIAN_POINT('',(20.2,28.42694541162,2.66195));
#76 = LINE('',#77,#78);
#77 = CARTESIAN_POINT('',(20.2,4.15,2.66195));
#78 = VECTOR('',#79,1.);
#79 = DIRECTION('',(0.,1.,-2.2E-16));
#80 = ORIENTED_EDGE('',*,*,#81,.T.);
#81 = EDGE_CURVE('',#74,#82,#84,.T.);
#82 = VERTEX_POINT('',#83);
#83 = CARTESIAN_POINT('',(20.2,30.85,2.66195));
#84 = LINE('',#85,#86);
#85 = CARTESIAN_POINT('',(20.2,4.15,2.66195));
#86 = VECTOR('',#87,1.);
#87 = DIRECTION('',(0.,1.,-2.2E-16));
#88 = ORIENTED_EDGE('',*,*,#89,.T.);
#89 = EDGE_CURVE('',#82,#90,#92,.T.);
#90 = VERTEX_POINT('',#91);
#91 = CARTESIAN_POINT('',(20.199694682981,30.85,2.738682094871));
#92 = CIRCLE('',#93,9.64228528025);
#93 = AXIS2_PLACEMENT_3D('',#94,#95,#96);
#94 = CARTESIAN_POINT('',(10.55771471975,30.85,2.66195));
#95 = DIRECTION('',(0.,-1.,-2.2E-16));
#96 = DIRECTION('',(1.,0.,0.));
#97 = ORIENTED_EDGE('',*,*,#98,.F.);
#98 = EDGE_CURVE('',#24,#90,#99,.T.);
#99 = B_SPLINE_CURVE_WITH_KNOTS('',7,(#100,#101,#102,#103,#104,#105,#106
    ,#107,#108,#109,#110,#111,#112,#113,#114,#115,#116,#117,#118,#119),
  .UNSPECIFIED.,.F.,.F.,(8,6,6,8),(0.,0.312727731004,0.621622735003,1.),
  .UNSPECIFIED.);
#100 = CARTESIAN_POINT('',(19.974085593166,28.85,4.73695));
#101 = CARTESIAN_POINT('',(19.974085593166,28.973937727545,4.73695));
#102 = CARTESIAN_POINT('',(19.976013832996,29.097850349679,
    4.728199527071));
#103 = CARTESIAN_POINT('',(19.979868930164,29.221344972623,
    4.710705323005));
#104 = CARTESIAN_POINT('',(19.985615936105,29.343980646221,
    4.684381563832));
#105 = CARTESIAN_POINT('',(19.9931791444,29.46526824078,4.64908447789));
#106 = CARTESIAN_POINT('',(20.002436083571,29.584664259019,4.60461071598
    ));
#107 = CARTESIAN_POINT('',(20.023857229454,29.817020274352,4.49736944656
    ));
#108 = CARTESIAN_POINT('',(20.035977336689,29.929963655407,
    4.434868571101));
#109 = CARTESIAN_POINT('',(20.049405754955,30.0398550201,4.362864901699)
  );
#110 = CARTESIAN_POINT('',(20.063916202584,30.145921611454,4.2810304208)
  );
#111 = CARTESIAN_POINT('',(20.079192635037,30.247174280859,
    4.189075525617));
#112 = CARTESIAN_POINT('',(20.094818781005,30.342426542738,
    4.086811900594));
#113 = CARTESIAN_POINT('',(20.129236740499,30.537961851851,
    3.836265790624));
#114 = CARTESIAN_POINT('',(20.148033779393,30.63503042059,3.682198290389
    ));
#115 = CARTESIAN_POINT('',(20.165597084767,30.717999590348,
    3.512758496181));
#116 = CARTESIAN_POINT('',(20.180624194823,30.783325868235,
    3.329758715101));
#117 = CARTESIAN_POINT('',(20.191768986739,30.828031361423,
    3.136315332276));
#118 = CARTESIAN_POINT('',(20.198116060873,30.85,2.937048146964));
#119 = CARTESIAN_POINT('',(20.199694682981,30.85,2.738682094871));
#120 = CYLINDRICAL_SURFACE('',#121,9.64228528025);
#121 = AXIS2_PLACEMENT_3D('',#122,#123,#124);
#122 = CARTESIAN_POINT('',(10.55771471975,4.15,2.66195));
#123 = DIRECTION('',(0.,-1.,2.2E-16));
#124 = DIRECTION('',(1.,0.,0.));
#125 = ADVANCED_FACE('',(#126),#151,.F.);
#126 = FACE_BOUND('',#127,.F.);
#127 = EDGE_LOOP('',(#128,#129,#137,#145));
#128 = ORIENTED_EDGE('',*,*,#21,.T.);
#129 = ORIENTED_EDGE('',*,*,#130,.T.);
#130 = EDGE_CURVE('',#24,#131,#133,.T.);
#131 = VERTEX_POINT('',#132);
#132 = CARTESIAN_POINT('',(20.755341953022,28.85,4.909108357874));
#133 = LINE('',#134,#135);
#134 = CARTESIAN_POINT('',(19.974085593166,28.85,4.73695));
#135 = VECTOR('',#136,1.);
#136 = DIRECTION('',(0.976570449819,5.E-17,0.215197947342));
#137 = ORIENTED_EDGE('',*,*,#138,.F.);
#138 = EDGE_CURVE('',#139,#131,#141,.T.);
#139 = VERTEX_POINT('',#140);
#140 = CARTESIAN_POINT('',(20.755341953022,6.15,4.909108357874));
#141 = LINE('',#142,#143);
#142 = CARTESIAN_POINT('',(20.755341953022,4.15,4.909108357874));
#143 = VECTOR('',#144,1.);
#144 = DIRECTION('',(0.,1.,-2.2E-16));
#145 = ORIENTED_EDGE('',*,*,#146,.F.);
#146 = EDGE_CURVE('',#22,#139,#147,.T.);
#147 = LINE('',#148,#149);
#148 = CARTESIAN_POINT('',(19.974085593166,6.15,4.73695));
#149 = VECTOR('',#150,1.);
#150 = DIRECTION('',(0.976570449819,5.E-17,0.215197947342));
#151 = PLANE('',#152);
#152 = AXIS2_PLACEMENT_3D('',#153,#154,#155);
#153 = CARTESIAN_POINT('',(19.974085593166,4.15,4.73695));
#154 = DIRECTION('',(0.215197947342,-2.1E-16,-0.976570449819));
#155 = DIRECTION('',(0.976570449819,5.E-17,0.215197947342));
#156 = ADVANCED_FACE('',(#157),#176,.T.);
#157 = FACE_BOUND('',#158,.T.);
#158 = EDGE_LOOP('',(#159,#160,#168,#175));
#159 = ORIENTED_EDGE('',*,*,#31,.T.);
#160 = ORIENTED_EDGE('',*,*,#161,.T.);
#161 = EDGE_CURVE('',#32,#162,#164,.T.);
#162 = VERTEX_POINT('',#163);
#163 = CARTESIAN_POINT('',(20.973090778885,4.15,2.909108357874));
#164 = LINE('',#165,#166);
#165 = CARTESIAN_POINT('',(20.404481487851,4.15,2.783809100362));
#166 = VECTOR('',#167,1.);
#167 = DIRECTION('',(0.976570449819,5.E-17,0.215197947342));
#168 = ORIENTED_EDGE('',*,*,#169,.F.);
#169 = EDGE_CURVE('',#139,#162,#170,.T.);
#170 = ELLIPSE('',#171,2.011818717272,2.);
#171 = AXIS2_PLACEMENT_3D('',#172,#173,#174);
#172 = CARTESIAN_POINT('',(20.973090778885,6.15,2.909108357874));
#173 = DIRECTION('',(0.994125356738,3.E-17,0.108234814595));
#174 = DIRECTION('',(-0.108234814595,2.2E-16,0.994125356738));
#175 = ORIENTED_EDGE('',*,*,#146,.F.);
#176 = CYLINDRICAL_SURFACE('',#177,2.);
#177 = AXIS2_PLACEMENT_3D('',#178,#179,#180);
#178 = CARTESIAN_POINT('',(20.404481487851,6.15,2.783809100362));
#179 = DIRECTION('',(0.976570449819,5.E-17,0.215197947342));
#180 = DIRECTION('',(-0.215197947342,2.1E-16,0.976570449819));
#181 = ADVANCED_FACE('',(#182),#201,.T.);
#182 = FACE_BOUND('',#183,.F.);
#183 = EDGE_LOOP('',(#184,#185,#193,#200));
#184 = ORIENTED_EDGE('',*,*,#98,.T.);
#185 = ORIENTED_EDGE('',*,*,#186,.T.);
#186 = EDGE_CURVE('',#90,#187,#189,.T.);
#187 = VERTEX_POINT('',#188);
#188 = CARTESIAN_POINT('',(20.973090778885,30.85,2.909108357874));
#189 = LINE('',#190,#191);
#190 = CARTESIAN_POINT('',(20.404481487851,30.85,2.783809100362));
#191 = VECTOR('',#192,1.);
#192 = DIRECTION('',(0.976570449819,5.E-17,0.215197947342));
#193 = ORIENTED_EDGE('',*,*,#194,.F.);
#194 = EDGE_CURVE('',#131,#187,#195,.T.);
#195 = ELLIPSE('',#196,2.011818717272,2.);
#196 = AXIS2_PLACEMENT_3D('',#197,#198,#199);
#197 = CARTESIAN_POINT('',(20.973090778885,28.85,2.909108357874));
#198 = DIRECTION('',(-0.994125356738,-3.E-17,-0.108234814595));
#199 = DIRECTION('',(-0.108234814595,2.2E-16,0.994125356738));
#200 = ORIENTED_EDGE('',*,*,#130,.F.);
#201 = CYLINDRICAL_SURFACE('',#202,2.);
#202 = AXIS2_PLACEMENT_3D('',#203,#204,#205);
#203 = CARTESIAN_POINT('',(20.404481487851,28.85,2.783809100362));
#204 = DIRECTION('',(0.976570449819,5.E-17,0.215197947342));
#205 = DIRECTION('',(-0.215197947342,2.1E-16,0.976570449819));
#206 = ADVANCED_FACE('',(#207),#258,.F.);
#207 = FACE_BOUND('',#208,.F.);
#208 = EDGE_LOOP('',(#209,#210,#211,#219,#227,#235,#243,#252));
#209 = ORIENTED_EDGE('',*,*,#56,.T.);
#210 = ORIENTED_EDGE('',*,*,#161,.T.);
#211 = ORIENTED_EDGE('',*,*,#212,.T.);
#212 = EDGE_CURVE('',#162,#213,#215,.T.);
#213 = VERTEX_POINT('',#214);
#214 = CARTESIAN_POINT('',(22.,4.15,2.909108357874));
#215 = LINE('',#216,#217);
#216 = CARTESIAN_POINT('',(20.755341953022,4.15,2.909108357874));
#217 = VECTOR('',#218,1.);
#218 = DIRECTION('',(1.,0.,0.));
#219 = ORIENTED_EDGE('',*,*,#220,.F.);
#220 = EDGE_CURVE('',#221,#213,#223,.T.);
#221 = VERTEX_POINT('',#222);
#222 = CARTESIAN_POINT('',(22.,4.15,-7.585208357874));
#223 = LINE('',#224,#225);
#224 = CARTESIAN_POINT('',(22.,4.15,-9.585208357874));
#225 = VECTOR('',#226,1.);
#226 = DIRECTION('',(0.,-2.2E-16,1.));
#227 = ORIENTED_EDGE('',*,*,#228,.F.);
#228 = EDGE_CURVE('',#229,#221,#231,.T.);
#229 = VERTEX_POINT('',#230);
#230 = CARTESIAN_POINT('',(20.973090778885,4.15,-7.585208357874));
#231 = LINE('',#232,#233);
#232 = CARTESIAN_POINT('',(20.755341953022,4.15,-7.585208357874));
#233 = VECTOR('',#234,1.);
#234 = DIRECTION('',(1.,0.,0.));
#235 = ORIENTED_EDGE('',*,*,#236,.F.);
#236 = EDGE_CURVE('',#237,#229,#239,.T.);
#237 = VERTEX_POINT('',#238);
#238 = CARTESIAN_POINT('',(20.199694682981,4.15,-7.414782094871));
#239 = LINE('',#240,#241);
#240 = CARTESIAN_POINT('',(20.404481487851,4.15,-7.459909100362));
#241 = VECTOR('',#242,1.);
#242 = DIRECTION('',(0.976570449819,-5.E-17,-0.215197947342));
#243 = ORIENTED_EDGE('',*,*,#244,.T.);
#244 = EDGE_CURVE('',#237,#245,#247,.T.);
#245 = VERTEX_POINT('',#246);
#246 = CARTESIAN_POINT('',(20.2,4.15,-7.33805));
#247 = CIRCLE('',#248,9.64228528025);
#248 = AXIS2_PLACEMENT_3D('',#249,#250,#251);
#249 = CARTESIAN_POINT('',(10.55771471975,4.15,-7.33805));
#250 = DIRECTION('',(0.,-1.,-2.2E-16));
#251 = DIRECTION('',(1.,0.,0.));
#252 = ORIENTED_EDGE('',*,*,#253,.T.);
#253 = EDGE_CURVE('',#245,#57,#254,.T.);
#254 = LINE('',#255,#256);
#255 = CARTESIAN_POINT('',(20.2,4.15,-7.33805));
#256 = VECTOR('',#257,1.);
#257 = DIRECTION('',(0.,-2.2E-16,1.));
#258 = PLANE('',#259);
#259 = AXIS2_PLACEMENT_3D('',#260,#261,#262);
#260 = CARTESIAN_POINT('',(21.083616246805,4.15,-2.33805));
#261 = DIRECTION('',(0.,1.,2.2E-16));
#262 = DIRECTION('',(0.,-2.2E-16,1.));
#263 = ADVANCED_FACE('',(#264),#315,.T.);
#264 = FACE_BOUND('',#265,.T.);
#265 = EDGE_LOOP('',(#266,#267,#268,#276,#284,#292,#300,#309));
#266 = ORIENTED_EDGE('',*,*,#89,.T.);
#267 = ORIENTED_EDGE('',*,*,#186,.T.);
#268 = ORIENTED_EDGE('',*,*,#269,.T.);
#269 = EDGE_CURVE('',#187,#270,#272,.T.);
#270 = VERTEX_POINT('',#271);
#271 = CARTESIAN_POINT('',(22.,30.85,2.909108357874));
#272 = LINE('',#273,#274);
#273 = CARTESIAN_POINT('',(20.755341953022,30.85,2.909108357874));
#274 = VECTOR('',#275,1.);
#275 = DIRECTION('',(1.,0.,0.));
#276 = ORIENTED_EDGE('',*,*,#277,.F.);
#277 = EDGE_CURVE('',#278,#270,#280,.T.);
#278 = VERTEX_POINT('',#279);
#279 = CARTESIAN_POINT('',(22.,30.85,-7.585208357874));
#280 = LINE('',#281,#282);
#281 = CARTESIAN_POINT('',(22.,30.85,-9.585208357874));
#282 = VECTOR('',#283,1.);
#283 = DIRECTION('',(0.,-2.2E-16,1.));
#284 = ORIENTED_EDGE('',*,*,#285,.F.);
#285 = EDGE_CURVE('',#286,#278,#288,.T.);
#286 = VERTEX_POINT('',#287);
#287 = CARTESIAN_POINT('',(20.973090778885,30.85,-7.585208357874));
#288 = LINE('',#289,#290);
#289 = CARTESIAN_POINT('',(20.755341953022,30.85,-7.585208357874));
#290 = VECTOR('',#291,1.);
#291 = DIRECTION('',(1.,0.,0.));
#292 = ORIENTED_EDGE('',*,*,#293,.F.);
#293 = EDGE_CURVE('',#294,#286,#296,.T.);
#294 = VERTEX_POINT('',#295);
#295 = CARTESIAN_POINT('',(20.199694682981,30.85,-7.414782094871));
#296 = LINE('',#297,#298);
#297 = CARTESIAN_POINT('',(20.404481487851,30.85,-7.459909100362));
#298 = VECTOR('',#299,1.);
#299 = DIRECTION('',(0.976570449819,-5.E-17,-0.215197947342));
#300 = ORIENTED_EDGE('',*,*,#301,.T.);
#301 = EDGE_CURVE('',#294,#302,#304,.T.);
#302 = VERTEX_POINT('',#303);
#303 = CARTESIAN_POINT('',(20.2,30.85,-7.33805));
#304 = CIRCLE('',#305,9.64228528025);
#305 = AXIS2_PLACEMENT_3D('',#306,#307,#308);
#306 = CARTESIAN_POINT('',(10.55771471975,30.85,-7.33805));
#307 = DIRECTION('',(0.,-1.,-2.2E-16));
#308 = DIRECTION('',(1.,0.,0.));
#309 = ORIENTED_EDGE('',*,*,#310,.T.);
#310 = EDGE_CURVE('',#302,#82,#311,.T.);
#311 = LINE('',#312,#313);
#312 = CARTESIAN_POINT('',(20.2,30.85,-7.33805));
#313 = VECTOR('',#314,1.);
#314 = DIRECTION('',(0.,-2.2E-16,1.));
#315 = PLANE('',#316);
#316 = AXIS2_PLACEMENT_3D('',#317,#318,#319);
#317 = CARTESIAN_POINT('',(21.083616246805,30.85,-2.33805));
#318 = DIRECTION('',(0.,1.,2.2E-16));
#319 = DIRECTION('',(0.,-2.2E-16,1.));
#320 = ADVANCED_FACE('',(#321),#357,.F.);
#321 = FACE_BOUND('',#322,.F.);
#322 = EDGE_LOOP('',(#323,#324,#332,#341,#349,#356));
#323 = ORIENTED_EDGE('',*,*,#253,.F.);
#324 = ORIENTED_EDGE('',*,*,#325,.T.);
#325 = EDGE_CURVE('',#245,#326,#328,.T.);
#326 = VERTEX_POINT('',#327);
#327 = CARTESIAN_POINT('',(20.2,6.57305458838,-7.33805));
#328 = LINE('',#329,#330);
#329 = CARTESIAN_POINT('',(20.2,4.15,-7.33805));
#330 = VECTOR('',#331,1.);
#331 = DIRECTION('',(0.,1.,-2.2E-16));
#332 = ORIENTED_EDGE('',*,*,#333,.F.);
#333 = EDGE_CURVE('',#334,#326,#336,.T.);
#334 = VERTEX_POINT('',#335);
#335 = CARTESIAN_POINT('',(20.2,5.440422369837,-5.83805));
#336 = CIRCLE('',#337,1.559577630163);
#337 = AXIS2_PLACEMENT_3D('',#338,#339,#340);
#338 = CARTESIAN_POINT('',(20.2,7.,-5.83805));
#339 = DIRECTION('',(1.,0.,-0.));
#340 = DIRECTION('',(0.,1.,2.2E-16));
#341 = ORIENTED_EDGE('',*,*,#342,.T.);
#342 = EDGE_CURVE('',#334,#343,#345,.T.);
#343 = VERTEX_POINT('',#344);
#344 = CARTESIAN_POINT('',(20.2,5.440422369837,1.16195));
#345 = LINE('',#346,#347);
#346 = CARTESIAN_POINT('',(20.2,5.440422369837,-5.83805));
#347 = VECTOR('',#348,1.);
#348 = DIRECTION('',(0.,-1.49E-15,1.));
#349 = ORIENTED_EDGE('',*,*,#350,.F.);
#350 = EDGE_CURVE('',#66,#343,#351,.T.);
#351 = CIRCLE('',#352,1.559577630163);
#352 = AXIS2_PLACEMENT_3D('',#353,#354,#355);
#353 = CARTESIAN_POINT('',(20.2,7.,1.16195));
#354 = DIRECTION('',(1.,0.,-0.));
#355 = DIRECTION('',(0.,1.,2.2E-16));
#356 = ORIENTED_EDGE('',*,*,#65,.F.);
#357 = PLANE('',#358);
#358 = AXIS2_PLACEMENT_3D('',#359,#360,#361);
#359 = CARTESIAN_POINT('',(20.2,4.15,-7.33805));
#360 = DIRECTION('',(1.,0.,0.));
#361 = DIRECTION('',(0.,2.2E-16,1.));
#362 = ADVANCED_FACE('',(#363),#390,.T.);
#363 = FACE_BOUND('',#364,.T.);
#364 = EDGE_LOOP('',(#365,#366,#375,#383));
#365 = ORIENTED_EDGE('',*,*,#73,.T.);
#366 = ORIENTED_EDGE('',*,*,#367,.T.);
#367 = EDGE_CURVE('',#74,#368,#370,.T.);
#368 = VERTEX_POINT('',#369);
#369 = CARTESIAN_POINT('',(20.2,28.,2.721527630163));
#370 = CIRCLE('',#371,1.559577630163);
#371 = AXIS2_PLACEMENT_3D('',#372,#373,#374);
#372 = CARTESIAN_POINT('',(20.2,28.,1.16195));
#373 = DIRECTION('',(1.,0.,-0.));
#374 = DIRECTION('',(0.,1.,2.2E-16));
#375 = ORIENTED_EDGE('',*,*,#376,.F.);
#376 = EDGE_CURVE('',#377,#368,#379,.T.);
#377 = VERTEX_POINT('',#378);
#378 = CARTESIAN_POINT('',(20.2,7.,2.721527630163));
#379 = LINE('',#380,#381);
#380 = CARTESIAN_POINT('',(20.2,7.,2.721527630163));
#381 = VECTOR('',#382,1.);
#382 = DIRECTION('',(0.,1.,2.2E-16));
#383 = ORIENTED_EDGE('',*,*,#384,.T.);
#384 = EDGE_CURVE('',#377,#66,#385,.T.);
#385 = CIRCLE('',#386,1.559577630163);
#386 = AXIS2_PLACEMENT_3D('',#387,#388,#389);
#387 = CARTESIAN_POINT('',(20.2,7.,1.16195));
#388 = DIRECTION('',(1.,0.,-0.));
#389 = DIRECTION('',(0.,1.,2.2E-16));
#390 = PLANE('',#391);
#391 = AXIS2_PLACEMENT_3D('',#392,#393,#394);
#392 = CARTESIAN_POINT('',(20.2,17.5,-2.33805));
#393 = DIRECTION('',(1.,0.,0.));
#394 = DIRECTION('',(0.,-2.2E-16,1.));
#395 = ADVANCED_FACE('',(#396),#432,.F.);
#396 = FACE_BOUND('',#397,.F.);
#397 = EDGE_LOOP('',(#398,#409,#415,#416,#417,#426));
#398 = ORIENTED_EDGE('',*,*,#399,.F.);
#399 = EDGE_CURVE('',#400,#402,#404,.T.);
#400 = VERTEX_POINT('',#401);
#401 = CARTESIAN_POINT('',(20.2,28.42694541162,-7.33805));
#402 = VERTEX_POINT('',#403);
#403 = CARTESIAN_POINT('',(20.2,29.559577630163,-5.83805));
#404 = CIRCLE('',#405,1.559577630163);
#405 = AXIS2_PLACEMENT_3D('',#406,#407,#408);
#406 = CARTESIAN_POINT('',(20.2,28.,-5.83805));
#407 = DIRECTION('',(1.,0.,-0.));
#408 = DIRECTION('',(0.,1.,2.2E-16));
#409 = ORIENTED_EDGE('',*,*,#410,.T.);
#410 = EDGE_CURVE('',#400,#302,#411,.T.);
#411 = LINE('',#412,#413);
#412 = CARTESIAN_POINT('',(20.2,4.15,-7.33805));
#413 = VECTOR('',#414,1.);
#414 = DIRECTION('',(0.,1.,-2.2E-16));
#415 = ORIENTED_EDGE('',*,*,#310,.T.);
#416 = ORIENTED_EDGE('',*,*,#81,.F.);
#417 = ORIENTED_EDGE('',*,*,#418,.F.);
#418 = EDGE_CURVE('',#419,#74,#421,.T.);
#419 = VERTEX_POINT('',#420);
#420 = CARTESIAN_POINT('',(20.2,29.559577630163,1.16195));
#421 = CIRCLE('',#422,1.559577630163);
#422 = AXIS2_PLACEMENT_3D('',#423,#424,#425);
#423 = CARTESIAN_POINT('',(20.2,28.,1.16195));
#424 = DIRECTION('',(1.,0.,-0.));
#425 = DIRECTION('',(0.,1.,2.2E-16));
#426 = ORIENTED_EDGE('',*,*,#427,.F.);
#427 = EDGE_CURVE('',#402,#419,#428,.T.);
#428 = LINE('',#429,#430);
#429 = CARTESIAN_POINT('',(20.2,29.559577630163,-5.83805));
#430 = VECTOR('',#431,1.);
#431 = DIRECTION('',(0.,7.9E-16,1.));
#432 = PLANE('',#433);
#433 = AXIS2_PLACEMENT_3D('',#434,#435,#436);
#434 = CARTESIAN_POINT('',(20.2,4.15,-7.33805));
#435 = DIRECTION('',(1.,0.,0.));
#436 = DIRECTION('',(0.,2.2E-16,1.));
#437 = ADVANCED_FACE('',(#438),#463,.F.);
#438 = FACE_BOUND('',#439,.F.);
#439 = EDGE_LOOP('',(#440,#441,#449,#457));
#440 = ORIENTED_EDGE('',*,*,#138,.T.);
#441 = ORIENTED_EDGE('',*,*,#442,.T.);
#442 = EDGE_CURVE('',#131,#443,#445,.T.);
#443 = VERTEX_POINT('',#444);
#444 = CARTESIAN_POINT('',(22.,28.85,4.909108357874));
#445 = LINE('',#446,#447);
#446 = CARTESIAN_POINT('',(20.755341953022,28.85,4.909108357874));
#447 = VECTOR('',#448,1.);
#448 = DIRECTION('',(1.,0.,0.));
#449 = ORIENTED_EDGE('',*,*,#450,.F.);
#450 = EDGE_CURVE('',#451,#443,#453,.T.);
#451 = VERTEX_POINT('',#452);
#452 = CARTESIAN_POINT('',(22.,6.15,4.909108357874));
#453 = LINE('',#454,#455);
#454 = CARTESIAN_POINT('',(22.,4.15,4.909108357874));
#455 = VECTOR('',#456,1.);
#456 = DIRECTION('',(0.,1.,-2.2E-16));
#457 = ORIENTED_EDGE('',*,*,#458,.F.);
#458 = EDGE_CURVE('',#139,#451,#459,.T.);
#459 = LINE('',#460,#461);
#460 = CARTESIAN_POINT('',(20.755341953022,6.15,4.909108357874));
#461 = VECTOR('',#462,1.);
#462 = DIRECTION('',(1.,0.,0.));
#463 = PLANE('',#464);
#464 = AXIS2_PLACEMENT_3D('',#465,#466,#467);
#465 = CARTESIAN_POINT('',(20.755341953022,4.15,4.909108357874));
#466 = DIRECTION('',(0.,-2.2E-16,-1.));
#467 = DIRECTION('',(1.,0.,0.));
#468 = ADVANCED_FACE('',(#469),#481,.T.);
#469 = FACE_BOUND('',#470,.T.);
#470 = EDGE_LOOP('',(#471,#472,#473,#480));
#471 = ORIENTED_EDGE('',*,*,#169,.T.);
#472 = ORIENTED_EDGE('',*,*,#212,.T.);
#473 = ORIENTED_EDGE('',*,*,#474,.F.);
#474 = EDGE_CURVE('',#451,#213,#475,.T.);
#475 = CIRCLE('',#476,2.);
#476 = AXIS2_PLACEMENT_3D('',#477,#478,#479);
#477 = CARTESIAN_POINT('',(22.,6.15,2.909108357874));
#478 = DIRECTION('',(1.,0.,0.));
#479 = DIRECTION('',(0.,-1.,-2.2E-16));
#480 = ORIENTED_EDGE('',*,*,#458,.F.);
#481 = CYLINDRICAL_SURFACE('',#482,2.);
#482 = AXIS2_PLACEMENT_3D('',#483,#484,#485);
#483 = CARTESIAN_POINT('',(20.755341953022,6.15,2.909108357874));
#484 = DIRECTION('',(1.,0.,0.));
#485 = DIRECTION('',(0.,2.2E-16,1.));
#486 = ADVANCED_FACE('',(#487),#499,.T.);
#487 = FACE_BOUND('',#488,.F.);
#488 = EDGE_LOOP('',(#489,#490,#491,#498));
#489 = ORIENTED_EDGE('',*,*,#194,.T.);
#490 = ORIENTED_EDGE('',*,*,#269,.T.);
#491 = ORIENTED_EDGE('',*,*,#492,.F.);
#492 = EDGE_CURVE('',#443,#270,#493,.T.);
#493 = CIRCLE('',#494,2.);
#494 = AXIS2_PLACEMENT_3D('',#495,#496,#497);
#495 = CARTESIAN_POINT('',(22.,28.85,2.909108357874));
#496 = DIRECTION('',(-1.,-0.,0.));
#497 = DIRECTION('',(0.,-1.,-2.2E-16));
#498 = ORIENTED_EDGE('',*,*,#442,.F.);
#499 = CYLINDRICAL_SURFACE('',#500,2.);
#500 = AXIS2_PLACEMENT_3D('',#501,#502,#503);
#501 = CARTESIAN_POINT('',(20.755341953022,28.85,2.909108357874));
#502 = DIRECTION('',(1.,0.,0.));
#503 = DIRECTION('',(0.,2.2E-16,1.));
#504 = ADVANCED_FACE('',(#505),#573,.F.);
#505 = FACE_BOUND('',#506,.F.);
#506 = EDGE_LOOP('',(#507,#517,#540,#541,#542,#548,#549,#550));
#507 = ORIENTED_EDGE('',*,*,#508,.T.);
#508 = EDGE_CURVE('',#509,#511,#513,.T.);
#509 = VERTEX_POINT('',#510);
#510 = CARTESIAN_POINT('',(19.974085593166,6.15,-9.41305));
#511 = VERTEX_POINT('',#512);
#512 = CARTESIAN_POINT('',(19.974085593166,28.85,-9.41305));
#513 = LINE('',#514,#515);
#514 = CARTESIAN_POINT('',(19.974085593166,4.15,-9.41305));
#515 = VECTOR('',#516,1.);
#516 = DIRECTION('',(0.,1.,-2.2E-16));
#517 = ORIENTED_EDGE('',*,*,#518,.T.);
#518 = EDGE_CURVE('',#511,#294,#519,.T.);
#519 = B_SPLINE_CURVE_WITH_KNOTS('',7,(#520,#521,#522,#523,#524,#525,
    #526,#527,#528,#529,#530,#531,#532,#533,#534,#535,#536,#537,#538,
    #539),.UNSPECIFIED.,.F.,.F.,(8,6,6,8),(0.,0.461130468362,
    0.743399204913,1.),.UNSPECIFIED.);
#520 = CARTESIAN_POINT('',(19.974085593166,28.85,-9.41305));
#521 = CARTESIAN_POINT('',(19.974085593166,29.032923248024,-9.41305));
#522 = CARTESIAN_POINT('',(19.978286070699,29.215626411907,-9.3939895119
    ));
#523 = CARTESIAN_POINT('',(19.986668408436,29.397069203794,
    -9.355943572571));
#524 = CARTESIAN_POINT('',(19.999087857925,29.575838323788,
    -9.298445300438));
#525 = CARTESIAN_POINT('',(20.015180529868,29.750108117541,-9.2207793717
    ));
#526 = CARTESIAN_POINT('',(20.034302005077,29.917691909989,
    -9.122155084676));
#527 = CARTESIAN_POINT('',(20.068440441375,30.172604399685,
    -8.927203584775));
#528 = CARTESIAN_POINT('',(20.082158682123,30.26574524895,
    -8.844902355847));
#529 = CARTESIAN_POINT('',(20.096401678231,30.354578830885,
    -8.754071526487));
#530 = CARTESIAN_POINT('',(20.110867333758,30.438192637469,
    -8.654533483504));
#531 = CARTESIAN_POINT('',(20.125168040447,30.515481060952,
    -8.546287062859));
#532 = CARTESIAN_POINT('',(20.138834937276,30.585188075303,
    -8.429585080505));
#533 = CARTESIAN_POINT('',(20.162786303231,30.701387315979,
    -8.191980229508));
#534 = CARTESIAN_POINT('',(20.173276083846,30.74946747431,
    -8.072316553912));
#535 = CARTESIAN_POINT('',(20.182448498538,30.789159193859,
    -7.946968703266));
#536 = CARTESIAN_POINT('',(20.189916805803,30.819536162584,
    -7.817033081249));
#537 = CARTESIAN_POINT('',(20.195368997271,30.839921657405,
    -7.683873997277));
#538 = CARTESIAN_POINT('',(20.198625453711,30.85,-7.549139005257));
#539 = CARTESIAN_POINT('',(20.199694682981,30.85,-7.414782094871));
#540 = ORIENTED_EDGE('',*,*,#301,.T.);
#541 = ORIENTED_EDGE('',*,*,#410,.F.);
#542 = ORIENTED_EDGE('',*,*,#543,.F.);
#543 = EDGE_CURVE('',#326,#400,#544,.T.);
#544 = LINE('',#545,#546);
#545 = CARTESIAN_POINT('',(20.2,4.15,-7.33805));
#546 = VECTOR('',#547,1.);
#547 = DIRECTION('',(0.,1.,-2.2E-16));
#548 = ORIENTED_EDGE('',*,*,#325,.F.);
#549 = ORIENTED_EDGE('',*,*,#244,.F.);
#550 = ORIENTED_EDGE('',*,*,#551,.F.);
#551 = EDGE_CURVE('',#509,#237,#552,.T.);
#552 = B_SPLINE_CURVE_WITH_KNOTS('',7,(#553,#554,#555,#556,#557,#558,
    #559,#560,#561,#562,#563,#564,#565,#566,#567,#568,#569,#570,#571,
    #572),.UNSPECIFIED.,.F.,.F.,(8,6,6,8),(0.,0.461135319429,
    0.743401514911,1.),.UNSPECIFIED.);
#553 = CARTESIAN_POINT('',(19.974085593166,6.15,-9.41305));
#554 = CARTESIAN_POINT('',(19.974085593166,5.9670815339,-9.41305));
#555 = CARTESIAN_POINT('',(19.978285847832,5.784375316383,
    -9.393990402709));
#556 = CARTESIAN_POINT('',(19.986668399641,5.602928005974,
    -9.355943832776));
#557 = CARTESIAN_POINT('',(19.999088268955,5.424157837644,
    -9.298443462425));
#558 = CARTESIAN_POINT('',(20.015180697785,5.249891621757,
    -9.220778078473));
#559 = CARTESIAN_POINT('',(20.034301591668,5.08231117694,-9.122157445491
    ));
#560 = CARTESIAN_POINT('',(20.068440441375,4.827395600315,
    -8.927203584775));
#561 = CARTESIAN_POINT('',(20.082158682123,4.73425475105,-8.844902355847
    ));
#562 = CARTESIAN_POINT('',(20.096401678231,4.645421169115,
    -8.754071526488));
#563 = CARTESIAN_POINT('',(20.110867333758,4.56180736253,-8.654533483504
    ));
#564 = CARTESIAN_POINT('',(20.125168040447,4.484518939048,
    -8.546287062859));
#565 = CARTESIAN_POINT('',(20.138834937276,4.414811924697,
    -8.429585080505));
#566 = CARTESIAN_POINT('',(20.162786303231,4.298612684021,
    -8.191980229508));
#567 = CARTESIAN_POINT('',(20.173276083846,4.25053252569,-8.072316553911
    ));
#568 = CARTESIAN_POINT('',(20.182448498538,4.210840806141,
    -7.946968703266));
#569 = CARTESIAN_POINT('',(20.189916805803,4.180463837416,
    -7.817033081249));
#570 = CARTESIAN_POINT('',(20.195368997271,4.160078342595,
    -7.683873997277));
#571 = CARTESIAN_POINT('',(20.198625453711,4.15,-7.549139005257));
#572 = CARTESIAN_POINT('',(20.199694682981,4.15,-7.414782094871));
#573 = CYLINDRICAL_SURFACE('',#574,9.64228528025);
#574 = AXIS2_PLACEMENT_3D('',#575,#576,#577);
#575 = CARTESIAN_POINT('',(10.55771471975,4.15,-7.33805));
#576 = DIRECTION('',(0.,-1.,2.2E-16));
#577 = DIRECTION('',(1.,0.,0.));
#578 = ADVANCED_FACE('',(#579,#610),#646,.T.);
#579 = FACE_BOUND('',#580,.T.);
#580 = EDGE_LOOP('',(#581,#591,#598,#599,#600,#601,#602,#603));
#581 = ORIENTED_EDGE('',*,*,#582,.T.);
#582 = EDGE_CURVE('',#583,#585,#587,.T.);
#583 = VERTEX_POINT('',#584);
#584 = CARTESIAN_POINT('',(22.,6.15,-9.585208357874));
#585 = VERTEX_POINT('',#586);
#586 = CARTESIAN_POINT('',(22.,28.85,-9.585208357874));
#587 = LINE('',#588,#589);
#588 = CARTESIAN_POINT('',(22.,4.15,-9.585208357874));
#589 = VECTOR('',#590,1.);
#590 = DIRECTION('',(0.,1.,-2.2E-16));
#591 = ORIENTED_EDGE('',*,*,#592,.T.);
#592 = EDGE_CURVE('',#585,#278,#593,.T.);
#593 = CIRCLE('',#594,2.);
#594 = AXIS2_PLACEMENT_3D('',#595,#596,#597);
#595 = CARTESIAN_POINT('',(22.,28.85,-7.585208357874));
#596 = DIRECTION('',(1.,0.,0.));
#597 = DIRECTION('',(0.,-1.,-2.2E-16));
#598 = ORIENTED_EDGE('',*,*,#277,.T.);
#599 = ORIENTED_EDGE('',*,*,#492,.F.);
#600 = ORIENTED_EDGE('',*,*,#450,.F.);
#601 = ORIENTED_EDGE('',*,*,#474,.T.);
#602 = ORIENTED_EDGE('',*,*,#220,.F.);
#603 = ORIENTED_EDGE('',*,*,#604,.F.);
#604 = EDGE_CURVE('',#583,#221,#605,.T.);
#605 = CIRCLE('',#606,2.);
#606 = AXIS2_PLACEMENT_3D('',#607,#608,#609);
#607 = CARTESIAN_POINT('',(22.,6.15,-7.585208357874));
#608 = DIRECTION('',(-1.,-0.,0.));
#609 = DIRECTION('',(0.,-1.,-2.2E-16));
#610 = FACE_BOUND('',#611,.T.);
#611 = EDGE_LOOP('',(#612,#623,#631,#640));
#612 = ORIENTED_EDGE('',*,*,#613,.F.);
#613 = EDGE_CURVE('',#614,#616,#618,.T.);
#614 = VERTEX_POINT('',#615);
#615 = CARTESIAN_POINT('',(22.,10.4913,2.3));
#616 = VERTEX_POINT('',#617);
#617 = CARTESIAN_POINT('',(22.,10.4913,-6.1));
#618 = CIRCLE('',#619,4.2);
#619 = AXIS2_PLACEMENT_3D('',#620,#621,#622);
#620 = CARTESIAN_POINT('',(22.,10.4913,-1.9));
#621 = DIRECTION('',(1.,0.,-0.));
#622 = DIRECTION('',(0.,1.,2.2E-16));
#623 = ORIENTED_EDGE('',*,*,#624,.T.);
#624 = EDGE_CURVE('',#614,#625,#627,.T.);
#625 = VERTEX_POINT('',#626);
#626 = CARTESIAN_POINT('',(22.,24.4913,2.3));
#627 = LINE('',#628,#629);
#628 = CARTESIAN_POINT('',(22.,10.4913,2.3));
#629 = VECTOR('',#630,1.);
#630 = DIRECTION('',(0.,1.,2.2E-16));
#631 = ORIENTED_EDGE('',*,*,#632,.F.);
#632 = EDGE_CURVE('',#633,#625,#635,.T.);
#633 = VERTEX_POINT('',#634);
#634 = CARTESIAN_POINT('',(22.,24.4913,-6.1));
#635 = CIRCLE('',#636,4.2);
#636 = AXIS2_PLACEMENT_3D('',#637,#638,#639);
#637 = CARTESIAN_POINT('',(22.,24.4913,-1.9));
#638 = DIRECTION('',(1.,0.,-0.));
#639 = DIRECTION('',(0.,1.,2.2E-16));
#640 = ORIENTED_EDGE('',*,*,#641,.F.);
#641 = EDGE_CURVE('',#616,#633,#642,.T.);
#642 = LINE('',#643,#644);
#643 = CARTESIAN_POINT('',(22.,10.4913,-6.1));
#644 = VECTOR('',#645,1.);
#645 = DIRECTION('',(0.,1.,2.2E-16));
#646 = PLANE('',#647);
#647 = AXIS2_PLACEMENT_3D('',#648,#649,#650);
#648 = CARTESIAN_POINT('',(22.,4.15,-9.585208357874));
#649 = DIRECTION('',(1.,0.,0.));
#650 = DIRECTION('',(0.,2.2E-16,1.));
#651 = ADVANCED_FACE('',(#652),#671,.T.);
#652 = FACE_BOUND('',#653,.F.);
#653 = EDGE_LOOP('',(#654,#655,#656,#665));
#654 = ORIENTED_EDGE('',*,*,#551,.T.);
#655 = ORIENTED_EDGE('',*,*,#236,.T.);
#656 = ORIENTED_EDGE('',*,*,#657,.F.);
#657 = EDGE_CURVE('',#658,#229,#660,.T.);
#658 = VERTEX_POINT('',#659);
#659 = CARTESIAN_POINT('',(20.755341953022,6.15,-9.585208357874));
#660 = ELLIPSE('',#661,2.011818717272,2.);
#661 = AXIS2_PLACEMENT_3D('',#662,#663,#664);
#662 = CARTESIAN_POINT('',(20.973090778885,6.15,-7.585208357874));
#663 = DIRECTION('',(-0.994125356738,3.E-17,0.108234814595));
#664 = DIRECTION('',(-0.108234814595,-2.2E-16,-0.994125356738));
#665 = ORIENTED_EDGE('',*,*,#666,.F.);
#666 = EDGE_CURVE('',#509,#658,#667,.T.);
#667 = LINE('',#668,#669);
#668 = CARTESIAN_POINT('',(19.974085593166,6.15,-9.41305));
#669 = VECTOR('',#670,1.);
#670 = DIRECTION('',(0.976570449819,-5.E-17,-0.215197947342));
#671 = CYLINDRICAL_SURFACE('',#672,2.);
#672 = AXIS2_PLACEMENT_3D('',#673,#674,#675);
#673 = CARTESIAN_POINT('',(20.404481487851,6.15,-7.459909100362));
#674 = DIRECTION('',(0.976570449819,-5.E-17,-0.215197947342));
#675 = DIRECTION('',(-0.215197947342,-2.1E-16,-0.976570449819));
#676 = ADVANCED_FACE('',(#677),#688,.T.);
#677 = FACE_BOUND('',#678,.F.);
#678 = EDGE_LOOP('',(#679,#680,#681,#682));
#679 = ORIENTED_EDGE('',*,*,#657,.T.);
#680 = ORIENTED_EDGE('',*,*,#228,.T.);
#681 = ORIENTED_EDGE('',*,*,#604,.F.);
#682 = ORIENTED_EDGE('',*,*,#683,.F.);
#683 = EDGE_CURVE('',#658,#583,#684,.T.);
#684 = LINE('',#685,#686);
#685 = CARTESIAN_POINT('',(20.755341953022,6.15,-9.585208357874));
#686 = VECTOR('',#687,1.);
#687 = DIRECTION('',(1.,0.,0.));
#688 = CYLINDRICAL_SURFACE('',#689,2.);
#689 = AXIS2_PLACEMENT_3D('',#690,#691,#692);
#690 = CARTESIAN_POINT('',(20.755341953022,6.15,-7.585208357874));
#691 = DIRECTION('',(1.,0.,0.));
#692 = DIRECTION('',(0.,-2.2E-16,-1.));
#693 = ADVANCED_FACE('',(#694),#713,.T.);
#694 = FACE_BOUND('',#695,.T.);
#695 = EDGE_LOOP('',(#696,#697,#698,#707));
#696 = ORIENTED_EDGE('',*,*,#518,.T.);
#697 = ORIENTED_EDGE('',*,*,#293,.T.);
#698 = ORIENTED_EDGE('',*,*,#699,.F.);
#699 = EDGE_CURVE('',#700,#286,#702,.T.);
#700 = VERTEX_POINT('',#701);
#701 = CARTESIAN_POINT('',(20.755341953022,28.85,-9.585208357874));
#702 = ELLIPSE('',#703,2.011818717272,2.);
#703 = AXIS2_PLACEMENT_3D('',#704,#705,#706);
#704 = CARTESIAN_POINT('',(20.973090778885,28.85,-7.585208357874));
#705 = DIRECTION('',(0.994125356738,-3.E-17,-0.108234814595));
#706 = DIRECTION('',(-0.108234814595,-2.2E-16,-0.994125356738));
#707 = ORIENTED_EDGE('',*,*,#708,.F.);
#708 = EDGE_CURVE('',#511,#700,#709,.T.);
#709 = LINE('',#710,#711);
#710 = CARTESIAN_POINT('',(19.974085593166,28.85,-9.41305));
#711 = VECTOR('',#712,1.);
#712 = DIRECTION('',(0.976570449819,-5.E-17,-0.215197947342));
#713 = CYLINDRICAL_SURFACE('',#714,2.);
#714 = AXIS2_PLACEMENT_3D('',#715,#716,#717);
#715 = CARTESIAN_POINT('',(20.404481487851,28.85,-7.459909100362));
#716 = DIRECTION('',(0.976570449819,-5.E-17,-0.215197947342));
#717 = DIRECTION('',(-0.215197947342,-2.1E-16,-0.976570449819));
#718 = ADVANCED_FACE('',(#719),#730,.T.);
#719 = FACE_BOUND('',#720,.T.);
#720 = EDGE_LOOP('',(#721,#722,#723,#724));
#721 = ORIENTED_EDGE('',*,*,#699,.T.);
#722 = ORIENTED_EDGE('',*,*,#285,.T.);
#723 = ORIENTED_EDGE('',*,*,#592,.F.);
#724 = ORIENTED_EDGE('',*,*,#725,.F.);
#725 = EDGE_CURVE('',#700,#585,#726,.T.);
#726 = LINE('',#727,#728);
#727 = CARTESIAN_POINT('',(20.755341953022,28.85,-9.585208357874));
#728 = VECTOR('',#729,1.);
#729 = DIRECTION('',(1.,0.,0.));
#730 = CYLINDRICAL_SURFACE('',#731,2.);
#731 = AXIS2_PLACEMENT_3D('',#732,#733,#734);
#732 = CARTESIAN_POINT('',(20.755341953022,28.85,-7.585208357874));
#733 = DIRECTION('',(1.,0.,0.));
#734 = DIRECTION('',(0.,-2.2E-16,-1.));
#735 = ADVANCED_FACE('',(#736),#763,.F.);
#736 = FACE_BOUND('',#737,.T.);
#737 = EDGE_LOOP('',(#738,#746,#755,#761,#762));
#738 = ORIENTED_EDGE('',*,*,#739,.T.);
#739 = EDGE_CURVE('',#377,#740,#742,.T.);
#740 = VERTEX_POINT('',#741);
#741 = CARTESIAN_POINT('',(21.2,7.,2.721527630163));
#742 = LINE('',#743,#744);
#743 = CARTESIAN_POINT('',(20.2,7.,2.721527630163));
#744 = VECTOR('',#745,1.);
#745 = DIRECTION('',(1.,0.,0.));
#746 = ORIENTED_EDGE('',*,*,#747,.T.);
#747 = EDGE_CURVE('',#740,#748,#750,.T.);
#748 = VERTEX_POINT('',#749);
#749 = CARTESIAN_POINT('',(21.2,5.440422369837,1.16195));
#750 = CIRCLE('',#751,1.559577630163);
#751 = AXIS2_PLACEMENT_3D('',#752,#753,#754);
#752 = CARTESIAN_POINT('',(21.2,7.,1.16195));
#753 = DIRECTION('',(1.,0.,-0.));
#754 = DIRECTION('',(0.,1.,2.2E-16));
#755 = ORIENTED_EDGE('',*,*,#756,.F.);
#756 = EDGE_CURVE('',#343,#748,#757,.T.);
#757 = LINE('',#758,#759);
#758 = CARTESIAN_POINT('',(20.2,5.440422369837,1.16195));
#759 = VECTOR('',#760,1.);
#760 = DIRECTION('',(1.,0.,0.));
#761 = ORIENTED_EDGE('',*,*,#350,.F.);
#762 = ORIENTED_EDGE('',*,*,#384,.F.);
#763 = CYLINDRICAL_SURFACE('',#764,1.559577630163);
#764 = AXIS2_PLACEMENT_3D('',#765,#766,#767);
#765 = CARTESIAN_POINT('',(20.2,7.,1.16195));
#766 = DIRECTION('',(-1.,0.,0.));
#767 = DIRECTION('',(0.,1.,0.));
#768 = ADVANCED_FACE('',(#769),#787,.F.);
#769 = FACE_BOUND('',#770,.F.);
#770 = EDGE_LOOP('',(#771,#779,#785,#786));
#771 = ORIENTED_EDGE('',*,*,#772,.T.);
#772 = EDGE_CURVE('',#334,#773,#775,.T.);
#773 = VERTEX_POINT('',#774);
#774 = CARTESIAN_POINT('',(21.2,5.440422369837,-5.83805));
#775 = LINE('',#776,#777);
#776 = CARTESIAN_POINT('',(20.2,5.440422369837,-5.83805));
#777 = VECTOR('',#778,1.);
#778 = DIRECTION('',(1.,0.,0.));
#779 = ORIENTED_EDGE('',*,*,#780,.T.);
#780 = EDGE_CURVE('',#773,#748,#781,.T.);
#781 = LINE('',#782,#783);
#782 = CARTESIAN_POINT('',(21.2,5.440422369837,-5.83805));
#783 = VECTOR('',#784,1.);
#784 = DIRECTION('',(0.,-1.49E-15,1.));
#785 = ORIENTED_EDGE('',*,*,#756,.F.);
#786 = ORIENTED_EDGE('',*,*,#342,.F.);
#787 = PLANE('',#788);
#788 = AXIS2_PLACEMENT_3D('',#789,#790,#791);
#789 = CARTESIAN_POINT('',(20.2,5.440422369837,-5.83805));
#790 = DIRECTION('',(0.,-1.,-1.27E-15));
#791 = DIRECTION('',(0.,-1.27E-15,1.));
#792 = ADVANCED_FACE('',(#793),#821,.F.);
#793 = FACE_BOUND('',#794,.T.);
#794 = EDGE_LOOP('',(#795,#796,#805,#813,#820));
#795 = ORIENTED_EDGE('',*,*,#772,.T.);
#796 = ORIENTED_EDGE('',*,*,#797,.T.);
#797 = EDGE_CURVE('',#773,#798,#800,.T.);
#798 = VERTEX_POINT('',#799);
#799 = CARTESIAN_POINT('',(21.2,7.,-7.397627630163));
#800 = CIRCLE('',#801,1.559577630163);
#801 = AXIS2_PLACEMENT_3D('',#802,#803,#804);
#802 = CARTESIAN_POINT('',(21.2,7.,-5.83805));
#803 = DIRECTION('',(1.,0.,-0.));
#804 = DIRECTION('',(0.,1.,2.2E-16));
#805 = ORIENTED_EDGE('',*,*,#806,.F.);
#806 = EDGE_CURVE('',#807,#798,#809,.T.);
#807 = VERTEX_POINT('',#808);
#808 = CARTESIAN_POINT('',(20.2,7.,-7.397627630163));
#809 = LINE('',#810,#811);
#810 = CARTESIAN_POINT('',(20.2,7.,-7.397627630163));
#811 = VECTOR('',#812,1.);
#812 = DIRECTION('',(1.,0.,0.));
#813 = ORIENTED_EDGE('',*,*,#814,.F.);
#814 = EDGE_CURVE('',#326,#807,#815,.T.);
#815 = CIRCLE('',#816,1.559577630163);
#816 = AXIS2_PLACEMENT_3D('',#817,#818,#819);
#817 = CARTESIAN_POINT('',(20.2,7.,-5.83805));
#818 = DIRECTION('',(1.,0.,-0.));
#819 = DIRECTION('',(0.,1.,2.2E-16));
#820 = ORIENTED_EDGE('',*,*,#333,.F.);
#821 = CYLINDRICAL_SURFACE('',#822,1.559577630163);
#822 = AXIS2_PLACEMENT_3D('',#823,#824,#825);
#823 = CARTESIAN_POINT('',(20.2,7.,-5.83805));
#824 = DIRECTION('',(-1.,0.,0.));
#825 = DIRECTION('',(0.,1.,0.));
#826 = ADVANCED_FACE('',(#827),#845,.F.);
#827 = FACE_BOUND('',#828,.F.);
#828 = EDGE_LOOP('',(#829,#830,#838,#844));
#829 = ORIENTED_EDGE('',*,*,#739,.T.);
#830 = ORIENTED_EDGE('',*,*,#831,.T.);
#831 = EDGE_CURVE('',#740,#832,#834,.T.);
#832 = VERTEX_POINT('',#833);
#833 = CARTESIAN_POINT('',(21.2,28.,2.721527630163));
#834 = LINE('',#835,#836);
#835 = CARTESIAN_POINT('',(21.2,7.,2.721527630163));
#836 = VECTOR('',#837,1.);
#837 = DIRECTION('',(0.,1.,2.2E-16));
#838 = ORIENTED_EDGE('',*,*,#839,.F.);
#839 = EDGE_CURVE('',#368,#832,#840,.T.);
#840 = LINE('',#841,#842);
#841 = CARTESIAN_POINT('',(20.2,28.,2.721527630163));
#842 = VECTOR('',#843,1.);
#843 = DIRECTION('',(1.,0.,0.));
#844 = ORIENTED_EDGE('',*,*,#376,.F.);
#845 = PLANE('',#846);
#846 = AXIS2_PLACEMENT_3D('',#847,#848,#849);
#847 = CARTESIAN_POINT('',(20.2,7.,2.721527630163));
#848 = DIRECTION('',(0.,0.,1.));
#849 = DIRECTION('',(0.,1.,0.));
#850 = ADVANCED_FACE('',(#851),#871,.F.);
#851 = FACE_BOUND('',#852,.T.);
#852 = EDGE_LOOP('',(#853,#861,#868,#869,#870));
#853 = ORIENTED_EDGE('',*,*,#854,.T.);
#854 = EDGE_CURVE('',#419,#855,#857,.T.);
#855 = VERTEX_POINT('',#856);
#856 = CARTESIAN_POINT('',(21.2,29.559577630163,1.16195));
#857 = LINE('',#858,#859);
#858 = CARTESIAN_POINT('',(20.2,29.559577630163,1.16195));
#859 = VECTOR('',#860,1.);
#860 = DIRECTION('',(1.,0.,0.));
#861 = ORIENTED_EDGE('',*,*,#862,.T.);
#862 = EDGE_CURVE('',#855,#832,#863,.T.);
#863 = CIRCLE('',#864,1.559577630163);
#864 = AXIS2_PLACEMENT_3D('',#865,#866,#867);
#865 = CARTESIAN_POINT('',(21.2,28.,1.16195));
#866 = DIRECTION('',(1.,0.,-0.));
#867 = DIRECTION('',(0.,1.,2.2E-16));
#868 = ORIENTED_EDGE('',*,*,#839,.F.);
#869 = ORIENTED_EDGE('',*,*,#367,.F.);
#870 = ORIENTED_EDGE('',*,*,#418,.F.);
#871 = CYLINDRICAL_SURFACE('',#872,1.559577630163);
#872 = AXIS2_PLACEMENT_3D('',#873,#874,#875);
#873 = CARTESIAN_POINT('',(20.2,28.,1.16195));
#874 = DIRECTION('',(-1.,0.,0.));
#875 = DIRECTION('',(0.,1.,0.));
#876 = ADVANCED_FACE('',(#877),#912,.F.);
#877 = FACE_BOUND('',#878,.T.);
#878 = EDGE_LOOP('',(#879,#889,#898,#904,#905));
#879 = ORIENTED_EDGE('',*,*,#880,.T.);
#880 = EDGE_CURVE('',#881,#883,#885,.T.);
#881 = VERTEX_POINT('',#882);
#882 = CARTESIAN_POINT('',(20.2,28.,-7.397627630163));
#883 = VERTEX_POINT('',#884);
#884 = CARTESIAN_POINT('',(21.2,28.,-7.397627630163));
#885 = LINE('',#886,#887);
#886 = CARTESIAN_POINT('',(20.2,28.,-7.397627630163));
#887 = VECTOR('',#888,1.);
#888 = DIRECTION('',(1.,0.,0.));
#889 = ORIENTED_EDGE('',*,*,#890,.T.);
#890 = EDGE_CURVE('',#883,#891,#893,.T.);
#891 = VERTEX_POINT('',#892);
#892 = CARTESIAN_POINT('',(21.2,29.559577630163,-5.83805));
#893 = CIRCLE('',#894,1.559577630163);
#894 = AXIS2_PLACEMENT_3D('',#895,#896,#897);
#895 = CARTESIAN_POINT('',(21.2,28.,-5.83805));
#896 = DIRECTION('',(1.,0.,-0.));
#897 = DIRECTION('',(0.,1.,2.2E-16));
#898 = ORIENTED_EDGE('',*,*,#899,.F.);
#899 = EDGE_CURVE('',#402,#891,#900,.T.);
#900 = LINE('',#901,#902);
#901 = CARTESIAN_POINT('',(20.2,29.559577630163,-5.83805));
#902 = VECTOR('',#903,1.);
#903 = DIRECTION('',(1.,0.,0.));
#904 = ORIENTED_EDGE('',*,*,#399,.F.);
#905 = ORIENTED_EDGE('',*,*,#906,.F.);
#906 = EDGE_CURVE('',#881,#400,#907,.T.);
#907 = CIRCLE('',#908,1.559577630163);
#908 = AXIS2_PLACEMENT_3D('',#909,#910,#911);
#909 = CARTESIAN_POINT('',(20.2,28.,-5.83805));
#910 = DIRECTION('',(1.,0.,-0.));
#911 = DIRECTION('',(0.,1.,2.2E-16));
#912 = CYLINDRICAL_SURFACE('',#913,1.559577630163);
#913 = AXIS2_PLACEMENT_3D('',#914,#915,#916);
#914 = CARTESIAN_POINT('',(20.2,28.,-5.83805));
#915 = DIRECTION('',(-1.,0.,0.));
#916 = DIRECTION('',(0.,1.,0.));
#917 = ADVANCED_FACE('',(#918),#929,.T.);
#918 = FACE_BOUND('',#919,.T.);
#919 = EDGE_LOOP('',(#920,#921,#927,#928));
#920 = ORIENTED_EDGE('',*,*,#899,.T.);
#921 = ORIENTED_EDGE('',*,*,#922,.T.);
#922 = EDGE_CURVE('',#891,#855,#923,.T.);
#923 = LINE('',#924,#925);
#924 = CARTESIAN_POINT('',(21.2,29.559577630163,-5.83805));
#925 = VECTOR('',#926,1.);
#926 = DIRECTION('',(0.,7.9E-16,1.));
#927 = ORIENTED_EDGE('',*,*,#854,.F.);
#928 = ORIENTED_EDGE('',*,*,#427,.F.);
#929 = PLANE('',#930);
#930 = AXIS2_PLACEMENT_3D('',#931,#932,#933);
#931 = CARTESIAN_POINT('',(20.2,29.559577630163,-5.83805));
#932 = DIRECTION('',(0.,-1.,1.02E-15));
#933 = DIRECTION('',(0.,1.02E-15,1.));
#934 = ADVANCED_FACE('',(#935),#946,.T.);
#935 = FACE_BOUND('',#936,.T.);
#936 = EDGE_LOOP('',(#937,#938,#939,#945));
#937 = ORIENTED_EDGE('',*,*,#508,.T.);
#938 = ORIENTED_EDGE('',*,*,#708,.T.);
#939 = ORIENTED_EDGE('',*,*,#940,.F.);
#940 = EDGE_CURVE('',#658,#700,#941,.T.);
#941 = LINE('',#942,#943);
#942 = CARTESIAN_POINT('',(20.755341953022,4.15,-9.585208357874));
#943 = VECTOR('',#944,1.);
#944 = DIRECTION('',(0.,1.,-2.2E-16));
#945 = ORIENTED_EDGE('',*,*,#666,.F.);
#946 = PLANE('',#947);
#947 = AXIS2_PLACEMENT_3D('',#948,#949,#950);
#948 = CARTESIAN_POINT('',(19.974085593166,4.15,-9.41305));
#949 = DIRECTION('',(-0.215197947342,-2.1E-16,-0.976570449819));
#950 = DIRECTION('',(0.976570449819,-5.E-17,-0.215197947342));
#951 = ADVANCED_FACE('',(#952),#963,.T.);
#952 = FACE_BOUND('',#953,.T.);
#953 = EDGE_LOOP('',(#954,#955,#956,#957));
#954 = ORIENTED_EDGE('',*,*,#906,.T.);
#955 = ORIENTED_EDGE('',*,*,#543,.F.);
#956 = ORIENTED_EDGE('',*,*,#814,.T.);
#957 = ORIENTED_EDGE('',*,*,#958,.F.);
#958 = EDGE_CURVE('',#881,#807,#959,.T.);
#959 = LINE('',#960,#961);
#960 = CARTESIAN_POINT('',(20.2,28.,-7.397627630163));
#961 = VECTOR('',#962,1.);
#962 = DIRECTION('',(0.,-1.,1.6E-16));
#963 = PLANE('',#964);
#964 = AXIS2_PLACEMENT_3D('',#965,#966,#967);
#965 = CARTESIAN_POINT('',(20.2,17.5,-2.33805));
#966 = DIRECTION('',(1.,0.,0.));
#967 = DIRECTION('',(0.,-2.2E-16,1.));
#968 = ADVANCED_FACE('',(#969),#975,.T.);
#969 = FACE_BOUND('',#970,.T.);
#970 = EDGE_LOOP('',(#971,#972,#973,#974));
#971 = ORIENTED_EDGE('',*,*,#940,.T.);
#972 = ORIENTED_EDGE('',*,*,#725,.T.);
#973 = ORIENTED_EDGE('',*,*,#582,.F.);
#974 = ORIENTED_EDGE('',*,*,#683,.F.);
#975 = PLANE('',#976);
#976 = AXIS2_PLACEMENT_3D('',#977,#978,#979);
#977 = CARTESIAN_POINT('',(20.755341953022,4.15,-9.585208357874));
#978 = DIRECTION('',(0.,-2.2E-16,-1.));
#979 = DIRECTION('',(1.,0.,0.));
#980 = ADVANCED_FACE('',(#981),#1007,.F.);
#981 = FACE_BOUND('',#982,.F.);
#982 = EDGE_LOOP('',(#983,#984,#992,#1001));
#983 = ORIENTED_EDGE('',*,*,#613,.F.);
#984 = ORIENTED_EDGE('',*,*,#985,.T.);
#985 = EDGE_CURVE('',#614,#986,#988,.T.);
#986 = VERTEX_POINT('',#987);
#987 = CARTESIAN_POINT('',(21.2,10.4913,2.3));
#988 = LINE('',#989,#990);
#989 = CARTESIAN_POINT('',(22.,10.4913,2.3));
#990 = VECTOR('',#991,1.);
#991 = DIRECTION('',(-1.,0.,0.));
#992 = ORIENTED_EDGE('',*,*,#993,.T.);
#993 = EDGE_CURVE('',#986,#994,#996,.T.);
#994 = VERTEX_POINT('',#995);
#995 = CARTESIAN_POINT('',(21.2,10.4913,-6.1));
#996 = CIRCLE('',#997,4.2);
#997 = AXIS2_PLACEMENT_3D('',#998,#999,#1000);
#998 = CARTESIAN_POINT('',(21.2,10.4913,-1.9));
#999 = DIRECTION('',(1.,0.,0.));
#1000 = DIRECTION('',(-0.,1.,0.));
#1001 = ORIENTED_EDGE('',*,*,#1002,.F.);
#1002 = EDGE_CURVE('',#616,#994,#1003,.T.);
#1003 = LINE('',#1004,#1005);
#1004 = CARTESIAN_POINT('',(22.,10.4913,-6.1));
#1005 = VECTOR('',#1006,1.);
#1006 = DIRECTION('',(-1.,0.,0.));
#1007 = CYLINDRICAL_SURFACE('',#1008,4.2);
#1008 = AXIS2_PLACEMENT_3D('',#1009,#1010,#1011);
#1009 = CARTESIAN_POINT('',(22.,10.4913,-1.9));
#1010 = DIRECTION('',(1.,0.,0.));
#1011 = DIRECTION('',(0.,1.,0.));
#1012 = ADVANCED_FACE('',(#1013),#1031,.F.);
#1013 = FACE_BOUND('',#1014,.F.);
#1014 = EDGE_LOOP('',(#1015,#1016,#1017,#1025));
#1015 = ORIENTED_EDGE('',*,*,#641,.F.);
#1016 = ORIENTED_EDGE('',*,*,#1002,.T.);
#1017 = ORIENTED_EDGE('',*,*,#1018,.F.);
#1018 = EDGE_CURVE('',#1019,#994,#1021,.T.);
#1019 = VERTEX_POINT('',#1020);
#1020 = CARTESIAN_POINT('',(21.2,24.4913,-6.1));
#1021 = LINE('',#1022,#1023);
#1022 = CARTESIAN_POINT('',(21.2,13.99565,-6.1));
#1023 = VECTOR('',#1024,1.);
#1024 = DIRECTION('',(0.,-1.,0.));
#1025 = ORIENTED_EDGE('',*,*,#1026,.F.);
#1026 = EDGE_CURVE('',#633,#1019,#1027,.T.);
#1027 = LINE('',#1028,#1029);
#1028 = CARTESIAN_POINT('',(22.,24.4913,-6.1));
#1029 = VECTOR('',#1030,1.);
#1030 = DIRECTION('',(-1.,0.,0.));
#1031 = PLANE('',#1032);
#1032 = AXIS2_PLACEMENT_3D('',#1033,#1034,#1035);
#1033 = CARTESIAN_POINT('',(22.,10.4913,-6.1));
#1034 = DIRECTION('',(0.,0.,-1.));
#1035 = DIRECTION('',(0.,1.,0.));
#1036 = ADVANCED_FACE('',(#1037),#1056,.F.);
#1037 = FACE_BOUND('',#1038,.F.);
#1038 = EDGE_LOOP('',(#1039,#1040,#1041,#1050));
#1039 = ORIENTED_EDGE('',*,*,#632,.F.);
#1040 = ORIENTED_EDGE('',*,*,#1026,.T.);
#1041 = ORIENTED_EDGE('',*,*,#1042,.T.);
#1042 = EDGE_CURVE('',#1019,#1043,#1045,.T.);
#1043 = VERTEX_POINT('',#1044);
#1044 = CARTESIAN_POINT('',(21.2,24.4913,2.3));
#1045 = CIRCLE('',#1046,4.2);
#1046 = AXIS2_PLACEMENT_3D('',#1047,#1048,#1049);
#1047 = CARTESIAN_POINT('',(21.2,24.4913,-1.9));
#1048 = DIRECTION('',(1.,0.,0.));
#1049 = DIRECTION('',(-0.,1.,0.));
#1050 = ORIENTED_EDGE('',*,*,#1051,.F.);
#1051 = EDGE_CURVE('',#625,#1043,#1052,.T.);
#1052 = LINE('',#1053,#1054);
#1053 = CARTESIAN_POINT('',(22.,24.4913,2.3));
#1054 = VECTOR('',#1055,1.);
#1055 = DIRECTION('',(-1.,0.,0.));
#1056 = CYLINDRICAL_SURFACE('',#1057,4.2);
#1057 = AXIS2_PLACEMENT_3D('',#1058,#1059,#1060);
#1058 = CARTESIAN_POINT('',(22.,24.4913,-1.9));
#1059 = DIRECTION('',(1.,0.,0.));
#1060 = DIRECTION('',(0.,1.,0.));
#1061 = ADVANCED_FACE('',(#1062),#1073,.T.);
#1062 = FACE_BOUND('',#1063,.T.);
#1063 = EDGE_LOOP('',(#1064,#1065,#1066,#1072));
#1064 = ORIENTED_EDGE('',*,*,#624,.F.);
#1065 = ORIENTED_EDGE('',*,*,#985,.T.);
#1066 = ORIENTED_EDGE('',*,*,#1067,.F.);
#1067 = EDGE_CURVE('',#1043,#986,#1068,.T.);
#1068 = LINE('',#1069,#1070);
#1069 = CARTESIAN_POINT('',(21.2,13.99565,2.3));
#1070 = VECTOR('',#1071,1.);
#1071 = DIRECTION('',(0.,-1.,0.));
#1072 = ORIENTED_EDGE('',*,*,#1051,.F.);
#1073 = PLANE('',#1074);
#1074 = AXIS2_PLACEMENT_3D('',#1075,#1076,#1077);
#1075 = CARTESIAN_POINT('',(22.,10.4913,2.3));
#1076 = DIRECTION('',(0.,0.,-1.));
#1077 = DIRECTION('',(0.,1.,0.));
#1078 = ADVANCED_FACE('',(#1079,#1094),#1100,.F.);
#1079 = FACE_BOUND('',#1080,.F.);
#1080 = EDGE_LOOP('',(#1081,#1082,#1083,#1084,#1085,#1086,#1087,#1093));
#1081 = ORIENTED_EDGE('',*,*,#922,.T.);
#1082 = ORIENTED_EDGE('',*,*,#862,.T.);
#1083 = ORIENTED_EDGE('',*,*,#831,.F.);
#1084 = ORIENTED_EDGE('',*,*,#747,.T.);
#1085 = ORIENTED_EDGE('',*,*,#780,.F.);
#1086 = ORIENTED_EDGE('',*,*,#797,.T.);
#1087 = ORIENTED_EDGE('',*,*,#1088,.F.);
#1088 = EDGE_CURVE('',#883,#798,#1089,.T.);
#1089 = LINE('',#1090,#1091);
#1090 = CARTESIAN_POINT('',(21.2,28.,-7.397627630163));
#1091 = VECTOR('',#1092,1.);
#1092 = DIRECTION('',(0.,-1.,1.6E-16));
#1093 = ORIENTED_EDGE('',*,*,#890,.T.);
#1094 = FACE_BOUND('',#1095,.F.);
#1095 = EDGE_LOOP('',(#1096,#1097,#1098,#1099));
#1096 = ORIENTED_EDGE('',*,*,#993,.F.);
#1097 = ORIENTED_EDGE('',*,*,#1067,.F.);
#1098 = ORIENTED_EDGE('',*,*,#1042,.F.);
#1099 = ORIENTED_EDGE('',*,*,#1018,.T.);
#1100 = PLANE('',#1101);
#1101 = AXIS2_PLACEMENT_3D('',#1102,#1103,#1104);
#1102 = CARTESIAN_POINT('',(21.2,17.5,-2.33805));
#1103 = DIRECTION('',(1.,0.,0.));
#1104 = DIRECTION('',(0.,-2.2E-16,1.));
#1105 = ADVANCED_FACE('',(#1106),#1112,.F.);
#1106 = FACE_BOUND('',#1107,.F.);
#1107 = EDGE_LOOP('',(#1108,#1109,#1110,#1111));
#1108 = ORIENTED_EDGE('',*,*,#880,.T.);
#1109 = ORIENTED_EDGE('',*,*,#1088,.T.);
#1110 = ORIENTED_EDGE('',*,*,#806,.F.);
#1111 = ORIENTED_EDGE('',*,*,#958,.F.);
#1112 = PLANE('',#1113);
#1113 = AXIS2_PLACEMENT_3D('',#1114,#1115,#1116);
#1114 = CARTESIAN_POINT('',(20.2,28.,-7.397627630163));
#1115 = DIRECTION('',(0.,-3.8E-16,-1.));
#1116 = DIRECTION('',(0.,-1.,3.8E-16));
#1117 = ( GEOMETRIC_REPRESENTATION_CONTEXT(3) 
GLOBAL_UNCERTAINTY_ASSIGNED_CONTEXT((#1121)) 
GLOBAL_UNIT_ASSIGNED_CONTEXT((#1118,#1119,#1120)) REPRESENTATION_CONTEXT
('Context #1','3D Context with UNIT and UNCERTAINTY') );
#1118 = ( LENGTH_UNIT() NAMED_UNIT(*) SI_UNIT(.MILLI.,.METRE.) );
#1119 = ( NAMED_UNIT(*) PLANE_ANGLE_UNIT() SI_UNIT($,.RADIAN.) );
#1120 = ( NAMED_UNIT(*) SI_UNIT($,.STERADIAN.) SOLID_ANGLE_UNIT() );
#1121 = UNCERTAINTY_MEASURE_WITH_UNIT(LENGTH_MEASURE(1.E-06),#1118,
  'distance_accuracy_value','confusion accuracy');
#1122 = PRODUCT_RELATED_PRODUCT_CATEGORY('part',$,(#7));
#1123 = MECHANICAL_DESIGN_GEOMETRIC_PRESENTATION_REPRESENTATION('',(
    #1124),#1117);
#1124 = STYLED_ITEM('color',(#1125),#15);
#1125 = PRESENTATION_STYLE_ASSIGNMENT((#1126,#1132));
#1126 = SURFACE_STYLE_USAGE(.BOTH.,#1127);
#1127 = SURFACE_SIDE_STYLE('',(#1128));
#1128 = SURFACE_STYLE_FILL_AREA(#1129);
#1129 = FILL_AREA_STYLE('',(#1130));
#1130 = FILL_AREA_STYLE_COLOUR('',#1131);
#1131 = COLOUR_RGB('',0.447058818107,0.474509808674,0.501960817233);
#1132 = CURVE_STYLE('',#1133,POSITIVE_LENGTH_MEASURE(0.1),#1134);
#1133 = DRAUGHTING_PRE_DEFINED_CURVE_FONT('continuous');
#1134 = COLOUR_RGB('',9.803921802644E-02,9.803921802644E-02,
  9.803921802644E-02);
ENDSEC;
END-ISO-10303-21;
