ISO-10303-21;
HEADER;
FILE_DESCRIPTION(('FreeCAD Model'),'2;1');
FILE_NAME('Open CASCADE Shape Model','2025-11-02T18:43:26',(''),(''),
  'Open CASCADE STEP processor 7.8','FreeCAD','Unknown');
FILE_SCHEMA(('AUTOMOTIVE_DESIGN { 1 0 10303 214 1 1 1 1 }'));
ENDSEC;
DATA;
#1 = APPLICATION_PROTOCOL_DEFINITION('international standard',
  'automotive_design',2000,#2);
#2 = APPLICATION_CONTEXT(
  'core data for automotive mechanical design processes');
#3 = SHAPE_DEFINITION_REPRESENTATION(#4,#10);
#4 = PRODUCT_DEFINITION_SHAPE('','',#5);
#5 = PRODUCT_DEFINITION('design','',#6,#9);
#6 = PRODUCT_DEFINITION_FORMATION('','',#7);
#7 = PRODUCT('TPU_Gasket','TPU_Gasket','',(#8));
#8 = PRODUCT_CONTEXT('',#2,'mechanical');
#9 = PRODUCT_DEFINITION_CONTEXT('part definition',#2,'design');
#10 = ADVANCED_BREP_SHAPE_REPRESENTATION('',(#11,#15),#1133);
#11 = AXIS2_PLACEMENT_3D('',#12,#13,#14);
#12 = CARTESIAN_POINT('',(0.,0.,0.));
#13 = DIRECTION('',(0.,0.,1.));
#14 = DIRECTION('',(1.,0.,-0.));
#15 = MANIFOLD_SOLID_BREP('',#16);
#16 = CLOSED_SHELL('',(#17,#57,#90,#123,#154,#185,#216,#247,#280,#313,
    #344,#375,#408,#441,#472,#503,#534,#565,#598,#631,#774,#799,#824,
    #855,#879,#903,#927,#951,#975,#999,#1016,#1041,#1066,#1121));
#17 = ADVANCED_FACE('',(#18),#52,.F.);
#18 = FACE_BOUND('',#19,.F.);
#19 = EDGE_LOOP('',(#20,#30,#38,#46));
#20 = ORIENTED_EDGE('',*,*,#21,.T.);
#21 = EDGE_CURVE('',#22,#24,#26,.T.);
#22 = VERTEX_POINT('',#23);
#23 = CARTESIAN_POINT('',(-16.,0.,-16.25));
#24 = VERTEX_POINT('',#25);
#25 = CARTESIAN_POINT('',(-16.,-0.44,-16.25));
#26 = LINE('',#27,#28);
#27 = CARTESIAN_POINT('',(-16.,0.,-16.25));
#28 = VECTOR('',#29,1.);
#29 = DIRECTION('',(0.,-1.,4.4E-16));
#30 = ORIENTED_EDGE('',*,*,#31,.T.);
#31 = EDGE_CURVE('',#24,#32,#34,.T.);
#32 = VERTEX_POINT('',#33);
#33 = CARTESIAN_POINT('',(16.,-0.44,-16.25));
#34 = LINE('',#35,#36);
#35 = CARTESIAN_POINT('',(-16.,-0.44,-16.25));
#36 = VECTOR('',#37,1.);
#37 = DIRECTION('',(1.,0.,0.));
#38 = ORIENTED_EDGE('',*,*,#39,.F.);
#39 = EDGE_CURVE('',#40,#32,#42,.T.);
#40 = VERTEX_POINT('',#41);
#41 = CARTESIAN_POINT('',(16.,0.,-16.25));
#42 = LINE('',#43,#44);
#43 = CARTESIAN_POINT('',(16.,0.,-16.25));
#44 = VECTOR('',#45,1.);
#45 = DIRECTION('',(0.,-1.,4.4E-16));
#46 = ORIENTED_EDGE('',*,*,#47,.F.);
#47 = EDGE_CURVE('',#22,#40,#48,.T.);
#48 = LINE('',#49,#50);
#49 = CARTESIAN_POINT('',(-16.,0.,-16.25));
#50 = VECTOR('',#51,1.);
#51 = DIRECTION('',(1.,0.,0.));
#52 = PLANE('',#53);
#53 = AXIS2_PLACEMENT_3D('',#54,#55,#56);
#54 = CARTESIAN_POINT('',(-16.,0.,-16.25));
#55 = DIRECTION('',(0.,4.4E-16,1.));
#56 = DIRECTION('',(1.,0.,-0.));
#57 = ADVANCED_FACE('',(#58),#85,.T.);
#58 = FACE_BOUND('',#59,.F.);
#59 = EDGE_LOOP('',(#60,#70,#77,#78));
#60 = ORIENTED_EDGE('',*,*,#61,.T.);
#61 = EDGE_CURVE('',#62,#64,#66,.T.);
#62 = VERTEX_POINT('',#63);
#63 = CARTESIAN_POINT('',(-16.01379379103,-7.E-15,-16.24156183758));
#64 = VERTEX_POINT('',#65);
#65 = CARTESIAN_POINT('',(-16.01379379103,-0.44,-16.24156183758));
#66 = LINE('',#67,#68);
#67 = CARTESIAN_POINT('',(-16.01379379103,-7.E-15,-16.24156183758));
#68 = VECTOR('',#69,1.);
#69 = DIRECTION('',(0.,-1.,4.4E-16));
#70 = ORIENTED_EDGE('',*,*,#71,.T.);
#71 = EDGE_CURVE('',#64,#24,#72,.T.);
#72 = CIRCLE('',#73,10.44228528025);
#73 = AXIS2_PLACEMENT_3D('',#74,#75,#76);
#74 = CARTESIAN_POINT('',(-10.55771471975,-0.44,-7.33805));
#75 = DIRECTION('',(0.,-1.,0.));
#76 = DIRECTION('',(1.,0.,0.));
#77 = ORIENTED_EDGE('',*,*,#21,.F.);
#78 = ORIENTED_EDGE('',*,*,#79,.F.);
#79 = EDGE_CURVE('',#62,#22,#80,.T.);
#80 = CIRCLE('',#81,10.44228528025);
#81 = AXIS2_PLACEMENT_3D('',#82,#83,#84);
#82 = CARTESIAN_POINT('',(-10.55771471975,0.,-7.33805));
#83 = DIRECTION('',(0.,-1.,0.));
#84 = DIRECTION('',(1.,0.,0.));
#85 = CYLINDRICAL_SURFACE('',#86,10.44228528025);
#86 = AXIS2_PLACEMENT_3D('',#87,#88,#89);
#87 = CARTESIAN_POINT('',(-10.55771471975,0.,-7.33805));
#88 = DIRECTION('',(0.,1.,0.));
#89 = DIRECTION('',(1.,0.,0.));
#90 = ADVANCED_FACE('',(#91),#118,.T.);
#91 = FACE_BOUND('',#92,.F.);
#92 = EDGE_LOOP('',(#93,#94,#103,#111));
#93 = ORIENTED_EDGE('',*,*,#39,.T.);
#94 = ORIENTED_EDGE('',*,*,#95,.T.);
#95 = EDGE_CURVE('',#32,#96,#98,.T.);
#96 = VERTEX_POINT('',#97);
#97 = CARTESIAN_POINT('',(16.013793791035,-0.44,-16.24156183758));
#98 = CIRCLE('',#99,10.44228528025);
#99 = AXIS2_PLACEMENT_3D('',#100,#101,#102);
#100 = CARTESIAN_POINT('',(10.55771471975,-0.44,-7.33805));
#101 = DIRECTION('',(0.,-1.,0.));
#102 = DIRECTION('',(1.,0.,0.));
#103 = ORIENTED_EDGE('',*,*,#104,.F.);
#104 = EDGE_CURVE('',#105,#96,#107,.T.);
#105 = VERTEX_POINT('',#106);
#106 = CARTESIAN_POINT('',(16.013793791035,-7.E-15,-16.24156183758));
#107 = LINE('',#108,#109);
#108 = CARTESIAN_POINT('',(16.013793791035,-7.E-15,-16.24156183758));
#109 = VECTOR('',#110,1.);
#110 = DIRECTION('',(0.,-1.,4.4E-16));
#111 = ORIENTED_EDGE('',*,*,#112,.F.);
#112 = EDGE_CURVE('',#40,#105,#113,.T.);
#113 = CIRCLE('',#114,10.44228528025);
#114 = AXIS2_PLACEMENT_3D('',#115,#116,#117);
#115 = CARTESIAN_POINT('',(10.55771471975,0.,-7.33805));
#116 = DIRECTION('',(0.,-1.,0.));
#117 = DIRECTION('',(1.,0.,0.));
#118 = CYLINDRICAL_SURFACE('',#119,10.44228528025);
#119 = AXIS2_PLACEMENT_3D('',#120,#121,#122);
#120 = CARTESIAN_POINT('',(10.55771471975,0.,-7.33805));
#121 = DIRECTION('',(0.,1.,0.));
#122 = DIRECTION('',(1.,0.,0.));
#123 = ADVANCED_FACE('',(#124),#149,.T.);
#124 = FACE_BOUND('',#125,.T.);
#125 = EDGE_LOOP('',(#126,#127,#135,#143));
#126 = ORIENTED_EDGE('',*,*,#61,.T.);
#127 = ORIENTED_EDGE('',*,*,#128,.T.);
#128 = EDGE_CURVE('',#64,#129,#131,.T.);
#129 = VERTEX_POINT('',#130);
#130 = CARTESIAN_POINT('',(-20.07795480324,-0.44,-14.6431871481));
#131 = LINE('',#132,#133);
#132 = CARTESIAN_POINT('',(-16.01379379103,-0.44,-16.24156183758));
#133 = VECTOR('',#134,1.);
#134 = DIRECTION('',(-0.930615831704,0.,0.365997505157));
#135 = ORIENTED_EDGE('',*,*,#136,.F.);
#136 = EDGE_CURVE('',#137,#129,#139,.T.);
#137 = VERTEX_POINT('',#138);
#138 = CARTESIAN_POINT('',(-20.07795480324,0.,-14.6431871481));
#139 = LINE('',#140,#141);
#140 = CARTESIAN_POINT('',(-20.07795480324,0.,-14.6431871481));
#141 = VECTOR('',#142,1.);
#142 = DIRECTION('',(0.,-1.,4.4E-16));
#143 = ORIENTED_EDGE('',*,*,#144,.F.);
#144 = EDGE_CURVE('',#62,#137,#145,.T.);
#145 = LINE('',#146,#147);
#146 = CARTESIAN_POINT('',(-16.01379379103,0.,-16.24156183758));
#147 = VECTOR('',#148,1.);
#148 = DIRECTION('',(-0.930615831704,0.,0.365997505157));
#149 = PLANE('',#150);
#150 = AXIS2_PLACEMENT_3D('',#151,#152,#153);
#151 = CARTESIAN_POINT('',(-16.01379379103,0.,-16.24156183758));
#152 = DIRECTION('',(-0.365997505157,-4.1E-16,-0.930615831704));
#153 = DIRECTION('',(-0.930615831704,0.,0.365997505157));
#154 = ADVANCED_FACE('',(#155),#180,.F.);
#155 = FACE_BOUND('',#156,.F.);
#156 = EDGE_LOOP('',(#157,#158,#166,#174));
#157 = ORIENTED_EDGE('',*,*,#104,.T.);
#158 = ORIENTED_EDGE('',*,*,#159,.T.);
#159 = EDGE_CURVE('',#96,#160,#162,.T.);
#160 = VERTEX_POINT('',#161);
#161 = CARTESIAN_POINT('',(20.077954803245,-0.44,-14.6431871481));
#162 = LINE('',#163,#164);
#163 = CARTESIAN_POINT('',(16.013793791035,-0.44,-16.24156183758));
#164 = VECTOR('',#165,1.);
#165 = DIRECTION('',(0.930615831704,0.,0.365997505157));
#166 = ORIENTED_EDGE('',*,*,#167,.F.);
#167 = EDGE_CURVE('',#168,#160,#170,.T.);
#168 = VERTEX_POINT('',#169);
#169 = CARTESIAN_POINT('',(20.077954803245,-7.E-15,-14.6431871481));
#170 = LINE('',#171,#172);
#171 = CARTESIAN_POINT('',(20.077954803245,-7.E-15,-14.6431871481));
#172 = VECTOR('',#173,1.);
#173 = DIRECTION('',(0.,-1.,4.4E-16));
#174 = ORIENTED_EDGE('',*,*,#175,.F.);
#175 = EDGE_CURVE('',#105,#168,#176,.T.);
#176 = LINE('',#177,#178);
#177 = CARTESIAN_POINT('',(16.013793791035,0.,-16.24156183758));
#178 = VECTOR('',#179,1.);
#179 = DIRECTION('',(0.930615831704,0.,0.365997505157));
#180 = PLANE('',#181);
#181 = AXIS2_PLACEMENT_3D('',#182,#183,#184);
#182 = CARTESIAN_POINT('',(16.013793791035,0.,-16.24156183758));
#183 = DIRECTION('',(-0.365997505157,4.1E-16,0.930615831704));
#184 = DIRECTION('',(0.930615831704,0.,0.365997505157));
#185 = ADVANCED_FACE('',(#186),#211,.T.);
#186 = FACE_BOUND('',#187,.T.);
#187 = EDGE_LOOP('',(#188,#189,#197,#205));
#188 = ORIENTED_EDGE('',*,*,#136,.T.);
#189 = ORIENTED_EDGE('',*,*,#190,.T.);
#190 = EDGE_CURVE('',#129,#191,#193,.T.);
#191 = VERTEX_POINT('',#192);
#192 = CARTESIAN_POINT('',(-20.56998392357,-0.44,-10.30381925336));
#193 = LINE('',#194,#195);
#194 = CARTESIAN_POINT('',(-20.07795480324,-0.44,-14.6431871481));
#195 = VECTOR('',#196,1.);
#196 = DIRECTION('',(-0.11266534167,0.,0.993632990991));
#197 = ORIENTED_EDGE('',*,*,#198,.F.);
#198 = EDGE_CURVE('',#199,#191,#201,.T.);
#199 = VERTEX_POINT('',#200);
#200 = CARTESIAN_POINT('',(-20.56998392357,-5.E-15,-10.30381925336));
#201 = LINE('',#202,#203);
#202 = CARTESIAN_POINT('',(-20.56998392357,-5.E-15,-10.30381925336));
#203 = VECTOR('',#204,1.);
#204 = DIRECTION('',(0.,-1.,4.4E-16));
#205 = ORIENTED_EDGE('',*,*,#206,.F.);
#206 = EDGE_CURVE('',#137,#199,#207,.T.);
#207 = LINE('',#208,#209);
#208 = CARTESIAN_POINT('',(-20.07795480324,0.,-14.6431871481));
#209 = VECTOR('',#210,1.);
#210 = DIRECTION('',(-0.11266534167,0.,0.993632990991));
#211 = PLANE('',#212);
#212 = AXIS2_PLACEMENT_3D('',#213,#214,#215);
#213 = CARTESIAN_POINT('',(-20.07795480324,0.,-14.6431871481));
#214 = DIRECTION('',(-0.993632990991,-5.E-17,-0.11266534167));
#215 = DIRECTION('',(-0.11266534167,-7.703719777549E-34,0.993632990991)
  );
#216 = ADVANCED_FACE('',(#217),#242,.F.);
#217 = FACE_BOUND('',#218,.F.);
#218 = EDGE_LOOP('',(#219,#220,#228,#236));
#219 = ORIENTED_EDGE('',*,*,#167,.T.);
#220 = ORIENTED_EDGE('',*,*,#221,.T.);
#221 = EDGE_CURVE('',#160,#222,#224,.T.);
#222 = VERTEX_POINT('',#223);
#223 = CARTESIAN_POINT('',(20.569983923577,-0.44,-10.30381925336));
#224 = LINE('',#225,#226);
#225 = CARTESIAN_POINT('',(20.077954803245,-0.44,-14.6431871481));
#226 = VECTOR('',#227,1.);
#227 = DIRECTION('',(0.11266534167,0.,0.993632990991));
#228 = ORIENTED_EDGE('',*,*,#229,.F.);
#229 = EDGE_CURVE('',#230,#222,#232,.T.);
#230 = VERTEX_POINT('',#231);
#231 = CARTESIAN_POINT('',(20.569983923577,-5.E-15,-10.30381925336));
#232 = LINE('',#233,#234);
#233 = CARTESIAN_POINT('',(20.569983923577,-5.E-15,-10.30381925336));
#234 = VECTOR('',#235,1.);
#235 = DIRECTION('',(0.,-1.,4.4E-16));
#236 = ORIENTED_EDGE('',*,*,#237,.F.);
#237 = EDGE_CURVE('',#168,#230,#238,.T.);
#238 = LINE('',#239,#240);
#239 = CARTESIAN_POINT('',(20.077954803245,0.,-14.6431871481));
#240 = VECTOR('',#241,1.);
#241 = DIRECTION('',(0.11266534167,0.,0.993632990991));
#242 = PLANE('',#243);
#243 = AXIS2_PLACEMENT_3D('',#244,#245,#246);
#244 = CARTESIAN_POINT('',(20.077954803245,0.,-14.6431871481));
#245 = DIRECTION('',(-0.993632990991,5.E-17,0.11266534167));
#246 = DIRECTION('',(0.11266534167,-7.703719777549E-34,0.993632990991));
#247 = ADVANCED_FACE('',(#248),#275,.T.);
#248 = FACE_BOUND('',#249,.F.);
#249 = EDGE_LOOP('',(#250,#260,#267,#268));
#250 = ORIENTED_EDGE('',*,*,#251,.T.);
#251 = EDGE_CURVE('',#252,#254,#256,.T.);
#252 = VERTEX_POINT('',#253);
#253 = CARTESIAN_POINT('',(-21.,0.,-7.33805));
#254 = VERTEX_POINT('',#255);
#255 = CARTESIAN_POINT('',(-21.,-0.44,-7.33805));
#256 = LINE('',#257,#258);
#257 = CARTESIAN_POINT('',(-21.,0.,-7.33805));
#258 = VECTOR('',#259,1.);
#259 = DIRECTION('',(0.,-1.,4.4E-16));
#260 = ORIENTED_EDGE('',*,*,#261,.T.);
#261 = EDGE_CURVE('',#254,#191,#262,.T.);
#262 = CIRCLE('',#263,10.44228528025);
#263 = AXIS2_PLACEMENT_3D('',#264,#265,#266);
#264 = CARTESIAN_POINT('',(-10.55771471975,-0.44,-7.33805));
#265 = DIRECTION('',(0.,-1.,0.));
#266 = DIRECTION('',(1.,0.,0.));
#267 = ORIENTED_EDGE('',*,*,#198,.F.);
#268 = ORIENTED_EDGE('',*,*,#269,.F.);
#269 = EDGE_CURVE('',#252,#199,#270,.T.);
#270 = CIRCLE('',#271,10.44228528025);
#271 = AXIS2_PLACEMENT_3D('',#272,#273,#274);
#272 = CARTESIAN_POINT('',(-10.55771471975,0.,-7.33805));
#273 = DIRECTION('',(0.,-1.,0.));
#274 = DIRECTION('',(1.,0.,0.));
#275 = CYLINDRICAL_SURFACE('',#276,10.44228528025);
#276 = AXIS2_PLACEMENT_3D('',#277,#278,#279);
#277 = CARTESIAN_POINT('',(-10.55771471975,0.,-7.33805));
#278 = DIRECTION('',(0.,1.,0.));
#279 = DIRECTION('',(1.,0.,0.));
#280 = ADVANCED_FACE('',(#281),#308,.T.);
#281 = FACE_BOUND('',#282,.F.);
#282 = EDGE_LOOP('',(#283,#284,#293,#301));
#283 = ORIENTED_EDGE('',*,*,#229,.T.);
#284 = ORIENTED_EDGE('',*,*,#285,.T.);
#285 = EDGE_CURVE('',#222,#286,#288,.T.);
#286 = VERTEX_POINT('',#287);
#287 = CARTESIAN_POINT('',(21.,-0.44,-7.33805));
#288 = CIRCLE('',#289,10.44228528025);
#289 = AXIS2_PLACEMENT_3D('',#290,#291,#292);
#290 = CARTESIAN_POINT('',(10.55771471975,-0.44,-7.33805));
#291 = DIRECTION('',(0.,-1.,0.));
#292 = DIRECTION('',(1.,0.,0.));
#293 = ORIENTED_EDGE('',*,*,#294,.F.);
#294 = EDGE_CURVE('',#295,#286,#297,.T.);
#295 = VERTEX_POINT('',#296);
#296 = CARTESIAN_POINT('',(21.,0.,-7.33805));
#297 = LINE('',#298,#299);
#298 = CARTESIAN_POINT('',(21.,0.,-7.33805));
#299 = VECTOR('',#300,1.);
#300 = DIRECTION('',(0.,-1.,4.4E-16));
#301 = ORIENTED_EDGE('',*,*,#302,.F.);
#302 = EDGE_CURVE('',#230,#295,#303,.T.);
#303 = CIRCLE('',#304,10.44228528025);
#304 = AXIS2_PLACEMENT_3D('',#305,#306,#307);
#305 = CARTESIAN_POINT('',(10.55771471975,0.,-7.33805));
#306 = DIRECTION('',(0.,-1.,0.));
#307 = DIRECTION('',(1.,0.,0.));
#308 = CYLINDRICAL_SURFACE('',#309,10.44228528025);
#309 = AXIS2_PLACEMENT_3D('',#310,#311,#312);
#310 = CARTESIAN_POINT('',(10.55771471975,0.,-7.33805));
#311 = DIRECTION('',(0.,1.,0.));
#312 = DIRECTION('',(1.,0.,0.));
#313 = ADVANCED_FACE('',(#314),#339,.F.);
#314 = FACE_BOUND('',#315,.F.);
#315 = EDGE_LOOP('',(#316,#326,#332,#333));
#316 = ORIENTED_EDGE('',*,*,#317,.T.);
#317 = EDGE_CURVE('',#318,#320,#322,.T.);
#318 = VERTEX_POINT('',#319);
#319 = CARTESIAN_POINT('',(-21.,0.,2.66195));
#320 = VERTEX_POINT('',#321);
#321 = CARTESIAN_POINT('',(-21.,-0.44,2.66195));
#322 = LINE('',#323,#324);
#323 = CARTESIAN_POINT('',(-21.,0.,2.66195));
#324 = VECTOR('',#325,1.);
#325 = DIRECTION('',(0.,-1.,4.4E-16));
#326 = ORIENTED_EDGE('',*,*,#327,.T.);
#327 = EDGE_CURVE('',#320,#254,#328,.T.);
#328 = LINE('',#329,#330);
#329 = CARTESIAN_POINT('',(-21.,-0.44,2.66195));
#330 = VECTOR('',#331,1.);
#331 = DIRECTION('',(0.,0.,-1.));
#332 = ORIENTED_EDGE('',*,*,#251,.F.);
#333 = ORIENTED_EDGE('',*,*,#334,.F.);
#334 = EDGE_CURVE('',#318,#252,#335,.T.);
#335 = LINE('',#336,#337);
#336 = CARTESIAN_POINT('',(-21.,0.,2.66195));
#337 = VECTOR('',#338,1.);
#338 = DIRECTION('',(0.,0.,-1.));
#339 = PLANE('',#340);
#340 = AXIS2_PLACEMENT_3D('',#341,#342,#343);
#341 = CARTESIAN_POINT('',(-21.,0.,2.66195));
#342 = DIRECTION('',(1.,0.,0.));
#343 = DIRECTION('',(0.,0.,-1.));
#344 = ADVANCED_FACE('',(#345),#370,.F.);
#345 = FACE_BOUND('',#346,.F.);
#346 = EDGE_LOOP('',(#347,#348,#356,#364));
#347 = ORIENTED_EDGE('',*,*,#294,.T.);
#348 = ORIENTED_EDGE('',*,*,#349,.T.);
#349 = EDGE_CURVE('',#286,#350,#352,.T.);
#350 = VERTEX_POINT('',#351);
#351 = CARTESIAN_POINT('',(21.,-0.44,2.66195));
#352 = LINE('',#353,#354);
#353 = CARTESIAN_POINT('',(21.,-0.44,-7.33805));
#354 = VECTOR('',#355,1.);
#355 = DIRECTION('',(0.,0.,1.));
#356 = ORIENTED_EDGE('',*,*,#357,.F.);
#357 = EDGE_CURVE('',#358,#350,#360,.T.);
#358 = VERTEX_POINT('',#359);
#359 = CARTESIAN_POINT('',(21.,0.,2.66195));
#360 = LINE('',#361,#362);
#361 = CARTESIAN_POINT('',(21.,0.,2.66195));
#362 = VECTOR('',#363,1.);
#363 = DIRECTION('',(0.,-1.,4.4E-16));
#364 = ORIENTED_EDGE('',*,*,#365,.F.);
#365 = EDGE_CURVE('',#295,#358,#366,.T.);
#366 = LINE('',#367,#368);
#367 = CARTESIAN_POINT('',(21.,0.,-7.33805));
#368 = VECTOR('',#369,1.);
#369 = DIRECTION('',(0.,0.,1.));
#370 = PLANE('',#371);
#371 = AXIS2_PLACEMENT_3D('',#372,#373,#374);
#372 = CARTESIAN_POINT('',(21.,0.,-7.33805));
#373 = DIRECTION('',(-1.,0.,0.));
#374 = DIRECTION('',(0.,0.,1.));
#375 = ADVANCED_FACE('',(#376),#403,.T.);
#376 = FACE_BOUND('',#377,.F.);
#377 = EDGE_LOOP('',(#378,#388,#395,#396));
#378 = ORIENTED_EDGE('',*,*,#379,.T.);
#379 = EDGE_CURVE('',#380,#382,#384,.T.);
#380 = VERTEX_POINT('',#381);
#381 = CARTESIAN_POINT('',(-20.56998392357,2.E-15,5.627719253367));
#382 = VERTEX_POINT('',#383);
#383 = CARTESIAN_POINT('',(-20.56998392357,-0.44,5.627719253367));
#384 = LINE('',#385,#386);
#385 = CARTESIAN_POINT('',(-20.56998392357,2.E-15,5.627719253367));
#386 = VECTOR('',#387,1.);
#387 = DIRECTION('',(0.,-1.,4.4E-16));
#388 = ORIENTED_EDGE('',*,*,#389,.T.);
#389 = EDGE_CURVE('',#382,#320,#390,.T.);
#390 = CIRCLE('',#391,10.44228528025);
#391 = AXIS2_PLACEMENT_3D('',#392,#393,#394);
#392 = CARTESIAN_POINT('',(-10.55771471975,-0.44,2.66195));
#393 = DIRECTION('',(0.,-1.,0.));
#394 = DIRECTION('',(1.,0.,0.));
#395 = ORIENTED_EDGE('',*,*,#317,.F.);
#396 = ORIENTED_EDGE('',*,*,#397,.F.);
#397 = EDGE_CURVE('',#380,#318,#398,.T.);
#398 = CIRCLE('',#399,10.44228528025);
#399 = AXIS2_PLACEMENT_3D('',#400,#401,#402);
#400 = CARTESIAN_POINT('',(-10.55771471975,0.,2.66195));
#401 = DIRECTION('',(0.,-1.,0.));
#402 = DIRECTION('',(1.,0.,0.));
#403 = CYLINDRICAL_SURFACE('',#404,10.44228528025);
#404 = AXIS2_PLACEMENT_3D('',#405,#406,#407);
#405 = CARTESIAN_POINT('',(-10.55771471975,0.,2.66195));
#406 = DIRECTION('',(0.,1.,0.));
#407 = DIRECTION('',(1.,0.,0.));
#408 = ADVANCED_FACE('',(#409),#436,.T.);
#409 = FACE_BOUND('',#410,.F.);
#410 = EDGE_LOOP('',(#411,#412,#421,#429));
#411 = ORIENTED_EDGE('',*,*,#357,.T.);
#412 = ORIENTED_EDGE('',*,*,#413,.T.);
#413 = EDGE_CURVE('',#350,#414,#416,.T.);
#414 = VERTEX_POINT('',#415);
#415 = CARTESIAN_POINT('',(20.569983923577,-0.44,5.627719253367));
#416 = CIRCLE('',#417,10.44228528025);
#417 = AXIS2_PLACEMENT_3D('',#418,#419,#420);
#418 = CARTESIAN_POINT('',(10.55771471975,-0.44,2.66195));
#419 = DIRECTION('',(0.,-1.,0.));
#420 = DIRECTION('',(1.,0.,0.));
#421 = ORIENTED_EDGE('',*,*,#422,.F.);
#422 = EDGE_CURVE('',#423,#414,#425,.T.);
#423 = VERTEX_POINT('',#424);
#424 = CARTESIAN_POINT('',(20.569983923577,2.E-15,5.627719253367));
#425 = LINE('',#426,#427);
#426 = CARTESIAN_POINT('',(20.569983923577,2.E-15,5.627719253367));
#427 = VECTOR('',#428,1.);
#428 = DIRECTION('',(0.,-1.,4.4E-16));
#429 = ORIENTED_EDGE('',*,*,#430,.F.);
#430 = EDGE_CURVE('',#358,#423,#431,.T.);
#431 = CIRCLE('',#432,10.44228528025);
#432 = AXIS2_PLACEMENT_3D('',#433,#434,#435);
#433 = CARTESIAN_POINT('',(10.55771471975,0.,2.66195));
#434 = DIRECTION('',(0.,-1.,0.));
#435 = DIRECTION('',(1.,0.,0.));
#436 = CYLINDRICAL_SURFACE('',#437,10.44228528025);
#437 = AXIS2_PLACEMENT_3D('',#438,#439,#440);
#438 = CARTESIAN_POINT('',(10.55771471975,0.,2.66195));
#439 = DIRECTION('',(0.,1.,0.));
#440 = DIRECTION('',(1.,0.,0.));
#441 = ADVANCED_FACE('',(#442),#467,.T.);
#442 = FACE_BOUND('',#443,.T.);
#443 = EDGE_LOOP('',(#444,#445,#453,#461));
#444 = ORIENTED_EDGE('',*,*,#379,.T.);
#445 = ORIENTED_EDGE('',*,*,#446,.T.);
#446 = EDGE_CURVE('',#382,#447,#449,.T.);
#447 = VERTEX_POINT('',#448);
#448 = CARTESIAN_POINT('',(-20.07795480324,-0.44,9.967087148105));
#449 = LINE('',#450,#451);
#450 = CARTESIAN_POINT('',(-20.56998392357,-0.44,5.627719253367));
#451 = VECTOR('',#452,1.);
#452 = DIRECTION('',(0.11266534167,0.,0.993632990991));
#453 = ORIENTED_EDGE('',*,*,#454,.F.);
#454 = EDGE_CURVE('',#455,#447,#457,.T.);
#455 = VERTEX_POINT('',#456);
#456 = CARTESIAN_POINT('',(-20.07795480324,0.,9.967087148105));
#457 = LINE('',#458,#459);
#458 = CARTESIAN_POINT('',(-20.07795480324,0.,9.967087148105));
#459 = VECTOR('',#460,1.);
#460 = DIRECTION('',(0.,-1.,4.4E-16));
#461 = ORIENTED_EDGE('',*,*,#462,.F.);
#462 = EDGE_CURVE('',#380,#455,#463,.T.);
#463 = LINE('',#464,#465);
#464 = CARTESIAN_POINT('',(-20.56998392357,0.,5.627719253367));
#465 = VECTOR('',#466,1.);
#466 = DIRECTION('',(0.11266534167,0.,0.993632990991));
#467 = PLANE('',#468);
#468 = AXIS2_PLACEMENT_3D('',#469,#470,#471);
#469 = CARTESIAN_POINT('',(-20.56998392357,0.,5.627719253367));
#470 = DIRECTION('',(-0.993632990991,5.E-17,0.11266534167));
#471 = DIRECTION('',(0.11266534167,-7.703719777549E-34,0.993632990991));
#472 = ADVANCED_FACE('',(#473),#498,.F.);
#473 = FACE_BOUND('',#474,.F.);
#474 = EDGE_LOOP('',(#475,#476,#484,#492));
#475 = ORIENTED_EDGE('',*,*,#422,.T.);
#476 = ORIENTED_EDGE('',*,*,#477,.T.);
#477 = EDGE_CURVE('',#414,#478,#480,.T.);
#478 = VERTEX_POINT('',#479);
#479 = CARTESIAN_POINT('',(20.077954803245,-0.44,9.967087148105));
#480 = LINE('',#481,#482);
#481 = CARTESIAN_POINT('',(20.569983923577,-0.44,5.627719253367));
#482 = VECTOR('',#483,1.);
#483 = DIRECTION('',(-0.11266534167,0.,0.993632990991));
#484 = ORIENTED_EDGE('',*,*,#485,.F.);
#485 = EDGE_CURVE('',#486,#478,#488,.T.);
#486 = VERTEX_POINT('',#487);
#487 = CARTESIAN_POINT('',(20.077954803245,4.E-15,9.967087148105));
#488 = LINE('',#489,#490);
#489 = CARTESIAN_POINT('',(20.077954803245,4.E-15,9.967087148105));
#490 = VECTOR('',#491,1.);
#491 = DIRECTION('',(0.,-1.,4.4E-16));
#492 = ORIENTED_EDGE('',*,*,#493,.F.);
#493 = EDGE_CURVE('',#423,#486,#494,.T.);
#494 = LINE('',#495,#496);
#495 = CARTESIAN_POINT('',(20.569983923577,0.,5.627719253367));
#496 = VECTOR('',#497,1.);
#497 = DIRECTION('',(-0.11266534167,0.,0.993632990991));
#498 = PLANE('',#499);
#499 = AXIS2_PLACEMENT_3D('',#500,#501,#502);
#500 = CARTESIAN_POINT('',(20.569983923577,0.,5.627719253367));
#501 = DIRECTION('',(-0.993632990991,-5.E-17,-0.11266534167));
#502 = DIRECTION('',(-0.11266534167,-7.703719777549E-34,0.993632990991)
  );
#503 = ADVANCED_FACE('',(#504),#529,.T.);
#504 = FACE_BOUND('',#505,.T.);
#505 = EDGE_LOOP('',(#506,#507,#515,#523));
#506 = ORIENTED_EDGE('',*,*,#454,.T.);
#507 = ORIENTED_EDGE('',*,*,#508,.T.);
#508 = EDGE_CURVE('',#447,#509,#511,.T.);
#509 = VERTEX_POINT('',#510);
#510 = CARTESIAN_POINT('',(-16.01379379103,-0.44,11.565461837585));
#511 = LINE('',#512,#513);
#512 = CARTESIAN_POINT('',(-20.07795480324,-0.44,9.967087148105));
#513 = VECTOR('',#514,1.);
#514 = DIRECTION('',(0.930615831704,0.,0.365997505157));
#515 = ORIENTED_EDGE('',*,*,#516,.F.);
#516 = EDGE_CURVE('',#517,#509,#519,.T.);
#517 = VERTEX_POINT('',#518);
#518 = CARTESIAN_POINT('',(-16.01379379103,5.E-15,11.565461837585));
#519 = LINE('',#520,#521);
#520 = CARTESIAN_POINT('',(-16.01379379103,5.E-15,11.565461837585));
#521 = VECTOR('',#522,1.);
#522 = DIRECTION('',(0.,-1.,4.4E-16));
#523 = ORIENTED_EDGE('',*,*,#524,.F.);
#524 = EDGE_CURVE('',#455,#517,#525,.T.);
#525 = LINE('',#526,#527);
#526 = CARTESIAN_POINT('',(-20.07795480324,0.,9.967087148105));
#527 = VECTOR('',#528,1.);
#528 = DIRECTION('',(0.930615831704,0.,0.365997505157));
#529 = PLANE('',#530);
#530 = AXIS2_PLACEMENT_3D('',#531,#532,#533);
#531 = CARTESIAN_POINT('',(-20.07795480324,0.,9.967087148105));
#532 = DIRECTION('',(-0.365997505157,4.1E-16,0.930615831704));
#533 = DIRECTION('',(0.930615831704,0.,0.365997505157));
#534 = ADVANCED_FACE('',(#535),#560,.F.);
#535 = FACE_BOUND('',#536,.F.);
#536 = EDGE_LOOP('',(#537,#538,#546,#554));
#537 = ORIENTED_EDGE('',*,*,#485,.T.);
#538 = ORIENTED_EDGE('',*,*,#539,.T.);
#539 = EDGE_CURVE('',#478,#540,#542,.T.);
#540 = VERTEX_POINT('',#541);
#541 = CARTESIAN_POINT('',(16.013793791035,-0.44,11.565461837585));
#542 = LINE('',#543,#544);
#543 = CARTESIAN_POINT('',(20.077954803245,-0.44,9.967087148105));
#544 = VECTOR('',#545,1.);
#545 = DIRECTION('',(-0.930615831704,0.,0.365997505157));
#546 = ORIENTED_EDGE('',*,*,#547,.F.);
#547 = EDGE_CURVE('',#548,#540,#550,.T.);
#548 = VERTEX_POINT('',#549);
#549 = CARTESIAN_POINT('',(16.013793791035,5.E-15,11.565461837585));
#550 = LINE('',#551,#552);
#551 = CARTESIAN_POINT('',(16.013793791035,5.E-15,11.565461837585));
#552 = VECTOR('',#553,1.);
#553 = DIRECTION('',(0.,-1.,4.4E-16));
#554 = ORIENTED_EDGE('',*,*,#555,.F.);
#555 = EDGE_CURVE('',#486,#548,#556,.T.);
#556 = LINE('',#557,#558);
#557 = CARTESIAN_POINT('',(20.077954803245,0.,9.967087148105));
#558 = VECTOR('',#559,1.);
#559 = DIRECTION('',(-0.930615831704,0.,0.365997505157));
#560 = PLANE('',#561);
#561 = AXIS2_PLACEMENT_3D('',#562,#563,#564);
#562 = CARTESIAN_POINT('',(20.077954803245,0.,9.967087148105));
#563 = DIRECTION('',(-0.365997505157,-4.1E-16,-0.930615831704));
#564 = DIRECTION('',(-0.930615831704,0.,0.365997505157));
#565 = ADVANCED_FACE('',(#566),#593,.T.);
#566 = FACE_BOUND('',#567,.F.);
#567 = EDGE_LOOP('',(#568,#578,#585,#586));
#568 = ORIENTED_EDGE('',*,*,#569,.T.);
#569 = EDGE_CURVE('',#570,#572,#574,.T.);
#570 = VERTEX_POINT('',#571);
#571 = CARTESIAN_POINT('',(-16.,0.,11.5739));
#572 = VERTEX_POINT('',#573);
#573 = CARTESIAN_POINT('',(-16.,-0.44,11.5739));
#574 = LINE('',#575,#576);
#575 = CARTESIAN_POINT('',(-16.,0.,11.5739));
#576 = VECTOR('',#577,1.);
#577 = DIRECTION('',(0.,-1.,4.4E-16));
#578 = ORIENTED_EDGE('',*,*,#579,.T.);
#579 = EDGE_CURVE('',#572,#509,#580,.T.);
#580 = CIRCLE('',#581,10.44228528025);
#581 = AXIS2_PLACEMENT_3D('',#582,#583,#584);
#582 = CARTESIAN_POINT('',(-10.55771471975,-0.44,2.66195));
#583 = DIRECTION('',(0.,-1.,0.));
#584 = DIRECTION('',(1.,0.,0.));
#585 = ORIENTED_EDGE('',*,*,#516,.F.);
#586 = ORIENTED_EDGE('',*,*,#587,.F.);
#587 = EDGE_CURVE('',#570,#517,#588,.T.);
#588 = CIRCLE('',#589,10.44228528025);
#589 = AXIS2_PLACEMENT_3D('',#590,#591,#592);
#590 = CARTESIAN_POINT('',(-10.55771471975,0.,2.66195));
#591 = DIRECTION('',(0.,-1.,0.));
#592 = DIRECTION('',(1.,0.,0.));
#593 = CYLINDRICAL_SURFACE('',#594,10.44228528025);
#594 = AXIS2_PLACEMENT_3D('',#595,#596,#597);
#595 = CARTESIAN_POINT('',(-10.55771471975,0.,2.66195));
#596 = DIRECTION('',(0.,1.,0.));
#597 = DIRECTION('',(1.,0.,0.));
#598 = ADVANCED_FACE('',(#599),#626,.T.);
#599 = FACE_BOUND('',#600,.F.);
#600 = EDGE_LOOP('',(#601,#602,#611,#619));
#601 = ORIENTED_EDGE('',*,*,#547,.T.);
#602 = ORIENTED_EDGE('',*,*,#603,.T.);
#603 = EDGE_CURVE('',#540,#604,#606,.T.);
#604 = VERTEX_POINT('',#605);
#605 = CARTESIAN_POINT('',(16.,-0.44,11.5739));
#606 = CIRCLE('',#607,10.44228528025);
#607 = AXIS2_PLACEMENT_3D('',#608,#609,#610);
#608 = CARTESIAN_POINT('',(10.55771471975,-0.44,2.66195));
#609 = DIRECTION('',(0.,-1.,0.));
#610 = DIRECTION('',(1.,0.,0.));
#611 = ORIENTED_EDGE('',*,*,#612,.F.);
#612 = EDGE_CURVE('',#613,#604,#615,.T.);
#613 = VERTEX_POINT('',#614);
#614 = CARTESIAN_POINT('',(16.,0.,11.5739));
#615 = LINE('',#616,#617);
#616 = CARTESIAN_POINT('',(16.,0.,11.5739));
#617 = VECTOR('',#618,1.);
#618 = DIRECTION('',(0.,-1.,4.4E-16));
#619 = ORIENTED_EDGE('',*,*,#620,.F.);
#620 = EDGE_CURVE('',#548,#613,#621,.T.);
#621 = CIRCLE('',#622,10.44228528025);
#622 = AXIS2_PLACEMENT_3D('',#623,#624,#625);
#623 = CARTESIAN_POINT('',(10.55771471975,0.,2.66195));
#624 = DIRECTION('',(0.,-1.,0.));
#625 = DIRECTION('',(1.,0.,0.));
#626 = CYLINDRICAL_SURFACE('',#627,10.44228528025);
#627 = AXIS2_PLACEMENT_3D('',#628,#629,#630);
#628 = CARTESIAN_POINT('',(10.55771471975,0.,2.66195));
#629 = DIRECTION('',(0.,1.,0.));
#630 = DIRECTION('',(1.,0.,0.));
#631 = ADVANCED_FACE('',(#632,#659,#670,#681,#747,#758),#769,.F.);
#632 = FACE_BOUND('',#633,.F.);
#633 = EDGE_LOOP('',(#634,#635,#636,#637,#638,#639,#640,#641,#642,#643,
    #644,#650,#651,#652,#653,#654,#655,#656,#657,#658));
#634 = ORIENTED_EDGE('',*,*,#47,.T.);
#635 = ORIENTED_EDGE('',*,*,#112,.T.);
#636 = ORIENTED_EDGE('',*,*,#175,.T.);
#637 = ORIENTED_EDGE('',*,*,#237,.T.);
#638 = ORIENTED_EDGE('',*,*,#302,.T.);
#639 = ORIENTED_EDGE('',*,*,#365,.T.);
#640 = ORIENTED_EDGE('',*,*,#430,.T.);
#641 = ORIENTED_EDGE('',*,*,#493,.T.);
#642 = ORIENTED_EDGE('',*,*,#555,.T.);
#643 = ORIENTED_EDGE('',*,*,#620,.T.);
#644 = ORIENTED_EDGE('',*,*,#645,.T.);
#645 = EDGE_CURVE('',#613,#570,#646,.T.);
#646 = LINE('',#647,#648);
#647 = CARTESIAN_POINT('',(16.,0.,11.5739));
#648 = VECTOR('',#649,1.);
#649 = DIRECTION('',(-1.,0.,1.1E-16));
#650 = ORIENTED_EDGE('',*,*,#587,.T.);
#651 = ORIENTED_EDGE('',*,*,#524,.F.);
#652 = ORIENTED_EDGE('',*,*,#462,.F.);
#653 = ORIENTED_EDGE('',*,*,#397,.T.);
#654 = ORIENTED_EDGE('',*,*,#334,.T.);
#655 = ORIENTED_EDGE('',*,*,#269,.T.);
#656 = ORIENTED_EDGE('',*,*,#206,.F.);
#657 = ORIENTED_EDGE('',*,*,#144,.F.);
#658 = ORIENTED_EDGE('',*,*,#79,.T.);
#659 = FACE_BOUND('',#660,.F.);
#660 = EDGE_LOOP('',(#661));
#661 = ORIENTED_EDGE('',*,*,#662,.F.);
#662 = EDGE_CURVE('',#663,#663,#665,.T.);
#663 = VERTEX_POINT('',#664);
#664 = CARTESIAN_POINT('',(19.1,-5.E-15,-12.3));
#665 = CIRCLE('',#666,1.6);
#666 = AXIS2_PLACEMENT_3D('',#667,#668,#669);
#667 = CARTESIAN_POINT('',(17.5,0.,-12.3));
#668 = DIRECTION('',(0.,-1.,0.));
#669 = DIRECTION('',(1.,0.,0.));
#670 = FACE_BOUND('',#671,.F.);
#671 = EDGE_LOOP('',(#672));
#672 = ORIENTED_EDGE('',*,*,#673,.F.);
#673 = EDGE_CURVE('',#674,#674,#676,.T.);
#674 = VERTEX_POINT('',#675);
#675 = CARTESIAN_POINT('',(19.1,4.E-15,8.1));
#676 = CIRCLE('',#677,1.6);
#677 = AXIS2_PLACEMENT_3D('',#678,#679,#680);
#678 = CARTESIAN_POINT('',(17.5,0.,8.1));
#679 = DIRECTION('',(0.,-1.,0.));
#680 = DIRECTION('',(1.,0.,0.));
#681 = FACE_BOUND('',#682,.F.);
#682 = EDGE_LOOP('',(#683,#693,#701,#709,#717,#725,#733,#741));
#683 = ORIENTED_EDGE('',*,*,#684,.F.);
#684 = EDGE_CURVE('',#685,#687,#689,.T.);
#685 = VERTEX_POINT('',#686);
#686 = CARTESIAN_POINT('',(-15.,0.,9.840966801903));
#687 = VERTEX_POINT('',#688);
#688 = CARTESIAN_POINT('',(-15.,0.,-14.5170668019));
#689 = LINE('',#690,#691);
#690 = CARTESIAN_POINT('',(-15.,0.,9.840966801903));
#691 = VECTOR('',#692,1.);
#692 = DIRECTION('',(0.,0.,-1.));
#693 = ORIENTED_EDGE('',*,*,#694,.F.);
#694 = EDGE_CURVE('',#695,#685,#697,.T.);
#695 = VERTEX_POINT('',#696);
#696 = CARTESIAN_POINT('',(15.,0.,9.840966801903));
#697 = LINE('',#698,#699);
#698 = CARTESIAN_POINT('',(15.,0.,9.840966801903));
#699 = VECTOR('',#700,1.);
#700 = DIRECTION('',(-1.,0.,0.));
#701 = ORIENTED_EDGE('',*,*,#702,.F.);
#702 = EDGE_CURVE('',#703,#695,#705,.T.);
#703 = VERTEX_POINT('',#704);
#704 = CARTESIAN_POINT('',(15.,2.E-15,5.06195));
#705 = LINE('',#706,#707);
#706 = CARTESIAN_POINT('',(15.,0.,-14.5170668019));
#707 = VECTOR('',#708,1.);
#708 = DIRECTION('',(0.,0.,1.));
#709 = ORIENTED_EDGE('',*,*,#710,.F.);
#710 = EDGE_CURVE('',#711,#703,#713,.T.);
#711 = VERTEX_POINT('',#712);
#712 = CARTESIAN_POINT('',(17.,2.E-15,5.06195));
#713 = LINE('',#714,#715);
#714 = CARTESIAN_POINT('',(17.,0.,5.06195));
#715 = VECTOR('',#716,1.);
#716 = DIRECTION('',(-1.,0.,0.));
#717 = ORIENTED_EDGE('',*,*,#718,.F.);
#718 = EDGE_CURVE('',#719,#711,#721,.T.);
#719 = VERTEX_POINT('',#720);
#720 = CARTESIAN_POINT('',(17.,-4.E-15,-9.73805));
#721 = LINE('',#722,#723);
#722 = CARTESIAN_POINT('',(17.,0.,-9.73805));
#723 = VECTOR('',#724,1.);
#724 = DIRECTION('',(0.,0.,1.));
#725 = ORIENTED_EDGE('',*,*,#726,.F.);
#726 = EDGE_CURVE('',#727,#719,#729,.T.);
#727 = VERTEX_POINT('',#728);
#728 = CARTESIAN_POINT('',(15.,-4.E-15,-9.73805));
#729 = LINE('',#730,#731);
#730 = CARTESIAN_POINT('',(15.,0.,-9.73805));
#731 = VECTOR('',#732,1.);
#732 = DIRECTION('',(1.,0.,0.));
#733 = ORIENTED_EDGE('',*,*,#734,.F.);
#734 = EDGE_CURVE('',#735,#727,#737,.T.);
#735 = VERTEX_POINT('',#736);
#736 = CARTESIAN_POINT('',(15.,0.,-14.5170668019));
#737 = LINE('',#738,#739);
#738 = CARTESIAN_POINT('',(15.,0.,-14.5170668019));
#739 = VECTOR('',#740,1.);
#740 = DIRECTION('',(0.,0.,1.));
#741 = ORIENTED_EDGE('',*,*,#742,.F.);
#742 = EDGE_CURVE('',#687,#735,#743,.T.);
#743 = LINE('',#744,#745);
#744 = CARTESIAN_POINT('',(-15.,0.,-14.5170668019));
#745 = VECTOR('',#746,1.);
#746 = DIRECTION('',(1.,0.,0.));
#747 = FACE_BOUND('',#748,.F.);
#748 = EDGE_LOOP('',(#749));
#749 = ORIENTED_EDGE('',*,*,#750,.F.);
#750 = EDGE_CURVE('',#751,#751,#753,.T.);
#751 = VERTEX_POINT('',#752);
#752 = CARTESIAN_POINT('',(-15.9,-5.E-15,-12.3));
#753 = CIRCLE('',#754,1.6);
#754 = AXIS2_PLACEMENT_3D('',#755,#756,#757);
#755 = CARTESIAN_POINT('',(-17.5,0.,-12.3));
#756 = DIRECTION('',(0.,-1.,0.));
#757 = DIRECTION('',(1.,0.,0.));
#758 = FACE_BOUND('',#759,.F.);
#759 = EDGE_LOOP('',(#760));
#760 = ORIENTED_EDGE('',*,*,#761,.F.);
#761 = EDGE_CURVE('',#762,#762,#764,.T.);
#762 = VERTEX_POINT('',#763);
#763 = CARTESIAN_POINT('',(-15.9,4.E-15,8.1));
#764 = CIRCLE('',#765,1.6);
#765 = AXIS2_PLACEMENT_3D('',#766,#767,#768);
#766 = CARTESIAN_POINT('',(-17.5,0.,8.1));
#767 = DIRECTION('',(0.,-1.,0.));
#768 = DIRECTION('',(1.,0.,0.));
#769 = PLANE('',#770);
#770 = AXIS2_PLACEMENT_3D('',#771,#772,#773);
#771 = CARTESIAN_POINT('',(2.16E-15,-1.04E-15,-2.33805));
#772 = DIRECTION('',(0.,-1.,4.4E-16));
#773 = DIRECTION('',(0.,4.4E-16,1.));
#774 = ADVANCED_FACE('',(#775),#794,.F.);
#775 = FACE_BOUND('',#776,.T.);
#776 = EDGE_LOOP('',(#777,#785,#792,#793));
#777 = ORIENTED_EDGE('',*,*,#778,.T.);
#778 = EDGE_CURVE('',#663,#779,#781,.T.);
#779 = VERTEX_POINT('',#780);
#780 = CARTESIAN_POINT('',(19.1,-0.44,-12.3));
#781 = LINE('',#782,#783);
#782 = CARTESIAN_POINT('',(19.1,-5.E-15,-12.3));
#783 = VECTOR('',#784,1.);
#784 = DIRECTION('',(0.,-1.,4.4E-16));
#785 = ORIENTED_EDGE('',*,*,#786,.T.);
#786 = EDGE_CURVE('',#779,#779,#787,.T.);
#787 = CIRCLE('',#788,1.6);
#788 = AXIS2_PLACEMENT_3D('',#789,#790,#791);
#789 = CARTESIAN_POINT('',(17.5,-0.44,-12.3));
#790 = DIRECTION('',(0.,-1.,0.));
#791 = DIRECTION('',(1.,0.,0.));
#792 = ORIENTED_EDGE('',*,*,#778,.F.);
#793 = ORIENTED_EDGE('',*,*,#662,.F.);
#794 = CYLINDRICAL_SURFACE('',#795,1.6);
#795 = AXIS2_PLACEMENT_3D('',#796,#797,#798);
#796 = CARTESIAN_POINT('',(17.5,0.,-12.3));
#797 = DIRECTION('',(0.,1.,0.));
#798 = DIRECTION('',(1.,0.,0.));
#799 = ADVANCED_FACE('',(#800),#819,.F.);
#800 = FACE_BOUND('',#801,.T.);
#801 = EDGE_LOOP('',(#802,#810,#817,#818));
#802 = ORIENTED_EDGE('',*,*,#803,.T.);
#803 = EDGE_CURVE('',#674,#804,#806,.T.);
#804 = VERTEX_POINT('',#805);
#805 = CARTESIAN_POINT('',(19.1,-0.44,8.1));
#806 = LINE('',#807,#808);
#807 = CARTESIAN_POINT('',(19.1,4.E-15,8.1));
#808 = VECTOR('',#809,1.);
#809 = DIRECTION('',(0.,-1.,4.4E-16));
#810 = ORIENTED_EDGE('',*,*,#811,.T.);
#811 = EDGE_CURVE('',#804,#804,#812,.T.);
#812 = CIRCLE('',#813,1.6);
#813 = AXIS2_PLACEMENT_3D('',#814,#815,#816);
#814 = CARTESIAN_POINT('',(17.5,-0.44,8.1));
#815 = DIRECTION('',(0.,-1.,0.));
#816 = DIRECTION('',(1.,0.,0.));
#817 = ORIENTED_EDGE('',*,*,#803,.F.);
#818 = ORIENTED_EDGE('',*,*,#673,.F.);
#819 = CYLINDRICAL_SURFACE('',#820,1.6);
#820 = AXIS2_PLACEMENT_3D('',#821,#822,#823);
#821 = CARTESIAN_POINT('',(17.5,0.,8.1));
#822 = DIRECTION('',(0.,1.,0.));
#823 = DIRECTION('',(1.,0.,0.));
#824 = ADVANCED_FACE('',(#825),#850,.T.);
#825 = FACE_BOUND('',#826,.T.);
#826 = EDGE_LOOP('',(#827,#835,#843,#849));
#827 = ORIENTED_EDGE('',*,*,#828,.T.);
#828 = EDGE_CURVE('',#685,#829,#831,.T.);
#829 = VERTEX_POINT('',#830);
#830 = CARTESIAN_POINT('',(-15.,-0.44,9.840966801903));
#831 = LINE('',#832,#833);
#832 = CARTESIAN_POINT('',(-15.,0.,9.840966801903));
#833 = VECTOR('',#834,1.);
#834 = DIRECTION('',(0.,-1.,4.4E-16));
#835 = ORIENTED_EDGE('',*,*,#836,.T.);
#836 = EDGE_CURVE('',#829,#837,#839,.T.);
#837 = VERTEX_POINT('',#838);
#838 = CARTESIAN_POINT('',(-15.,-0.44,-14.5170668019));
#839 = LINE('',#840,#841);
#840 = CARTESIAN_POINT('',(-15.,-0.44,9.840966801903));
#841 = VECTOR('',#842,1.);
#842 = DIRECTION('',(0.,0.,-1.));
#843 = ORIENTED_EDGE('',*,*,#844,.F.);
#844 = EDGE_CURVE('',#687,#837,#845,.T.);
#845 = LINE('',#846,#847);
#846 = CARTESIAN_POINT('',(-15.,0.,-14.5170668019));
#847 = VECTOR('',#848,1.);
#848 = DIRECTION('',(0.,-1.,4.4E-16));
#849 = ORIENTED_EDGE('',*,*,#684,.F.);
#850 = PLANE('',#851);
#851 = AXIS2_PLACEMENT_3D('',#852,#853,#854);
#852 = CARTESIAN_POINT('',(-15.,0.,9.840966801903));
#853 = DIRECTION('',(1.,0.,0.));
#854 = DIRECTION('',(0.,0.,-1.));
#855 = ADVANCED_FACE('',(#856),#874,.T.);
#856 = FACE_BOUND('',#857,.T.);
#857 = EDGE_LOOP('',(#858,#866,#872,#873));
#858 = ORIENTED_EDGE('',*,*,#859,.T.);
#859 = EDGE_CURVE('',#695,#860,#862,.T.);
#860 = VERTEX_POINT('',#861);
#861 = CARTESIAN_POINT('',(15.,-0.44,9.840966801903));
#862 = LINE('',#863,#864);
#863 = CARTESIAN_POINT('',(15.,0.,9.840966801903));
#864 = VECTOR('',#865,1.);
#865 = DIRECTION('',(0.,-1.,4.4E-16));
#866 = ORIENTED_EDGE('',*,*,#867,.T.);
#867 = EDGE_CURVE('',#860,#829,#868,.T.);
#868 = LINE('',#869,#870);
#869 = CARTESIAN_POINT('',(15.,-0.44,9.840966801903));
#870 = VECTOR('',#871,1.);
#871 = DIRECTION('',(-1.,0.,0.));
#872 = ORIENTED_EDGE('',*,*,#828,.F.);
#873 = ORIENTED_EDGE('',*,*,#694,.F.);
#874 = PLANE('',#875);
#875 = AXIS2_PLACEMENT_3D('',#876,#877,#878);
#876 = CARTESIAN_POINT('',(15.,0.,9.840966801903));
#877 = DIRECTION('',(-0.,-4.4E-16,-1.));
#878 = DIRECTION('',(-1.,0.,0.));
#879 = ADVANCED_FACE('',(#880),#898,.T.);
#880 = FACE_BOUND('',#881,.T.);
#881 = EDGE_LOOP('',(#882,#883,#891,#897));
#882 = ORIENTED_EDGE('',*,*,#844,.T.);
#883 = ORIENTED_EDGE('',*,*,#884,.T.);
#884 = EDGE_CURVE('',#837,#885,#887,.T.);
#885 = VERTEX_POINT('',#886);
#886 = CARTESIAN_POINT('',(15.,-0.44,-14.5170668019));
#887 = LINE('',#888,#889);
#888 = CARTESIAN_POINT('',(-15.,-0.44,-14.5170668019));
#889 = VECTOR('',#890,1.);
#890 = DIRECTION('',(1.,0.,0.));
#891 = ORIENTED_EDGE('',*,*,#892,.F.);
#892 = EDGE_CURVE('',#735,#885,#893,.T.);
#893 = LINE('',#894,#895);
#894 = CARTESIAN_POINT('',(15.,0.,-14.5170668019));
#895 = VECTOR('',#896,1.);
#896 = DIRECTION('',(0.,-1.,4.4E-16));
#897 = ORIENTED_EDGE('',*,*,#742,.F.);
#898 = PLANE('',#899);
#899 = AXIS2_PLACEMENT_3D('',#900,#901,#902);
#900 = CARTESIAN_POINT('',(-15.,0.,-14.5170668019));
#901 = DIRECTION('',(0.,4.4E-16,1.));
#902 = DIRECTION('',(1.,0.,-0.));
#903 = ADVANCED_FACE('',(#904),#922,.T.);
#904 = FACE_BOUND('',#905,.T.);
#905 = EDGE_LOOP('',(#906,#914,#920,#921));
#906 = ORIENTED_EDGE('',*,*,#907,.T.);
#907 = EDGE_CURVE('',#703,#908,#910,.T.);
#908 = VERTEX_POINT('',#909);
#909 = CARTESIAN_POINT('',(15.,-0.44,5.06195));
#910 = LINE('',#911,#912);
#911 = CARTESIAN_POINT('',(15.,2.E-15,5.06195));
#912 = VECTOR('',#913,1.);
#913 = DIRECTION('',(0.,-1.,4.4E-16));
#914 = ORIENTED_EDGE('',*,*,#915,.T.);
#915 = EDGE_CURVE('',#908,#860,#916,.T.);
#916 = LINE('',#917,#918);
#917 = CARTESIAN_POINT('',(15.,-0.44,-14.5170668019));
#918 = VECTOR('',#919,1.);
#919 = DIRECTION('',(0.,0.,1.));
#920 = ORIENTED_EDGE('',*,*,#859,.F.);
#921 = ORIENTED_EDGE('',*,*,#702,.F.);
#922 = PLANE('',#923);
#923 = AXIS2_PLACEMENT_3D('',#924,#925,#926);
#924 = CARTESIAN_POINT('',(15.,0.,5.06195));
#925 = DIRECTION('',(-1.,0.,0.));
#926 = DIRECTION('',(0.,0.,1.));
#927 = ADVANCED_FACE('',(#928),#946,.T.);
#928 = FACE_BOUND('',#929,.T.);
#929 = EDGE_LOOP('',(#930,#931,#939,#945));
#930 = ORIENTED_EDGE('',*,*,#892,.T.);
#931 = ORIENTED_EDGE('',*,*,#932,.T.);
#932 = EDGE_CURVE('',#885,#933,#935,.T.);
#933 = VERTEX_POINT('',#934);
#934 = CARTESIAN_POINT('',(15.,-0.44,-9.73805));
#935 = LINE('',#936,#937);
#936 = CARTESIAN_POINT('',(15.,-0.44,-14.5170668019));
#937 = VECTOR('',#938,1.);
#938 = DIRECTION('',(0.,0.,1.));
#939 = ORIENTED_EDGE('',*,*,#940,.F.);
#940 = EDGE_CURVE('',#727,#933,#941,.T.);
#941 = LINE('',#942,#943);
#942 = CARTESIAN_POINT('',(15.,-4.E-15,-9.73805));
#943 = VECTOR('',#944,1.);
#944 = DIRECTION('',(0.,-1.,4.4E-16));
#945 = ORIENTED_EDGE('',*,*,#734,.F.);
#946 = PLANE('',#947);
#947 = AXIS2_PLACEMENT_3D('',#948,#949,#950);
#948 = CARTESIAN_POINT('',(15.,0.,-14.5170668019));
#949 = DIRECTION('',(-1.,0.,0.));
#950 = DIRECTION('',(0.,0.,1.));
#951 = ADVANCED_FACE('',(#952),#970,.T.);
#952 = FACE_BOUND('',#953,.T.);
#953 = EDGE_LOOP('',(#954,#962,#968,#969));
#954 = ORIENTED_EDGE('',*,*,#955,.T.);
#955 = EDGE_CURVE('',#711,#956,#958,.T.);
#956 = VERTEX_POINT('',#957);
#957 = CARTESIAN_POINT('',(17.,-0.44,5.06195));
#958 = LINE('',#959,#960);
#959 = CARTESIAN_POINT('',(17.,2.E-15,5.06195));
#960 = VECTOR('',#961,1.);
#961 = DIRECTION('',(0.,-1.,4.4E-16));
#962 = ORIENTED_EDGE('',*,*,#963,.T.);
#963 = EDGE_CURVE('',#956,#908,#964,.T.);
#964 = LINE('',#965,#966);
#965 = CARTESIAN_POINT('',(17.,-0.44,5.06195));
#966 = VECTOR('',#967,1.);
#967 = DIRECTION('',(-1.,0.,0.));
#968 = ORIENTED_EDGE('',*,*,#907,.F.);
#969 = ORIENTED_EDGE('',*,*,#710,.F.);
#970 = PLANE('',#971);
#971 = AXIS2_PLACEMENT_3D('',#972,#973,#974);
#972 = CARTESIAN_POINT('',(17.,0.,5.06195));
#973 = DIRECTION('',(-0.,-4.4E-16,-1.));
#974 = DIRECTION('',(-1.,0.,0.));
#975 = ADVANCED_FACE('',(#976),#994,.T.);
#976 = FACE_BOUND('',#977,.T.);
#977 = EDGE_LOOP('',(#978,#979,#987,#993));
#978 = ORIENTED_EDGE('',*,*,#940,.T.);
#979 = ORIENTED_EDGE('',*,*,#980,.T.);
#980 = EDGE_CURVE('',#933,#981,#983,.T.);
#981 = VERTEX_POINT('',#982);
#982 = CARTESIAN_POINT('',(17.,-0.44,-9.73805));
#983 = LINE('',#984,#985);
#984 = CARTESIAN_POINT('',(15.,-0.44,-9.73805));
#985 = VECTOR('',#986,1.);
#986 = DIRECTION('',(1.,0.,0.));
#987 = ORIENTED_EDGE('',*,*,#988,.F.);
#988 = EDGE_CURVE('',#719,#981,#989,.T.);
#989 = LINE('',#990,#991);
#990 = CARTESIAN_POINT('',(17.,-4.E-15,-9.73805));
#991 = VECTOR('',#992,1.);
#992 = DIRECTION('',(0.,-1.,4.4E-16));
#993 = ORIENTED_EDGE('',*,*,#726,.F.);
#994 = PLANE('',#995);
#995 = AXIS2_PLACEMENT_3D('',#996,#997,#998);
#996 = CARTESIAN_POINT('',(15.,0.,-9.73805));
#997 = DIRECTION('',(0.,4.4E-16,1.));
#998 = DIRECTION('',(1.,0.,-0.));
#999 = ADVANCED_FACE('',(#1000),#1011,.T.);
#1000 = FACE_BOUND('',#1001,.T.);
#1001 = EDGE_LOOP('',(#1002,#1003,#1009,#1010));
#1002 = ORIENTED_EDGE('',*,*,#988,.T.);
#1003 = ORIENTED_EDGE('',*,*,#1004,.T.);
#1004 = EDGE_CURVE('',#981,#956,#1005,.T.);
#1005 = LINE('',#1006,#1007);
#1006 = CARTESIAN_POINT('',(17.,-0.44,-9.73805));
#1007 = VECTOR('',#1008,1.);
#1008 = DIRECTION('',(0.,0.,1.));
#1009 = ORIENTED_EDGE('',*,*,#955,.F.);
#1010 = ORIENTED_EDGE('',*,*,#718,.F.);
#1011 = PLANE('',#1012);
#1012 = AXIS2_PLACEMENT_3D('',#1013,#1014,#1015);
#1013 = CARTESIAN_POINT('',(17.,0.,-9.73805));
#1014 = DIRECTION('',(-1.,0.,0.));
#1015 = DIRECTION('',(0.,0.,1.));
#1016 = ADVANCED_FACE('',(#1017),#1036,.F.);
#1017 = FACE_BOUND('',#1018,.T.);
#1018 = EDGE_LOOP('',(#1019,#1027,#1034,#1035));
#1019 = ORIENTED_EDGE('',*,*,#1020,.T.);
#1020 = EDGE_CURVE('',#751,#1021,#1023,.T.);
#1021 = VERTEX_POINT('',#1022);
#1022 = CARTESIAN_POINT('',(-15.9,-0.44,-12.3));
#1023 = LINE('',#1024,#1025);
#1024 = CARTESIAN_POINT('',(-15.9,-5.E-15,-12.3));
#1025 = VECTOR('',#1026,1.);
#1026 = DIRECTION('',(0.,-1.,4.4E-16));
#1027 = ORIENTED_EDGE('',*,*,#1028,.T.);
#1028 = EDGE_CURVE('',#1021,#1021,#1029,.T.);
#1029 = CIRCLE('',#1030,1.6);
#1030 = AXIS2_PLACEMENT_3D('',#1031,#1032,#1033);
#1031 = CARTESIAN_POINT('',(-17.5,-0.44,-12.3));
#1032 = DIRECTION('',(0.,-1.,0.));
#1033 = DIRECTION('',(1.,0.,0.));
#1034 = ORIENTED_EDGE('',*,*,#1020,.F.);
#1035 = ORIENTED_EDGE('',*,*,#750,.F.);
#1036 = CYLINDRICAL_SURFACE('',#1037,1.6);
#1037 = AXIS2_PLACEMENT_3D('',#1038,#1039,#1040);
#1038 = CARTESIAN_POINT('',(-17.5,0.,-12.3));
#1039 = DIRECTION('',(0.,1.,0.));
#1040 = DIRECTION('',(1.,0.,0.));
#1041 = ADVANCED_FACE('',(#1042),#1061,.F.);
#1042 = FACE_BOUND('',#1043,.T.);
#1043 = EDGE_LOOP('',(#1044,#1052,#1059,#1060));
#1044 = ORIENTED_EDGE('',*,*,#1045,.T.);
#1045 = EDGE_CURVE('',#762,#1046,#1048,.T.);
#1046 = VERTEX_POINT('',#1047);
#1047 = CARTESIAN_POINT('',(-15.9,-0.44,8.1));
#1048 = LINE('',#1049,#1050);
#1049 = CARTESIAN_POINT('',(-15.9,4.E-15,8.1));
#1050 = VECTOR('',#1051,1.);
#1051 = DIRECTION('',(0.,-1.,4.4E-16));
#1052 = ORIENTED_EDGE('',*,*,#1053,.T.);
#1053 = EDGE_CURVE('',#1046,#1046,#1054,.T.);
#1054 = CIRCLE('',#1055,1.6);
#1055 = AXIS2_PLACEMENT_3D('',#1056,#1057,#1058);
#1056 = CARTESIAN_POINT('',(-17.5,-0.44,8.1));
#1057 = DIRECTION('',(0.,-1.,0.));
#1058 = DIRECTION('',(1.,0.,0.));
#1059 = ORIENTED_EDGE('',*,*,#1045,.F.);
#1060 = ORIENTED_EDGE('',*,*,#761,.F.);
#1061 = CYLINDRICAL_SURFACE('',#1062,1.6);
#1062 = AXIS2_PLACEMENT_3D('',#1063,#1064,#1065);
#1063 = CARTESIAN_POINT('',(-17.5,0.,8.1));
#1064 = DIRECTION('',(0.,1.,0.));
#1065 = DIRECTION('',(1.,0.,0.));
#1066 = ADVANCED_FACE('',(#1067,#1094,#1097,#1100,#1110,#1113),#1116,.T.
  );
#1067 = FACE_BOUND('',#1068,.T.);
#1068 = EDGE_LOOP('',(#1069,#1070,#1071,#1072,#1073,#1074,#1075,#1076,
    #1077,#1078,#1079,#1085,#1086,#1087,#1088,#1089,#1090,#1091,#1092,
    #1093));
#1069 = ORIENTED_EDGE('',*,*,#31,.T.);
#1070 = ORIENTED_EDGE('',*,*,#95,.T.);
#1071 = ORIENTED_EDGE('',*,*,#159,.T.);
#1072 = ORIENTED_EDGE('',*,*,#221,.T.);
#1073 = ORIENTED_EDGE('',*,*,#285,.T.);
#1074 = ORIENTED_EDGE('',*,*,#349,.T.);
#1075 = ORIENTED_EDGE('',*,*,#413,.T.);
#1076 = ORIENTED_EDGE('',*,*,#477,.T.);
#1077 = ORIENTED_EDGE('',*,*,#539,.T.);
#1078 = ORIENTED_EDGE('',*,*,#603,.T.);
#1079 = ORIENTED_EDGE('',*,*,#1080,.T.);
#1080 = EDGE_CURVE('',#604,#572,#1081,.T.);
#1081 = LINE('',#1082,#1083);
#1082 = CARTESIAN_POINT('',(16.,-0.44,11.5739));
#1083 = VECTOR('',#1084,1.);
#1084 = DIRECTION('',(-1.,0.,1.1E-16));
#1085 = ORIENTED_EDGE('',*,*,#579,.T.);
#1086 = ORIENTED_EDGE('',*,*,#508,.F.);
#1087 = ORIENTED_EDGE('',*,*,#446,.F.);
#1088 = ORIENTED_EDGE('',*,*,#389,.T.);
#1089 = ORIENTED_EDGE('',*,*,#327,.T.);
#1090 = ORIENTED_EDGE('',*,*,#261,.T.);
#1091 = ORIENTED_EDGE('',*,*,#190,.F.);
#1092 = ORIENTED_EDGE('',*,*,#128,.F.);
#1093 = ORIENTED_EDGE('',*,*,#71,.T.);
#1094 = FACE_BOUND('',#1095,.T.);
#1095 = EDGE_LOOP('',(#1096));
#1096 = ORIENTED_EDGE('',*,*,#786,.F.);
#1097 = FACE_BOUND('',#1098,.T.);
#1098 = EDGE_LOOP('',(#1099));
#1099 = ORIENTED_EDGE('',*,*,#811,.F.);
#1100 = FACE_BOUND('',#1101,.T.);
#1101 = EDGE_LOOP('',(#1102,#1103,#1104,#1105,#1106,#1107,#1108,#1109));
#1102 = ORIENTED_EDGE('',*,*,#836,.F.);
#1103 = ORIENTED_EDGE('',*,*,#867,.F.);
#1104 = ORIENTED_EDGE('',*,*,#915,.F.);
#1105 = ORIENTED_EDGE('',*,*,#963,.F.);
#1106 = ORIENTED_EDGE('',*,*,#1004,.F.);
#1107 = ORIENTED_EDGE('',*,*,#980,.F.);
#1108 = ORIENTED_EDGE('',*,*,#932,.F.);
#1109 = ORIENTED_EDGE('',*,*,#884,.F.);
#1110 = FACE_BOUND('',#1111,.T.);
#1111 = EDGE_LOOP('',(#1112));
#1112 = ORIENTED_EDGE('',*,*,#1028,.F.);
#1113 = FACE_BOUND('',#1114,.T.);
#1114 = EDGE_LOOP('',(#1115));
#1115 = ORIENTED_EDGE('',*,*,#1053,.F.);
#1116 = PLANE('',#1117);
#1117 = AXIS2_PLACEMENT_3D('',#1118,#1119,#1120);
#1118 = CARTESIAN_POINT('',(2.16E-15,-0.44,-2.33805));
#1119 = DIRECTION('',(0.,-1.,4.4E-16));
#1120 = DIRECTION('',(0.,4.4E-16,1.));
#1121 = ADVANCED_FACE('',(#1122),#1128,.T.);
#1122 = FACE_BOUND('',#1123,.T.);
#1123 = EDGE_LOOP('',(#1124,#1125,#1126,#1127));
#1124 = ORIENTED_EDGE('',*,*,#569,.T.);
#1125 = ORIENTED_EDGE('',*,*,#1080,.F.);
#1126 = ORIENTED_EDGE('',*,*,#612,.F.);
#1127 = ORIENTED_EDGE('',*,*,#645,.T.);
#1128 = PLANE('',#1129);
#1129 = AXIS2_PLACEMENT_3D('',#1130,#1131,#1132);
#1130 = CARTESIAN_POINT('',(1.1E-16,-0.22,11.5739));
#1131 = DIRECTION('',(0.,0.,1.));
#1132 = DIRECTION('',(1.,0.,-0.));
#1133 = ( GEOMETRIC_REPRESENTATION_CONTEXT(3) 
GLOBAL_UNCERTAINTY_ASSIGNED_CONTEXT((#1137)) 
GLOBAL_UNIT_ASSIGNED_CONTEXT((#1134,#1135,#1136)) REPRESENTATION_CONTEXT
('Context #1','3D Context with UNIT and UNCERTAINTY') );
#1134 = ( LENGTH_UNIT() NAMED_UNIT(*) SI_UNIT(.MILLI.,.METRE.) );
#1135 = ( NAMED_UNIT(*) PLANE_ANGLE_UNIT() SI_UNIT($,.RADIAN.) );
#1136 = ( NAMED_UNIT(*) SI_UNIT($,.STERADIAN.) SOLID_ANGLE_UNIT() );
#1137 = UNCERTAINTY_MEASURE_WITH_UNIT(LENGTH_MEASURE(1.E-07),#1134,
  'distance_accuracy_value','confusion accuracy');
#1138 = PRODUCT_RELATED_PRODUCT_CATEGORY('part',$,(#7));
#1139 = MECHANICAL_DESIGN_GEOMETRIC_PRESENTATION_REPRESENTATION('',(
    #1140),#1133);
#1140 = STYLED_ITEM('color',(#1141),#15);
#1141 = PRESENTATION_STYLE_ASSIGNMENT((#1142,#1148));
#1142 = SURFACE_STYLE_USAGE(.BOTH.,#1143);
#1143 = SURFACE_SIDE_STYLE('',(#1144));
#1144 = SURFACE_STYLE_FILL_AREA(#1145);
#1145 = FILL_AREA_STYLE('',(#1146));
#1146 = FILL_AREA_STYLE_COLOUR('',#1147);
#1147 = COLOUR_RGB('',0.447058818107,0.474509808674,0.501960817233);
#1148 = CURVE_STYLE('',#1149,POSITIVE_LENGTH_MEASURE(0.1),#1150);
#1149 = DRAUGHTING_PRE_DEFINED_CURVE_FONT('continuous');
#1150 = COLOUR_RGB('',9.803921802644E-02,9.803921802644E-02,
  9.803921802644E-02);
ENDSEC;
END-ISO-10303-21;
