ISO-10303-21;
HEADER;
FILE_DESCRIPTION(('FreeCAD Model'),'2;1');
FILE_NAME('Open CASCADE Shape Model','2025-11-02T18:42:38',(''),(''),
  'Open CASCADE STEP processor 7.8','FreeCAD','Unknown');
FILE_SCHEMA(('AUTOMOTIVE_DESIGN { 1 0 10303 214 1 1 1 1 }'));
ENDSEC;
DATA;
#1 = APPLICATION_PROTOCOL_DEFINITION('international standard',
  'automotive_design',2000,#2);
#2 = APPLICATION_CONTEXT(
  'core data for automotive mechanical design processes');
#3 = SHAPE_DEFINITION_REPRESENTATION(#4,#10);
#4 = PRODUCT_DEFINITION_SHAPE('','',#5);
#5 = PRODUCT_DEFINITION('design','',#6,#9);
#6 = PRODUCT_DEFINITION_FORMATION('','',#7);
#7 = PRODUCT('ButtonCover','ButtonCover','',(#8));
#8 = PRODUCT_CONTEXT('',#2,'mechanical');
#9 = PRODUCT_DEFINITION_CONTEXT('part definition',#2,'design');
#10 = ADVANCED_BREP_SHAPE_REPRESENTATION('',(#11,#15),#1058);
#11 = AXIS2_PLACEMENT_3D('',#12,#13,#14);
#12 = CARTESIAN_POINT('',(0.,0.,0.));
#13 = DIRECTION('',(0.,0.,1.));
#14 = DIRECTION('',(1.,0.,-0.));
#15 = MANIFOLD_SOLID_BREP('',#16);
#16 = CLOSED_SHELL('',(#17,#59,#90,#124,#172,#203,#228,#251,#275,#333,
    #351,#446,#462,#474,#504,#529,#554,#579,#611,#635,#659,#684,#709,
    #733,#757,#775,#784,#793,#802,#854,#886,#910,#935,#952,#982,#1005,
    #1029,#1046));
#17 = ADVANCED_FACE('',(#18),#54,.T.);
#18 = FACE_BOUND('',#19,.F.);
#19 = EDGE_LOOP('',(#20,#30,#39,#47));
#20 = ORIENTED_EDGE('',*,*,#21,.T.);
#21 = EDGE_CURVE('',#22,#24,#26,.T.);
#22 = VERTEX_POINT('',#23);
#23 = CARTESIAN_POINT('',(22.75,24.5,-5.08805));
#24 = VERTEX_POINT('',#25);
#25 = CARTESIAN_POINT('',(22.76,24.5,-5.08805));
#26 = LINE('',#27,#28);
#27 = CARTESIAN_POINT('',(22.75,24.5,-5.08805));
#28 = VECTOR('',#29,1.);
#29 = DIRECTION('',(1.,0.,0.));
#30 = ORIENTED_EDGE('',*,*,#31,.T.);
#31 = EDGE_CURVE('',#24,#32,#34,.T.);
#32 = VERTEX_POINT('',#33);
#33 = CARTESIAN_POINT('',(22.76,24.5,1.31195));
#34 = CIRCLE('',#35,3.2);
#35 = AXIS2_PLACEMENT_3D('',#36,#37,#38);
#36 = CARTESIAN_POINT('',(22.76,24.5,-1.88805));
#37 = DIRECTION('',(1.,-0.,0.));
#38 = DIRECTION('',(0.,0.,-1.));
#39 = ORIENTED_EDGE('',*,*,#40,.F.);
#40 = EDGE_CURVE('',#41,#32,#43,.T.);
#41 = VERTEX_POINT('',#42);
#42 = CARTESIAN_POINT('',(22.75,24.5,1.31195));
#43 = LINE('',#44,#45);
#44 = CARTESIAN_POINT('',(22.75,24.5,1.31195));
#45 = VECTOR('',#46,1.);
#46 = DIRECTION('',(1.,0.,0.));
#47 = ORIENTED_EDGE('',*,*,#48,.F.);
#48 = EDGE_CURVE('',#22,#41,#49,.T.);
#49 = CIRCLE('',#50,3.2);
#50 = AXIS2_PLACEMENT_3D('',#51,#52,#53);
#51 = CARTESIAN_POINT('',(22.75,24.5,-1.88805));
#52 = DIRECTION('',(1.,0.,0.));
#53 = DIRECTION('',(0.,1.,0.));
#54 = CYLINDRICAL_SURFACE('',#55,3.2);
#55 = AXIS2_PLACEMENT_3D('',#56,#57,#58);
#56 = CARTESIAN_POINT('',(22.75,24.5,-1.88805));
#57 = DIRECTION('',(-1.,-0.,-0.));
#58 = DIRECTION('',(0.,1.,0.));
#59 = ADVANCED_FACE('',(#60),#85,.T.);
#60 = FACE_BOUND('',#61,.T.);
#61 = EDGE_LOOP('',(#62,#63,#71,#79));
#62 = ORIENTED_EDGE('',*,*,#21,.T.);
#63 = ORIENTED_EDGE('',*,*,#64,.F.);
#64 = EDGE_CURVE('',#65,#24,#67,.T.);
#65 = VERTEX_POINT('',#66);
#66 = CARTESIAN_POINT('',(22.76,10.499981225949,-5.088049999945));
#67 = LINE('',#68,#69);
#68 = CARTESIAN_POINT('',(22.76,10.499981225949,-5.08805));
#69 = VECTOR('',#70,1.);
#70 = DIRECTION('',(0.,1.,0.));
#71 = ORIENTED_EDGE('',*,*,#72,.F.);
#72 = EDGE_CURVE('',#73,#65,#75,.T.);
#73 = VERTEX_POINT('',#74);
#74 = CARTESIAN_POINT('',(22.75,10.499981225949,-5.088049999972));
#75 = LINE('',#76,#77);
#76 = CARTESIAN_POINT('',(22.75,10.499981225949,-5.088049999972));
#77 = VECTOR('',#78,1.);
#78 = DIRECTION('',(1.,0.,0.));
#79 = ORIENTED_EDGE('',*,*,#80,.F.);
#80 = EDGE_CURVE('',#22,#73,#81,.T.);
#81 = LINE('',#82,#83);
#82 = CARTESIAN_POINT('',(22.75,24.5,-5.08805));
#83 = VECTOR('',#84,1.);
#84 = DIRECTION('',(0.,-1.,0.));
#85 = PLANE('',#86);
#86 = AXIS2_PLACEMENT_3D('',#87,#88,#89);
#87 = CARTESIAN_POINT('',(22.75,24.5,-5.08805));
#88 = DIRECTION('',(0.,0.,-1.));
#89 = DIRECTION('',(0.,-1.,0.));
#90 = ADVANCED_FACE('',(#91),#119,.T.);
#91 = FACE_BOUND('',#92,.T.);
#92 = EDGE_LOOP('',(#93,#102,#103,#112));
#93 = ORIENTED_EDGE('',*,*,#94,.F.);
#94 = EDGE_CURVE('',#24,#95,#97,.T.);
#95 = VERTEX_POINT('',#96);
#96 = CARTESIAN_POINT('',(23.5,24.5,-4.34805));
#97 = CIRCLE('',#98,0.74);
#98 = AXIS2_PLACEMENT_3D('',#99,#100,#101);
#99 = CARTESIAN_POINT('',(22.76,24.5,-4.34805));
#100 = DIRECTION('',(0.,-1.,0.));
#101 = DIRECTION('',(0.,0.,-1.));
#102 = ORIENTED_EDGE('',*,*,#31,.T.);
#103 = ORIENTED_EDGE('',*,*,#104,.T.);
#104 = EDGE_CURVE('',#32,#105,#107,.T.);
#105 = VERTEX_POINT('',#106);
#106 = CARTESIAN_POINT('',(23.5,24.5,0.57195));
#107 = CIRCLE('',#108,0.74);
#108 = AXIS2_PLACEMENT_3D('',#109,#110,#111);
#109 = CARTESIAN_POINT('',(22.76,24.5,0.57195));
#110 = DIRECTION('',(0.,1.,-1.2E-16));
#111 = DIRECTION('',(0.,1.2E-16,1.));
#112 = ORIENTED_EDGE('',*,*,#113,.F.);
#113 = EDGE_CURVE('',#95,#105,#114,.T.);
#114 = CIRCLE('',#115,2.46);
#115 = AXIS2_PLACEMENT_3D('',#116,#117,#118);
#116 = CARTESIAN_POINT('',(23.5,24.5,-1.88805));
#117 = DIRECTION('',(1.,-0.,0.));
#118 = DIRECTION('',(0.,0.,-1.));
#119 = TOROIDAL_SURFACE('',#120,2.46,0.74);
#120 = AXIS2_PLACEMENT_3D('',#121,#122,#123);
#121 = CARTESIAN_POINT('',(22.76,24.5,-1.88805));
#122 = DIRECTION('',(1.,0.,0.));
#123 = DIRECTION('',(0.,0.,-1.));
#124 = ADVANCED_FACE('',(#125),#149,.T.);
#125 = FACE_BOUND('',#126,.T.);
#126 = EDGE_LOOP('',(#127,#138,#143,#144));
#127 = ORIENTED_EDGE('',*,*,#128,.T.);
#128 = EDGE_CURVE('',#129,#131,#133,.T.);
#129 = VERTEX_POINT('',#130);
#130 = CARTESIAN_POINT('',(21.,24.49999998198,-5.88805));
#131 = VERTEX_POINT('',#132);
#132 = CARTESIAN_POINT('',(21.,24.5,2.11195));
#133 = CIRCLE('',#134,4.);
#134 = AXIS2_PLACEMENT_3D('',#135,#136,#137);
#135 = CARTESIAN_POINT('',(21.,24.5,-1.88805));
#136 = DIRECTION('',(1.,0.,0.));
#137 = DIRECTION('',(0.,1.,0.));
#138 = ORIENTED_EDGE('',*,*,#139,.T.);
#139 = EDGE_CURVE('',#131,#41,#140,.T.);
#140 = B_SPLINE_CURVE_WITH_KNOTS('',1,(#141,#142),.UNSPECIFIED.,.F.,.F.,
  (2,2),(0.,1.),.PIECEWISE_BEZIER_KNOTS.);
#141 = CARTESIAN_POINT('',(21.,24.5,2.11195));
#142 = CARTESIAN_POINT('',(22.75,24.5,1.31195));
#143 = ORIENTED_EDGE('',*,*,#48,.F.);
#144 = ORIENTED_EDGE('',*,*,#145,.F.);
#145 = EDGE_CURVE('',#129,#22,#146,.T.);
#146 = B_SPLINE_CURVE_WITH_KNOTS('',1,(#147,#148),.UNSPECIFIED.,.F.,.F.,
  (2,2),(0.,1.),.PIECEWISE_BEZIER_KNOTS.);
#147 = CARTESIAN_POINT('',(21.,24.49999998198,-5.88805));
#148 = CARTESIAN_POINT('',(22.75,24.5,-5.08805));
#149 = B_SPLINE_SURFACE_WITH_KNOTS('',10,1,(
    (#150,#151)
    ,(#152,#153)
    ,(#154,#155)
    ,(#156,#157)
    ,(#158,#159)
    ,(#160,#161)
    ,(#162,#163)
    ,(#164,#165)
    ,(#166,#167)
    ,(#168,#169)
    ,(#170,#171
    )),.UNSPECIFIED.,.F.,.F.,.F.,(11,11),(2,2),(4.71238897588,
    7.853981633974),(0.,1.),.PIECEWISE_BEZIER_KNOTS.);
#150 = CARTESIAN_POINT('',(21.,24.49999998198,-5.88805));
#151 = CARTESIAN_POINT('',(22.75,24.5,-5.08805));
#152 = CARTESIAN_POINT('',(20.999999999999,25.756637045217,
    -5.888050005661));
#153 = CARTESIAN_POINT('',(22.75,25.505309649149,-5.08805));
#154 = CARTESIAN_POINT('',(21.000000000003,27.013274001282,
    -5.449402116992));
#155 = CARTESIAN_POINT('',(22.75,26.510619210974,-4.737131685542));
#156 = CARTESIAN_POINT('',(20.999999999994,28.097654949247,
    -4.572095465318));
#157 = CARTESIAN_POINT('',(22.75,27.378123965344,-4.035286362309));
#158 = CARTESIAN_POINT('',(21.000000000008,28.837516056001,
    -3.333487827964));
#159 = CARTESIAN_POINT('',(22.750000000001,27.970012846611,
    -3.044400252421));
#160 = CARTESIAN_POINT('',(20.999999999993,29.10110580436,
    -1.888050010363));
#161 = CARTESIAN_POINT('',(22.749999999999,28.180884641978,-1.88805));
#162 = CARTESIAN_POINT('',(21.000000000005,28.83751606251,
    -0.442612191579));
#163 = CARTESIAN_POINT('',(22.750000000002,27.970012846612,
    -0.731699747579));
#164 = CARTESIAN_POINT('',(20.999999999997,28.097654961343,
    0.795995449112));
#165 = CARTESIAN_POINT('',(22.749999999999,27.378123965343,
    0.259186362309));
#166 = CARTESIAN_POINT('',(21.000000000001,27.013274017323,
    1.673302105669));
#167 = CARTESIAN_POINT('',(22.75,26.510619210975,0.961031685542));
#168 = CARTESIAN_POINT('',(21.,25.756637063238,2.11195));
#169 = CARTESIAN_POINT('',(22.75,25.505309649149,1.31195));
#170 = CARTESIAN_POINT('',(21.,24.5,2.11195));
#171 = CARTESIAN_POINT('',(22.75,24.5,1.31195));
#172 = ADVANCED_FACE('',(#173),#198,.T.);
#173 = FACE_BOUND('',#174,.T.);
#174 = EDGE_LOOP('',(#175,#185,#191,#192));
#175 = ORIENTED_EDGE('',*,*,#176,.T.);
#176 = EDGE_CURVE('',#177,#179,#181,.T.);
#177 = VERTEX_POINT('',#178);
#178 = CARTESIAN_POINT('',(22.75,10.5,1.31195));
#179 = VERTEX_POINT('',#180);
#180 = CARTESIAN_POINT('',(22.76,10.5,1.31195));
#181 = LINE('',#182,#183);
#182 = CARTESIAN_POINT('',(22.75,10.5,1.31195));
#183 = VECTOR('',#184,1.);
#184 = DIRECTION('',(1.,0.,0.));
#185 = ORIENTED_EDGE('',*,*,#186,.F.);
#186 = EDGE_CURVE('',#32,#179,#187,.T.);
#187 = LINE('',#188,#189);
#188 = CARTESIAN_POINT('',(22.76,24.5,1.31195));
#189 = VECTOR('',#190,1.);
#190 = DIRECTION('',(-0.,-1.,-0.));
#191 = ORIENTED_EDGE('',*,*,#40,.F.);
#192 = ORIENTED_EDGE('',*,*,#193,.F.);
#193 = EDGE_CURVE('',#177,#41,#194,.T.);
#194 = LINE('',#195,#196);
#195 = CARTESIAN_POINT('',(22.75,10.5,1.31195));
#196 = VECTOR('',#197,1.);
#197 = DIRECTION('',(0.,1.,0.));
#198 = PLANE('',#199);
#199 = AXIS2_PLACEMENT_3D('',#200,#201,#202);
#200 = CARTESIAN_POINT('',(22.75,10.5,1.31195));
#201 = DIRECTION('',(0.,0.,1.));
#202 = DIRECTION('',(0.,1.,0.));
#203 = ADVANCED_FACE('',(#204),#223,.T.);
#204 = FACE_BOUND('',#205,.F.);
#205 = EDGE_LOOP('',(#206,#215,#221,#222));
#206 = ORIENTED_EDGE('',*,*,#207,.T.);
#207 = EDGE_CURVE('',#65,#208,#210,.T.);
#208 = VERTEX_POINT('',#209);
#209 = CARTESIAN_POINT('',(23.5,10.499985567448,-4.348049999958));
#210 = CIRCLE('',#211,0.74);
#211 = AXIS2_PLACEMENT_3D('',#212,#213,#214);
#212 = CARTESIAN_POINT('',(22.76,10.499985567448,-4.348049999958));
#213 = DIRECTION('',(0.,-0.999999999983,5.86689100066E-06));
#214 = DIRECTION('',(0.,-5.86689100066E-06,-0.999999999983));
#215 = ORIENTED_EDGE('',*,*,#216,.T.);
#216 = EDGE_CURVE('',#208,#95,#217,.T.);
#217 = LINE('',#218,#219);
#218 = CARTESIAN_POINT('',(23.5,10.499981225949,-4.34805));
#219 = VECTOR('',#220,1.);
#220 = DIRECTION('',(0.,1.,0.));
#221 = ORIENTED_EDGE('',*,*,#94,.F.);
#222 = ORIENTED_EDGE('',*,*,#64,.F.);
#223 = CYLINDRICAL_SURFACE('',#224,0.74);
#224 = AXIS2_PLACEMENT_3D('',#225,#226,#227);
#225 = CARTESIAN_POINT('',(22.76,10.499981225949,-4.34805));
#226 = DIRECTION('',(0.,1.,0.));
#227 = DIRECTION('',(0.,0.,-1.));
#228 = ADVANCED_FACE('',(#229),#246,.T.);
#229 = FACE_BOUND('',#230,.T.);
#230 = EDGE_LOOP('',(#231,#239,#240,#241));
#231 = ORIENTED_EDGE('',*,*,#232,.F.);
#232 = EDGE_CURVE('',#129,#233,#235,.T.);
#233 = VERTEX_POINT('',#234);
#234 = CARTESIAN_POINT('',(21.,10.5,-5.88805));
#235 = LINE('',#236,#237);
#236 = CARTESIAN_POINT('',(21.,24.49999998198,-5.88805));
#237 = VECTOR('',#238,1.);
#238 = DIRECTION('',(0.,-1.,0.));
#239 = ORIENTED_EDGE('',*,*,#145,.T.);
#240 = ORIENTED_EDGE('',*,*,#80,.T.);
#241 = ORIENTED_EDGE('',*,*,#242,.F.);
#242 = EDGE_CURVE('',#233,#73,#243,.T.);
#243 = B_SPLINE_CURVE_WITH_KNOTS('',1,(#244,#245),.UNSPECIFIED.,.F.,.F.,
  (2,2),(0.,1.),.PIECEWISE_BEZIER_KNOTS.);
#244 = CARTESIAN_POINT('',(21.,10.5,-5.88805));
#245 = CARTESIAN_POINT('',(22.75,10.499981225949,-5.088049999945));
#246 = B_SPLINE_SURFACE_WITH_KNOTS('',1,1,(
    (#247,#248)
    ,(#249,#250
    )),.UNSPECIFIED.,.F.,.F.,.F.,(2,2),(2,2),(-14.00001877405,0.),(0.,1.
    ),.PIECEWISE_BEZIER_KNOTS.);
#247 = CARTESIAN_POINT('',(21.,10.5,-5.88805));
#248 = CARTESIAN_POINT('',(22.75,10.499981225949,-5.08805));
#249 = CARTESIAN_POINT('',(21.,24.49999998198,-5.88805));
#250 = CARTESIAN_POINT('',(22.75,24.5,-5.08805));
#251 = ADVANCED_FACE('',(#252),#270,.T.);
#252 = FACE_BOUND('',#253,.F.);
#253 = EDGE_LOOP('',(#254,#255,#262,#263));
#254 = ORIENTED_EDGE('',*,*,#176,.T.);
#255 = ORIENTED_EDGE('',*,*,#256,.T.);
#256 = EDGE_CURVE('',#179,#65,#257,.T.);
#257 = CIRCLE('',#258,3.2);
#258 = AXIS2_PLACEMENT_3D('',#259,#260,#261);
#259 = CARTESIAN_POINT('',(22.76,10.5,-1.88805));
#260 = DIRECTION('',(1.,0.,-0.));
#261 = DIRECTION('',(0.,0.,1.));
#262 = ORIENTED_EDGE('',*,*,#72,.F.);
#263 = ORIENTED_EDGE('',*,*,#264,.F.);
#264 = EDGE_CURVE('',#177,#73,#265,.T.);
#265 = CIRCLE('',#266,3.2);
#266 = AXIS2_PLACEMENT_3D('',#267,#268,#269);
#267 = CARTESIAN_POINT('',(22.75,10.5,-1.88805));
#268 = DIRECTION('',(1.,0.,0.));
#269 = DIRECTION('',(0.,1.,0.));
#270 = CYLINDRICAL_SURFACE('',#271,3.2);
#271 = AXIS2_PLACEMENT_3D('',#272,#273,#274);
#272 = CARTESIAN_POINT('',(22.75,10.5,-1.88805));
#273 = DIRECTION('',(-1.,-0.,-0.));
#274 = DIRECTION('',(0.,1.,0.));
#275 = ADVANCED_FACE('',(#276,#295,#306,#317),#328,.T.);
#276 = FACE_BOUND('',#277,.T.);
#277 = EDGE_LOOP('',(#278,#287,#288,#289));
#278 = ORIENTED_EDGE('',*,*,#279,.T.);
#279 = EDGE_CURVE('',#280,#208,#282,.T.);
#280 = VERTEX_POINT('',#281);
#281 = CARTESIAN_POINT('',(23.5,10.5,0.57195));
#282 = CIRCLE('',#283,2.46);
#283 = AXIS2_PLACEMENT_3D('',#284,#285,#286);
#284 = CARTESIAN_POINT('',(23.5,10.5,-1.88805));
#285 = DIRECTION('',(1.,0.,-0.));
#286 = DIRECTION('',(0.,0.,1.));
#287 = ORIENTED_EDGE('',*,*,#216,.T.);
#288 = ORIENTED_EDGE('',*,*,#113,.T.);
#289 = ORIENTED_EDGE('',*,*,#290,.T.);
#290 = EDGE_CURVE('',#105,#280,#291,.T.);
#291 = LINE('',#292,#293);
#292 = CARTESIAN_POINT('',(23.5,24.5,0.57195));
#293 = VECTOR('',#294,1.);
#294 = DIRECTION('',(-0.,-1.,-0.));
#295 = FACE_BOUND('',#296,.T.);
#296 = EDGE_LOOP('',(#297));
#297 = ORIENTED_EDGE('',*,*,#298,.F.);
#298 = EDGE_CURVE('',#299,#299,#301,.T.);
#299 = VERTEX_POINT('',#300);
#300 = CARTESIAN_POINT('',(23.5,25.499999999968,-1.88805));
#301 = CIRCLE('',#302,1.);
#302 = AXIS2_PLACEMENT_3D('',#303,#304,#305);
#303 = CARTESIAN_POINT('',(23.5,24.499999999968,-1.88805));
#304 = DIRECTION('',(1.,0.,0.));
#305 = DIRECTION('',(0.,1.,0.));
#306 = FACE_BOUND('',#307,.T.);
#307 = EDGE_LOOP('',(#308));
#308 = ORIENTED_EDGE('',*,*,#309,.F.);
#309 = EDGE_CURVE('',#310,#310,#312,.T.);
#310 = VERTEX_POINT('',#311);
#311 = CARTESIAN_POINT('',(23.5,18.5,-1.88805));
#312 = CIRCLE('',#313,1.);
#313 = AXIS2_PLACEMENT_3D('',#314,#315,#316);
#314 = CARTESIAN_POINT('',(23.5,17.5,-1.88805));
#315 = DIRECTION('',(1.,0.,0.));
#316 = DIRECTION('',(0.,1.,0.));
#317 = FACE_BOUND('',#318,.T.);
#318 = EDGE_LOOP('',(#319));
#319 = ORIENTED_EDGE('',*,*,#320,.F.);
#320 = EDGE_CURVE('',#321,#321,#323,.T.);
#321 = VERTEX_POINT('',#322);
#322 = CARTESIAN_POINT('',(23.5,11.5,-1.88805));
#323 = CIRCLE('',#324,1.);
#324 = AXIS2_PLACEMENT_3D('',#325,#326,#327);
#325 = CARTESIAN_POINT('',(23.5,10.5,-1.88805));
#326 = DIRECTION('',(1.,0.,0.));
#327 = DIRECTION('',(0.,1.,0.));
#328 = PLANE('',#329);
#329 = AXIS2_PLACEMENT_3D('',#330,#331,#332);
#330 = CARTESIAN_POINT('',(23.5,17.49999941484,-1.888050170525));
#331 = DIRECTION('',(1.,0.,0.));
#332 = DIRECTION('',(0.,0.,1.));
#333 = ADVANCED_FACE('',(#334),#346,.T.);
#334 = FACE_BOUND('',#335,.F.);
#335 = EDGE_LOOP('',(#336,#337,#338,#345));
#336 = ORIENTED_EDGE('',*,*,#104,.T.);
#337 = ORIENTED_EDGE('',*,*,#290,.T.);
#338 = ORIENTED_EDGE('',*,*,#339,.F.);
#339 = EDGE_CURVE('',#179,#280,#340,.T.);
#340 = CIRCLE('',#341,0.74);
#341 = AXIS2_PLACEMENT_3D('',#342,#343,#344);
#342 = CARTESIAN_POINT('',(22.76,10.5,0.57195));
#343 = DIRECTION('',(0.,1.,0.));
#344 = DIRECTION('',(0.,0.,1.));
#345 = ORIENTED_EDGE('',*,*,#186,.F.);
#346 = CYLINDRICAL_SURFACE('',#347,0.74);
#347 = AXIS2_PLACEMENT_3D('',#348,#349,#350);
#348 = CARTESIAN_POINT('',(22.76,24.5,0.57195));
#349 = DIRECTION('',(-0.,-1.,-0.));
#350 = DIRECTION('',(0.,0.,1.));
#351 = ADVANCED_FACE('',(#352,#422),#441,.T.);
#352 = FACE_BOUND('',#353,.T.);
#353 = EDGE_LOOP('',(#354,#365,#373,#382,#390,#399,#407,#416));
#354 = ORIENTED_EDGE('',*,*,#355,.T.);
#355 = EDGE_CURVE('',#356,#358,#360,.T.);
#356 = VERTEX_POINT('',#357);
#357 = CARTESIAN_POINT('',(21.,7.,2.51195));
#358 = VERTEX_POINT('',#359);
#359 = CARTESIAN_POINT('',(21.,5.65,1.16195));
#360 = CIRCLE('',#361,1.35);
#361 = AXIS2_PLACEMENT_3D('',#362,#363,#364);
#362 = CARTESIAN_POINT('',(21.,7.,1.16195));
#363 = DIRECTION('',(1.,0.,0.));
#364 = DIRECTION('',(0.,1.,0.));
#365 = ORIENTED_EDGE('',*,*,#366,.T.);
#366 = EDGE_CURVE('',#358,#367,#369,.T.);
#367 = VERTEX_POINT('',#368);
#368 = CARTESIAN_POINT('',(21.,5.65,-5.83805));
#369 = LINE('',#370,#371);
#370 = CARTESIAN_POINT('',(21.,5.65,1.16195));
#371 = VECTOR('',#372,1.);
#372 = DIRECTION('',(0.,0.,-1.));
#373 = ORIENTED_EDGE('',*,*,#374,.T.);
#374 = EDGE_CURVE('',#367,#375,#377,.T.);
#375 = VERTEX_POINT('',#376);
#376 = CARTESIAN_POINT('',(21.,7.,-7.18805));
#377 = CIRCLE('',#378,1.35);
#378 = AXIS2_PLACEMENT_3D('',#379,#380,#381);
#379 = CARTESIAN_POINT('',(21.,7.,-5.83805));
#380 = DIRECTION('',(1.,0.,0.));
#381 = DIRECTION('',(0.,1.,0.));
#382 = ORIENTED_EDGE('',*,*,#383,.T.);
#383 = EDGE_CURVE('',#375,#384,#386,.T.);
#384 = VERTEX_POINT('',#385);
#385 = CARTESIAN_POINT('',(21.,28.,-7.18805));
#386 = LINE('',#387,#388);
#387 = CARTESIAN_POINT('',(21.,7.,-7.18805));
#388 = VECTOR('',#389,1.);
#389 = DIRECTION('',(0.,1.,0.));
#390 = ORIENTED_EDGE('',*,*,#391,.T.);
#391 = EDGE_CURVE('',#384,#392,#394,.T.);
#392 = VERTEX_POINT('',#393);
#393 = CARTESIAN_POINT('',(21.,29.35,-5.83805));
#394 = CIRCLE('',#395,1.35);
#395 = AXIS2_PLACEMENT_3D('',#396,#397,#398);
#396 = CARTESIAN_POINT('',(21.,28.,-5.83805));
#397 = DIRECTION('',(1.,0.,0.));
#398 = DIRECTION('',(0.,1.,0.));
#399 = ORIENTED_EDGE('',*,*,#400,.T.);
#400 = EDGE_CURVE('',#392,#401,#403,.T.);
#401 = VERTEX_POINT('',#402);
#402 = CARTESIAN_POINT('',(21.,29.35,1.16195));
#403 = LINE('',#404,#405);
#404 = CARTESIAN_POINT('',(21.,29.35,-5.83805));
#405 = VECTOR('',#406,1.);
#406 = DIRECTION('',(0.,0.,1.));
#407 = ORIENTED_EDGE('',*,*,#408,.T.);
#408 = EDGE_CURVE('',#401,#409,#411,.T.);
#409 = VERTEX_POINT('',#410);
#410 = CARTESIAN_POINT('',(21.,28.,2.51195));
#411 = CIRCLE('',#412,1.35);
#412 = AXIS2_PLACEMENT_3D('',#413,#414,#415);
#413 = CARTESIAN_POINT('',(21.,28.,1.16195));
#414 = DIRECTION('',(1.,0.,0.));
#415 = DIRECTION('',(0.,1.,0.));
#416 = ORIENTED_EDGE('',*,*,#417,.T.);
#417 = EDGE_CURVE('',#409,#356,#418,.T.);
#418 = LINE('',#419,#420);
#419 = CARTESIAN_POINT('',(21.,28.,2.51195));
#420 = VECTOR('',#421,1.);
#421 = DIRECTION('',(0.,-1.,0.));
#422 = FACE_BOUND('',#423,.T.);
#423 = EDGE_LOOP('',(#424,#425,#426,#435));
#424 = ORIENTED_EDGE('',*,*,#128,.F.);
#425 = ORIENTED_EDGE('',*,*,#232,.T.);
#426 = ORIENTED_EDGE('',*,*,#427,.F.);
#427 = EDGE_CURVE('',#428,#233,#430,.T.);
#428 = VERTEX_POINT('',#429);
#429 = CARTESIAN_POINT('',(21.,10.5,2.11195));
#430 = CIRCLE('',#431,4.);
#431 = AXIS2_PLACEMENT_3D('',#432,#433,#434);
#432 = CARTESIAN_POINT('',(21.,10.5,-1.88805));
#433 = DIRECTION('',(1.,0.,0.));
#434 = DIRECTION('',(0.,1.,0.));
#435 = ORIENTED_EDGE('',*,*,#436,.T.);
#436 = EDGE_CURVE('',#428,#131,#437,.T.);
#437 = LINE('',#438,#439);
#438 = CARTESIAN_POINT('',(21.,10.5,2.11195));
#439 = VECTOR('',#440,1.);
#440 = DIRECTION('',(0.,1.,0.));
#441 = PLANE('',#442);
#442 = AXIS2_PLACEMENT_3D('',#443,#444,#445);
#443 = CARTESIAN_POINT('',(21.,17.5,-2.33805));
#444 = DIRECTION('',(1.,0.,0.));
#445 = DIRECTION('',(0.,0.,1.));
#446 = ADVANCED_FACE('',(#447),#457,.T.);
#447 = FACE_BOUND('',#448,.T.);
#448 = EDGE_LOOP('',(#449,#450,#455,#456));
#449 = ORIENTED_EDGE('',*,*,#436,.F.);
#450 = ORIENTED_EDGE('',*,*,#451,.T.);
#451 = EDGE_CURVE('',#428,#177,#452,.T.);
#452 = B_SPLINE_CURVE_WITH_KNOTS('',1,(#453,#454),.UNSPECIFIED.,.F.,.F.,
  (2,2),(0.,1.),.PIECEWISE_BEZIER_KNOTS.);
#453 = CARTESIAN_POINT('',(21.,10.5,2.11195));
#454 = CARTESIAN_POINT('',(22.75,10.5,1.31195));
#455 = ORIENTED_EDGE('',*,*,#193,.T.);
#456 = ORIENTED_EDGE('',*,*,#139,.F.);
#457 = PLANE('',#458);
#458 = AXIS2_PLACEMENT_3D('',#459,#460,#461);
#459 = CARTESIAN_POINT('',(22.75,10.5,1.31195));
#460 = DIRECTION('',(0.415759760268,0.,0.909474475586));
#461 = DIRECTION('',(0.,-1.,0.));
#462 = ADVANCED_FACE('',(#463),#469,.T.);
#463 = FACE_BOUND('',#464,.T.);
#464 = EDGE_LOOP('',(#465,#466,#467,#468));
#465 = ORIENTED_EDGE('',*,*,#339,.F.);
#466 = ORIENTED_EDGE('',*,*,#256,.T.);
#467 = ORIENTED_EDGE('',*,*,#207,.T.);
#468 = ORIENTED_EDGE('',*,*,#279,.F.);
#469 = TOROIDAL_SURFACE('',#470,2.46,0.74);
#470 = AXIS2_PLACEMENT_3D('',#471,#472,#473);
#471 = CARTESIAN_POINT('',(22.76,10.5,-1.88805));
#472 = DIRECTION('',(1.,0.,0.));
#473 = DIRECTION('',(0.,0.,1.));
#474 = ADVANCED_FACE('',(#475),#481,.T.);
#475 = FACE_BOUND('',#476,.T.);
#476 = EDGE_LOOP('',(#477,#478,#479,#480));
#477 = ORIENTED_EDGE('',*,*,#427,.T.);
#478 = ORIENTED_EDGE('',*,*,#242,.T.);
#479 = ORIENTED_EDGE('',*,*,#264,.F.);
#480 = ORIENTED_EDGE('',*,*,#451,.F.);
#481 = B_SPLINE_SURFACE_WITH_KNOTS('',10,1,(
    (#482,#483)
    ,(#484,#485)
    ,(#486,#487)
    ,(#488,#489)
    ,(#490,#491)
    ,(#492,#493)
    ,(#494,#495)
    ,(#496,#497)
    ,(#498,#499)
    ,(#500,#501)
    ,(#502,#503
    )),.UNSPECIFIED.,.F.,.F.,.F.,(11,11),(2,2),(1.570796326795,
    4.712388980385),(0.,1.),.PIECEWISE_BEZIER_KNOTS.);
#482 = CARTESIAN_POINT('',(21.,10.5,2.11195));
#483 = CARTESIAN_POINT('',(22.75,10.5,1.31195));
#484 = CARTESIAN_POINT('',(21.,9.243362938564,2.11195));
#485 = CARTESIAN_POINT('',(22.75,9.494692228256,1.31195));
#486 = CARTESIAN_POINT('',(20.999999999998,7.986725986281,1.673302106928
    ));
#487 = CARTESIAN_POINT('',(22.75,8.489384543836,0.961032996197));
#488 = CARTESIAN_POINT('',(21.000000000005,6.902345043322,0.795995452885
    ));
#489 = CARTESIAN_POINT('',(22.75,7.62188089482,0.259190294454));
#490 = CARTESIAN_POINT('',(20.999999999991,6.162483941733,
    -0.442612184471));
#491 = CARTESIAN_POINT('',(22.75,7.029991574794,-0.731692345913));
#492 = CARTESIAN_POINT('',(21.000000000011,5.89889419753,-1.888050000002
    ));
#493 = CARTESIAN_POINT('',(22.750000000002,6.819117327016,
    -1.888039202332));
#494 = CARTESIAN_POINT('',(20.99999999999,6.162483941733,-3.333487815525
    ));
#495 = CARTESIAN_POINT('',(22.749999999998,7.029984790629,
    -3.044387295905));
#496 = CARTESIAN_POINT('',(21.000000000006,6.902345043323,
    -4.572095452887));
#497 = CARTESIAN_POINT('',(22.750000000002,7.621868297245,
    -4.035273408806));
#498 = CARTESIAN_POINT('',(20.999999999997,7.98672598628,-5.449402106927
    ));
#499 = CARTESIAN_POINT('',(22.749999999999,8.489367828611,
    -4.737121200086));
#500 = CARTESIAN_POINT('',(21.000000000001,9.243362938564,-5.88805));
#501 = CARTESIAN_POINT('',(22.75,9.494673454223,-5.088044101914));
#502 = CARTESIAN_POINT('',(21.,10.5,-5.88805));
#503 = CARTESIAN_POINT('',(22.75,10.499981225949,-5.088049999945));
#504 = ADVANCED_FACE('',(#505),#524,.T.);
#505 = FACE_BOUND('',#506,.F.);
#506 = EDGE_LOOP('',(#507,#515,#522,#523));
#507 = ORIENTED_EDGE('',*,*,#508,.T.);
#508 = EDGE_CURVE('',#299,#509,#511,.T.);
#509 = VERTEX_POINT('',#510);
#510 = CARTESIAN_POINT('',(23.7,25.499999999968,-1.88805));
#511 = LINE('',#512,#513);
#512 = CARTESIAN_POINT('',(23.5,25.499999999968,-1.88805));
#513 = VECTOR('',#514,1.);
#514 = DIRECTION('',(1.,0.,0.));
#515 = ORIENTED_EDGE('',*,*,#516,.T.);
#516 = EDGE_CURVE('',#509,#509,#517,.T.);
#517 = CIRCLE('',#518,1.);
#518 = AXIS2_PLACEMENT_3D('',#519,#520,#521);
#519 = CARTESIAN_POINT('',(23.7,24.499999999968,-1.88805));
#520 = DIRECTION('',(1.,0.,0.));
#521 = DIRECTION('',(0.,1.,0.));
#522 = ORIENTED_EDGE('',*,*,#508,.F.);
#523 = ORIENTED_EDGE('',*,*,#298,.F.);
#524 = CYLINDRICAL_SURFACE('',#525,1.);
#525 = AXIS2_PLACEMENT_3D('',#526,#527,#528);
#526 = CARTESIAN_POINT('',(23.5,24.499999999968,-1.88805));
#527 = DIRECTION('',(-1.,-0.,-0.));
#528 = DIRECTION('',(0.,1.,0.));
#529 = ADVANCED_FACE('',(#530),#549,.T.);
#530 = FACE_BOUND('',#531,.F.);
#531 = EDGE_LOOP('',(#532,#540,#547,#548));
#532 = ORIENTED_EDGE('',*,*,#533,.T.);
#533 = EDGE_CURVE('',#310,#534,#536,.T.);
#534 = VERTEX_POINT('',#535);
#535 = CARTESIAN_POINT('',(23.7,18.5,-1.88805));
#536 = LINE('',#537,#538);
#537 = CARTESIAN_POINT('',(23.5,18.5,-1.88805));
#538 = VECTOR('',#539,1.);
#539 = DIRECTION('',(1.,0.,0.));
#540 = ORIENTED_EDGE('',*,*,#541,.T.);
#541 = EDGE_CURVE('',#534,#534,#542,.T.);
#542 = CIRCLE('',#543,1.);
#543 = AXIS2_PLACEMENT_3D('',#544,#545,#546);
#544 = CARTESIAN_POINT('',(23.7,17.5,-1.88805));
#545 = DIRECTION('',(1.,0.,0.));
#546 = DIRECTION('',(0.,1.,0.));
#547 = ORIENTED_EDGE('',*,*,#533,.F.);
#548 = ORIENTED_EDGE('',*,*,#309,.F.);
#549 = CYLINDRICAL_SURFACE('',#550,1.);
#550 = AXIS2_PLACEMENT_3D('',#551,#552,#553);
#551 = CARTESIAN_POINT('',(23.5,17.5,-1.88805));
#552 = DIRECTION('',(-1.,-0.,-0.));
#553 = DIRECTION('',(0.,1.,0.));
#554 = ADVANCED_FACE('',(#555),#574,.T.);
#555 = FACE_BOUND('',#556,.F.);
#556 = EDGE_LOOP('',(#557,#565,#572,#573));
#557 = ORIENTED_EDGE('',*,*,#558,.T.);
#558 = EDGE_CURVE('',#321,#559,#561,.T.);
#559 = VERTEX_POINT('',#560);
#560 = CARTESIAN_POINT('',(23.7,11.5,-1.88805));
#561 = LINE('',#562,#563);
#562 = CARTESIAN_POINT('',(23.5,11.5,-1.88805));
#563 = VECTOR('',#564,1.);
#564 = DIRECTION('',(1.,0.,0.));
#565 = ORIENTED_EDGE('',*,*,#566,.T.);
#566 = EDGE_CURVE('',#559,#559,#567,.T.);
#567 = CIRCLE('',#568,1.);
#568 = AXIS2_PLACEMENT_3D('',#569,#570,#571);
#569 = CARTESIAN_POINT('',(23.7,10.5,-1.88805));
#570 = DIRECTION('',(1.,0.,0.));
#571 = DIRECTION('',(0.,1.,0.));
#572 = ORIENTED_EDGE('',*,*,#558,.F.);
#573 = ORIENTED_EDGE('',*,*,#320,.F.);
#574 = CYLINDRICAL_SURFACE('',#575,1.);
#575 = AXIS2_PLACEMENT_3D('',#576,#577,#578);
#576 = CARTESIAN_POINT('',(23.5,10.5,-1.88805));
#577 = DIRECTION('',(-1.,-0.,-0.));
#578 = DIRECTION('',(0.,1.,0.));
#579 = ADVANCED_FACE('',(#580),#606,.T.);
#580 = FACE_BOUND('',#581,.F.);
#581 = EDGE_LOOP('',(#582,#590,#591,#599));
#582 = ORIENTED_EDGE('',*,*,#583,.T.);
#583 = EDGE_CURVE('',#584,#356,#586,.T.);
#584 = VERTEX_POINT('',#585);
#585 = CARTESIAN_POINT('',(19.75,7.,2.51195));
#586 = LINE('',#587,#588);
#587 = CARTESIAN_POINT('',(19.75,7.,2.51195));
#588 = VECTOR('',#589,1.);
#589 = DIRECTION('',(1.,0.,0.));
#590 = ORIENTED_EDGE('',*,*,#355,.T.);
#591 = ORIENTED_EDGE('',*,*,#592,.F.);
#592 = EDGE_CURVE('',#593,#358,#595,.T.);
#593 = VERTEX_POINT('',#594);
#594 = CARTESIAN_POINT('',(19.75,5.65,1.16195));
#595 = LINE('',#596,#597);
#596 = CARTESIAN_POINT('',(19.75,5.65,1.16195));
#597 = VECTOR('',#598,1.);
#598 = DIRECTION('',(1.,0.,0.));
#599 = ORIENTED_EDGE('',*,*,#600,.F.);
#600 = EDGE_CURVE('',#584,#593,#601,.T.);
#601 = CIRCLE('',#602,1.35);
#602 = AXIS2_PLACEMENT_3D('',#603,#604,#605);
#603 = CARTESIAN_POINT('',(19.75,7.,1.16195));
#604 = DIRECTION('',(1.,0.,0.));
#605 = DIRECTION('',(0.,1.,0.));
#606 = CYLINDRICAL_SURFACE('',#607,1.35);
#607 = AXIS2_PLACEMENT_3D('',#608,#609,#610);
#608 = CARTESIAN_POINT('',(19.75,7.,1.16195));
#609 = DIRECTION('',(-1.,-0.,-0.));
#610 = DIRECTION('',(0.,1.,0.));
#611 = ADVANCED_FACE('',(#612),#630,.F.);
#612 = FACE_BOUND('',#613,.F.);
#613 = EDGE_LOOP('',(#614,#622,#623,#624));
#614 = ORIENTED_EDGE('',*,*,#615,.T.);
#615 = EDGE_CURVE('',#616,#409,#618,.T.);
#616 = VERTEX_POINT('',#617);
#617 = CARTESIAN_POINT('',(19.75,28.,2.51195));
#618 = LINE('',#619,#620);
#619 = CARTESIAN_POINT('',(19.75,28.,2.51195));
#620 = VECTOR('',#621,1.);
#621 = DIRECTION('',(1.,0.,0.));
#622 = ORIENTED_EDGE('',*,*,#417,.T.);
#623 = ORIENTED_EDGE('',*,*,#583,.F.);
#624 = ORIENTED_EDGE('',*,*,#625,.F.);
#625 = EDGE_CURVE('',#616,#584,#626,.T.);
#626 = LINE('',#627,#628);
#627 = CARTESIAN_POINT('',(19.75,28.,2.51195));
#628 = VECTOR('',#629,1.);
#629 = DIRECTION('',(0.,-1.,0.));
#630 = PLANE('',#631);
#631 = AXIS2_PLACEMENT_3D('',#632,#633,#634);
#632 = CARTESIAN_POINT('',(19.75,28.,2.51195));
#633 = DIRECTION('',(0.,0.,-1.));
#634 = DIRECTION('',(0.,-1.,0.));
#635 = ADVANCED_FACE('',(#636),#654,.F.);
#636 = FACE_BOUND('',#637,.F.);
#637 = EDGE_LOOP('',(#638,#639,#640,#648));
#638 = ORIENTED_EDGE('',*,*,#592,.T.);
#639 = ORIENTED_EDGE('',*,*,#366,.T.);
#640 = ORIENTED_EDGE('',*,*,#641,.F.);
#641 = EDGE_CURVE('',#642,#367,#644,.T.);
#642 = VERTEX_POINT('',#643);
#643 = CARTESIAN_POINT('',(19.75,5.65,-5.83805));
#644 = LINE('',#645,#646);
#645 = CARTESIAN_POINT('',(19.75,5.65,-5.83805));
#646 = VECTOR('',#647,1.);
#647 = DIRECTION('',(1.,0.,0.));
#648 = ORIENTED_EDGE('',*,*,#649,.F.);
#649 = EDGE_CURVE('',#593,#642,#650,.T.);
#650 = LINE('',#651,#652);
#651 = CARTESIAN_POINT('',(19.75,5.65,1.16195));
#652 = VECTOR('',#653,1.);
#653 = DIRECTION('',(0.,0.,-1.));
#654 = PLANE('',#655);
#655 = AXIS2_PLACEMENT_3D('',#656,#657,#658);
#656 = CARTESIAN_POINT('',(19.75,5.65,1.16195));
#657 = DIRECTION('',(0.,1.,0.));
#658 = DIRECTION('',(0.,0.,-1.));
#659 = ADVANCED_FACE('',(#660),#679,.T.);
#660 = FACE_BOUND('',#661,.F.);
#661 = EDGE_LOOP('',(#662,#670,#671,#672));
#662 = ORIENTED_EDGE('',*,*,#663,.T.);
#663 = EDGE_CURVE('',#664,#401,#666,.T.);
#664 = VERTEX_POINT('',#665);
#665 = CARTESIAN_POINT('',(19.75,29.35,1.16195));
#666 = LINE('',#667,#668);
#667 = CARTESIAN_POINT('',(19.75,29.35,1.16195));
#668 = VECTOR('',#669,1.);
#669 = DIRECTION('',(1.,0.,0.));
#670 = ORIENTED_EDGE('',*,*,#408,.T.);
#671 = ORIENTED_EDGE('',*,*,#615,.F.);
#672 = ORIENTED_EDGE('',*,*,#673,.F.);
#673 = EDGE_CURVE('',#664,#616,#674,.T.);
#674 = CIRCLE('',#675,1.35);
#675 = AXIS2_PLACEMENT_3D('',#676,#677,#678);
#676 = CARTESIAN_POINT('',(19.75,28.,1.16195));
#677 = DIRECTION('',(1.,0.,0.));
#678 = DIRECTION('',(0.,1.,0.));
#679 = CYLINDRICAL_SURFACE('',#680,1.35);
#680 = AXIS2_PLACEMENT_3D('',#681,#682,#683);
#681 = CARTESIAN_POINT('',(19.75,28.,1.16195));
#682 = DIRECTION('',(-1.,-0.,-0.));
#683 = DIRECTION('',(0.,1.,0.));
#684 = ADVANCED_FACE('',(#685),#704,.T.);
#685 = FACE_BOUND('',#686,.F.);
#686 = EDGE_LOOP('',(#687,#688,#689,#697));
#687 = ORIENTED_EDGE('',*,*,#641,.T.);
#688 = ORIENTED_EDGE('',*,*,#374,.T.);
#689 = ORIENTED_EDGE('',*,*,#690,.F.);
#690 = EDGE_CURVE('',#691,#375,#693,.T.);
#691 = VERTEX_POINT('',#692);
#692 = CARTESIAN_POINT('',(19.75,7.,-7.18805));
#693 = LINE('',#694,#695);
#694 = CARTESIAN_POINT('',(19.75,7.,-7.18805));
#695 = VECTOR('',#696,1.);
#696 = DIRECTION('',(1.,0.,0.));
#697 = ORIENTED_EDGE('',*,*,#698,.F.);
#698 = EDGE_CURVE('',#642,#691,#699,.T.);
#699 = CIRCLE('',#700,1.35);
#700 = AXIS2_PLACEMENT_3D('',#701,#702,#703);
#701 = CARTESIAN_POINT('',(19.75,7.,-5.83805));
#702 = DIRECTION('',(1.,0.,0.));
#703 = DIRECTION('',(0.,1.,0.));
#704 = CYLINDRICAL_SURFACE('',#705,1.35);
#705 = AXIS2_PLACEMENT_3D('',#706,#707,#708);
#706 = CARTESIAN_POINT('',(19.75,7.,-5.83805));
#707 = DIRECTION('',(-1.,-0.,-0.));
#708 = DIRECTION('',(0.,1.,0.));
#709 = ADVANCED_FACE('',(#710),#728,.F.);
#710 = FACE_BOUND('',#711,.F.);
#711 = EDGE_LOOP('',(#712,#720,#721,#722));
#712 = ORIENTED_EDGE('',*,*,#713,.T.);
#713 = EDGE_CURVE('',#714,#392,#716,.T.);
#714 = VERTEX_POINT('',#715);
#715 = CARTESIAN_POINT('',(19.75,29.35,-5.83805));
#716 = LINE('',#717,#718);
#717 = CARTESIAN_POINT('',(19.75,29.35,-5.83805));
#718 = VECTOR('',#719,1.);
#719 = DIRECTION('',(1.,0.,0.));
#720 = ORIENTED_EDGE('',*,*,#400,.T.);
#721 = ORIENTED_EDGE('',*,*,#663,.F.);
#722 = ORIENTED_EDGE('',*,*,#723,.F.);
#723 = EDGE_CURVE('',#714,#664,#724,.T.);
#724 = LINE('',#725,#726);
#725 = CARTESIAN_POINT('',(19.75,29.35,-5.83805));
#726 = VECTOR('',#727,1.);
#727 = DIRECTION('',(0.,0.,1.));
#728 = PLANE('',#729);
#729 = AXIS2_PLACEMENT_3D('',#730,#731,#732);
#730 = CARTESIAN_POINT('',(19.75,29.35,-5.83805));
#731 = DIRECTION('',(0.,-1.,0.));
#732 = DIRECTION('',(0.,0.,1.));
#733 = ADVANCED_FACE('',(#734),#752,.F.);
#734 = FACE_BOUND('',#735,.F.);
#735 = EDGE_LOOP('',(#736,#737,#738,#746));
#736 = ORIENTED_EDGE('',*,*,#690,.T.);
#737 = ORIENTED_EDGE('',*,*,#383,.T.);
#738 = ORIENTED_EDGE('',*,*,#739,.F.);
#739 = EDGE_CURVE('',#740,#384,#742,.T.);
#740 = VERTEX_POINT('',#741);
#741 = CARTESIAN_POINT('',(19.75,28.,-7.18805));
#742 = LINE('',#743,#744);
#743 = CARTESIAN_POINT('',(19.75,28.,-7.18805));
#744 = VECTOR('',#745,1.);
#745 = DIRECTION('',(1.,0.,0.));
#746 = ORIENTED_EDGE('',*,*,#747,.F.);
#747 = EDGE_CURVE('',#691,#740,#748,.T.);
#748 = LINE('',#749,#750);
#749 = CARTESIAN_POINT('',(19.75,7.,-7.18805));
#750 = VECTOR('',#751,1.);
#751 = DIRECTION('',(0.,1.,0.));
#752 = PLANE('',#753);
#753 = AXIS2_PLACEMENT_3D('',#754,#755,#756);
#754 = CARTESIAN_POINT('',(19.75,7.,-7.18805));
#755 = DIRECTION('',(0.,0.,1.));
#756 = DIRECTION('',(0.,1.,0.));
#757 = ADVANCED_FACE('',(#758),#770,.T.);
#758 = FACE_BOUND('',#759,.F.);
#759 = EDGE_LOOP('',(#760,#761,#762,#763));
#760 = ORIENTED_EDGE('',*,*,#739,.T.);
#761 = ORIENTED_EDGE('',*,*,#391,.T.);
#762 = ORIENTED_EDGE('',*,*,#713,.F.);
#763 = ORIENTED_EDGE('',*,*,#764,.F.);
#764 = EDGE_CURVE('',#740,#714,#765,.T.);
#765 = CIRCLE('',#766,1.35);
#766 = AXIS2_PLACEMENT_3D('',#767,#768,#769);
#767 = CARTESIAN_POINT('',(19.75,28.,-5.83805));
#768 = DIRECTION('',(1.,0.,0.));
#769 = DIRECTION('',(0.,1.,0.));
#770 = CYLINDRICAL_SURFACE('',#771,1.35);
#771 = AXIS2_PLACEMENT_3D('',#772,#773,#774);
#772 = CARTESIAN_POINT('',(19.75,28.,-5.83805));
#773 = DIRECTION('',(-1.,-0.,-0.));
#774 = DIRECTION('',(0.,1.,0.));
#775 = ADVANCED_FACE('',(#776),#779,.T.);
#776 = FACE_BOUND('',#777,.T.);
#777 = EDGE_LOOP('',(#778));
#778 = ORIENTED_EDGE('',*,*,#516,.T.);
#779 = PLANE('',#780);
#780 = AXIS2_PLACEMENT_3D('',#781,#782,#783);
#781 = CARTESIAN_POINT('',(23.7,17.499999999989,-1.88805));
#782 = DIRECTION('',(1.,0.,0.));
#783 = DIRECTION('',(0.,0.,1.));
#784 = ADVANCED_FACE('',(#785),#788,.T.);
#785 = FACE_BOUND('',#786,.T.);
#786 = EDGE_LOOP('',(#787));
#787 = ORIENTED_EDGE('',*,*,#541,.T.);
#788 = PLANE('',#789);
#789 = AXIS2_PLACEMENT_3D('',#790,#791,#792);
#790 = CARTESIAN_POINT('',(23.7,17.499999999989,-1.88805));
#791 = DIRECTION('',(1.,0.,0.));
#792 = DIRECTION('',(0.,0.,1.));
#793 = ADVANCED_FACE('',(#794),#797,.T.);
#794 = FACE_BOUND('',#795,.T.);
#795 = EDGE_LOOP('',(#796));
#796 = ORIENTED_EDGE('',*,*,#566,.T.);
#797 = PLANE('',#798);
#798 = AXIS2_PLACEMENT_3D('',#799,#800,#801);
#799 = CARTESIAN_POINT('',(23.7,17.499999999989,-1.88805));
#800 = DIRECTION('',(1.,0.,0.));
#801 = DIRECTION('',(0.,0.,1.));
#802 = ADVANCED_FACE('',(#803,#813),#849,.F.);
#803 = FACE_BOUND('',#804,.F.);
#804 = EDGE_LOOP('',(#805,#806,#807,#808,#809,#810,#811,#812));
#805 = ORIENTED_EDGE('',*,*,#600,.T.);
#806 = ORIENTED_EDGE('',*,*,#649,.T.);
#807 = ORIENTED_EDGE('',*,*,#698,.T.);
#808 = ORIENTED_EDGE('',*,*,#747,.T.);
#809 = ORIENTED_EDGE('',*,*,#764,.T.);
#810 = ORIENTED_EDGE('',*,*,#723,.T.);
#811 = ORIENTED_EDGE('',*,*,#673,.T.);
#812 = ORIENTED_EDGE('',*,*,#625,.T.);
#813 = FACE_BOUND('',#814,.F.);
#814 = EDGE_LOOP('',(#815,#826,#834,#843));
#815 = ORIENTED_EDGE('',*,*,#816,.F.);
#816 = EDGE_CURVE('',#817,#819,#821,.T.);
#817 = VERTEX_POINT('',#818);
#818 = CARTESIAN_POINT('',(19.75,10.5,0.91195));
#819 = VERTEX_POINT('',#820);
#820 = CARTESIAN_POINT('',(19.75,10.5,-4.68805));
#821 = CIRCLE('',#822,2.8);
#822 = AXIS2_PLACEMENT_3D('',#823,#824,#825);
#823 = CARTESIAN_POINT('',(19.75,10.5,-1.88805));
#824 = DIRECTION('',(1.,0.,0.));
#825 = DIRECTION('',(0.,1.,0.));
#826 = ORIENTED_EDGE('',*,*,#827,.T.);
#827 = EDGE_CURVE('',#817,#828,#830,.T.);
#828 = VERTEX_POINT('',#829);
#829 = CARTESIAN_POINT('',(19.75,24.5,0.91195));
#830 = LINE('',#831,#832);
#831 = CARTESIAN_POINT('',(19.75,14.,0.91195));
#832 = VECTOR('',#833,1.);
#833 = DIRECTION('',(0.,1.,0.));
#834 = ORIENTED_EDGE('',*,*,#835,.F.);
#835 = EDGE_CURVE('',#836,#828,#838,.T.);
#836 = VERTEX_POINT('',#837);
#837 = CARTESIAN_POINT('',(19.75,24.5,-4.68805));
#838 = CIRCLE('',#839,2.8);
#839 = AXIS2_PLACEMENT_3D('',#840,#841,#842);
#840 = CARTESIAN_POINT('',(19.75,24.5,-1.88805));
#841 = DIRECTION('',(1.,0.,0.));
#842 = DIRECTION('',(0.,1.,0.));
#843 = ORIENTED_EDGE('',*,*,#844,.T.);
#844 = EDGE_CURVE('',#836,#819,#845,.T.);
#845 = LINE('',#846,#847);
#846 = CARTESIAN_POINT('',(19.75,21.,-4.68805));
#847 = VECTOR('',#848,1.);
#848 = DIRECTION('',(0.,-1.,0.));
#849 = PLANE('',#850);
#850 = AXIS2_PLACEMENT_3D('',#851,#852,#853);
#851 = CARTESIAN_POINT('',(19.75,17.5,-2.33805));
#852 = DIRECTION('',(1.,0.,0.));
#853 = DIRECTION('',(0.,0.,1.));
#854 = ADVANCED_FACE('',(#855),#881,.F.);
#855 = FACE_BOUND('',#856,.F.);
#856 = EDGE_LOOP('',(#857,#868,#874,#875));
#857 = ORIENTED_EDGE('',*,*,#858,.F.);
#858 = EDGE_CURVE('',#859,#861,#863,.T.);
#859 = VERTEX_POINT('',#860);
#860 = CARTESIAN_POINT('',(21.,10.5,0.91195));
#861 = VERTEX_POINT('',#862);
#862 = CARTESIAN_POINT('',(21.,10.5,-4.68805));
#863 = CIRCLE('',#864,2.8);
#864 = AXIS2_PLACEMENT_3D('',#865,#866,#867);
#865 = CARTESIAN_POINT('',(21.,10.5,-1.88805));
#866 = DIRECTION('',(1.,0.,0.));
#867 = DIRECTION('',(0.,1.,0.));
#868 = ORIENTED_EDGE('',*,*,#869,.T.);
#869 = EDGE_CURVE('',#859,#817,#870,.T.);
#870 = LINE('',#871,#872);
#871 = CARTESIAN_POINT('',(21.,10.5,0.91195));
#872 = VECTOR('',#873,1.);
#873 = DIRECTION('',(-1.,-0.,-0.));
#874 = ORIENTED_EDGE('',*,*,#816,.T.);
#875 = ORIENTED_EDGE('',*,*,#876,.F.);
#876 = EDGE_CURVE('',#861,#819,#877,.T.);
#877 = LINE('',#878,#879);
#878 = CARTESIAN_POINT('',(21.,10.5,-4.68805));
#879 = VECTOR('',#880,1.);
#880 = DIRECTION('',(-1.,-0.,-0.));
#881 = CYLINDRICAL_SURFACE('',#882,2.8);
#882 = AXIS2_PLACEMENT_3D('',#883,#884,#885);
#883 = CARTESIAN_POINT('',(21.,10.5,-1.88805));
#884 = DIRECTION('',(1.,0.,0.));
#885 = DIRECTION('',(0.,1.,0.));
#886 = ADVANCED_FACE('',(#887),#905,.T.);
#887 = FACE_BOUND('',#888,.T.);
#888 = EDGE_LOOP('',(#889,#897,#903,#904));
#889 = ORIENTED_EDGE('',*,*,#890,.F.);
#890 = EDGE_CURVE('',#891,#861,#893,.T.);
#891 = VERTEX_POINT('',#892);
#892 = CARTESIAN_POINT('',(21.,24.5,-4.68805));
#893 = LINE('',#894,#895);
#894 = CARTESIAN_POINT('',(21.,24.5,-4.68805));
#895 = VECTOR('',#896,1.);
#896 = DIRECTION('',(0.,-1.,0.));
#897 = ORIENTED_EDGE('',*,*,#898,.T.);
#898 = EDGE_CURVE('',#891,#836,#899,.T.);
#899 = LINE('',#900,#901);
#900 = CARTESIAN_POINT('',(21.,24.5,-4.68805));
#901 = VECTOR('',#902,1.);
#902 = DIRECTION('',(-1.,-0.,-0.));
#903 = ORIENTED_EDGE('',*,*,#844,.T.);
#904 = ORIENTED_EDGE('',*,*,#876,.F.);
#905 = PLANE('',#906);
#906 = AXIS2_PLACEMENT_3D('',#907,#908,#909);
#907 = CARTESIAN_POINT('',(21.,24.5,-4.68805));
#908 = DIRECTION('',(0.,0.,1.));
#909 = DIRECTION('',(0.,-1.,0.));
#910 = ADVANCED_FACE('',(#911),#930,.F.);
#911 = FACE_BOUND('',#912,.F.);
#912 = EDGE_LOOP('',(#913,#922,#923,#924));
#913 = ORIENTED_EDGE('',*,*,#914,.F.);
#914 = EDGE_CURVE('',#891,#915,#917,.T.);
#915 = VERTEX_POINT('',#916);
#916 = CARTESIAN_POINT('',(21.,24.5,0.91195));
#917 = CIRCLE('',#918,2.8);
#918 = AXIS2_PLACEMENT_3D('',#919,#920,#921);
#919 = CARTESIAN_POINT('',(21.,24.5,-1.88805));
#920 = DIRECTION('',(1.,0.,0.));
#921 = DIRECTION('',(0.,1.,0.));
#922 = ORIENTED_EDGE('',*,*,#898,.T.);
#923 = ORIENTED_EDGE('',*,*,#835,.T.);
#924 = ORIENTED_EDGE('',*,*,#925,.F.);
#925 = EDGE_CURVE('',#915,#828,#926,.T.);
#926 = LINE('',#927,#928);
#927 = CARTESIAN_POINT('',(21.,24.5,0.91195));
#928 = VECTOR('',#929,1.);
#929 = DIRECTION('',(-1.,-0.,-0.));
#930 = CYLINDRICAL_SURFACE('',#931,2.8);
#931 = AXIS2_PLACEMENT_3D('',#932,#933,#934);
#932 = CARTESIAN_POINT('',(21.,24.5,-1.88805));
#933 = DIRECTION('',(1.,0.,0.));
#934 = DIRECTION('',(0.,1.,0.));
#935 = ADVANCED_FACE('',(#936),#947,.T.);
#936 = FACE_BOUND('',#937,.T.);
#937 = EDGE_LOOP('',(#938,#944,#945,#946));
#938 = ORIENTED_EDGE('',*,*,#939,.F.);
#939 = EDGE_CURVE('',#859,#915,#940,.T.);
#940 = LINE('',#941,#942);
#941 = CARTESIAN_POINT('',(21.,10.5,0.91195));
#942 = VECTOR('',#943,1.);
#943 = DIRECTION('',(0.,1.,0.));
#944 = ORIENTED_EDGE('',*,*,#869,.T.);
#945 = ORIENTED_EDGE('',*,*,#827,.T.);
#946 = ORIENTED_EDGE('',*,*,#925,.F.);
#947 = PLANE('',#948);
#948 = AXIS2_PLACEMENT_3D('',#949,#950,#951);
#949 = CARTESIAN_POINT('',(21.,10.5,0.91195));
#950 = DIRECTION('',(0.,0.,-1.));
#951 = DIRECTION('',(0.,1.,0.));
#952 = ADVANCED_FACE('',(#953),#977,.F.);
#953 = FACE_BOUND('',#954,.F.);
#954 = EDGE_LOOP('',(#955,#956,#963,#972));
#955 = ORIENTED_EDGE('',*,*,#858,.T.);
#956 = ORIENTED_EDGE('',*,*,#957,.T.);
#957 = EDGE_CURVE('',#861,#958,#960,.T.);
#958 = VERTEX_POINT('',#959);
#959 = CARTESIAN_POINT('',(22.75,10.5,-3.88805));
#960 = B_SPLINE_CURVE_WITH_KNOTS('',1,(#961,#962),.UNSPECIFIED.,.F.,.F.,
  (2,2),(0.,1.),.PIECEWISE_BEZIER_KNOTS.);
#961 = CARTESIAN_POINT('',(21.,10.5,-4.68805));
#962 = CARTESIAN_POINT('',(22.75,10.5,-3.88805));
#963 = ORIENTED_EDGE('',*,*,#964,.F.);
#964 = EDGE_CURVE('',#965,#958,#967,.T.);
#965 = VERTEX_POINT('',#966);
#966 = CARTESIAN_POINT('',(22.75,10.5,0.11195));
#967 = CIRCLE('',#968,2.);
#968 = AXIS2_PLACEMENT_3D('',#969,#970,#971);
#969 = CARTESIAN_POINT('',(22.75,10.5,-1.88805));
#970 = DIRECTION('',(1.,0.,0.));
#971 = DIRECTION('',(0.,1.,0.));
#972 = ORIENTED_EDGE('',*,*,#973,.F.);
#973 = EDGE_CURVE('',#859,#965,#974,.T.);
#974 = B_SPLINE_CURVE_WITH_KNOTS('',1,(#975,#976),.UNSPECIFIED.,.F.,.F.,
  (2,2),(0.,1.),.PIECEWISE_BEZIER_KNOTS.);
#975 = CARTESIAN_POINT('',(21.,10.5,0.91195));
#976 = CARTESIAN_POINT('',(22.75,10.5,0.11195));
#977 = CONICAL_SURFACE('',#978,2.8,0.428778027446);
#978 = AXIS2_PLACEMENT_3D('',#979,#980,#981);
#979 = CARTESIAN_POINT('',(21.,10.5,-1.88805));
#980 = DIRECTION('',(-1.,-0.,-0.));
#981 = DIRECTION('',(0.,1.,0.));
#982 = ADVANCED_FACE('',(#983),#1000,.F.);
#983 = FACE_BOUND('',#984,.F.);
#984 = EDGE_LOOP('',(#985,#986,#993,#999));
#985 = ORIENTED_EDGE('',*,*,#890,.F.);
#986 = ORIENTED_EDGE('',*,*,#987,.T.);
#987 = EDGE_CURVE('',#891,#988,#990,.T.);
#988 = VERTEX_POINT('',#989);
#989 = CARTESIAN_POINT('',(22.75,24.5,-3.88805));
#990 = B_SPLINE_CURVE_WITH_KNOTS('',1,(#991,#992),.UNSPECIFIED.,.F.,.F.,
  (2,2),(0.,1.),.PIECEWISE_BEZIER_KNOTS.);
#991 = CARTESIAN_POINT('',(21.,24.5,-4.68805));
#992 = CARTESIAN_POINT('',(22.75,24.5,-3.88805));
#993 = ORIENTED_EDGE('',*,*,#994,.T.);
#994 = EDGE_CURVE('',#988,#958,#995,.T.);
#995 = LINE('',#996,#997);
#996 = CARTESIAN_POINT('',(22.75,24.5,-3.88805));
#997 = VECTOR('',#998,1.);
#998 = DIRECTION('',(0.,-1.,0.));
#999 = ORIENTED_EDGE('',*,*,#957,.F.);
#1000 = PLANE('',#1001);
#1001 = AXIS2_PLACEMENT_3D('',#1002,#1003,#1004);
#1002 = CARTESIAN_POINT('',(22.75,24.5,-3.88805));
#1003 = DIRECTION('',(0.415759760268,0.,-0.909474475586));
#1004 = DIRECTION('',(0.,1.,0.));
#1005 = ADVANCED_FACE('',(#1006),#1024,.F.);
#1006 = FACE_BOUND('',#1007,.F.);
#1007 = EDGE_LOOP('',(#1008,#1009,#1016,#1023));
#1008 = ORIENTED_EDGE('',*,*,#914,.T.);
#1009 = ORIENTED_EDGE('',*,*,#1010,.T.);
#1010 = EDGE_CURVE('',#915,#1011,#1013,.T.);
#1011 = VERTEX_POINT('',#1012);
#1012 = CARTESIAN_POINT('',(22.75,24.5,0.11195));
#1013 = B_SPLINE_CURVE_WITH_KNOTS('',1,(#1014,#1015),.UNSPECIFIED.,.F.,
  .F.,(2,2),(0.,1.),.PIECEWISE_BEZIER_KNOTS.);
#1014 = CARTESIAN_POINT('',(21.,24.5,0.91195));
#1015 = CARTESIAN_POINT('',(22.75,24.5,0.11195));
#1016 = ORIENTED_EDGE('',*,*,#1017,.F.);
#1017 = EDGE_CURVE('',#988,#1011,#1018,.T.);
#1018 = CIRCLE('',#1019,2.);
#1019 = AXIS2_PLACEMENT_3D('',#1020,#1021,#1022);
#1020 = CARTESIAN_POINT('',(22.75,24.5,-1.88805));
#1021 = DIRECTION('',(1.,0.,0.));
#1022 = DIRECTION('',(0.,1.,0.));
#1023 = ORIENTED_EDGE('',*,*,#987,.F.);
#1024 = CONICAL_SURFACE('',#1025,2.8,0.428778027446);
#1025 = AXIS2_PLACEMENT_3D('',#1026,#1027,#1028);
#1026 = CARTESIAN_POINT('',(21.,24.5,-1.88805));
#1027 = DIRECTION('',(-1.,-0.,-0.));
#1028 = DIRECTION('',(0.,1.,0.));
#1029 = ADVANCED_FACE('',(#1030),#1041,.F.);
#1030 = FACE_BOUND('',#1031,.F.);
#1031 = EDGE_LOOP('',(#1032,#1033,#1034,#1040));
#1032 = ORIENTED_EDGE('',*,*,#939,.F.);
#1033 = ORIENTED_EDGE('',*,*,#973,.T.);
#1034 = ORIENTED_EDGE('',*,*,#1035,.T.);
#1035 = EDGE_CURVE('',#965,#1011,#1036,.T.);
#1036 = LINE('',#1037,#1038);
#1037 = CARTESIAN_POINT('',(22.75,10.5,0.11195));
#1038 = VECTOR('',#1039,1.);
#1039 = DIRECTION('',(0.,1.,0.));
#1040 = ORIENTED_EDGE('',*,*,#1010,.F.);
#1041 = PLANE('',#1042);
#1042 = AXIS2_PLACEMENT_3D('',#1043,#1044,#1045);
#1043 = CARTESIAN_POINT('',(22.75,10.5,0.11195));
#1044 = DIRECTION('',(0.415759760268,0.,0.909474475586));
#1045 = DIRECTION('',(0.,-1.,0.));
#1046 = ADVANCED_FACE('',(#1047),#1053,.F.);
#1047 = FACE_BOUND('',#1048,.F.);
#1048 = EDGE_LOOP('',(#1049,#1050,#1051,#1052));
#1049 = ORIENTED_EDGE('',*,*,#1035,.F.);
#1050 = ORIENTED_EDGE('',*,*,#964,.T.);
#1051 = ORIENTED_EDGE('',*,*,#994,.F.);
#1052 = ORIENTED_EDGE('',*,*,#1017,.T.);
#1053 = PLANE('',#1054);
#1054 = AXIS2_PLACEMENT_3D('',#1055,#1056,#1057);
#1055 = CARTESIAN_POINT('',(22.75,17.49999941484,-1.888050170525));
#1056 = DIRECTION('',(1.,0.,0.));
#1057 = DIRECTION('',(0.,0.,1.));
#1058 = ( GEOMETRIC_REPRESENTATION_CONTEXT(3) 
GLOBAL_UNCERTAINTY_ASSIGNED_CONTEXT((#1062)) 
GLOBAL_UNIT_ASSIGNED_CONTEXT((#1059,#1060,#1061)) REPRESENTATION_CONTEXT
('Context #1','3D Context with UNIT and UNCERTAINTY') );
#1059 = ( LENGTH_UNIT() NAMED_UNIT(*) SI_UNIT(.MILLI.,.METRE.) );
#1060 = ( NAMED_UNIT(*) PLANE_ANGLE_UNIT() SI_UNIT($,.RADIAN.) );
#1061 = ( NAMED_UNIT(*) SI_UNIT($,.STERADIAN.) SOLID_ANGLE_UNIT() );
#1062 = UNCERTAINTY_MEASURE_WITH_UNIT(LENGTH_MEASURE(2.E-06),#1059,
  'distance_accuracy_value','confusion accuracy');
#1063 = PRODUCT_RELATED_PRODUCT_CATEGORY('part',$,(#7));
#1064 = MECHANICAL_DESIGN_GEOMETRIC_PRESENTATION_REPRESENTATION('',(
    #1065),#1058);
#1065 = STYLED_ITEM('color',(#1066),#15);
#1066 = PRESENTATION_STYLE_ASSIGNMENT((#1067,#1073));
#1067 = SURFACE_STYLE_USAGE(.BOTH.,#1068);
#1068 = SURFACE_SIDE_STYLE('',(#1069));
#1069 = SURFACE_STYLE_FILL_AREA(#1070);
#1070 = FILL_AREA_STYLE('',(#1071));
#1071 = FILL_AREA_STYLE_COLOUR('',#1072);
#1072 = COLOUR_RGB('',0.192156865571,0.388235295535,0.560784336289);
#1073 = CURVE_STYLE('',#1074,POSITIVE_LENGTH_MEASURE(0.1),#1075);
#1074 = DRAUGHTING_PRE_DEFINED_CURVE_FONT('continuous');
#1075 = COLOUR_RGB('',9.803921802644E-02,9.803921802644E-02,
  9.803921802644E-02);
ENDSEC;
END-ISO-10303-21;
