ISO-10303-21;
HEADER;
FILE_DESCRIPTION(('FreeCAD Model'),'2;1');
FILE_NAME('Open CASCADE Shape Model','2025-12-24T02:00:34',(''),(''),
  'Open CASCADE STEP processor 7.8','FreeCAD','Unknown');
FILE_SCHEMA(('AUTOMOTIVE_DESIGN { 1 0 10303 214 1 1 1 1 }'));
ENDSEC;
DATA;
#1 = APPLICATION_PROTOCOL_DEFINITION('international standard',
  'automotive_design',2000,#2);
#2 = APPLICATION_CONTEXT(
  'core data for automotive mechanical design processes');
#3 = SHAPE_DEFINITION_REPRESENTATION(#4,#10);
#4 = PRODUCT_DEFINITION_SHAPE('','',#5);
#5 = PRODUCT_DEFINITION('design','',#6,#9);
#6 = PRODUCT_DEFINITION_FORMATION('','',#7);
#7 = PRODUCT('Stem','Stem','',(#8));
#8 = PRODUCT_CONTEXT('',#2,'mechanical');
#9 = PRODUCT_DEFINITION_CONTEXT('part definition',#2,'design');
#10 = ADVANCED_BREP_SHAPE_REPRESENTATION('',(#11,#15),#1738);
#11 = AXIS2_PLACEMENT_3D('',#12,#13,#14);
#12 = CARTESIAN_POINT('',(0.,0.,0.));
#13 = DIRECTION('',(0.,0.,1.));
#14 = DIRECTION('',(1.,0.,-0.));
#15 = MANIFOLD_SOLID_BREP('',#16);
#16 = CLOSED_SHELL('',(#17,#102,#133,#158,#251,#275,#299,#317,#349,#373,
    #390,#431,#479,#504,#553,#597,#628,#652,#681,#698,#720,#737,#749,
    #767,#799,#837,#861,#895,#923,#969,#1124,#1153,#1176,#1199,#1216,
    #1247,#1271,#1295,#1319,#1343,#1367,#1391,#1415,#1439,#1463,#1487,
    #1504,#1529,#1554,#1579,#1604,#1635,#1659,#1683,#1700));
#17 = ADVANCED_FACE('',(#18,#70),#97,.T.);
#18 = FACE_BOUND('',#19,.T.);
#19 = EDGE_LOOP('',(#20,#30,#38,#46,#55,#63));
#20 = ORIENTED_EDGE('',*,*,#21,.T.);
#21 = EDGE_CURVE('',#22,#24,#26,.T.);
#22 = VERTEX_POINT('',#23);
#23 = CARTESIAN_POINT('',(-2.5,-12.0675,37.9239));
#24 = VERTEX_POINT('',#25);
#25 = CARTESIAN_POINT('',(-2.5,-12.0675,40.8239));
#26 = LINE('',#27,#28);
#27 = CARTESIAN_POINT('',(-2.5,-12.0675,35.7239));
#28 = VECTOR('',#29,1.);
#29 = DIRECTION('',(0.,0.,1.));
#30 = ORIENTED_EDGE('',*,*,#31,.T.);
#31 = EDGE_CURVE('',#24,#32,#34,.T.);
#32 = VERTEX_POINT('',#33);
#33 = CARTESIAN_POINT('',(2.5,-12.0675,40.8239));
#34 = LINE('',#35,#36);
#35 = CARTESIAN_POINT('',(-2.5,-12.0675,40.8239));
#36 = VECTOR('',#37,1.);
#37 = DIRECTION('',(1.,0.,0.));
#38 = ORIENTED_EDGE('',*,*,#39,.F.);
#39 = EDGE_CURVE('',#40,#32,#42,.T.);
#40 = VERTEX_POINT('',#41);
#41 = CARTESIAN_POINT('',(2.5,-12.0675,37.9239));
#42 = LINE('',#43,#44);
#43 = CARTESIAN_POINT('',(2.5,-12.0675,35.7239));
#44 = VECTOR('',#45,1.);
#45 = DIRECTION('',(0.,0.,1.));
#46 = ORIENTED_EDGE('',*,*,#47,.T.);
#47 = EDGE_CURVE('',#40,#48,#50,.T.);
#48 = VERTEX_POINT('',#49);
#49 = CARTESIAN_POINT('',(0.3,-12.0675,35.7239));
#50 = CIRCLE('',#51,2.2);
#51 = AXIS2_PLACEMENT_3D('',#52,#53,#54);
#52 = CARTESIAN_POINT('',(0.3,-12.0675,37.9239));
#53 = DIRECTION('',(0.,1.,0.));
#54 = DIRECTION('',(0.,0.,1.));
#55 = ORIENTED_EDGE('',*,*,#56,.F.);
#56 = EDGE_CURVE('',#57,#48,#59,.T.);
#57 = VERTEX_POINT('',#58);
#58 = CARTESIAN_POINT('',(-0.3,-12.0675,35.7239));
#59 = LINE('',#60,#61);
#60 = CARTESIAN_POINT('',(-2.5,-12.0675,35.7239));
#61 = VECTOR('',#62,1.);
#62 = DIRECTION('',(1.,0.,0.));
#63 = ORIENTED_EDGE('',*,*,#64,.F.);
#64 = EDGE_CURVE('',#22,#57,#65,.T.);
#65 = CIRCLE('',#66,2.2);
#66 = AXIS2_PLACEMENT_3D('',#67,#68,#69);
#67 = CARTESIAN_POINT('',(-0.3,-12.0675,37.9239));
#68 = DIRECTION('',(0.,-1.,0.));
#69 = DIRECTION('',(0.,0.,-1.));
#70 = FACE_BOUND('',#71,.T.);
#71 = EDGE_LOOP('',(#72,#83,#91));
#72 = ORIENTED_EDGE('',*,*,#73,.F.);
#73 = EDGE_CURVE('',#74,#76,#78,.T.);
#74 = VERTEX_POINT('',#75);
#75 = CARTESIAN_POINT('',(0.514230087749,-12.0675,38.936735554495));
#76 = VERTEX_POINT('',#77);
#77 = CARTESIAN_POINT('',(-0.514230087749,-12.0675,38.936735554495));
#78 = CIRCLE('',#79,0.8);
#79 = AXIS2_PLACEMENT_3D('',#80,#81,#82);
#80 = CARTESIAN_POINT('',(0.,-12.0675,38.3239));
#81 = DIRECTION('',(0.,1.,-2.22044604925E-16));
#82 = DIRECTION('',(1.,0.,0.));
#83 = ORIENTED_EDGE('',*,*,#84,.F.);
#84 = EDGE_CURVE('',#85,#74,#87,.T.);
#85 = VERTEX_POINT('',#86);
#86 = CARTESIAN_POINT('',(0.,-12.0675,39.368225831467));
#87 = LINE('',#88,#89);
#88 = CARTESIAN_POINT('',(0.163709972293,-12.0675,39.230856854096));
#89 = VECTOR('',#90,1.);
#90 = DIRECTION('',(0.766044443118,0.,-0.642787609687));
#91 = ORIENTED_EDGE('',*,*,#92,.F.);
#92 = EDGE_CURVE('',#76,#85,#93,.T.);
#93 = LINE('',#94,#95);
#94 = CARTESIAN_POINT('',(-1.887885238248,-12.0675,37.784102024344));
#95 = VECTOR('',#96,1.);
#96 = DIRECTION('',(0.766044443118,0.,0.642787609687));
#97 = PLANE('',#98);
#98 = AXIS2_PLACEMENT_3D('',#99,#100,#101);
#99 = CARTESIAN_POINT('',(-2.5,-12.0675,35.7239));
#100 = DIRECTION('',(0.,1.,0.));
#101 = DIRECTION('',(1.,0.,0.));
#102 = ADVANCED_FACE('',(#103),#128,.T.);
#103 = FACE_BOUND('',#104,.T.);
#104 = EDGE_LOOP('',(#105,#115,#121,#122));
#105 = ORIENTED_EDGE('',*,*,#106,.T.);
#106 = EDGE_CURVE('',#107,#109,#111,.T.);
#107 = VERTEX_POINT('',#108);
#108 = CARTESIAN_POINT('',(-2.5,-10.5675,37.9239));
#109 = VERTEX_POINT('',#110);
#110 = CARTESIAN_POINT('',(-2.5,-10.5675,40.8239));
#111 = LINE('',#112,#113);
#112 = CARTESIAN_POINT('',(-2.5,-10.5675,35.7239));
#113 = VECTOR('',#114,1.);
#114 = DIRECTION('',(0.,0.,1.));
#115 = ORIENTED_EDGE('',*,*,#116,.T.);
#116 = EDGE_CURVE('',#109,#24,#117,.T.);
#117 = LINE('',#118,#119);
#118 = CARTESIAN_POINT('',(-2.5,-10.5675,40.8239));
#119 = VECTOR('',#120,1.);
#120 = DIRECTION('',(0.,-1.,0.));
#121 = ORIENTED_EDGE('',*,*,#21,.F.);
#122 = ORIENTED_EDGE('',*,*,#123,.F.);
#123 = EDGE_CURVE('',#107,#22,#124,.T.);
#124 = LINE('',#125,#126);
#125 = CARTESIAN_POINT('',(-2.5,-10.5675,37.9239));
#126 = VECTOR('',#127,1.);
#127 = DIRECTION('',(0.,-1.,0.));
#128 = PLANE('',#129);
#129 = AXIS2_PLACEMENT_3D('',#130,#131,#132);
#130 = CARTESIAN_POINT('',(-2.5,-10.5675,35.7239));
#131 = DIRECTION('',(1.,0.,0.));
#132 = DIRECTION('',(0.,-1.,0.));
#133 = ADVANCED_FACE('',(#134),#153,.F.);
#134 = FACE_BOUND('',#135,.F.);
#135 = EDGE_LOOP('',(#136,#145,#151,#152));
#136 = ORIENTED_EDGE('',*,*,#137,.T.);
#137 = EDGE_CURVE('',#107,#138,#140,.T.);
#138 = VERTEX_POINT('',#139);
#139 = CARTESIAN_POINT('',(-0.3,-10.5675,35.7239));
#140 = CIRCLE('',#141,2.2);
#141 = AXIS2_PLACEMENT_3D('',#142,#143,#144);
#142 = CARTESIAN_POINT('',(-0.3,-10.5675,37.9239));
#143 = DIRECTION('',(0.,-1.,0.));
#144 = DIRECTION('',(0.,0.,-1.));
#145 = ORIENTED_EDGE('',*,*,#146,.T.);
#146 = EDGE_CURVE('',#138,#57,#147,.T.);
#147 = LINE('',#148,#149);
#148 = CARTESIAN_POINT('',(-0.3,-10.5675,35.7239));
#149 = VECTOR('',#150,1.);
#150 = DIRECTION('',(0.,-1.,0.));
#151 = ORIENTED_EDGE('',*,*,#64,.F.);
#152 = ORIENTED_EDGE('',*,*,#123,.F.);
#153 = CYLINDRICAL_SURFACE('',#154,2.2);
#154 = AXIS2_PLACEMENT_3D('',#155,#156,#157);
#155 = CARTESIAN_POINT('',(-0.3,-10.5675,37.9239));
#156 = DIRECTION('',(0.,-1.,0.));
#157 = DIRECTION('',(-1.,0.,0.));
#158 = ADVANCED_FACE('',(#159,#194,#228),#246,.T.);
#159 = FACE_BOUND('',#160,.T.);
#160 = EDGE_LOOP('',(#161,#171,#180,#188));
#161 = ORIENTED_EDGE('',*,*,#162,.T.);
#162 = EDGE_CURVE('',#163,#165,#167,.T.);
#163 = VERTEX_POINT('',#164);
#164 = CARTESIAN_POINT('',(-3.9,-9.3325,40.8239));
#165 = VERTEX_POINT('',#166);
#166 = CARTESIAN_POINT('',(-3.9,-21.17889756943,40.8239));
#167 = LINE('',#168,#169);
#168 = CARTESIAN_POINT('',(-3.9,-9.3325,40.8239));
#169 = VECTOR('',#170,1.);
#170 = DIRECTION('',(0.,-1.,0.));
#171 = ORIENTED_EDGE('',*,*,#172,.T.);
#172 = EDGE_CURVE('',#165,#173,#175,.T.);
#173 = VERTEX_POINT('',#174);
#174 = CARTESIAN_POINT('',(3.9,-21.17889756943,40.8239));
#175 = CIRCLE('',#176,5.);
#176 = AXIS2_PLACEMENT_3D('',#177,#178,#179);
#177 = CARTESIAN_POINT('',(0.,-18.05,40.8239));
#178 = DIRECTION('',(0.,0.,1.));
#179 = DIRECTION('',(1.,0.,0.));
#180 = ORIENTED_EDGE('',*,*,#181,.T.);
#181 = EDGE_CURVE('',#173,#182,#184,.T.);
#182 = VERTEX_POINT('',#183);
#183 = CARTESIAN_POINT('',(3.9,-9.3325,40.8239));
#184 = LINE('',#185,#186);
#185 = CARTESIAN_POINT('',(3.9,-21.17889756943,40.8239));
#186 = VECTOR('',#187,1.);
#187 = DIRECTION('',(0.,1.,0.));
#188 = ORIENTED_EDGE('',*,*,#189,.T.);
#189 = EDGE_CURVE('',#182,#163,#190,.T.);
#190 = LINE('',#191,#192);
#191 = CARTESIAN_POINT('',(3.9,-9.3325,40.8239));
#192 = VECTOR('',#193,1.);
#193 = DIRECTION('',(-1.,0.,0.));
#194 = FACE_BOUND('',#195,.F.);
#195 = EDGE_LOOP('',(#196,#206,#214,#222));
#196 = ORIENTED_EDGE('',*,*,#197,.T.);
#197 = EDGE_CURVE('',#198,#200,#202,.T.);
#198 = VERTEX_POINT('',#199);
#199 = CARTESIAN_POINT('',(-2.6,-20.65,40.8239));
#200 = VERTEX_POINT('',#201);
#201 = CARTESIAN_POINT('',(2.6,-20.65,40.8239));
#202 = LINE('',#203,#204);
#203 = CARTESIAN_POINT('',(-2.6,-20.65,40.8239));
#204 = VECTOR('',#205,1.);
#205 = DIRECTION('',(1.,0.,0.));
#206 = ORIENTED_EDGE('',*,*,#207,.T.);
#207 = EDGE_CURVE('',#200,#208,#210,.T.);
#208 = VERTEX_POINT('',#209);
#209 = CARTESIAN_POINT('',(2.6,-15.45,40.8239));
#210 = LINE('',#211,#212);
#211 = CARTESIAN_POINT('',(2.6,-20.65,40.8239));
#212 = VECTOR('',#213,1.);
#213 = DIRECTION('',(0.,1.,0.));
#214 = ORIENTED_EDGE('',*,*,#215,.T.);
#215 = EDGE_CURVE('',#208,#216,#218,.T.);
#216 = VERTEX_POINT('',#217);
#217 = CARTESIAN_POINT('',(-2.6,-15.45,40.8239));
#218 = LINE('',#219,#220);
#219 = CARTESIAN_POINT('',(2.6,-15.45,40.8239));
#220 = VECTOR('',#221,1.);
#221 = DIRECTION('',(-1.,0.,0.));
#222 = ORIENTED_EDGE('',*,*,#223,.T.);
#223 = EDGE_CURVE('',#216,#198,#224,.T.);
#224 = LINE('',#225,#226);
#225 = CARTESIAN_POINT('',(-2.6,-15.45,40.8239));
#226 = VECTOR('',#227,1.);
#227 = DIRECTION('',(0.,-1.,0.));
#228 = FACE_BOUND('',#229,.F.);
#229 = EDGE_LOOP('',(#230,#231,#239,#245));
#230 = ORIENTED_EDGE('',*,*,#31,.T.);
#231 = ORIENTED_EDGE('',*,*,#232,.T.);
#232 = EDGE_CURVE('',#32,#233,#235,.T.);
#233 = VERTEX_POINT('',#234);
#234 = CARTESIAN_POINT('',(2.5,-10.5675,40.8239));
#235 = LINE('',#236,#237);
#236 = CARTESIAN_POINT('',(2.5,-12.0675,40.8239));
#237 = VECTOR('',#238,1.);
#238 = DIRECTION('',(0.,1.,0.));
#239 = ORIENTED_EDGE('',*,*,#240,.T.);
#240 = EDGE_CURVE('',#233,#109,#241,.T.);
#241 = LINE('',#242,#243);
#242 = CARTESIAN_POINT('',(2.5,-10.5675,40.8239));
#243 = VECTOR('',#244,1.);
#244 = DIRECTION('',(-1.,0.,0.));
#245 = ORIENTED_EDGE('',*,*,#116,.T.);
#246 = PLANE('',#247);
#247 = AXIS2_PLACEMENT_3D('',#248,#249,#250);
#248 = CARTESIAN_POINT('',(4.3E-16,-15.56110982392,40.8239));
#249 = DIRECTION('',(0.,0.,1.));
#250 = DIRECTION('',(1.,0.,0.));
#251 = ADVANCED_FACE('',(#252),#270,.T.);
#252 = FACE_BOUND('',#253,.T.);
#253 = EDGE_LOOP('',(#254,#262,#263,#264));
#254 = ORIENTED_EDGE('',*,*,#255,.T.);
#255 = EDGE_CURVE('',#256,#138,#258,.T.);
#256 = VERTEX_POINT('',#257);
#257 = CARTESIAN_POINT('',(0.3,-10.5675,35.7239));
#258 = LINE('',#259,#260);
#259 = CARTESIAN_POINT('',(2.5,-10.5675,35.7239));
#260 = VECTOR('',#261,1.);
#261 = DIRECTION('',(-1.,0.,0.));
#262 = ORIENTED_EDGE('',*,*,#146,.T.);
#263 = ORIENTED_EDGE('',*,*,#56,.T.);
#264 = ORIENTED_EDGE('',*,*,#265,.T.);
#265 = EDGE_CURVE('',#48,#256,#266,.T.);
#266 = LINE('',#267,#268);
#267 = CARTESIAN_POINT('',(0.3,-12.0675,35.7239));
#268 = VECTOR('',#269,1.);
#269 = DIRECTION('',(0.,1.,0.));
#270 = PLANE('',#271);
#271 = AXIS2_PLACEMENT_3D('',#272,#273,#274);
#272 = CARTESIAN_POINT('',(-3.9,-15.552062,35.7239));
#273 = DIRECTION('',(0.,0.,1.));
#274 = DIRECTION('',(0.,1.,0.));
#275 = ADVANCED_FACE('',(#276),#294,.T.);
#276 = FACE_BOUND('',#277,.T.);
#277 = EDGE_LOOP('',(#278,#279,#280,#288));
#278 = ORIENTED_EDGE('',*,*,#39,.T.);
#279 = ORIENTED_EDGE('',*,*,#232,.T.);
#280 = ORIENTED_EDGE('',*,*,#281,.F.);
#281 = EDGE_CURVE('',#282,#233,#284,.T.);
#282 = VERTEX_POINT('',#283);
#283 = CARTESIAN_POINT('',(2.5,-10.5675,37.9239));
#284 = LINE('',#285,#286);
#285 = CARTESIAN_POINT('',(2.5,-10.5675,35.7239));
#286 = VECTOR('',#287,1.);
#287 = DIRECTION('',(0.,0.,1.));
#288 = ORIENTED_EDGE('',*,*,#289,.F.);
#289 = EDGE_CURVE('',#40,#282,#290,.T.);
#290 = LINE('',#291,#292);
#291 = CARTESIAN_POINT('',(2.5,-12.0675,37.9239));
#292 = VECTOR('',#293,1.);
#293 = DIRECTION('',(0.,1.,0.));
#294 = PLANE('',#295);
#295 = AXIS2_PLACEMENT_3D('',#296,#297,#298);
#296 = CARTESIAN_POINT('',(2.5,-12.0675,35.7239));
#297 = DIRECTION('',(-1.,0.,0.));
#298 = DIRECTION('',(0.,1.,0.));
#299 = ADVANCED_FACE('',(#300),#312,.F.);
#300 = FACE_BOUND('',#301,.F.);
#301 = EDGE_LOOP('',(#302,#303,#304,#311));
#302 = ORIENTED_EDGE('',*,*,#47,.T.);
#303 = ORIENTED_EDGE('',*,*,#265,.T.);
#304 = ORIENTED_EDGE('',*,*,#305,.F.);
#305 = EDGE_CURVE('',#282,#256,#306,.T.);
#306 = CIRCLE('',#307,2.2);
#307 = AXIS2_PLACEMENT_3D('',#308,#309,#310);
#308 = CARTESIAN_POINT('',(0.3,-10.5675,37.9239));
#309 = DIRECTION('',(0.,1.,0.));
#310 = DIRECTION('',(0.,0.,1.));
#311 = ORIENTED_EDGE('',*,*,#289,.F.);
#312 = CYLINDRICAL_SURFACE('',#313,2.2);
#313 = AXIS2_PLACEMENT_3D('',#314,#315,#316);
#314 = CARTESIAN_POINT('',(0.3,-12.0675,37.9239));
#315 = DIRECTION('',(0.,1.,0.));
#316 = DIRECTION('',(1.,0.,0.));
#317 = ADVANCED_FACE('',(#318),#344,.F.);
#318 = FACE_BOUND('',#319,.T.);
#319 = EDGE_LOOP('',(#320,#321,#329,#338));
#320 = ORIENTED_EDGE('',*,*,#73,.T.);
#321 = ORIENTED_EDGE('',*,*,#322,.T.);
#322 = EDGE_CURVE('',#76,#323,#325,.T.);
#323 = VERTEX_POINT('',#324);
#324 = CARTESIAN_POINT('',(-0.514230087749,-15.45,38.936735554495));
#325 = LINE('',#326,#327);
#326 = CARTESIAN_POINT('',(-0.514230087749,-9.3325,38.936735554495));
#327 = VECTOR('',#328,1.);
#328 = DIRECTION('',(0.,-1.,2.22044604925E-16));
#329 = ORIENTED_EDGE('',*,*,#330,.F.);
#330 = EDGE_CURVE('',#331,#323,#333,.T.);
#331 = VERTEX_POINT('',#332);
#332 = CARTESIAN_POINT('',(0.514230087749,-15.45,38.936735554495));
#333 = CIRCLE('',#334,0.8);
#334 = AXIS2_PLACEMENT_3D('',#335,#336,#337);
#335 = CARTESIAN_POINT('',(0.,-15.45,38.3239));
#336 = DIRECTION('',(0.,1.,-2.22044604925E-16));
#337 = DIRECTION('',(1.,0.,0.));
#338 = ORIENTED_EDGE('',*,*,#339,.F.);
#339 = EDGE_CURVE('',#74,#331,#340,.T.);
#340 = LINE('',#341,#342);
#341 = CARTESIAN_POINT('',(0.514230087749,-9.3325,38.936735554495));
#342 = VECTOR('',#343,1.);
#343 = DIRECTION('',(0.,-1.,2.22044604925E-16));
#344 = CYLINDRICAL_SURFACE('',#345,0.8);
#345 = AXIS2_PLACEMENT_3D('',#346,#347,#348);
#346 = CARTESIAN_POINT('',(0.,-9.3325,38.3239));
#347 = DIRECTION('',(0.,1.,-2.22044604925E-16));
#348 = DIRECTION('',(1.,0.,0.));
#349 = ADVANCED_FACE('',(#350),#368,.F.);
#350 = FACE_BOUND('',#351,.F.);
#351 = EDGE_LOOP('',(#352,#353,#354,#362));
#352 = ORIENTED_EDGE('',*,*,#92,.F.);
#353 = ORIENTED_EDGE('',*,*,#322,.T.);
#354 = ORIENTED_EDGE('',*,*,#355,.F.);
#355 = EDGE_CURVE('',#356,#323,#358,.T.);
#356 = VERTEX_POINT('',#357);
#357 = CARTESIAN_POINT('',(0.,-15.45,39.368225831467));
#358 = LINE('',#359,#360);
#359 = CARTESIAN_POINT('',(-0.391483811726,-15.45,39.039731909435));
#360 = VECTOR('',#361,1.);
#361 = DIRECTION('',(-0.766044443118,-0.,-0.642787609687));
#362 = ORIENTED_EDGE('',*,*,#363,.F.);
#363 = EDGE_CURVE('',#85,#356,#364,.T.);
#364 = LINE('',#365,#366);
#365 = CARTESIAN_POINT('',(0.,-9.3325,39.368225831467));
#366 = VECTOR('',#367,1.);
#367 = DIRECTION('',(0.,-1.,2.22044604925E-16));
#368 = PLANE('',#369);
#369 = AXIS2_PLACEMENT_3D('',#370,#371,#372);
#370 = CARTESIAN_POINT('',(-0.514230087749,-9.3325,38.936735554495));
#371 = DIRECTION('',(-0.642787609687,1.700960357272E-16,0.766044443118)
  );
#372 = DIRECTION('',(0.766044443118,1.427275208438E-16,0.642787609687));
#373 = ADVANCED_FACE('',(#374),#385,.F.);
#374 = FACE_BOUND('',#375,.F.);
#375 = EDGE_LOOP('',(#376,#377,#378,#384));
#376 = ORIENTED_EDGE('',*,*,#84,.F.);
#377 = ORIENTED_EDGE('',*,*,#363,.T.);
#378 = ORIENTED_EDGE('',*,*,#379,.F.);
#379 = EDGE_CURVE('',#331,#356,#380,.T.);
#380 = LINE('',#381,#382);
#381 = CARTESIAN_POINT('',(1.660111398815,-15.45,37.975226969004));
#382 = VECTOR('',#383,1.);
#383 = DIRECTION('',(-0.766044443118,0.,0.642787609687));
#384 = ORIENTED_EDGE('',*,*,#339,.F.);
#385 = PLANE('',#386);
#386 = AXIS2_PLACEMENT_3D('',#387,#388,#389);
#387 = CARTESIAN_POINT('',(0.,-9.3325,39.368225831467));
#388 = DIRECTION('',(0.642787609687,1.700960357272E-16,0.766044443118));
#389 = DIRECTION('',(0.766044443118,-1.427275208438E-16,-0.642787609687)
  );
#390 = ADVANCED_FACE('',(#391,#399),#426,.T.);
#391 = FACE_BOUND('',#392,.T.);
#392 = EDGE_LOOP('',(#393,#394,#395,#396,#397,#398));
#393 = ORIENTED_EDGE('',*,*,#281,.T.);
#394 = ORIENTED_EDGE('',*,*,#240,.T.);
#395 = ORIENTED_EDGE('',*,*,#106,.F.);
#396 = ORIENTED_EDGE('',*,*,#137,.T.);
#397 = ORIENTED_EDGE('',*,*,#255,.F.);
#398 = ORIENTED_EDGE('',*,*,#305,.F.);
#399 = FACE_BOUND('',#400,.T.);
#400 = EDGE_LOOP('',(#401,#411,#420));
#401 = ORIENTED_EDGE('',*,*,#402,.F.);
#402 = EDGE_CURVE('',#403,#405,#407,.T.);
#403 = VERTEX_POINT('',#404);
#404 = CARTESIAN_POINT('',(0.514230087749,-10.5675,38.936735554495));
#405 = VERTEX_POINT('',#406);
#406 = CARTESIAN_POINT('',(0.,-10.5675,39.368225831467));
#407 = LINE('',#408,#409);
#408 = CARTESIAN_POINT('',(1.630770194374,-10.5675,37.99984716283));
#409 = VECTOR('',#410,1.);
#410 = DIRECTION('',(-0.766044443118,0.,0.642787609687));
#411 = ORIENTED_EDGE('',*,*,#412,.T.);
#412 = EDGE_CURVE('',#403,#413,#415,.T.);
#413 = VERTEX_POINT('',#414);
#414 = CARTESIAN_POINT('',(-0.514230087749,-10.5675,38.936735554495));
#415 = CIRCLE('',#416,0.8);
#416 = AXIS2_PLACEMENT_3D('',#417,#418,#419);
#417 = CARTESIAN_POINT('',(0.,-10.5675,38.3239));
#418 = DIRECTION('',(0.,1.,-2.22044604925E-16));
#419 = DIRECTION('',(1.,0.,0.));
#420 = ORIENTED_EDGE('',*,*,#421,.F.);
#421 = EDGE_CURVE('',#405,#413,#422,.T.);
#422 = LINE('',#423,#424);
#423 = CARTESIAN_POINT('',(-0.420825016167,-10.5675,39.01511171561));
#424 = VECTOR('',#425,1.);
#425 = DIRECTION('',(-0.766044443118,-0.,-0.642787609687));
#426 = PLANE('',#427);
#427 = AXIS2_PLACEMENT_3D('',#428,#429,#430);
#428 = CARTESIAN_POINT('',(2.5,-10.5675,35.7239));
#429 = DIRECTION('',(0.,-1.,0.));
#430 = DIRECTION('',(-1.,0.,0.));
#431 = ADVANCED_FACE('',(#432),#474,.T.);
#432 = FACE_BOUND('',#433,.T.);
#433 = EDGE_LOOP('',(#434,#444,#453,#461,#467,#468));
#434 = ORIENTED_EDGE('',*,*,#435,.T.);
#435 = EDGE_CURVE('',#436,#438,#440,.T.);
#436 = VERTEX_POINT('',#437);
#437 = CARTESIAN_POINT('',(-3.9,-9.3325,35.7239));
#438 = VERTEX_POINT('',#439);
#439 = CARTESIAN_POINT('',(-3.9,-13.08685723088,24.364739601511));
#440 = LINE('',#441,#442);
#441 = CARTESIAN_POINT('',(-3.9,-9.3325,35.7239));
#442 = VECTOR('',#443,1.);
#443 = DIRECTION('',(0.,-0.31381720263,-0.949483419199));
#444 = ORIENTED_EDGE('',*,*,#445,.F.);
#445 = EDGE_CURVE('',#446,#438,#448,.T.);
#446 = VERTEX_POINT('',#447);
#447 = CARTESIAN_POINT('',(-3.9,-14.92110243056,35.7239));
#448 = HYPERBOLA('',#449,33.762857142857,3.9);
#449 = AXIS2_PLACEMENT_3D('',#450,#451,#452);
#450 = CARTESIAN_POINT('',(-3.9,-18.05,79.009614285714));
#451 = DIRECTION('',(1.,-0.,0.));
#452 = DIRECTION('',(0.,0.,-1.));
#453 = ORIENTED_EDGE('',*,*,#454,.F.);
#454 = EDGE_CURVE('',#455,#446,#457,.T.);
#455 = VERTEX_POINT('',#456);
#456 = CARTESIAN_POINT('',(-3.9,-21.17889756943,35.7239));
#457 = LINE('',#458,#459);
#458 = CARTESIAN_POINT('',(-3.9,-21.17889756943,35.7239));
#459 = VECTOR('',#460,1.);
#460 = DIRECTION('',(-1.4E-16,1.,0.));
#461 = ORIENTED_EDGE('',*,*,#462,.T.);
#462 = EDGE_CURVE('',#455,#165,#463,.T.);
#463 = LINE('',#464,#465);
#464 = CARTESIAN_POINT('',(-3.9,-21.17889756943,35.7239));
#465 = VECTOR('',#466,1.);
#466 = DIRECTION('',(0.,0.,1.));
#467 = ORIENTED_EDGE('',*,*,#162,.F.);
#468 = ORIENTED_EDGE('',*,*,#469,.F.);
#469 = EDGE_CURVE('',#436,#163,#470,.T.);
#470 = LINE('',#471,#472);
#471 = CARTESIAN_POINT('',(-3.9,-9.3325,35.7239));
#472 = VECTOR('',#473,1.);
#473 = DIRECTION('',(0.,0.,1.));
#474 = PLANE('',#475);
#475 = AXIS2_PLACEMENT_3D('',#476,#477,#478);
#476 = CARTESIAN_POINT('',(-3.9,-14.3737789926,34.819596852767));
#477 = DIRECTION('',(-1.,1.41E-15,0.));
#478 = DIRECTION('',(-1.41E-15,-1.,0.));
#479 = ADVANCED_FACE('',(#480),#499,.T.);
#480 = FACE_BOUND('',#481,.F.);
#481 = EDGE_LOOP('',(#482,#483,#484,#492));
#482 = ORIENTED_EDGE('',*,*,#462,.T.);
#483 = ORIENTED_EDGE('',*,*,#172,.T.);
#484 = ORIENTED_EDGE('',*,*,#485,.F.);
#485 = EDGE_CURVE('',#486,#173,#488,.T.);
#486 = VERTEX_POINT('',#487);
#487 = CARTESIAN_POINT('',(3.9,-21.17889756943,35.7239));
#488 = LINE('',#489,#490);
#489 = CARTESIAN_POINT('',(3.9,-21.17889756943,35.7239));
#490 = VECTOR('',#491,1.);
#491 = DIRECTION('',(0.,0.,1.));
#492 = ORIENTED_EDGE('',*,*,#493,.F.);
#493 = EDGE_CURVE('',#455,#486,#494,.T.);
#494 = CIRCLE('',#495,5.);
#495 = AXIS2_PLACEMENT_3D('',#496,#497,#498);
#496 = CARTESIAN_POINT('',(0.,-18.05,35.7239));
#497 = DIRECTION('',(0.,0.,1.));
#498 = DIRECTION('',(1.,0.,0.));
#499 = CYLINDRICAL_SURFACE('',#500,5.);
#500 = AXIS2_PLACEMENT_3D('',#501,#502,#503);
#501 = CARTESIAN_POINT('',(0.,-18.05,35.7239));
#502 = DIRECTION('',(-0.,-0.,-1.));
#503 = DIRECTION('',(1.,0.,0.));
#504 = ADVANCED_FACE('',(#505),#548,.T.);
#505 = FACE_BOUND('',#506,.T.);
#506 = EDGE_LOOP('',(#507,#508,#516,#524,#533,#541,#547));
#507 = ORIENTED_EDGE('',*,*,#485,.F.);
#508 = ORIENTED_EDGE('',*,*,#509,.T.);
#509 = EDGE_CURVE('',#486,#510,#512,.T.);
#510 = VERTEX_POINT('',#511);
#511 = CARTESIAN_POINT('',(3.9,-18.05,35.7239));
#512 = LINE('',#513,#514);
#513 = CARTESIAN_POINT('',(3.9,-21.17889756943,35.7239));
#514 = VECTOR('',#515,1.);
#515 = DIRECTION('',(0.,1.,0.));
#516 = ORIENTED_EDGE('',*,*,#517,.T.);
#517 = EDGE_CURVE('',#510,#518,#520,.T.);
#518 = VERTEX_POINT('',#519);
#519 = CARTESIAN_POINT('',(3.9,-14.92110243056,35.7239));
#520 = LINE('',#521,#522);
#521 = CARTESIAN_POINT('',(3.9,-21.17889756943,35.7239));
#522 = VECTOR('',#523,1.);
#523 = DIRECTION('',(0.,1.,0.));
#524 = ORIENTED_EDGE('',*,*,#525,.T.);
#525 = EDGE_CURVE('',#518,#526,#528,.T.);
#526 = VERTEX_POINT('',#527);
#527 = CARTESIAN_POINT('',(3.9,-13.08685723088,24.364739601511));
#528 = HYPERBOLA('',#529,33.762857142857,3.9);
#529 = AXIS2_PLACEMENT_3D('',#530,#531,#532);
#530 = CARTESIAN_POINT('',(3.9,-18.05,79.009614285714));
#531 = DIRECTION('',(1.,-0.,0.));
#532 = DIRECTION('',(0.,0.,-1.));
#533 = ORIENTED_EDGE('',*,*,#534,.F.);
#534 = EDGE_CURVE('',#535,#526,#537,.T.);
#535 = VERTEX_POINT('',#536);
#536 = CARTESIAN_POINT('',(3.9,-9.3325,35.7239));
#537 = LINE('',#538,#539);
#538 = CARTESIAN_POINT('',(3.9,-9.3325,35.7239));
#539 = VECTOR('',#540,1.);
#540 = DIRECTION('',(0.,-0.31381720263,-0.949483419199));
#541 = ORIENTED_EDGE('',*,*,#542,.T.);
#542 = EDGE_CURVE('',#535,#182,#543,.T.);
#543 = LINE('',#544,#545);
#544 = CARTESIAN_POINT('',(3.9,-9.3325,35.7239));
#545 = VECTOR('',#546,1.);
#546 = DIRECTION('',(0.,0.,1.));
#547 = ORIENTED_EDGE('',*,*,#181,.F.);
#548 = PLANE('',#549);
#549 = AXIS2_PLACEMENT_3D('',#550,#551,#552);
#550 = CARTESIAN_POINT('',(3.9,-14.3737789926,34.819596852767));
#551 = DIRECTION('',(1.,1.43E-15,0.));
#552 = DIRECTION('',(-1.43E-15,1.,0.));
#553 = ADVANCED_FACE('',(#554,#565),#592,.F.);
#554 = FACE_BOUND('',#555,.F.);
#555 = EDGE_LOOP('',(#556,#557,#558,#559));
#556 = ORIENTED_EDGE('',*,*,#542,.T.);
#557 = ORIENTED_EDGE('',*,*,#189,.T.);
#558 = ORIENTED_EDGE('',*,*,#469,.F.);
#559 = ORIENTED_EDGE('',*,*,#560,.F.);
#560 = EDGE_CURVE('',#535,#436,#561,.T.);
#561 = LINE('',#562,#563);
#562 = CARTESIAN_POINT('',(3.9,-9.3325,35.7239));
#563 = VECTOR('',#564,1.);
#564 = DIRECTION('',(-1.,0.,0.));
#565 = FACE_BOUND('',#566,.F.);
#566 = EDGE_LOOP('',(#567,#578,#586));
#567 = ORIENTED_EDGE('',*,*,#568,.F.);
#568 = EDGE_CURVE('',#569,#571,#573,.T.);
#569 = VERTEX_POINT('',#570);
#570 = CARTESIAN_POINT('',(-0.514230087749,-9.3325,38.936735554495));
#571 = VERTEX_POINT('',#572);
#572 = CARTESIAN_POINT('',(0.514230087749,-9.3325,38.936735554495));
#573 = CIRCLE('',#574,0.8);
#574 = AXIS2_PLACEMENT_3D('',#575,#576,#577);
#575 = CARTESIAN_POINT('',(0.,-9.3325,38.3239));
#576 = DIRECTION('',(0.,-1.,2.22044604925E-16));
#577 = DIRECTION('',(1.,0.,0.));
#578 = ORIENTED_EDGE('',*,*,#579,.T.);
#579 = EDGE_CURVE('',#569,#580,#582,.T.);
#580 = VERTEX_POINT('',#581);
#581 = CARTESIAN_POINT('',(0.,-9.3325,39.368225831467));
#582 = LINE('',#583,#584);
#583 = CARTESIAN_POINT('',(-0.514230087749,-9.3325,38.936735554495));
#584 = VECTOR('',#585,1.);
#585 = DIRECTION('',(0.766044443118,1.427275208438E-16,0.642787609687));
#586 = ORIENTED_EDGE('',*,*,#587,.T.);
#587 = EDGE_CURVE('',#580,#571,#588,.T.);
#588 = LINE('',#589,#590);
#589 = CARTESIAN_POINT('',(0.,-9.3325,39.368225831467));
#590 = VECTOR('',#591,1.);
#591 = DIRECTION('',(0.766044443118,-1.427275208438E-16,-0.642787609687)
  );
#592 = PLANE('',#593);
#593 = AXIS2_PLACEMENT_3D('',#594,#595,#596);
#594 = CARTESIAN_POINT('',(3.9,-9.3325,35.7239));
#595 = DIRECTION('',(0.,-1.,0.));
#596 = DIRECTION('',(-1.,0.,0.));
#597 = ADVANCED_FACE('',(#598),#623,.T.);
#598 = FACE_BOUND('',#599,.T.);
#599 = EDGE_LOOP('',(#600,#608,#609,#617));
#600 = ORIENTED_EDGE('',*,*,#601,.T.);
#601 = EDGE_CURVE('',#602,#198,#604,.T.);
#602 = VERTEX_POINT('',#603);
#603 = CARTESIAN_POINT('',(-2.6,-20.65,35.7239));
#604 = LINE('',#605,#606);
#605 = CARTESIAN_POINT('',(-2.6,-20.65,35.7239));
#606 = VECTOR('',#607,1.);
#607 = DIRECTION('',(0.,0.,1.));
#608 = ORIENTED_EDGE('',*,*,#197,.T.);
#609 = ORIENTED_EDGE('',*,*,#610,.F.);
#610 = EDGE_CURVE('',#611,#200,#613,.T.);
#611 = VERTEX_POINT('',#612);
#612 = CARTESIAN_POINT('',(2.6,-20.65,35.7239));
#613 = LINE('',#614,#615);
#614 = CARTESIAN_POINT('',(2.6,-20.65,35.7239));
#615 = VECTOR('',#616,1.);
#616 = DIRECTION('',(0.,0.,1.));
#617 = ORIENTED_EDGE('',*,*,#618,.F.);
#618 = EDGE_CURVE('',#602,#611,#619,.T.);
#619 = LINE('',#620,#621);
#620 = CARTESIAN_POINT('',(-2.6,-20.65,35.7239));
#621 = VECTOR('',#622,1.);
#622 = DIRECTION('',(1.,0.,0.));
#623 = PLANE('',#624);
#624 = AXIS2_PLACEMENT_3D('',#625,#626,#627);
#625 = CARTESIAN_POINT('',(-2.6,-20.65,35.7239));
#626 = DIRECTION('',(0.,1.,0.));
#627 = DIRECTION('',(1.,0.,0.));
#628 = ADVANCED_FACE('',(#629),#647,.T.);
#629 = FACE_BOUND('',#630,.T.);
#630 = EDGE_LOOP('',(#631,#632,#633,#641));
#631 = ORIENTED_EDGE('',*,*,#610,.T.);
#632 = ORIENTED_EDGE('',*,*,#207,.T.);
#633 = ORIENTED_EDGE('',*,*,#634,.F.);
#634 = EDGE_CURVE('',#635,#208,#637,.T.);
#635 = VERTEX_POINT('',#636);
#636 = CARTESIAN_POINT('',(2.6,-15.45,35.7239));
#637 = LINE('',#638,#639);
#638 = CARTESIAN_POINT('',(2.6,-15.45,35.7239));
#639 = VECTOR('',#640,1.);
#640 = DIRECTION('',(0.,0.,1.));
#641 = ORIENTED_EDGE('',*,*,#642,.F.);
#642 = EDGE_CURVE('',#611,#635,#643,.T.);
#643 = LINE('',#644,#645);
#644 = CARTESIAN_POINT('',(2.6,-20.65,35.7239));
#645 = VECTOR('',#646,1.);
#646 = DIRECTION('',(0.,1.,0.));
#647 = PLANE('',#648);
#648 = AXIS2_PLACEMENT_3D('',#649,#650,#651);
#649 = CARTESIAN_POINT('',(2.6,-20.65,35.7239));
#650 = DIRECTION('',(-1.,0.,0.));
#651 = DIRECTION('',(0.,1.,0.));
#652 = ADVANCED_FACE('',(#653,#671),#676,.T.);
#653 = FACE_BOUND('',#654,.T.);
#654 = EDGE_LOOP('',(#655,#656,#657,#665));
#655 = ORIENTED_EDGE('',*,*,#634,.T.);
#656 = ORIENTED_EDGE('',*,*,#215,.T.);
#657 = ORIENTED_EDGE('',*,*,#658,.F.);
#658 = EDGE_CURVE('',#659,#216,#661,.T.);
#659 = VERTEX_POINT('',#660);
#660 = CARTESIAN_POINT('',(-2.6,-15.45,35.7239));
#661 = LINE('',#662,#663);
#662 = CARTESIAN_POINT('',(-2.6,-15.45,35.7239));
#663 = VECTOR('',#664,1.);
#664 = DIRECTION('',(0.,0.,1.));
#665 = ORIENTED_EDGE('',*,*,#666,.F.);
#666 = EDGE_CURVE('',#635,#659,#667,.T.);
#667 = LINE('',#668,#669);
#668 = CARTESIAN_POINT('',(2.6,-15.45,35.7239));
#669 = VECTOR('',#670,1.);
#670 = DIRECTION('',(-1.,0.,0.));
#671 = FACE_BOUND('',#672,.T.);
#672 = EDGE_LOOP('',(#673,#674,#675));
#673 = ORIENTED_EDGE('',*,*,#379,.F.);
#674 = ORIENTED_EDGE('',*,*,#330,.T.);
#675 = ORIENTED_EDGE('',*,*,#355,.F.);
#676 = PLANE('',#677);
#677 = AXIS2_PLACEMENT_3D('',#678,#679,#680);
#678 = CARTESIAN_POINT('',(2.6,-15.45,35.7239));
#679 = DIRECTION('',(0.,-1.,0.));
#680 = DIRECTION('',(-1.,0.,0.));
#681 = ADVANCED_FACE('',(#682),#693,.T.);
#682 = FACE_BOUND('',#683,.T.);
#683 = EDGE_LOOP('',(#684,#685,#686,#687));
#684 = ORIENTED_EDGE('',*,*,#658,.T.);
#685 = ORIENTED_EDGE('',*,*,#223,.T.);
#686 = ORIENTED_EDGE('',*,*,#601,.F.);
#687 = ORIENTED_EDGE('',*,*,#688,.F.);
#688 = EDGE_CURVE('',#659,#602,#689,.T.);
#689 = LINE('',#690,#691);
#690 = CARTESIAN_POINT('',(-2.6,-15.45,35.7239));
#691 = VECTOR('',#692,1.);
#692 = DIRECTION('',(0.,-1.,0.));
#693 = PLANE('',#694);
#694 = AXIS2_PLACEMENT_3D('',#695,#696,#697);
#695 = CARTESIAN_POINT('',(-2.6,-15.45,35.7239));
#696 = DIRECTION('',(1.,0.,0.));
#697 = DIRECTION('',(0.,-1.,0.));
#698 = ADVANCED_FACE('',(#699),#715,.F.);
#699 = FACE_BOUND('',#700,.F.);
#700 = EDGE_LOOP('',(#701,#702,#708,#709));
#701 = ORIENTED_EDGE('',*,*,#587,.F.);
#702 = ORIENTED_EDGE('',*,*,#703,.T.);
#703 = EDGE_CURVE('',#580,#405,#704,.T.);
#704 = LINE('',#705,#706);
#705 = CARTESIAN_POINT('',(0.,-9.3325,39.368225831467));
#706 = VECTOR('',#707,1.);
#707 = DIRECTION('',(0.,-1.,2.22044604925E-16));
#708 = ORIENTED_EDGE('',*,*,#402,.F.);
#709 = ORIENTED_EDGE('',*,*,#710,.F.);
#710 = EDGE_CURVE('',#571,#403,#711,.T.);
#711 = LINE('',#712,#713);
#712 = CARTESIAN_POINT('',(0.514230087749,-9.3325,38.936735554495));
#713 = VECTOR('',#714,1.);
#714 = DIRECTION('',(0.,-1.,2.22044604925E-16));
#715 = PLANE('',#716);
#716 = AXIS2_PLACEMENT_3D('',#717,#718,#719);
#717 = CARTESIAN_POINT('',(0.,-9.3325,39.368225831467));
#718 = DIRECTION('',(0.642787609687,1.700960357272E-16,0.766044443118));
#719 = DIRECTION('',(0.766044443118,-1.427275208438E-16,-0.642787609687)
  );
#720 = ADVANCED_FACE('',(#721),#732,.F.);
#721 = FACE_BOUND('',#722,.F.);
#722 = EDGE_LOOP('',(#723,#724,#730,#731));
#723 = ORIENTED_EDGE('',*,*,#579,.F.);
#724 = ORIENTED_EDGE('',*,*,#725,.T.);
#725 = EDGE_CURVE('',#569,#413,#726,.T.);
#726 = LINE('',#727,#728);
#727 = CARTESIAN_POINT('',(-0.514230087749,-9.3325,38.936735554495));
#728 = VECTOR('',#729,1.);
#729 = DIRECTION('',(0.,-1.,2.22044604925E-16));
#730 = ORIENTED_EDGE('',*,*,#421,.F.);
#731 = ORIENTED_EDGE('',*,*,#703,.F.);
#732 = PLANE('',#733);
#733 = AXIS2_PLACEMENT_3D('',#734,#735,#736);
#734 = CARTESIAN_POINT('',(-0.514230087749,-9.3325,38.936735554495));
#735 = DIRECTION('',(-0.642787609687,1.700960357272E-16,0.766044443118)
  );
#736 = DIRECTION('',(0.766044443118,1.427275208438E-16,0.642787609687));
#737 = ADVANCED_FACE('',(#738),#744,.F.);
#738 = FACE_BOUND('',#739,.T.);
#739 = EDGE_LOOP('',(#740,#741,#742,#743));
#740 = ORIENTED_EDGE('',*,*,#568,.F.);
#741 = ORIENTED_EDGE('',*,*,#725,.T.);
#742 = ORIENTED_EDGE('',*,*,#412,.F.);
#743 = ORIENTED_EDGE('',*,*,#710,.F.);
#744 = CYLINDRICAL_SURFACE('',#745,0.8);
#745 = AXIS2_PLACEMENT_3D('',#746,#747,#748);
#746 = CARTESIAN_POINT('',(0.,-9.3325,38.3239));
#747 = DIRECTION('',(0.,1.,-2.22044604925E-16));
#748 = DIRECTION('',(1.,0.,0.));
#749 = ADVANCED_FACE('',(#750),#762,.T.);
#750 = FACE_BOUND('',#751,.T.);
#751 = EDGE_LOOP('',(#752,#753,#754,#761));
#752 = ORIENTED_EDGE('',*,*,#560,.F.);
#753 = ORIENTED_EDGE('',*,*,#534,.T.);
#754 = ORIENTED_EDGE('',*,*,#755,.F.);
#755 = EDGE_CURVE('',#438,#526,#756,.T.);
#756 = ELLIPSE('',#757,29.209030374972,8.588266849542);
#757 = AXIS2_PLACEMENT_3D('',#758,#759,#760);
#758 = CARTESIAN_POINT('',(0.,-21.25353845253,-0.344321421462));
#759 = DIRECTION('',(0.,0.949483419199,-0.31381720263));
#760 = DIRECTION('',(0.,-0.31381720263,-0.949483419199));
#761 = ORIENTED_EDGE('',*,*,#435,.F.);
#762 = PLANE('',#763);
#763 = AXIS2_PLACEMENT_3D('',#764,#765,#766);
#764 = CARTESIAN_POINT('',(-3.9,-9.3325,35.7239));
#765 = DIRECTION('',(0.,0.949483419199,-0.31381720263));
#766 = DIRECTION('',(0.,-0.31381720263,-0.949483419199));
#767 = ADVANCED_FACE('',(#768),#794,.T.);
#768 = FACE_BOUND('',#769,.T.);
#769 = EDGE_LOOP('',(#770,#777,#786,#791,#792,#793));
#770 = ORIENTED_EDGE('',*,*,#771,.F.);
#771 = EDGE_CURVE('',#772,#518,#774,.T.);
#772 = VERTEX_POINT('',#773);
#773 = CARTESIAN_POINT('',(5.265,-13.82598828126,20.5739));
#774 = B_SPLINE_CURVE_WITH_KNOTS('',1,(#775,#776),.UNSPECIFIED.,.F.,.F.,
  (2,2),(0.,1.),.PIECEWISE_BEZIER_KNOTS.);
#775 = CARTESIAN_POINT('',(5.265,-13.82598828126,20.5739));
#776 = CARTESIAN_POINT('',(3.9,-14.92110243056,35.7239));
#777 = ORIENTED_EDGE('',*,*,#778,.T.);
#778 = EDGE_CURVE('',#772,#779,#781,.T.);
#779 = VERTEX_POINT('',#780);
#780 = CARTESIAN_POINT('',(-5.265,-13.82598828126,20.5739));
#781 = CIRCLE('',#782,6.75);
#782 = AXIS2_PLACEMENT_3D('',#783,#784,#785);
#783 = CARTESIAN_POINT('',(0.,-18.05,20.5739));
#784 = DIRECTION('',(0.,0.,1.));
#785 = DIRECTION('',(1.,0.,0.));
#786 = ORIENTED_EDGE('',*,*,#787,.T.);
#787 = EDGE_CURVE('',#779,#446,#788,.T.);
#788 = B_SPLINE_CURVE_WITH_KNOTS('',1,(#789,#790),.UNSPECIFIED.,.F.,.F.,
  (2,2),(0.,1.),.PIECEWISE_BEZIER_KNOTS.);
#789 = CARTESIAN_POINT('',(-5.265,-13.82598828126,20.5739));
#790 = CARTESIAN_POINT('',(-3.9,-14.92110243056,35.7239));
#791 = ORIENTED_EDGE('',*,*,#445,.T.);
#792 = ORIENTED_EDGE('',*,*,#755,.T.);
#793 = ORIENTED_EDGE('',*,*,#525,.F.);
#794 = CONICAL_SURFACE('',#795,6.75,0.115001871607);
#795 = AXIS2_PLACEMENT_3D('',#796,#797,#798);
#796 = CARTESIAN_POINT('',(0.,-18.05,20.5739));
#797 = DIRECTION('',(-0.,-0.,-1.));
#798 = DIRECTION('',(1.,0.,0.));
#799 = ADVANCED_FACE('',(#800),#818,.T.);
#800 = FACE_BOUND('',#801,.T.);
#801 = EDGE_LOOP('',(#802,#811,#816,#817));
#802 = ORIENTED_EDGE('',*,*,#803,.T.);
#803 = EDGE_CURVE('',#779,#804,#806,.T.);
#804 = VERTEX_POINT('',#805);
#805 = CARTESIAN_POINT('',(-5.265,-22.27401171873,20.5739));
#806 = CIRCLE('',#807,6.75);
#807 = AXIS2_PLACEMENT_3D('',#808,#809,#810);
#808 = CARTESIAN_POINT('',(0.,-18.05,20.5739));
#809 = DIRECTION('',(0.,0.,1.));
#810 = DIRECTION('',(1.,0.,0.));
#811 = ORIENTED_EDGE('',*,*,#812,.T.);
#812 = EDGE_CURVE('',#804,#455,#813,.T.);
#813 = B_SPLINE_CURVE_WITH_KNOTS('',1,(#814,#815),.UNSPECIFIED.,.F.,.F.,
  (2,2),(0.,1.),.PIECEWISE_BEZIER_KNOTS.);
#814 = CARTESIAN_POINT('',(-5.265,-22.27401171873,20.5739));
#815 = CARTESIAN_POINT('',(-3.9,-21.17889756943,35.7239));
#816 = ORIENTED_EDGE('',*,*,#454,.T.);
#817 = ORIENTED_EDGE('',*,*,#787,.F.);
#818 = B_SPLINE_SURFACE_WITH_KNOTS('',8,1,(
    (#819,#820)
    ,(#821,#822)
    ,(#823,#824)
    ,(#825,#826)
    ,(#827,#828)
    ,(#829,#830)
    ,(#831,#832)
    ,(#833,#834)
    ,(#835,#836
    )),.UNSPECIFIED.,.F.,.F.,.F.,(9,9),(2,2),(-6.257795138865,0.),(0.,1.
    ),.PIECEWISE_BEZIER_KNOTS.);
#819 = CARTESIAN_POINT('',(-5.265,-13.82598828126,20.5739));
#820 = CARTESIAN_POINT('',(-3.9,-14.92110243056,35.7239));
#821 = CARTESIAN_POINT('',(-5.978995798944,-14.71594506447,20.5739));
#822 = CARTESIAN_POINT('',(-3.9,-15.70332682292,35.7239));
#823 = CARTESIAN_POINT('',(-6.521069624206,-15.74383180563,20.5739));
#824 = CARTESIAN_POINT('',(-3.9,-16.48555121528,35.7239));
#825 = CARTESIAN_POINT('',(-6.860135218414,-16.87090010939,20.5739));
#826 = CARTESIAN_POINT('',(-3.9,-17.26777560764,35.7239));
#827 = CARTESIAN_POINT('',(-6.975586053856,-18.05,20.5739));
#828 = CARTESIAN_POINT('',(-3.9,-18.05,35.7239));
#829 = CARTESIAN_POINT('',(-6.860135218414,-19.2290998906,20.5739));
#830 = CARTESIAN_POINT('',(-3.9,-18.83222439235,35.7239));
#831 = CARTESIAN_POINT('',(-6.521069624206,-20.35616819436,20.5739));
#832 = CARTESIAN_POINT('',(-3.9,-19.61444878471,35.7239));
#833 = CARTESIAN_POINT('',(-5.978995798944,-21.38405493552,20.5739));
#834 = CARTESIAN_POINT('',(-3.9,-20.39667317707,35.7239));
#835 = CARTESIAN_POINT('',(-5.265,-22.27401171873,20.5739));
#836 = CARTESIAN_POINT('',(-3.9,-21.17889756943,35.7239));
#837 = ADVANCED_FACE('',(#838),#856,.T.);
#838 = FACE_BOUND('',#839,.T.);
#839 = EDGE_LOOP('',(#840,#849,#854,#855));
#840 = ORIENTED_EDGE('',*,*,#841,.T.);
#841 = EDGE_CURVE('',#804,#842,#844,.T.);
#842 = VERTEX_POINT('',#843);
#843 = CARTESIAN_POINT('',(5.265,-22.27401171873,20.5739));
#844 = CIRCLE('',#845,6.75);
#845 = AXIS2_PLACEMENT_3D('',#846,#847,#848);
#846 = CARTESIAN_POINT('',(0.,-18.05,20.5739));
#847 = DIRECTION('',(0.,0.,1.));
#848 = DIRECTION('',(1.,0.,0.));
#849 = ORIENTED_EDGE('',*,*,#850,.T.);
#850 = EDGE_CURVE('',#842,#486,#851,.T.);
#851 = B_SPLINE_CURVE_WITH_KNOTS('',1,(#852,#853),.UNSPECIFIED.,.F.,.F.,
  (2,2),(0.,1.),.PIECEWISE_BEZIER_KNOTS.);
#852 = CARTESIAN_POINT('',(5.265,-22.27401171873,20.5739));
#853 = CARTESIAN_POINT('',(3.9,-21.17889756943,35.7239));
#854 = ORIENTED_EDGE('',*,*,#493,.F.);
#855 = ORIENTED_EDGE('',*,*,#812,.F.);
#856 = CONICAL_SURFACE('',#857,6.75,0.115001871607);
#857 = AXIS2_PLACEMENT_3D('',#858,#859,#860);
#858 = CARTESIAN_POINT('',(0.,-18.05,20.5739));
#859 = DIRECTION('',(-0.,-0.,-1.));
#860 = DIRECTION('',(1.,0.,0.));
#861 = ADVANCED_FACE('',(#862),#880,.T.);
#862 = FACE_BOUND('',#863,.T.);
#863 = EDGE_LOOP('',(#864,#873,#878,#879));
#864 = ORIENTED_EDGE('',*,*,#865,.T.);
#865 = EDGE_CURVE('',#842,#866,#868,.T.);
#866 = VERTEX_POINT('',#867);
#867 = CARTESIAN_POINT('',(6.75,-18.05,20.5739));
#868 = CIRCLE('',#869,6.75);
#869 = AXIS2_PLACEMENT_3D('',#870,#871,#872);
#870 = CARTESIAN_POINT('',(0.,-18.05,20.5739));
#871 = DIRECTION('',(0.,0.,1.));
#872 = DIRECTION('',(1.,0.,0.));
#873 = ORIENTED_EDGE('',*,*,#874,.T.);
#874 = EDGE_CURVE('',#866,#510,#875,.T.);
#875 = B_SPLINE_CURVE_WITH_KNOTS('',1,(#876,#877),.UNSPECIFIED.,.F.,.F.,
  (2,2),(0.,1.),.PIECEWISE_BEZIER_KNOTS.);
#876 = CARTESIAN_POINT('',(6.75,-18.05,20.5739));
#877 = CARTESIAN_POINT('',(3.9,-18.05,35.7239));
#878 = ORIENTED_EDGE('',*,*,#509,.F.);
#879 = ORIENTED_EDGE('',*,*,#850,.F.);
#880 = B_SPLINE_SURFACE_WITH_KNOTS('',6,1,(
    (#881,#882)
    ,(#883,#884)
    ,(#885,#886)
    ,(#887,#888)
    ,(#889,#890)
    ,(#891,#892)
    ,(#893,#894
    )),.UNSPECIFIED.,.F.,.F.,.F.,(7,7),(2,2),(0.,3.128897569432),(0.,1.)
  ,.PIECEWISE_BEZIER_KNOTS.);
#881 = CARTESIAN_POINT('',(5.265,-22.27401171873,20.5739));
#882 = CARTESIAN_POINT('',(3.9,-21.17889756943,35.7239));
#883 = CARTESIAN_POINT('',(5.740997199296,-21.68070719659,20.5739));
#884 = CARTESIAN_POINT('',(3.9,-20.65741464119,35.7239));
#885 = CARTESIAN_POINT('',(6.136763940204,-21.02303594301,20.5739));
#886 = CARTESIAN_POINT('',(3.9,-20.13593171295,35.7239));
#887 = CARTESIAN_POINT('',(6.441421483567,-20.31455595771,20.5739));
#888 = CARTESIAN_POINT('',(3.9,-19.61444878471,35.7239));
#889 = CARTESIAN_POINT('',(6.647140860548,-19.57129311978,20.5739));
#890 = CARTESIAN_POINT('',(3.9,-19.09296585647,35.7239));
#891 = CARTESIAN_POINT('',(6.75,-18.81064682325,20.5739));
#892 = CARTESIAN_POINT('',(3.9,-18.57148292823,35.7239));
#893 = CARTESIAN_POINT('',(6.75,-18.05,20.5739));
#894 = CARTESIAN_POINT('',(3.9,-18.05,35.7239));
#895 = ADVANCED_FACE('',(#896),#908,.T.);
#896 = FACE_BOUND('',#897,.T.);
#897 = EDGE_LOOP('',(#898,#905,#906,#907));
#898 = ORIENTED_EDGE('',*,*,#899,.T.);
#899 = EDGE_CURVE('',#866,#772,#900,.T.);
#900 = CIRCLE('',#901,6.75);
#901 = AXIS2_PLACEMENT_3D('',#902,#903,#904);
#902 = CARTESIAN_POINT('',(0.,-18.05,20.5739));
#903 = DIRECTION('',(0.,0.,1.));
#904 = DIRECTION('',(1.,0.,0.));
#905 = ORIENTED_EDGE('',*,*,#771,.T.);
#906 = ORIENTED_EDGE('',*,*,#517,.F.);
#907 = ORIENTED_EDGE('',*,*,#874,.F.);
#908 = B_SPLINE_SURFACE_WITH_KNOTS('',6,1,(
    (#909,#910)
    ,(#911,#912)
    ,(#913,#914)
    ,(#915,#916)
    ,(#917,#918)
    ,(#919,#920)
    ,(#921,#922
    )),.UNSPECIFIED.,.F.,.F.,.F.,(7,7),(2,2),(3.128897569432,
    6.257795138865),(0.,1.),.PIECEWISE_BEZIER_KNOTS.);
#909 = CARTESIAN_POINT('',(6.75,-18.05,20.5739));
#910 = CARTESIAN_POINT('',(3.9,-18.05,35.7239));
#911 = CARTESIAN_POINT('',(6.75,-17.28935317674,20.5739));
#912 = CARTESIAN_POINT('',(3.9,-17.52851707176,35.7239));
#913 = CARTESIAN_POINT('',(6.647140860548,-16.52870688021,20.5739));
#914 = CARTESIAN_POINT('',(3.9,-17.00703414352,35.7239));
#915 = CARTESIAN_POINT('',(6.441421483567,-15.78544404229,20.5739));
#916 = CARTESIAN_POINT('',(3.9,-16.48555121528,35.7239));
#917 = CARTESIAN_POINT('',(6.136763940204,-15.07696405698,20.5739));
#918 = CARTESIAN_POINT('',(3.9,-15.96406828704,35.7239));
#919 = CARTESIAN_POINT('',(5.740997199296,-14.4192928034,20.5739));
#920 = CARTESIAN_POINT('',(3.9,-15.4425853588,35.7239));
#921 = CARTESIAN_POINT('',(5.265,-13.82598828126,20.5739));
#922 = CARTESIAN_POINT('',(3.9,-14.92110243056,35.7239));
#923 = ADVANCED_FACE('',(#924,#930),#964,.T.);
#924 = FACE_BOUND('',#925,.T.);
#925 = EDGE_LOOP('',(#926,#927,#928,#929));
#926 = ORIENTED_EDGE('',*,*,#642,.T.);
#927 = ORIENTED_EDGE('',*,*,#666,.T.);
#928 = ORIENTED_EDGE('',*,*,#688,.T.);
#929 = ORIENTED_EDGE('',*,*,#618,.T.);
#930 = FACE_BOUND('',#931,.T.);
#931 = EDGE_LOOP('',(#932,#942,#950,#958));
#932 = ORIENTED_EDGE('',*,*,#933,.F.);
#933 = EDGE_CURVE('',#934,#936,#938,.T.);
#934 = VERTEX_POINT('',#935);
#935 = CARTESIAN_POINT('',(-1.125,-18.89,35.7239));
#936 = VERTEX_POINT('',#937);
#937 = CARTESIAN_POINT('',(1.125,-18.89,35.7239));
#938 = LINE('',#939,#940);
#939 = CARTESIAN_POINT('',(-1.125,-18.89,35.7239));
#940 = VECTOR('',#941,1.);
#941 = DIRECTION('',(1.,0.,0.));
#942 = ORIENTED_EDGE('',*,*,#943,.F.);
#943 = EDGE_CURVE('',#944,#934,#946,.T.);
#944 = VERTEX_POINT('',#945);
#945 = CARTESIAN_POINT('',(-1.125,-17.21,35.7239));
#946 = LINE('',#947,#948);
#947 = CARTESIAN_POINT('',(-1.125,-17.21,35.7239));
#948 = VECTOR('',#949,1.);
#949 = DIRECTION('',(0.,-1.,0.));
#950 = ORIENTED_EDGE('',*,*,#951,.F.);
#951 = EDGE_CURVE('',#952,#944,#954,.T.);
#952 = VERTEX_POINT('',#953);
#953 = CARTESIAN_POINT('',(1.125,-17.21,35.7239));
#954 = LINE('',#955,#956);
#955 = CARTESIAN_POINT('',(1.125,-17.21,35.7239));
#956 = VECTOR('',#957,1.);
#957 = DIRECTION('',(-1.,0.,0.));
#958 = ORIENTED_EDGE('',*,*,#959,.F.);
#959 = EDGE_CURVE('',#936,#952,#960,.T.);
#960 = LINE('',#961,#962);
#961 = CARTESIAN_POINT('',(1.125,-18.89,35.7239));
#962 = VECTOR('',#963,1.);
#963 = DIRECTION('',(0.,1.,0.));
#964 = PLANE('',#965);
#965 = AXIS2_PLACEMENT_3D('',#966,#967,#968);
#966 = CARTESIAN_POINT('',(1.32E-15,-18.05,35.7239));
#967 = DIRECTION('',(0.,0.,1.));
#968 = DIRECTION('',(1.,0.,0.));
#969 = ADVANCED_FACE('',(#970,#1068,#1079,#1090,#1101,#1108),#1119,.T.);
#970 = FACE_BOUND('',#971,.T.);
#971 = EDGE_LOOP('',(#972,#982,#990,#998,#1006,#1014,#1022,#1030,#1038,
    #1046,#1054,#1062));
#972 = ORIENTED_EDGE('',*,*,#973,.T.);
#973 = EDGE_CURVE('',#974,#976,#978,.T.);
#974 = VERTEX_POINT('',#975);
#975 = CARTESIAN_POINT('',(-12.5,-29.,20.5739));
#976 = VERTEX_POINT('',#977);
#977 = CARTESIAN_POINT('',(12.5,-29.,20.5739));
#978 = LINE('',#979,#980);
#979 = CARTESIAN_POINT('',(-12.5,-29.,20.5739));
#980 = VECTOR('',#981,1.);
#981 = DIRECTION('',(1.,0.,0.));
#982 = ORIENTED_EDGE('',*,*,#983,.T.);
#983 = EDGE_CURVE('',#976,#984,#986,.T.);
#984 = VERTEX_POINT('',#985);
#985 = CARTESIAN_POINT('',(13.8239,-26.125,20.5739));
#986 = LINE('',#987,#988);
#987 = CARTESIAN_POINT('',(12.5,-29.,20.5739));
#988 = VECTOR('',#989,1.);
#989 = DIRECTION('',(0.418270640141,0.908322449131,0.));
#990 = ORIENTED_EDGE('',*,*,#991,.T.);
#991 = EDGE_CURVE('',#984,#992,#994,.T.);
#992 = VERTEX_POINT('',#993);
#993 = CARTESIAN_POINT('',(12.5,-23.25,20.5739));
#994 = LINE('',#995,#996);
#995 = CARTESIAN_POINT('',(13.8239,-26.125,20.5739));
#996 = VECTOR('',#997,1.);
#997 = DIRECTION('',(-0.418270640141,0.908322449131,0.));
#998 = ORIENTED_EDGE('',*,*,#999,.T.);
#999 = EDGE_CURVE('',#992,#1000,#1002,.T.);
#1000 = VERTEX_POINT('',#1001);
#1001 = CARTESIAN_POINT('',(12.5,-14.,20.5739));
#1002 = LINE('',#1003,#1004);
#1003 = CARTESIAN_POINT('',(12.5,-23.25,20.5739));
#1004 = VECTOR('',#1005,1.);
#1005 = DIRECTION('',(0.,1.,0.));
#1006 = ORIENTED_EDGE('',*,*,#1007,.T.);
#1007 = EDGE_CURVE('',#1000,#1008,#1010,.T.);
#1008 = VERTEX_POINT('',#1009);
#1009 = CARTESIAN_POINT('',(13.8239,-11.125,20.5739));
#1010 = LINE('',#1011,#1012);
#1011 = CARTESIAN_POINT('',(12.5,-14.,20.5739));
#1012 = VECTOR('',#1013,1.);
#1013 = DIRECTION('',(0.418270640141,0.908322449131,0.));
#1014 = ORIENTED_EDGE('',*,*,#1015,.T.);
#1015 = EDGE_CURVE('',#1008,#1016,#1018,.T.);
#1016 = VERTEX_POINT('',#1017);
#1017 = CARTESIAN_POINT('',(12.5,-8.25,20.5739));
#1018 = LINE('',#1019,#1020);
#1019 = CARTESIAN_POINT('',(13.8239,-11.125,20.5739));
#1020 = VECTOR('',#1021,1.);
#1021 = DIRECTION('',(-0.418270640141,0.908322449131,0.));
#1022 = ORIENTED_EDGE('',*,*,#1023,.T.);
#1023 = EDGE_CURVE('',#1016,#1024,#1026,.T.);
#1024 = VERTEX_POINT('',#1025);
#1025 = CARTESIAN_POINT('',(-12.5,-8.25,20.5739));
#1026 = LINE('',#1027,#1028);
#1027 = CARTESIAN_POINT('',(12.5,-8.25,20.5739));
#1028 = VECTOR('',#1029,1.);
#1029 = DIRECTION('',(-1.,0.,0.));
#1030 = ORIENTED_EDGE('',*,*,#1031,.T.);
#1031 = EDGE_CURVE('',#1024,#1032,#1034,.T.);
#1032 = VERTEX_POINT('',#1033);
#1033 = CARTESIAN_POINT('',(-13.8239,-11.125,20.5739));
#1034 = LINE('',#1035,#1036);
#1035 = CARTESIAN_POINT('',(-12.5,-8.25,20.5739));
#1036 = VECTOR('',#1037,1.);
#1037 = DIRECTION('',(-0.418270640141,-0.908322449131,0.));
#1038 = ORIENTED_EDGE('',*,*,#1039,.T.);
#1039 = EDGE_CURVE('',#1032,#1040,#1042,.T.);
#1040 = VERTEX_POINT('',#1041);
#1041 = CARTESIAN_POINT('',(-12.5,-14.,20.5739));
#1042 = LINE('',#1043,#1044);
#1043 = CARTESIAN_POINT('',(-13.8239,-11.125,20.5739));
#1044 = VECTOR('',#1045,1.);
#1045 = DIRECTION('',(0.418270640141,-0.908322449131,0.));
#1046 = ORIENTED_EDGE('',*,*,#1047,.T.);
#1047 = EDGE_CURVE('',#1040,#1048,#1050,.T.);
#1048 = VERTEX_POINT('',#1049);
#1049 = CARTESIAN_POINT('',(-12.5,-23.25,20.5739));
#1050 = LINE('',#1051,#1052);
#1051 = CARTESIAN_POINT('',(-12.5,-14.,20.5739));
#1052 = VECTOR('',#1053,1.);
#1053 = DIRECTION('',(0.,-1.,0.));
#1054 = ORIENTED_EDGE('',*,*,#1055,.T.);
#1055 = EDGE_CURVE('',#1048,#1056,#1058,.T.);
#1056 = VERTEX_POINT('',#1057);
#1057 = CARTESIAN_POINT('',(-13.8239,-26.125,20.5739));
#1058 = LINE('',#1059,#1060);
#1059 = CARTESIAN_POINT('',(-12.5,-23.25,20.5739));
#1060 = VECTOR('',#1061,1.);
#1061 = DIRECTION('',(-0.418270640141,-0.908322449131,0.));
#1062 = ORIENTED_EDGE('',*,*,#1063,.T.);
#1063 = EDGE_CURVE('',#1056,#974,#1064,.T.);
#1064 = LINE('',#1065,#1066);
#1065 = CARTESIAN_POINT('',(-13.8239,-26.125,20.5739));
#1066 = VECTOR('',#1067,1.);
#1067 = DIRECTION('',(0.418270640141,-0.908322449131,0.));
#1068 = FACE_BOUND('',#1069,.T.);
#1069 = EDGE_LOOP('',(#1070));
#1070 = ORIENTED_EDGE('',*,*,#1071,.F.);
#1071 = EDGE_CURVE('',#1072,#1072,#1074,.T.);
#1072 = VERTEX_POINT('',#1073);
#1073 = CARTESIAN_POINT('',(-9.4,-26.125,20.5739));
#1074 = CIRCLE('',#1075,1.1);
#1075 = AXIS2_PLACEMENT_3D('',#1076,#1077,#1078);
#1076 = CARTESIAN_POINT('',(-10.5,-26.125,20.5739));
#1077 = DIRECTION('',(0.,0.,1.));
#1078 = DIRECTION('',(1.,0.,0.));
#1079 = FACE_BOUND('',#1080,.T.);
#1080 = EDGE_LOOP('',(#1081));
#1081 = ORIENTED_EDGE('',*,*,#1082,.F.);
#1082 = EDGE_CURVE('',#1083,#1083,#1085,.T.);
#1083 = VERTEX_POINT('',#1084);
#1084 = CARTESIAN_POINT('',(11.6,-26.125,20.5739));
#1085 = CIRCLE('',#1086,1.1);
#1086 = AXIS2_PLACEMENT_3D('',#1087,#1088,#1089);
#1087 = CARTESIAN_POINT('',(10.5,-26.125,20.5739));
#1088 = DIRECTION('',(0.,0.,1.));
#1089 = DIRECTION('',(1.,0.,0.));
#1090 = FACE_BOUND('',#1091,.T.);
#1091 = EDGE_LOOP('',(#1092));
#1092 = ORIENTED_EDGE('',*,*,#1093,.F.);
#1093 = EDGE_CURVE('',#1094,#1094,#1096,.T.);
#1094 = VERTEX_POINT('',#1095);
#1095 = CARTESIAN_POINT('',(-9.4,-11.125,20.5739));
#1096 = CIRCLE('',#1097,1.1);
#1097 = AXIS2_PLACEMENT_3D('',#1098,#1099,#1100);
#1098 = CARTESIAN_POINT('',(-10.5,-11.125,20.5739));
#1099 = DIRECTION('',(0.,0.,1.));
#1100 = DIRECTION('',(1.,0.,0.));
#1101 = FACE_BOUND('',#1102,.T.);
#1102 = EDGE_LOOP('',(#1103,#1104,#1105,#1106,#1107));
#1103 = ORIENTED_EDGE('',*,*,#899,.F.);
#1104 = ORIENTED_EDGE('',*,*,#865,.F.);
#1105 = ORIENTED_EDGE('',*,*,#841,.F.);
#1106 = ORIENTED_EDGE('',*,*,#803,.F.);
#1107 = ORIENTED_EDGE('',*,*,#778,.F.);
#1108 = FACE_BOUND('',#1109,.T.);
#1109 = EDGE_LOOP('',(#1110));
#1110 = ORIENTED_EDGE('',*,*,#1111,.F.);
#1111 = EDGE_CURVE('',#1112,#1112,#1114,.T.);
#1112 = VERTEX_POINT('',#1113);
#1113 = CARTESIAN_POINT('',(11.6,-11.125,20.5739));
#1114 = CIRCLE('',#1115,1.1);
#1115 = AXIS2_PLACEMENT_3D('',#1116,#1117,#1118);
#1116 = CARTESIAN_POINT('',(10.5,-11.125,20.5739));
#1117 = DIRECTION('',(0.,0.,1.));
#1118 = DIRECTION('',(1.,0.,0.));
#1119 = PLANE('',#1120);
#1120 = AXIS2_PLACEMENT_3D('',#1121,#1122,#1123);
#1121 = CARTESIAN_POINT('',(-5.8E-16,-18.50740064259,20.5739));
#1122 = DIRECTION('',(0.,0.,1.));
#1123 = DIRECTION('',(1.,0.,0.));
#1124 = ADVANCED_FACE('',(#1125),#1148,.F.);
#1125 = FACE_BOUND('',#1126,.F.);
#1126 = EDGE_LOOP('',(#1127,#1137,#1142,#1143));
#1127 = ORIENTED_EDGE('',*,*,#1128,.T.);
#1128 = EDGE_CURVE('',#1129,#1131,#1133,.T.);
#1129 = VERTEX_POINT('',#1130);
#1130 = CARTESIAN_POINT('',(-4.25,-21.3,20.5739));
#1131 = VERTEX_POINT('',#1132);
#1132 = CARTESIAN_POINT('',(4.25,-21.3,20.5739));
#1133 = LINE('',#1134,#1135);
#1134 = CARTESIAN_POINT('',(-4.25,-21.3,20.5739));
#1135 = VECTOR('',#1136,1.);
#1136 = DIRECTION('',(1.,0.,0.));
#1137 = ORIENTED_EDGE('',*,*,#1138,.T.);
#1138 = EDGE_CURVE('',#1131,#936,#1139,.T.);
#1139 = B_SPLINE_CURVE_WITH_KNOTS('',1,(#1140,#1141),.UNSPECIFIED.,.F.,
  .F.,(2,2),(0.,1.),.PIECEWISE_BEZIER_KNOTS.);
#1140 = CARTESIAN_POINT('',(4.25,-21.3,20.5739));
#1141 = CARTESIAN_POINT('',(1.125,-18.89,35.7239));
#1142 = ORIENTED_EDGE('',*,*,#933,.F.);
#1143 = ORIENTED_EDGE('',*,*,#1144,.F.);
#1144 = EDGE_CURVE('',#1129,#934,#1145,.T.);
#1145 = B_SPLINE_CURVE_WITH_KNOTS('',1,(#1146,#1147),.UNSPECIFIED.,.F.,
  .F.,(2,2),(0.,1.),.PIECEWISE_BEZIER_KNOTS.);
#1146 = CARTESIAN_POINT('',(-4.25,-21.3,20.5739));
#1147 = CARTESIAN_POINT('',(-1.125,-18.89,35.7239));
#1148 = B_SPLINE_SURFACE_WITH_KNOTS('',1,1,(
    (#1149,#1150)
    ,(#1151,#1152
    )),.UNSPECIFIED.,.F.,.F.,.F.,(2,2),(2,2),(0.,8.5),(0.,1.),
  .PIECEWISE_BEZIER_KNOTS.);
#1149 = CARTESIAN_POINT('',(-4.25,-21.3,20.5739));
#1150 = CARTESIAN_POINT('',(-1.125,-18.89,35.7239));
#1151 = CARTESIAN_POINT('',(4.25,-21.3,20.5739));
#1152 = CARTESIAN_POINT('',(1.125,-18.89,35.7239));
#1153 = ADVANCED_FACE('',(#1154),#1171,.F.);
#1154 = FACE_BOUND('',#1155,.F.);
#1155 = EDGE_LOOP('',(#1156,#1164,#1165,#1166));
#1156 = ORIENTED_EDGE('',*,*,#1157,.T.);
#1157 = EDGE_CURVE('',#1158,#1129,#1160,.T.);
#1158 = VERTEX_POINT('',#1159);
#1159 = CARTESIAN_POINT('',(-4.25,-14.8,20.5739));
#1160 = LINE('',#1161,#1162);
#1161 = CARTESIAN_POINT('',(-4.25,-14.8,20.5739));
#1162 = VECTOR('',#1163,1.);
#1163 = DIRECTION('',(0.,-1.,0.));
#1164 = ORIENTED_EDGE('',*,*,#1144,.T.);
#1165 = ORIENTED_EDGE('',*,*,#943,.F.);
#1166 = ORIENTED_EDGE('',*,*,#1167,.F.);
#1167 = EDGE_CURVE('',#1158,#944,#1168,.T.);
#1168 = B_SPLINE_CURVE_WITH_KNOTS('',1,(#1169,#1170),.UNSPECIFIED.,.F.,
  .F.,(2,2),(0.,1.),.PIECEWISE_BEZIER_KNOTS.);
#1169 = CARTESIAN_POINT('',(-4.25,-14.8,20.5739));
#1170 = CARTESIAN_POINT('',(-1.125,-17.21,35.7239));
#1171 = B_SPLINE_SURFACE_WITH_KNOTS('',1,1,(
    (#1172,#1173)
    ,(#1174,#1175
    )),.UNSPECIFIED.,.F.,.F.,.F.,(2,2),(2,2),(0.,6.5),(0.,1.),
  .PIECEWISE_BEZIER_KNOTS.);
#1172 = CARTESIAN_POINT('',(-4.25,-14.8,20.5739));
#1173 = CARTESIAN_POINT('',(-1.125,-17.21,35.7239));
#1174 = CARTESIAN_POINT('',(-4.25,-21.3,20.5739));
#1175 = CARTESIAN_POINT('',(-1.125,-18.89,35.7239));
#1176 = ADVANCED_FACE('',(#1177),#1194,.F.);
#1177 = FACE_BOUND('',#1178,.F.);
#1178 = EDGE_LOOP('',(#1179,#1187,#1188,#1189));
#1179 = ORIENTED_EDGE('',*,*,#1180,.T.);
#1180 = EDGE_CURVE('',#1181,#1158,#1183,.T.);
#1181 = VERTEX_POINT('',#1182);
#1182 = CARTESIAN_POINT('',(4.25,-14.8,20.5739));
#1183 = LINE('',#1184,#1185);
#1184 = CARTESIAN_POINT('',(4.25,-14.8,20.5739));
#1185 = VECTOR('',#1186,1.);
#1186 = DIRECTION('',(-1.,0.,0.));
#1187 = ORIENTED_EDGE('',*,*,#1167,.T.);
#1188 = ORIENTED_EDGE('',*,*,#951,.F.);
#1189 = ORIENTED_EDGE('',*,*,#1190,.F.);
#1190 = EDGE_CURVE('',#1181,#952,#1191,.T.);
#1191 = B_SPLINE_CURVE_WITH_KNOTS('',1,(#1192,#1193),.UNSPECIFIED.,.F.,
  .F.,(2,2),(0.,1.),.PIECEWISE_BEZIER_KNOTS.);
#1192 = CARTESIAN_POINT('',(4.25,-14.8,20.5739));
#1193 = CARTESIAN_POINT('',(1.125,-17.21,35.7239));
#1194 = B_SPLINE_SURFACE_WITH_KNOTS('',1,1,(
    (#1195,#1196)
    ,(#1197,#1198
    )),.UNSPECIFIED.,.F.,.F.,.F.,(2,2),(2,2),(0.,8.5),(0.,1.),
  .PIECEWISE_BEZIER_KNOTS.);
#1195 = CARTESIAN_POINT('',(4.25,-14.8,20.5739));
#1196 = CARTESIAN_POINT('',(1.125,-17.21,35.7239));
#1197 = CARTESIAN_POINT('',(-4.25,-14.8,20.5739));
#1198 = CARTESIAN_POINT('',(-1.125,-17.21,35.7239));
#1199 = ADVANCED_FACE('',(#1200),#1211,.F.);
#1200 = FACE_BOUND('',#1201,.F.);
#1201 = EDGE_LOOP('',(#1202,#1208,#1209,#1210));
#1202 = ORIENTED_EDGE('',*,*,#1203,.T.);
#1203 = EDGE_CURVE('',#1131,#1181,#1204,.T.);
#1204 = LINE('',#1205,#1206);
#1205 = CARTESIAN_POINT('',(4.25,-21.3,20.5739));
#1206 = VECTOR('',#1207,1.);
#1207 = DIRECTION('',(0.,1.,0.));
#1208 = ORIENTED_EDGE('',*,*,#1190,.T.);
#1209 = ORIENTED_EDGE('',*,*,#959,.F.);
#1210 = ORIENTED_EDGE('',*,*,#1138,.F.);
#1211 = B_SPLINE_SURFACE_WITH_KNOTS('',1,1,(
    (#1212,#1213)
    ,(#1214,#1215
    )),.UNSPECIFIED.,.F.,.F.,.F.,(2,2),(2,2),(0.,6.5),(0.,1.),
  .PIECEWISE_BEZIER_KNOTS.);
#1212 = CARTESIAN_POINT('',(4.25,-21.3,20.5739));
#1213 = CARTESIAN_POINT('',(1.125,-18.89,35.7239));
#1214 = CARTESIAN_POINT('',(4.25,-14.8,20.5739));
#1215 = CARTESIAN_POINT('',(1.125,-17.21,35.7239));
#1216 = ADVANCED_FACE('',(#1217),#1242,.F.);
#1217 = FACE_BOUND('',#1218,.F.);
#1218 = EDGE_LOOP('',(#1219,#1227,#1228,#1236));
#1219 = ORIENTED_EDGE('',*,*,#1220,.T.);
#1220 = EDGE_CURVE('',#1221,#974,#1223,.T.);
#1221 = VERTEX_POINT('',#1222);
#1222 = CARTESIAN_POINT('',(-12.5,-29.,18.5739));
#1223 = LINE('',#1224,#1225);
#1224 = CARTESIAN_POINT('',(-12.5,-29.,18.5739));
#1225 = VECTOR('',#1226,1.);
#1226 = DIRECTION('',(0.,0.,1.));
#1227 = ORIENTED_EDGE('',*,*,#973,.T.);
#1228 = ORIENTED_EDGE('',*,*,#1229,.F.);
#1229 = EDGE_CURVE('',#1230,#976,#1232,.T.);
#1230 = VERTEX_POINT('',#1231);
#1231 = CARTESIAN_POINT('',(12.5,-29.,18.5739));
#1232 = LINE('',#1233,#1234);
#1233 = CARTESIAN_POINT('',(12.5,-29.,18.5739));
#1234 = VECTOR('',#1235,1.);
#1235 = DIRECTION('',(0.,0.,1.));
#1236 = ORIENTED_EDGE('',*,*,#1237,.F.);
#1237 = EDGE_CURVE('',#1221,#1230,#1238,.T.);
#1238 = LINE('',#1239,#1240);
#1239 = CARTESIAN_POINT('',(-12.5,-29.,18.5739));
#1240 = VECTOR('',#1241,1.);
#1241 = DIRECTION('',(1.,0.,0.));
#1242 = PLANE('',#1243);
#1243 = AXIS2_PLACEMENT_3D('',#1244,#1245,#1246);
#1244 = CARTESIAN_POINT('',(-12.5,-29.,18.5739));
#1245 = DIRECTION('',(0.,1.,0.));
#1246 = DIRECTION('',(1.,0.,0.));
#1247 = ADVANCED_FACE('',(#1248),#1266,.F.);
#1248 = FACE_BOUND('',#1249,.F.);
#1249 = EDGE_LOOP('',(#1250,#1258,#1259,#1260));
#1250 = ORIENTED_EDGE('',*,*,#1251,.T.);
#1251 = EDGE_CURVE('',#1252,#1056,#1254,.T.);
#1252 = VERTEX_POINT('',#1253);
#1253 = CARTESIAN_POINT('',(-13.8239,-26.125,18.5739));
#1254 = LINE('',#1255,#1256);
#1255 = CARTESIAN_POINT('',(-13.8239,-26.125,18.5739));
#1256 = VECTOR('',#1257,1.);
#1257 = DIRECTION('',(0.,0.,1.));
#1258 = ORIENTED_EDGE('',*,*,#1063,.T.);
#1259 = ORIENTED_EDGE('',*,*,#1220,.F.);
#1260 = ORIENTED_EDGE('',*,*,#1261,.F.);
#1261 = EDGE_CURVE('',#1252,#1221,#1262,.T.);
#1262 = LINE('',#1263,#1264);
#1263 = CARTESIAN_POINT('',(-13.8239,-26.125,18.5739));
#1264 = VECTOR('',#1265,1.);
#1265 = DIRECTION('',(0.418270640141,-0.908322449131,0.));
#1266 = PLANE('',#1267);
#1267 = AXIS2_PLACEMENT_3D('',#1268,#1269,#1270);
#1268 = CARTESIAN_POINT('',(-13.8239,-26.125,18.5739));
#1269 = DIRECTION('',(0.908322449131,0.418270640141,0.));
#1270 = DIRECTION('',(0.418270640141,-0.908322449131,0.));
#1271 = ADVANCED_FACE('',(#1272),#1290,.F.);
#1272 = FACE_BOUND('',#1273,.F.);
#1273 = EDGE_LOOP('',(#1274,#1275,#1276,#1284));
#1274 = ORIENTED_EDGE('',*,*,#1229,.T.);
#1275 = ORIENTED_EDGE('',*,*,#983,.T.);
#1276 = ORIENTED_EDGE('',*,*,#1277,.F.);
#1277 = EDGE_CURVE('',#1278,#984,#1280,.T.);
#1278 = VERTEX_POINT('',#1279);
#1279 = CARTESIAN_POINT('',(13.8239,-26.125,18.5739));
#1280 = LINE('',#1281,#1282);
#1281 = CARTESIAN_POINT('',(13.8239,-26.125,18.5739));
#1282 = VECTOR('',#1283,1.);
#1283 = DIRECTION('',(0.,0.,1.));
#1284 = ORIENTED_EDGE('',*,*,#1285,.F.);
#1285 = EDGE_CURVE('',#1230,#1278,#1286,.T.);
#1286 = LINE('',#1287,#1288);
#1287 = CARTESIAN_POINT('',(12.5,-29.,18.5739));
#1288 = VECTOR('',#1289,1.);
#1289 = DIRECTION('',(0.418270640141,0.908322449131,0.));
#1290 = PLANE('',#1291);
#1291 = AXIS2_PLACEMENT_3D('',#1292,#1293,#1294);
#1292 = CARTESIAN_POINT('',(12.5,-29.,18.5739));
#1293 = DIRECTION('',(-0.908322449131,0.418270640141,0.));
#1294 = DIRECTION('',(0.418270640141,0.908322449131,0.));
#1295 = ADVANCED_FACE('',(#1296),#1314,.F.);
#1296 = FACE_BOUND('',#1297,.F.);
#1297 = EDGE_LOOP('',(#1298,#1306,#1307,#1308));
#1298 = ORIENTED_EDGE('',*,*,#1299,.T.);
#1299 = EDGE_CURVE('',#1300,#1048,#1302,.T.);
#1300 = VERTEX_POINT('',#1301);
#1301 = CARTESIAN_POINT('',(-12.5,-23.25,18.5739));
#1302 = LINE('',#1303,#1304);
#1303 = CARTESIAN_POINT('',(-12.5,-23.25,18.5739));
#1304 = VECTOR('',#1305,1.);
#1305 = DIRECTION('',(0.,0.,1.));
#1306 = ORIENTED_EDGE('',*,*,#1055,.T.);
#1307 = ORIENTED_EDGE('',*,*,#1251,.F.);
#1308 = ORIENTED_EDGE('',*,*,#1309,.F.);
#1309 = EDGE_CURVE('',#1300,#1252,#1310,.T.);
#1310 = LINE('',#1311,#1312);
#1311 = CARTESIAN_POINT('',(-12.5,-23.25,18.5739));
#1312 = VECTOR('',#1313,1.);
#1313 = DIRECTION('',(-0.418270640141,-0.908322449131,0.));
#1314 = PLANE('',#1315);
#1315 = AXIS2_PLACEMENT_3D('',#1316,#1317,#1318);
#1316 = CARTESIAN_POINT('',(-12.5,-23.25,18.5739));
#1317 = DIRECTION('',(0.908322449131,-0.418270640141,0.));
#1318 = DIRECTION('',(-0.418270640141,-0.908322449131,0.));
#1319 = ADVANCED_FACE('',(#1320),#1338,.F.);
#1320 = FACE_BOUND('',#1321,.F.);
#1321 = EDGE_LOOP('',(#1322,#1323,#1324,#1332));
#1322 = ORIENTED_EDGE('',*,*,#1277,.T.);
#1323 = ORIENTED_EDGE('',*,*,#991,.T.);
#1324 = ORIENTED_EDGE('',*,*,#1325,.F.);
#1325 = EDGE_CURVE('',#1326,#992,#1328,.T.);
#1326 = VERTEX_POINT('',#1327);
#1327 = CARTESIAN_POINT('',(12.5,-23.25,18.5739));
#1328 = LINE('',#1329,#1330);
#1329 = CARTESIAN_POINT('',(12.5,-23.25,18.5739));
#1330 = VECTOR('',#1331,1.);
#1331 = DIRECTION('',(0.,0.,1.));
#1332 = ORIENTED_EDGE('',*,*,#1333,.F.);
#1333 = EDGE_CURVE('',#1278,#1326,#1334,.T.);
#1334 = LINE('',#1335,#1336);
#1335 = CARTESIAN_POINT('',(13.8239,-26.125,18.5739));
#1336 = VECTOR('',#1337,1.);
#1337 = DIRECTION('',(-0.418270640141,0.908322449131,0.));
#1338 = PLANE('',#1339);
#1339 = AXIS2_PLACEMENT_3D('',#1340,#1341,#1342);
#1340 = CARTESIAN_POINT('',(13.8239,-26.125,18.5739));
#1341 = DIRECTION('',(-0.908322449131,-0.418270640141,0.));
#1342 = DIRECTION('',(-0.418270640141,0.908322449131,0.));
#1343 = ADVANCED_FACE('',(#1344),#1362,.F.);
#1344 = FACE_BOUND('',#1345,.F.);
#1345 = EDGE_LOOP('',(#1346,#1354,#1355,#1356));
#1346 = ORIENTED_EDGE('',*,*,#1347,.T.);
#1347 = EDGE_CURVE('',#1348,#1040,#1350,.T.);
#1348 = VERTEX_POINT('',#1349);
#1349 = CARTESIAN_POINT('',(-12.5,-14.,18.5739));
#1350 = LINE('',#1351,#1352);
#1351 = CARTESIAN_POINT('',(-12.5,-14.,18.5739));
#1352 = VECTOR('',#1353,1.);
#1353 = DIRECTION('',(0.,0.,1.));
#1354 = ORIENTED_EDGE('',*,*,#1047,.T.);
#1355 = ORIENTED_EDGE('',*,*,#1299,.F.);
#1356 = ORIENTED_EDGE('',*,*,#1357,.F.);
#1357 = EDGE_CURVE('',#1348,#1300,#1358,.T.);
#1358 = LINE('',#1359,#1360);
#1359 = CARTESIAN_POINT('',(-12.5,-14.,18.5739));
#1360 = VECTOR('',#1361,1.);
#1361 = DIRECTION('',(0.,-1.,0.));
#1362 = PLANE('',#1363);
#1363 = AXIS2_PLACEMENT_3D('',#1364,#1365,#1366);
#1364 = CARTESIAN_POINT('',(-12.5,-14.,18.5739));
#1365 = DIRECTION('',(1.,0.,0.));
#1366 = DIRECTION('',(0.,-1.,0.));
#1367 = ADVANCED_FACE('',(#1368),#1386,.F.);
#1368 = FACE_BOUND('',#1369,.F.);
#1369 = EDGE_LOOP('',(#1370,#1371,#1372,#1380));
#1370 = ORIENTED_EDGE('',*,*,#1325,.T.);
#1371 = ORIENTED_EDGE('',*,*,#999,.T.);
#1372 = ORIENTED_EDGE('',*,*,#1373,.F.);
#1373 = EDGE_CURVE('',#1374,#1000,#1376,.T.);
#1374 = VERTEX_POINT('',#1375);
#1375 = CARTESIAN_POINT('',(12.5,-14.,18.5739));
#1376 = LINE('',#1377,#1378);
#1377 = CARTESIAN_POINT('',(12.5,-14.,18.5739));
#1378 = VECTOR('',#1379,1.);
#1379 = DIRECTION('',(0.,0.,1.));
#1380 = ORIENTED_EDGE('',*,*,#1381,.F.);
#1381 = EDGE_CURVE('',#1326,#1374,#1382,.T.);
#1382 = LINE('',#1383,#1384);
#1383 = CARTESIAN_POINT('',(12.5,-23.25,18.5739));
#1384 = VECTOR('',#1385,1.);
#1385 = DIRECTION('',(0.,1.,0.));
#1386 = PLANE('',#1387);
#1387 = AXIS2_PLACEMENT_3D('',#1388,#1389,#1390);
#1388 = CARTESIAN_POINT('',(12.5,-23.25,18.5739));
#1389 = DIRECTION('',(-1.,0.,0.));
#1390 = DIRECTION('',(0.,1.,0.));
#1391 = ADVANCED_FACE('',(#1392),#1410,.F.);
#1392 = FACE_BOUND('',#1393,.F.);
#1393 = EDGE_LOOP('',(#1394,#1402,#1403,#1404));
#1394 = ORIENTED_EDGE('',*,*,#1395,.T.);
#1395 = EDGE_CURVE('',#1396,#1032,#1398,.T.);
#1396 = VERTEX_POINT('',#1397);
#1397 = CARTESIAN_POINT('',(-13.8239,-11.125,18.5739));
#1398 = LINE('',#1399,#1400);
#1399 = CARTESIAN_POINT('',(-13.8239,-11.125,18.5739));
#1400 = VECTOR('',#1401,1.);
#1401 = DIRECTION('',(0.,0.,1.));
#1402 = ORIENTED_EDGE('',*,*,#1039,.T.);
#1403 = ORIENTED_EDGE('',*,*,#1347,.F.);
#1404 = ORIENTED_EDGE('',*,*,#1405,.F.);
#1405 = EDGE_CURVE('',#1396,#1348,#1406,.T.);
#1406 = LINE('',#1407,#1408);
#1407 = CARTESIAN_POINT('',(-13.8239,-11.125,18.5739));
#1408 = VECTOR('',#1409,1.);
#1409 = DIRECTION('',(0.418270640141,-0.908322449131,0.));
#1410 = PLANE('',#1411);
#1411 = AXIS2_PLACEMENT_3D('',#1412,#1413,#1414);
#1412 = CARTESIAN_POINT('',(-13.8239,-11.125,18.5739));
#1413 = DIRECTION('',(0.908322449131,0.418270640141,0.));
#1414 = DIRECTION('',(0.418270640141,-0.908322449131,0.));
#1415 = ADVANCED_FACE('',(#1416),#1434,.F.);
#1416 = FACE_BOUND('',#1417,.F.);
#1417 = EDGE_LOOP('',(#1418,#1419,#1420,#1428));
#1418 = ORIENTED_EDGE('',*,*,#1373,.T.);
#1419 = ORIENTED_EDGE('',*,*,#1007,.T.);
#1420 = ORIENTED_EDGE('',*,*,#1421,.F.);
#1421 = EDGE_CURVE('',#1422,#1008,#1424,.T.);
#1422 = VERTEX_POINT('',#1423);
#1423 = CARTESIAN_POINT('',(13.8239,-11.125,18.5739));
#1424 = LINE('',#1425,#1426);
#1425 = CARTESIAN_POINT('',(13.8239,-11.125,18.5739));
#1426 = VECTOR('',#1427,1.);
#1427 = DIRECTION('',(0.,0.,1.));
#1428 = ORIENTED_EDGE('',*,*,#1429,.F.);
#1429 = EDGE_CURVE('',#1374,#1422,#1430,.T.);
#1430 = LINE('',#1431,#1432);
#1431 = CARTESIAN_POINT('',(12.5,-14.,18.5739));
#1432 = VECTOR('',#1433,1.);
#1433 = DIRECTION('',(0.418270640141,0.908322449131,0.));
#1434 = PLANE('',#1435);
#1435 = AXIS2_PLACEMENT_3D('',#1436,#1437,#1438);
#1436 = CARTESIAN_POINT('',(12.5,-14.,18.5739));
#1437 = DIRECTION('',(-0.908322449131,0.418270640141,0.));
#1438 = DIRECTION('',(0.418270640141,0.908322449131,0.));
#1439 = ADVANCED_FACE('',(#1440),#1458,.F.);
#1440 = FACE_BOUND('',#1441,.F.);
#1441 = EDGE_LOOP('',(#1442,#1450,#1451,#1452));
#1442 = ORIENTED_EDGE('',*,*,#1443,.T.);
#1443 = EDGE_CURVE('',#1444,#1024,#1446,.T.);
#1444 = VERTEX_POINT('',#1445);
#1445 = CARTESIAN_POINT('',(-12.5,-8.25,18.5739));
#1446 = LINE('',#1447,#1448);
#1447 = CARTESIAN_POINT('',(-12.5,-8.25,18.5739));
#1448 = VECTOR('',#1449,1.);
#1449 = DIRECTION('',(0.,0.,1.));
#1450 = ORIENTED_EDGE('',*,*,#1031,.T.);
#1451 = ORIENTED_EDGE('',*,*,#1395,.F.);
#1452 = ORIENTED_EDGE('',*,*,#1453,.F.);
#1453 = EDGE_CURVE('',#1444,#1396,#1454,.T.);
#1454 = LINE('',#1455,#1456);
#1455 = CARTESIAN_POINT('',(-12.5,-8.25,18.5739));
#1456 = VECTOR('',#1457,1.);
#1457 = DIRECTION('',(-0.418270640141,-0.908322449131,0.));
#1458 = PLANE('',#1459);
#1459 = AXIS2_PLACEMENT_3D('',#1460,#1461,#1462);
#1460 = CARTESIAN_POINT('',(-12.5,-8.25,18.5739));
#1461 = DIRECTION('',(0.908322449131,-0.418270640141,0.));
#1462 = DIRECTION('',(-0.418270640141,-0.908322449131,0.));
#1463 = ADVANCED_FACE('',(#1464),#1482,.F.);
#1464 = FACE_BOUND('',#1465,.F.);
#1465 = EDGE_LOOP('',(#1466,#1467,#1468,#1476));
#1466 = ORIENTED_EDGE('',*,*,#1421,.T.);
#1467 = ORIENTED_EDGE('',*,*,#1015,.T.);
#1468 = ORIENTED_EDGE('',*,*,#1469,.F.);
#1469 = EDGE_CURVE('',#1470,#1016,#1472,.T.);
#1470 = VERTEX_POINT('',#1471);
#1471 = CARTESIAN_POINT('',(12.5,-8.25,18.5739));
#1472 = LINE('',#1473,#1474);
#1473 = CARTESIAN_POINT('',(12.5,-8.25,18.5739));
#1474 = VECTOR('',#1475,1.);
#1475 = DIRECTION('',(0.,0.,1.));
#1476 = ORIENTED_EDGE('',*,*,#1477,.F.);
#1477 = EDGE_CURVE('',#1422,#1470,#1478,.T.);
#1478 = LINE('',#1479,#1480);
#1479 = CARTESIAN_POINT('',(13.8239,-11.125,18.5739));
#1480 = VECTOR('',#1481,1.);
#1481 = DIRECTION('',(-0.418270640141,0.908322449131,0.));
#1482 = PLANE('',#1483);
#1483 = AXIS2_PLACEMENT_3D('',#1484,#1485,#1486);
#1484 = CARTESIAN_POINT('',(13.8239,-11.125,18.5739));
#1485 = DIRECTION('',(-0.908322449131,-0.418270640141,0.));
#1486 = DIRECTION('',(-0.418270640141,0.908322449131,0.));
#1487 = ADVANCED_FACE('',(#1488),#1499,.F.);
#1488 = FACE_BOUND('',#1489,.F.);
#1489 = EDGE_LOOP('',(#1490,#1491,#1492,#1493));
#1490 = ORIENTED_EDGE('',*,*,#1469,.T.);
#1491 = ORIENTED_EDGE('',*,*,#1023,.T.);
#1492 = ORIENTED_EDGE('',*,*,#1443,.F.);
#1493 = ORIENTED_EDGE('',*,*,#1494,.F.);
#1494 = EDGE_CURVE('',#1470,#1444,#1495,.T.);
#1495 = LINE('',#1496,#1497);
#1496 = CARTESIAN_POINT('',(12.5,-8.25,18.5739));
#1497 = VECTOR('',#1498,1.);
#1498 = DIRECTION('',(-1.,0.,0.));
#1499 = PLANE('',#1500);
#1500 = AXIS2_PLACEMENT_3D('',#1501,#1502,#1503);
#1501 = CARTESIAN_POINT('',(12.5,-8.25,18.5739));
#1502 = DIRECTION('',(0.,-1.,0.));
#1503 = DIRECTION('',(-1.,0.,0.));
#1504 = ADVANCED_FACE('',(#1505),#1524,.F.);
#1505 = FACE_BOUND('',#1506,.T.);
#1506 = EDGE_LOOP('',(#1507,#1515,#1516,#1517));
#1507 = ORIENTED_EDGE('',*,*,#1508,.T.);
#1508 = EDGE_CURVE('',#1509,#1072,#1511,.T.);
#1509 = VERTEX_POINT('',#1510);
#1510 = CARTESIAN_POINT('',(-9.4,-26.125,18.5739));
#1511 = LINE('',#1512,#1513);
#1512 = CARTESIAN_POINT('',(-9.4,-26.125,18.5739));
#1513 = VECTOR('',#1514,1.);
#1514 = DIRECTION('',(0.,0.,1.));
#1515 = ORIENTED_EDGE('',*,*,#1071,.T.);
#1516 = ORIENTED_EDGE('',*,*,#1508,.F.);
#1517 = ORIENTED_EDGE('',*,*,#1518,.F.);
#1518 = EDGE_CURVE('',#1509,#1509,#1519,.T.);
#1519 = CIRCLE('',#1520,1.1);
#1520 = AXIS2_PLACEMENT_3D('',#1521,#1522,#1523);
#1521 = CARTESIAN_POINT('',(-10.5,-26.125,18.5739));
#1522 = DIRECTION('',(0.,0.,1.));
#1523 = DIRECTION('',(1.,0.,0.));
#1524 = CYLINDRICAL_SURFACE('',#1525,1.1);
#1525 = AXIS2_PLACEMENT_3D('',#1526,#1527,#1528);
#1526 = CARTESIAN_POINT('',(-10.5,-26.125,18.5739));
#1527 = DIRECTION('',(-0.,-0.,-1.));
#1528 = DIRECTION('',(1.,0.,0.));
#1529 = ADVANCED_FACE('',(#1530),#1549,.F.);
#1530 = FACE_BOUND('',#1531,.T.);
#1531 = EDGE_LOOP('',(#1532,#1540,#1541,#1542));
#1532 = ORIENTED_EDGE('',*,*,#1533,.T.);
#1533 = EDGE_CURVE('',#1534,#1083,#1536,.T.);
#1534 = VERTEX_POINT('',#1535);
#1535 = CARTESIAN_POINT('',(11.6,-26.125,18.5739));
#1536 = LINE('',#1537,#1538);
#1537 = CARTESIAN_POINT('',(11.6,-26.125,18.5739));
#1538 = VECTOR('',#1539,1.);
#1539 = DIRECTION('',(0.,0.,1.));
#1540 = ORIENTED_EDGE('',*,*,#1082,.T.);
#1541 = ORIENTED_EDGE('',*,*,#1533,.F.);
#1542 = ORIENTED_EDGE('',*,*,#1543,.F.);
#1543 = EDGE_CURVE('',#1534,#1534,#1544,.T.);
#1544 = CIRCLE('',#1545,1.1);
#1545 = AXIS2_PLACEMENT_3D('',#1546,#1547,#1548);
#1546 = CARTESIAN_POINT('',(10.5,-26.125,18.5739));
#1547 = DIRECTION('',(0.,0.,1.));
#1548 = DIRECTION('',(1.,0.,0.));
#1549 = CYLINDRICAL_SURFACE('',#1550,1.1);
#1550 = AXIS2_PLACEMENT_3D('',#1551,#1552,#1553);
#1551 = CARTESIAN_POINT('',(10.5,-26.125,18.5739));
#1552 = DIRECTION('',(-0.,-0.,-1.));
#1553 = DIRECTION('',(1.,0.,0.));
#1554 = ADVANCED_FACE('',(#1555),#1574,.F.);
#1555 = FACE_BOUND('',#1556,.T.);
#1556 = EDGE_LOOP('',(#1557,#1565,#1566,#1567));
#1557 = ORIENTED_EDGE('',*,*,#1558,.T.);
#1558 = EDGE_CURVE('',#1559,#1094,#1561,.T.);
#1559 = VERTEX_POINT('',#1560);
#1560 = CARTESIAN_POINT('',(-9.4,-11.125,18.5739));
#1561 = LINE('',#1562,#1563);
#1562 = CARTESIAN_POINT('',(-9.4,-11.125,18.5739));
#1563 = VECTOR('',#1564,1.);
#1564 = DIRECTION('',(0.,0.,1.));
#1565 = ORIENTED_EDGE('',*,*,#1093,.T.);
#1566 = ORIENTED_EDGE('',*,*,#1558,.F.);
#1567 = ORIENTED_EDGE('',*,*,#1568,.F.);
#1568 = EDGE_CURVE('',#1559,#1559,#1569,.T.);
#1569 = CIRCLE('',#1570,1.1);
#1570 = AXIS2_PLACEMENT_3D('',#1571,#1572,#1573);
#1571 = CARTESIAN_POINT('',(-10.5,-11.125,18.5739));
#1572 = DIRECTION('',(0.,0.,1.));
#1573 = DIRECTION('',(1.,0.,0.));
#1574 = CYLINDRICAL_SURFACE('',#1575,1.1);
#1575 = AXIS2_PLACEMENT_3D('',#1576,#1577,#1578);
#1576 = CARTESIAN_POINT('',(-10.5,-11.125,18.5739));
#1577 = DIRECTION('',(-0.,-0.,-1.));
#1578 = DIRECTION('',(1.,0.,0.));
#1579 = ADVANCED_FACE('',(#1580),#1599,.F.);
#1580 = FACE_BOUND('',#1581,.T.);
#1581 = EDGE_LOOP('',(#1582,#1590,#1591,#1592));
#1582 = ORIENTED_EDGE('',*,*,#1583,.T.);
#1583 = EDGE_CURVE('',#1584,#1112,#1586,.T.);
#1584 = VERTEX_POINT('',#1585);
#1585 = CARTESIAN_POINT('',(11.6,-11.125,18.5739));
#1586 = LINE('',#1587,#1588);
#1587 = CARTESIAN_POINT('',(11.6,-11.125,18.5739));
#1588 = VECTOR('',#1589,1.);
#1589 = DIRECTION('',(0.,0.,1.));
#1590 = ORIENTED_EDGE('',*,*,#1111,.T.);
#1591 = ORIENTED_EDGE('',*,*,#1583,.F.);
#1592 = ORIENTED_EDGE('',*,*,#1593,.F.);
#1593 = EDGE_CURVE('',#1584,#1584,#1594,.T.);
#1594 = CIRCLE('',#1595,1.1);
#1595 = AXIS2_PLACEMENT_3D('',#1596,#1597,#1598);
#1596 = CARTESIAN_POINT('',(10.5,-11.125,18.5739));
#1597 = DIRECTION('',(0.,0.,1.));
#1598 = DIRECTION('',(1.,0.,0.));
#1599 = CYLINDRICAL_SURFACE('',#1600,1.1);
#1600 = AXIS2_PLACEMENT_3D('',#1601,#1602,#1603);
#1601 = CARTESIAN_POINT('',(10.5,-11.125,18.5739));
#1602 = DIRECTION('',(-0.,-0.,-1.));
#1603 = DIRECTION('',(1.,0.,0.));
#1604 = ADVANCED_FACE('',(#1605),#1630,.T.);
#1605 = FACE_BOUND('',#1606,.T.);
#1606 = EDGE_LOOP('',(#1607,#1615,#1616,#1624));
#1607 = ORIENTED_EDGE('',*,*,#1608,.T.);
#1608 = EDGE_CURVE('',#1609,#1129,#1611,.T.);
#1609 = VERTEX_POINT('',#1610);
#1610 = CARTESIAN_POINT('',(-4.25,-21.3,18.5739));
#1611 = LINE('',#1612,#1613);
#1612 = CARTESIAN_POINT('',(-4.25,-21.3,18.5739));
#1613 = VECTOR('',#1614,1.);
#1614 = DIRECTION('',(0.,0.,1.));
#1615 = ORIENTED_EDGE('',*,*,#1128,.T.);
#1616 = ORIENTED_EDGE('',*,*,#1617,.F.);
#1617 = EDGE_CURVE('',#1618,#1131,#1620,.T.);
#1618 = VERTEX_POINT('',#1619);
#1619 = CARTESIAN_POINT('',(4.25,-21.3,18.5739));
#1620 = LINE('',#1621,#1622);
#1621 = CARTESIAN_POINT('',(4.25,-21.3,18.5739));
#1622 = VECTOR('',#1623,1.);
#1623 = DIRECTION('',(0.,0.,1.));
#1624 = ORIENTED_EDGE('',*,*,#1625,.F.);
#1625 = EDGE_CURVE('',#1609,#1618,#1626,.T.);
#1626 = LINE('',#1627,#1628);
#1627 = CARTESIAN_POINT('',(-4.25,-21.3,18.5739));
#1628 = VECTOR('',#1629,1.);
#1629 = DIRECTION('',(1.,0.,0.));
#1630 = PLANE('',#1631);
#1631 = AXIS2_PLACEMENT_3D('',#1632,#1633,#1634);
#1632 = CARTESIAN_POINT('',(-4.25,-21.3,18.5739));
#1633 = DIRECTION('',(0.,1.,0.));
#1634 = DIRECTION('',(1.,0.,0.));
#1635 = ADVANCED_FACE('',(#1636),#1654,.T.);
#1636 = FACE_BOUND('',#1637,.T.);
#1637 = EDGE_LOOP('',(#1638,#1646,#1647,#1648));
#1638 = ORIENTED_EDGE('',*,*,#1639,.T.);
#1639 = EDGE_CURVE('',#1640,#1158,#1642,.T.);
#1640 = VERTEX_POINT('',#1641);
#1641 = CARTESIAN_POINT('',(-4.25,-14.8,18.5739));
#1642 = LINE('',#1643,#1644);
#1643 = CARTESIAN_POINT('',(-4.25,-14.8,18.5739));
#1644 = VECTOR('',#1645,1.);
#1645 = DIRECTION('',(0.,0.,1.));
#1646 = ORIENTED_EDGE('',*,*,#1157,.T.);
#1647 = ORIENTED_EDGE('',*,*,#1608,.F.);
#1648 = ORIENTED_EDGE('',*,*,#1649,.F.);
#1649 = EDGE_CURVE('',#1640,#1609,#1650,.T.);
#1650 = LINE('',#1651,#1652);
#1651 = CARTESIAN_POINT('',(-4.25,-14.8,18.5739));
#1652 = VECTOR('',#1653,1.);
#1653 = DIRECTION('',(0.,-1.,0.));
#1654 = PLANE('',#1655);
#1655 = AXIS2_PLACEMENT_3D('',#1656,#1657,#1658);
#1656 = CARTESIAN_POINT('',(-4.25,-14.8,18.5739));
#1657 = DIRECTION('',(1.,0.,0.));
#1658 = DIRECTION('',(0.,-1.,0.));
#1659 = ADVANCED_FACE('',(#1660),#1678,.T.);
#1660 = FACE_BOUND('',#1661,.T.);
#1661 = EDGE_LOOP('',(#1662,#1670,#1671,#1672));
#1662 = ORIENTED_EDGE('',*,*,#1663,.T.);
#1663 = EDGE_CURVE('',#1664,#1181,#1666,.T.);
#1664 = VERTEX_POINT('',#1665);
#1665 = CARTESIAN_POINT('',(4.25,-14.8,18.5739));
#1666 = LINE('',#1667,#1668);
#1667 = CARTESIAN_POINT('',(4.25,-14.8,18.5739));
#1668 = VECTOR('',#1669,1.);
#1669 = DIRECTION('',(0.,0.,1.));
#1670 = ORIENTED_EDGE('',*,*,#1180,.T.);
#1671 = ORIENTED_EDGE('',*,*,#1639,.F.);
#1672 = ORIENTED_EDGE('',*,*,#1673,.F.);
#1673 = EDGE_CURVE('',#1664,#1640,#1674,.T.);
#1674 = LINE('',#1675,#1676);
#1675 = CARTESIAN_POINT('',(4.25,-14.8,18.5739));
#1676 = VECTOR('',#1677,1.);
#1677 = DIRECTION('',(-1.,0.,0.));
#1678 = PLANE('',#1679);
#1679 = AXIS2_PLACEMENT_3D('',#1680,#1681,#1682);
#1680 = CARTESIAN_POINT('',(4.25,-14.8,18.5739));
#1681 = DIRECTION('',(0.,-1.,0.));
#1682 = DIRECTION('',(-1.,0.,0.));
#1683 = ADVANCED_FACE('',(#1684),#1695,.T.);
#1684 = FACE_BOUND('',#1685,.T.);
#1685 = EDGE_LOOP('',(#1686,#1687,#1688,#1689));
#1686 = ORIENTED_EDGE('',*,*,#1617,.T.);
#1687 = ORIENTED_EDGE('',*,*,#1203,.T.);
#1688 = ORIENTED_EDGE('',*,*,#1663,.F.);
#1689 = ORIENTED_EDGE('',*,*,#1690,.F.);
#1690 = EDGE_CURVE('',#1618,#1664,#1691,.T.);
#1691 = LINE('',#1692,#1693);
#1692 = CARTESIAN_POINT('',(4.25,-21.3,18.5739));
#1693 = VECTOR('',#1694,1.);
#1694 = DIRECTION('',(0.,1.,0.));
#1695 = PLANE('',#1696);
#1696 = AXIS2_PLACEMENT_3D('',#1697,#1698,#1699);
#1697 = CARTESIAN_POINT('',(4.25,-21.3,18.5739));
#1698 = DIRECTION('',(-1.,0.,0.));
#1699 = DIRECTION('',(0.,1.,0.));
#1700 = ADVANCED_FACE('',(#1701,#1715,#1721,#1724,#1727,#1730),#1733,.F.
  );
#1701 = FACE_BOUND('',#1702,.F.);
#1702 = EDGE_LOOP('',(#1703,#1704,#1705,#1706,#1707,#1708,#1709,#1710,
    #1711,#1712,#1713,#1714));
#1703 = ORIENTED_EDGE('',*,*,#1237,.T.);
#1704 = ORIENTED_EDGE('',*,*,#1285,.T.);
#1705 = ORIENTED_EDGE('',*,*,#1333,.T.);
#1706 = ORIENTED_EDGE('',*,*,#1381,.T.);
#1707 = ORIENTED_EDGE('',*,*,#1429,.T.);
#1708 = ORIENTED_EDGE('',*,*,#1477,.T.);
#1709 = ORIENTED_EDGE('',*,*,#1494,.T.);
#1710 = ORIENTED_EDGE('',*,*,#1453,.T.);
#1711 = ORIENTED_EDGE('',*,*,#1405,.T.);
#1712 = ORIENTED_EDGE('',*,*,#1357,.T.);
#1713 = ORIENTED_EDGE('',*,*,#1309,.T.);
#1714 = ORIENTED_EDGE('',*,*,#1261,.T.);
#1715 = FACE_BOUND('',#1716,.T.);
#1716 = EDGE_LOOP('',(#1717,#1718,#1719,#1720));
#1717 = ORIENTED_EDGE('',*,*,#1649,.T.);
#1718 = ORIENTED_EDGE('',*,*,#1625,.T.);
#1719 = ORIENTED_EDGE('',*,*,#1690,.T.);
#1720 = ORIENTED_EDGE('',*,*,#1673,.T.);
#1721 = FACE_BOUND('',#1722,.T.);
#1722 = EDGE_LOOP('',(#1723));
#1723 = ORIENTED_EDGE('',*,*,#1518,.T.);
#1724 = FACE_BOUND('',#1725,.T.);
#1725 = EDGE_LOOP('',(#1726));
#1726 = ORIENTED_EDGE('',*,*,#1543,.T.);
#1727 = FACE_BOUND('',#1728,.T.);
#1728 = EDGE_LOOP('',(#1729));
#1729 = ORIENTED_EDGE('',*,*,#1593,.T.);
#1730 = FACE_BOUND('',#1731,.T.);
#1731 = EDGE_LOOP('',(#1732));
#1732 = ORIENTED_EDGE('',*,*,#1568,.T.);
#1733 = PLANE('',#1734);
#1734 = AXIS2_PLACEMENT_3D('',#1735,#1736,#1737);
#1735 = CARTESIAN_POINT('',(-5.8E-16,-18.50740064259,18.5739));
#1736 = DIRECTION('',(0.,0.,1.));
#1737 = DIRECTION('',(1.,0.,0.));
#1738 = ( GEOMETRIC_REPRESENTATION_CONTEXT(3) 
GLOBAL_UNCERTAINTY_ASSIGNED_CONTEXT((#1742)) 
GLOBAL_UNIT_ASSIGNED_CONTEXT((#1739,#1740,#1741)) REPRESENTATION_CONTEXT
('Context #1','3D Context with UNIT and UNCERTAINTY') );
#1739 = ( LENGTH_UNIT() NAMED_UNIT(*) SI_UNIT(.MILLI.,.METRE.) );
#1740 = ( NAMED_UNIT(*) PLANE_ANGLE_UNIT() SI_UNIT($,.RADIAN.) );
#1741 = ( NAMED_UNIT(*) SI_UNIT($,.STERADIAN.) SOLID_ANGLE_UNIT() );
#1742 = UNCERTAINTY_MEASURE_WITH_UNIT(LENGTH_MEASURE(2.E-06),#1739,
  'distance_accuracy_value','confusion accuracy');
#1743 = PRODUCT_RELATED_PRODUCT_CATEGORY('part',$,(#7));
#1744 = MECHANICAL_DESIGN_GEOMETRIC_PRESENTATION_REPRESENTATION('',(
    #1745),#1738);
#1745 = STYLED_ITEM('color',(#1746),#15);
#1746 = PRESENTATION_STYLE_ASSIGNMENT((#1747,#1753));
#1747 = SURFACE_STYLE_USAGE(.BOTH.,#1748);
#1748 = SURFACE_SIDE_STYLE('',(#1749));
#1749 = SURFACE_STYLE_FILL_AREA(#1750);
#1750 = FILL_AREA_STYLE('',(#1751));
#1751 = FILL_AREA_STYLE_COLOUR('',#1752);
#1752 = COLOUR_RGB('',0.447058818107,0.474509808674,0.501960817233);
#1753 = CURVE_STYLE('',#1754,POSITIVE_LENGTH_MEASURE(0.1),#1755);
#1754 = DRAUGHTING_PRE_DEFINED_CURVE_FONT('continuous');
#1755 = COLOUR_RGB('',9.803921802644E-02,9.803921802644E-02,
  9.803921802644E-02);
ENDSEC;
END-ISO-10303-21;
